<svg xmlns="http://www.w3.org/2000/svg" viewBox="0 0 295.07 53.92"><defs><style>.cls-1{fill:#fff;}</style></defs><title>susAsset 15</title><g id="Layer_2" data-name="Layer 2"><g id="Layer_1-2" data-name="Layer 1"><path class="cls-1" d="M122.7.84V5.77a2.92,2.92,0,0,1-1.57,2.87,3.92,3.92,0,0,1-1.8.44,3,3,0,0,1-3.26-2.94V.84h-1V.36h3.08V.84h-1v4.9a2.32,2.32,0,0,0,2.36,2.58A2.4,2.4,0,0,0,122,5.72V.84h-1V.36h2.6V.84Z"/><polygon class="cls-1" points="132.24 0.84 132.24 9.05 131.84 9.05 126.87 2.21 126.87 8.43 127.85 8.43 127.85 8.91 125.24 8.91 125.24 8.43 126.22 8.43 126.22 1.33 125.87 0.84 124.98 0.84 124.98 0.36 126.86 0.36 131.59 6.86 131.59 0.84 130.61 0.84 130.61 0.36 133.21 0.36 133.21 0.84 132.24 0.84"/><polygon class="cls-1" points="134.74 8.91 134.74 8.43 135.71 8.43 135.71 0.84 134.74 0.84 134.74 0.36 137.82 0.36 137.82 0.84 136.85 0.84 136.85 8.43 137.82 8.43 137.82 8.91 134.74 8.91"/><polygon class="cls-1" points="146.5 0.84 143.26 9.13 142.82 9.13 139.56 0.84 138.79 0.84 138.79 0.36 142 0.36 142 0.84 140.79 0.84 143.3 7.2 145.78 0.84 144.93 0.84 144.93 0.36 147.14 0.36 147.14 0.84 146.5 0.84"/><polygon class="cls-1" points="148.11 8.91 148.11 8.43 149.09 8.43 149.09 0.84 148.11 0.84 148.11 0.36 153.28 0.36 153.28 0 153.87 0 153.87 2.06 153.29 2.06 153.29 0.96 150.22 0.96 150.22 4.27 152.67 4.27 152.67 3.3 153.27 3.29 153.27 5.84 152.67 5.85 152.67 4.86 150.22 4.86 150.22 8.32 153.41 8.32 153.41 7.18 154 7.18 154 8.91 148.11 8.91"/><path class="cls-1" d="M159,1h-1.21V4.48H159a1.66,1.66,0,0,0,1.67-1.79A1.55,1.55,0,0,0,159,1Zm3.06,8c-.77,0-.91-.08-1.33-.77l-1.93-3.07h-1V8.43h1v.48h-3.08V8.43h1V.84h-1V.36h3.59c1.26,0,2,.35,2.36,1.15a2.63,2.63,0,0,1,.26,1.16,2.09,2.09,0,0,1-1.94,2.24l1.86,2.87c.31.48.52.64.84.64h.51v.49Z"/><path class="cls-1" d="M167,9.08a3.29,3.29,0,0,1-2-.59V9h-.61V6.69H165v1a2.71,2.71,0,0,0,1.71.66c1,0,1.73-.55,1.73-1.36s-.5-1.28-1.9-2c-1.63-.85-2.19-1.5-2.19-2.56A2.35,2.35,0,0,1,166.87.21a2.83,2.83,0,0,1,1.54.36V.1h.6V2.32h-.6V1.4a2.4,2.4,0,0,0-1.5-.57,1.31,1.31,0,0,0-1.45,1.33c0,.66.38,1,2,2s2.08,1.5,2.08,2.56A2.44,2.44,0,0,1,167,9.08Z"/><polygon class="cls-1" points="171.38 8.91 171.38 8.43 172.35 8.43 172.35 0.84 171.38 0.84 171.38 0.36 174.46 0.36 174.46 0.84 173.49 0.84 173.49 8.43 174.46 8.43 174.46 8.91 171.38 8.91"/><path class="cls-1" d="M179.88,1h-1.57V8.26h1.55A3.33,3.33,0,0,0,183,4.63,3.38,3.38,0,0,0,179.88,1ZM180,8.91h-3.81V8.43h1V.84h-1V.36H180a4.27,4.27,0,0,1,4.24,4.26A4.23,4.23,0,0,1,180,8.91Z"/><path class="cls-1" d="M189.06,1.84,187.6,5.48h2.85Zm1.48,7.07V8.43h1l-.9-2.33-3.32,0-.94,2.34h1.07v.49H185V8.42h.67L189.05.09h.47l3.23,8.33h.74v.49Z"/><path class="cls-1" d="M198.17,1h-1.58V8.26h1.55a3.33,3.33,0,0,0,3.11-3.63A3.38,3.38,0,0,0,198.17,1Zm.11,7.89h-3.8V8.43h1V.84h-1V.36h3.81a4.26,4.26,0,0,1,4.24,4.26A4.23,4.23,0,0,1,198.28,8.91Z"/><polygon class="cls-1" points="204.06 8.91 204.06 8.43 205.03 8.43 205.03 0.84 204.06 0.84 204.06 0.36 209.22 0.36 209.22 0 209.82 0 209.82 2.06 209.23 2.06 209.23 0.96 206.17 0.96 206.17 4.27 208.61 4.27 208.61 3.3 209.21 3.29 209.21 5.84 208.61 5.85 208.61 4.86 206.17 4.86 206.17 8.32 209.35 8.32 209.35 7.18 209.95 7.18 209.95 8.91 204.06 8.91"/><path class="cls-1" d="M18.41,21,11.76,37.57H24.7Zm6.71,32.12V51h4.7L25.7,40.4l-15-.06L6.35,50.92h4.88v2.24H0V50.92H3.06L18.35,13.1h2.12l14.7,37.82h3.36v2.24Z"/><path class="cls-1" d="M52.76,53.92a31.07,31.07,0,0,1-8.23-1.23v-39H39.41V12.1l8.47-2.29h1.06V50.45a9.83,9.83,0,0,0,4.23,1c5.77,0,9.82-5,9.82-12.05C63,33,60.11,29,55.41,29h-4.3V27a17.42,17.42,0,0,1,6-1.23c6.41,0,10.94,5.47,10.94,13.17C68.05,48,62,53.92,52.76,53.92Z"/><polygon class="cls-1" points="71.58 53.16 71.58 50.98 75.99 50.98 75.99 16.52 71.58 16.52 71.58 14.34 95.05 14.34 95.05 12.69 97.76 12.69 97.76 22.04 95.11 22.04 95.11 17.04 81.17 17.04 81.17 32.1 92.29 32.1 92.29 27.69 94.99 27.63 94.99 39.22 92.29 39.28 92.29 34.75 81.17 34.75 81.17 50.51 95.64 50.51 95.64 45.34 98.34 45.34 98.34 53.16 71.58 53.16"/><path class="cls-1" d="M120.87,17h-5.53V33H121c4.47,0,7.59-3.29,7.59-8.11C128.58,19.87,125.81,17,120.87,17Zm13.88,36.12c-3.47,0-4.11-.35-6.06-3.47l-8.76-13.94h-4.59V51h4.41v2.18h-14V51h4.41V16.51h-4.41V14.34h16.35c5.7,0,8.94,1.59,10.7,5.23A12,12,0,0,1,134,24.81c0,5.7-3.18,9.35-8.82,10.17L133.64,48c1.41,2.18,2.35,2.88,3.82,2.88h2.29v2.24Z"/><polygon class="cls-1" points="171.11 21.98 171.11 17.28 159.35 17.28 159.35 50.98 165.23 50.98 165.23 53.16 148.29 53.16 148.29 50.98 154.17 50.98 154.17 17.28 142.41 17.28 142.41 21.98 139.58 21.98 139.58 12.69 142.41 12.69 142.41 14.34 171.11 14.34 171.11 12.69 173.93 12.69 173.93 21.98 171.11 21.98"/><path class="cls-1" d="M190.05,21,183.4,37.57h12.94Zm6.7,32.12V51h4.71L197.34,40.4l-15.05-.06L178,50.92h4.88v2.24H171.64V50.92h3.06L190,13.1h2.12l14.7,37.82h3.36v2.24Z"/><rect class="cls-1" x="231.17" y="12.04" width="54.28" height="30.7"/><path class="cls-1" d="M230.81,52.34V43.09h-9.16V12h9.85V42.36h53.71V12h9.86V43H285.9v9.31Zm.7-.71H285.2V43.06H231.51v8.57Zm-9.16-9.25h8.45V12.73h-8.45V42.38Zm63.56-.06h8.46V12.74h-8.46V42.32Z"/></g></g></svg>