<svg xmlns="http://www.w3.org/2000/svg" viewBox="0 0 208.88 46.83"><defs><style>.cls-1{fill:#fff;}</style></defs><title>susAsset 5</title><g id="Layer_2" data-name="Layer 2"><g id="Layer_1-2" data-name="Layer 1"><path class="cls-1" d="M159.21,0c0,1.35,0,2.7,0,4.05q0,20.79,0,41.57c0,.92-.19,1.23-1.17,1.2-3.25-.06-6.51-.07-9.77,0-1,0-1.16-.32-1.15-1.21,0-7.62,0-15.24,0-23a3.27,3.27,0,0,0-.57,1.59Q143.82,35,141.13,45.76c-.2.82-.51,1.08-1.37,1.06-3.22-.06-6.44,0-9.66,0-.68,0-.93-.18-1.1-.86-1.9-7.54-3.84-15.07-5.77-22.61a2,2,0,0,0-.4-.87v1c0,7.41,0,14.82,0,22.24,0,.86-.2,1.09-1.07,1.07-3.25,0-6.51-.06-9.77,0-.91,0-1-.27-1-1.1Q111,22.86,111,0h13.3a6.46,6.46,0,0,1,4.53,5.09c1.26,5.27,2.67,10.5,4,15.74.68,2.64,1.37,5.26,2.11,8.08.15-.5.24-.8.32-1.1C137.2,20.4,139.19,13,141,5.56c.66-2.74,1.92-4.73,4.7-5.56Z"/><path class="cls-1" d="M75.44,0c1.19.28,2.39.51,3.57.84a12.21,12.21,0,0,1,7.2,17.87A9.23,9.23,0,0,1,84.3,21c-.3.28-.49.48,0,.77,6.81,4.14,5.9,16.27.62,20.82a16.91,16.91,0,0,1-8.31,3.73,28.09,28.09,0,0,1-4.85.4c-6.82,0-13.65,0-20.47,0-.82,0-1-.21-1-1q0-19.74,0-39.48a5.91,5.91,0,0,1,4.31-6c.14-.05.27-.07.3-.23ZM68,27.4c-2,0-3.65,0-5.31,0-.57,0-.78.13-.77.74,0,2.32,0,4.64,0,7,0,.72.25.85.9.85,2.6,0,5.19,0,7.79,0a13.26,13.26,0,0,0,3.49-.39c2-.56,2.87-1.83,2.8-4s-1-3.42-3.11-3.86A37.49,37.49,0,0,0,68,27.4Zm-.3-10.47a27.49,27.49,0,0,0,5.53-.28c1.8-.42,2.42-1.29,2.34-3.21-.07-1.67-.75-2.45-2.57-2.66-3.52-.41-7-.08-10.58-.19-.56,0-.49.35-.49.69,0,1.63,0,3.25,0,4.88,0,.68.25.8.84.78C64.25,16.91,65.78,16.93,67.67,16.93Z"/><path class="cls-1" d="M208.88,26.4a10,10,0,0,0-.58,3,20.52,20.52,0,0,1-18.8,17.21,29.29,29.29,0,0,1-12-1A19.1,19.1,0,0,1,164.45,32.3a29.21,29.21,0,0,1,.18-18.07c2.68-8,8.56-12.35,16.73-13.82a5.1,5.1,0,0,0,2-.41h5c.17.33.49.18.74.21,10.21,1,17.31,7.51,19.27,17.6a16.32,16.32,0,0,0,.57,3.18ZM175.2,23.89a20.34,20.34,0,0,0,.23,2.94c.62,5.58,3.85,9.08,9.12,9.64,5.76.62,10-2,11.63-7.78a20.88,20.88,0,0,0,.42-8.33c-.75-5.77-3.89-9.24-9.22-9.85-5.69-.65-9.93,1.77-11.52,7.57A22.59,22.59,0,0,0,175.2,23.89Z"/><path class="cls-1" d="M29.1,0c-.16.37.08.66.2,1Q37.36,23.18,45.43,45.4c.08.23.16.46.25.68.2.5,0,.66-.49.66-3.75,0-7.49,0-11.23,0-.63,0-.73-.36-.88-.79-.85-2.49-1.72-5-2.55-7.45a1,1,0,0,0-1.1-.79q-6.64,0-13.3,0a.88.88,0,0,0-1,.75c-.73,2.49-1.54,5-2.28,7.44a1,1,0,0,1-1.15.84q-5.46-.06-10.91,0c-.81,0-.92-.19-.65-.93Q7.57,24.93,15,4a6.35,6.35,0,0,1,4.36-4ZM22.94,15.37l-.21,0Q20.86,21,19,26.61c-.17.53-.09.74.52.74,2.25,0,4.5,0,6.74,0,.51,0,.57-.15.41-.6-.32-.87-.57-1.77-.86-2.65Q24.37,19.73,22.94,15.37Z"/><path class="cls-1" d="M105.58,0c0,.35,0,.69,0,1q0,19.74,0,39.49a5.94,5.94,0,0,1-6.2,6.2c-1.6,0-3.19,0-4.78,0-.65,0-.89-.21-.81-.83a4.51,4.51,0,0,0,0-.52V6.74c0-3.48,1.28-5.32,4.58-6.58,0,0,.07-.11.11-.16Z"/></g></g></svg>