<svg xmlns="http://www.w3.org/2000/svg" viewBox="0 0 219.12 76.16"><defs><style>.cls-1{fill:#fff;}</style></defs><title>susAsset 8</title><g id="Layer_2" data-name="Layer 2"><g id="Layer_1-2" data-name="Layer 1"><g id="g14"><g id="g20"><path id="path22" class="cls-1" d="M44,48.82h0c0,5.36-9.16,12.45-17.1,16.53C18.82,61.22,9.77,54.23,9.77,48.82v-39H44ZM0,0H0V48.82C0,65,26.86,76.16,26.86,76.16S53.78,65,53.78,48.82V0Z"/></g><g id="g24"><path id="path26" class="cls-1" d="M192.77,54.53h0V44.89h-2.7V43.67l2.75-.61V37.7l3.05-.21v5.67h4.68v1.73h-4.68v9.23c0,1.84.61,2.61,2,2.61,1,0,1.58-.72,2.29-1.79l1,.77c-1.22,2.24-2.34,3-4.47,3-2.65,0-3.92-1.69-3.92-4.19"/></g><g id="g28"><path id="path30" class="cls-1" d="M82.62,20.56h0l-2.75-8h-.25l-3.05,8Zm.66,1.94H75.8l-1.06,2.9c-.87,2.2-1.22,2.91,1.68,3.47V30.4H69V28.87c2.29-.56,2.74-1.58,3.71-4.08L79.31,8.11h2.4l6.46,18.06c.66,1.89,1.27,2.35,3.76,2.7V30.4H82V28.87c2.9-.2,3.21-.91,2.7-2.5Z"/></g><g id="g32"><path id="path34" class="cls-1" d="M93.87,26.48h0V16.83H91.22V15.61L94,15.05V9.64l3-.15V15.1h4.68v1.73H97v9.29c0,1.84.56,2.55,2,2.55.92,0,1.53-.71,2.29-1.79l1,.82c-1.27,2.19-2.34,3-4.48,3-2.69,0-4-1.68-4-4.18"/></g><g id="g36"><path id="path38" class="cls-1" d="M103.28,28.77h0c1.93,0,2.44-.36,2.44-1.17V10.46c0-1-.61-1.64-2.54-1.64V7.19l5.69-.1V17.24c1.78-1.22,3.62-2.4,5.85-2.4s3.87,1.69,3.87,4.7V27.6c0,.81.51,1.17,2.44,1.17V30.4h-7.68V28.77c1.63,0,2.14-.36,2.14-1.17V20.71c0-2.65-1-3.42-2.9-3.42a7.48,7.48,0,0,0-3.72,1.18V27.6c0,.81.41,1.17,2.09,1.17V30.4h-7.68Z"/></g><g id="g40"><path id="path42" class="cls-1" d="M131.92,26.42h0V22.65c-4.68,1.07-5.55,1.73-5.55,3.67a2,2,0,0,0,2.29,2.15,4.13,4.13,0,0,0,3.26-2m-9.06.67h0a4,4,0,0,1,2-3.47c2.54-1.43,6.51-2,7-2.4V20.3c0-2.8-.76-3.87-2.95-3.87a3.29,3.29,0,0,0-2.19.66,3.81,3.81,0,0,1,.36,1.58,1.77,1.77,0,0,1-1.78,1.89,1.87,1.87,0,0,1-1.94-1.89c0-2.3,2.85-3.83,6-3.83,3.51,0,5.64,1.59,5.64,4.8v7.09c0,1.63.11,2.14,2.35,1.89l.1,1.27a8,8,0,0,1-2.75.62c-1.78,0-2.39-.62-2.54-2.55h-.31c-1.32,1.47-2.85,2.65-4.83,2.65-2.8,0-4.23-1.58-4.23-3.52"/></g><g id="g44"><path id="path46" class="cls-1" d="M150.29,22.39h0c0-3.26-1.63-5.51-4-5.51a5.19,5.19,0,0,0-3.67,1.43v8.37A4,4,0,0,0,146.37,29c2.75,0,3.92-2.4,3.92-6.64m-10.84,5.46h0V10.46c0-1-.61-1.58-2.54-1.63V7.19l5.69-.1v9.69a6.73,6.73,0,0,1,4.74-2c4.07,0,6.41,3.17,6.41,7.5,0,4.49-2.85,8.42-7.28,8.42a7.68,7.68,0,0,1-4.78-1.74l-1.07,1.94h-1.27Z"/></g><g id="g48"><path id="path50" class="cls-1" d="M164.63,26.42h0V22.65c-4.63,1.07-5.49,1.73-5.49,3.67a2,2,0,0,0,2.29,2.15,4.12,4.12,0,0,0,3.2-2m-9,.67h0a3.84,3.84,0,0,1,2-3.47c2.55-1.43,6.52-2,7-2.4V20.3c0-2.8-.76-3.87-2.9-3.87a3.39,3.39,0,0,0-2.23.66,3.25,3.25,0,0,1,.35,1.58,1.74,1.74,0,0,1-1.78,1.89,1.89,1.89,0,0,1-1.93-1.89c0-2.3,2.85-3.83,6.05-3.83,3.46,0,5.6,1.59,5.6,4.8v7.09c0,1.63.15,2.14,2.34,1.89l.15,1.27a8.16,8.16,0,0,1-2.8.62c-1.78,0-2.34-.62-2.54-2.55h-.31c-1.32,1.47-2.85,2.65-4.83,2.65-2.8,0-4.17-1.58-4.17-3.52"/></g><g id="g52"><path id="path54" class="cls-1" d="M171.91,25.56h1.37c1.58,2.4,3,3.52,4.94,3.52a2.07,2.07,0,0,0,2.34-2c0-1.43-1-2.25-3.77-3-3.41-.87-4.73-2.35-4.73-4.44,0-2.91,2.19-4.9,5.5-4.9a5.37,5.37,0,0,1,2.95,1l.61-1h1.17v4.59h-1.38c-1.17-1.94-2.13-3-3.76-3s-2.49.87-2.49,2c0,1.33,1.17,2,3.66,2.66,3.31.92,4.68,2.19,4.68,4.49,0,2.8-1.68,5.15-5.29,5.15A6.1,6.1,0,0,1,174,29.43l-.91,1.23h-1.17Z"/></g><g id="g56"><path id="path58" class="cls-1" d="M184.83,22.85h0c0-4.64,3.41-8.11,7.58-8.11,3.41,0,5.6,1.84,5.6,3.88a2.26,2.26,0,0,1-2,2.45A1.8,1.8,0,0,1,194,19.33a2.16,2.16,0,0,1,1.07-1.83,3.41,3.41,0,0,0-2.65-1.07c-2.49,0-4.22,1.42-4.22,5.71,0,4,1.63,6.48,4.88,6.48a5.88,5.88,0,0,0,4.43-2.4l.92.92a7.11,7.11,0,0,1-6.41,3.52c-4.38,0-7.23-3.37-7.23-7.81"/></g><g id="g60"><path id="path62" class="cls-1" d="M209.25,26.42h0V22.65c-4.68,1.07-5.54,1.73-5.54,3.67A2,2,0,0,0,206,28.47a4.29,4.29,0,0,0,3.25-2m-9.05.67h0a3.94,3.94,0,0,1,2-3.47c2.54-1.43,6.51-2,7-2.4V20.3c0-2.8-.76-3.87-2.95-3.87a3.2,3.2,0,0,0-2.19.66,3.69,3.69,0,0,1,.31,1.58,1.73,1.73,0,0,1-1.73,1.89,1.86,1.86,0,0,1-1.93-1.89c0-2.3,2.79-3.83,6-3.83,3.46,0,5.59,1.59,5.59,4.8v7.09c0,1.63.16,2.14,2.35,1.89l.15,1.27a8.16,8.16,0,0,1-2.75.62c-1.78,0-2.39-.62-2.54-2.55h-.31c-1.32,1.47-2.9,2.65-4.83,2.65-2.8,0-4.22-1.58-4.22-3.52"/></g><g id="g64"><path id="path66" class="cls-1" d="M72.8,51.78h0V39.48c0-1-.76-1.32-3.56-1.42V36.42H79.52v1.64c-3,.1-3.31.3-3.31,1.42V50.91c0,4.24,2.14,5.87,6.21,5.87a5.43,5.43,0,0,0,4.07-1.58c1.12-1.13,1.42-2.61,1.42-5.11V41.68c0-3.06-.61-3.27-3.76-3.73V36.42h8.9V38c-3,.51-3.15.67-3.15,3.73v10.1c0,3.67-3.05,7.19-8.5,7.19-5.6,0-8.6-3-8.6-7.19"/></g><g id="g68"><path id="path70" class="cls-1" d="M93.71,56.83h0c1.94,0,2.44-.36,2.44-1.17V46.37c0-1-.5-1.58-2.44-1.63V43.16l5.5-.16v2.3c1.78-1.22,3.66-2.4,5.9-2.4S109,44.53,109,47.54v8.12c0,.81.45,1.12,2.44,1.17v1.58h-7.73V56.83c1.73,0,2.13-.36,2.13-1.17V48.77c0-2.71-1-3.47-2.85-3.47a7.32,7.32,0,0,0-3.71,1.22v9.14c0,.81.41,1.12,2.08,1.17v1.58H93.71Z"/></g><g id="g72"><path id="path74" class="cls-1" d="M115,37.39h0a2.06,2.06,0,0,1,2.08-2.19,2,2,0,0,1,2.09,2.09,2,2,0,0,1-2.09,2.14,1.93,1.93,0,0,1-2.08-2m-1.83,19.44h0c1.93,0,2.44-.36,2.44-1.17V46.37c0-1-.51-1.58-2.44-1.63V43.16l5.54-.16V55.66c0,.81.46,1.12,2.44,1.17v1.58h-8Z"/></g><g id="g76"><path id="path78" class="cls-1" d="M124.19,46.68h0a2.71,2.71,0,0,0-2.6-2.09V43.05h7.63v1.54c-1.57.2-2.08.4-2.08.91a2.39,2.39,0,0,0,.2.67l3.16,8.47h.4l2.8-7.25A4.37,4.37,0,0,0,134,46c0-.71-.51-1.12-1.78-1.42V43.05h6.05v1.54a3.41,3.41,0,0,0-2.54,2.34L130.9,58.61h-2Z"/></g><g id="g80"><path id="path82" class="cls-1" d="M142.35,49.23h0l6.92-.16c0-2.75-.92-4.84-3.26-4.84-1.83,0-3.36,1.17-3.66,5m-3.41,1.68h0c0-4.59,3-8.11,7.33-8.11,4.88,0,6.56,3.93,6.31,7.75l-10.23,0v.1c0,3.37,1.63,6.08,4.88,6.08,1.89,0,3.36-1.08,4.68-2.76l.92.92a7.22,7.22,0,0,1-6.56,3.88c-4.68,0-7.33-3.42-7.33-7.81"/></g><g id="g84"><path id="path86" class="cls-1" d="M154.36,56.83h0c2,0,2.44-.36,2.44-1.17V46.37c0-1-.46-1.58-2.44-1.63V43.16L159.9,43v2.61c1.17-1.48,2.55-2.71,4.28-2.71a2.42,2.42,0,0,1,2.54,2.6,1.93,1.93,0,0,1-1.83,2A1.73,1.73,0,0,1,163,45.71c0-.16.06-.36.06-.56A3.76,3.76,0,0,0,160,46.93v8.73c0,.81.61,1.12,2.8,1.17v1.58h-8.39Z"/></g><g id="g88"><path id="path90" class="cls-1" d="M167.84,53.56h1.42c1.53,2.45,3,3.57,4.89,3.57a2.11,2.11,0,0,0,2.39-2c0-1.43-1-2.3-3.82-3-3.35-.92-4.68-2.35-4.68-4.44,0-2.91,2.14-4.9,5.45-4.9a5.55,5.55,0,0,1,3,1l.56-1h1.22v4.59h-1.38c-1.17-2-2.13-3-3.81-3s-2.44.82-2.44,2c0,1.33,1.12,2,3.61,2.7,3.36.87,4.68,2.2,4.68,4.49,0,2.81-1.63,5.16-5.24,5.16A6,6,0,0,1,170,57.49l-.92,1.23h-1.22Z"/></g><g id="g92"><path id="path94" class="cls-1" d="M183.3,37.39h0a2.07,2.07,0,0,1,2.09-2.19,2,2,0,0,1,2,2.09,2,2,0,0,1-2,2.14,1.94,1.94,0,0,1-2.09-2m-1.83,19.44h0c1.94,0,2.39-.36,2.39-1.17V46.37c0-1-.45-1.58-2.39-1.63V43.16L187,43V55.66c0,.81.41,1.12,2.39,1.17v1.58h-7.94Z"/></g><g id="g96"><path id="path98" class="cls-1" d="M204.83,46.73h0c-.67-1.43-1.07-1.89-2.6-2.14V43.06h7.63v1.53c-2,.2-2.34.66-1.88,1.73l3.41,8.21,2.85-6.83c.76-1.84.35-2.76-1.38-3.11V43.06h6.26v1.53a3.44,3.44,0,0,0-2.85,2.55L211,59.84c-1.88,4.33-3.41,5.46-5.49,5.46a2.67,2.67,0,0,1-2.85-2.55,2,2,0,0,1,1.93-2,1.93,1.93,0,0,1,1.88,2,2.69,2.69,0,0,1-.1.71c1.07-.1,2-1.68,3.41-4.85l.1-.25Z"/></g></g></g></g></svg>