<svg xmlns="http://www.w3.org/2000/svg" xmlns:xlink="http://www.w3.org/1999/xlink" viewBox="0 0 106.45 90.26"><defs><style>.cls-1{fill:none;}.cls-2,.cls-4{fill:#fff;}.cls-3{clip-path:url(#clip-path);}.cls-4{fill-rule:evenodd;}</style><clipPath id="clip-path" transform="translate(0.02)"><rect class="cls-1" width="106.43" height="90.23"/></clipPath></defs><title>susAsset 13</title><g id="Layer_2" data-name="Layer 2"><g id="Layer_1-2" data-name="Layer 1"><path class="cls-2" d="M.14,66.07l.75.06.83.13.85-.13.7-.06v.24a.75.75,0,0,0-.71.38,5,5,0,0,0-.19,1.82v.3a16.71,16.71,0,0,0,.08,1.9,3,3,0,0,0,.25,1,1.71,1.71,0,0,0,.69.74,2,2,0,0,0,1,.25,1.83,1.83,0,0,0,1.66-.76,5.28,5.28,0,0,0,.49-2.69V68.16a3.43,3.43,0,0,0-.2-1.48,1,1,0,0,0-.8-.37v-.24c.19,0,.39,0,.6.05l.68.11.6-.1a6,6,0,0,1,.61-.06v.24a.83.83,0,0,0-.72.31A3.24,3.24,0,0,0,7.17,68v1.4a4.58,4.58,0,0,1-.74,2.93,2.94,2.94,0,0,1-2.38.89A3.78,3.78,0,0,1,2.51,73a2.22,2.22,0,0,1-1-.83,3.11,3.11,0,0,1-.37-1,8.49,8.49,0,0,1-.11-1.51V68.12a3.38,3.38,0,0,0-.19-1.48.86.86,0,0,0-.72-.33v-.24" transform="translate(0.02)"/><path class="cls-2" d="M10.52,69.81V68.53a4.64,4.64,0,0,0-.21-1.84,1,1,0,0,0-.84-.38v-.24a5.63,5.63,0,0,1,.63.06l.54.07.41-.1.21,0c.17,0,.48.27.91.79l.1.13q.86,1,1.8,2.1c.63.72,1.29,1.44,2,2.17V68.6a5.12,5.12,0,0,0-.2-1.87.8.8,0,0,0-.76-.42v-.24a3.74,3.74,0,0,1,.55.05l.7.12.73-.12a4.62,4.62,0,0,1,.48-.05v.24h0c-.35,0-.58.2-.7.61a13.65,13.65,0,0,0-.19,3V72c0,.2,0,.4,0,.6s0,.41,0,.62a2.33,2.33,0,0,0-.36-.08,2.19,2.19,0,0,0-.36,0c-.86-1-1.69-2-2.49-3s-1.58-1.79-2.32-2.59v1.8c0,.9,0,1.58,0,2a4.05,4.05,0,0,0,.14,1,.62.62,0,0,0,.3.34,1.39,1.39,0,0,0,.59.14v.24c-.21,0-.44,0-.66,0S11,73,10.81,73l-.72.12a3.74,3.74,0,0,1-.54,0v-.24a.77.77,0,0,0,.78-.44,7.92,7.92,0,0,0,.2-2.4v-.24" transform="translate(0.02)"/><path class="cls-2" d="M19.08,66.07l.75.06.88.13.87-.13.75-.06v.23a.89.89,0,0,0-.77.36,3.56,3.56,0,0,0-.2,1.52V71a3.62,3.62,0,0,0,.21,1.57.89.89,0,0,0,.76.37v.24l-.75-.06-.87-.13-.95.14c-.26,0-.48,0-.68,0v-.24a.87.87,0,0,0,.76-.36A3.56,3.56,0,0,0,20,71V68.25a3.82,3.82,0,0,0-.2-1.57.91.91,0,0,0-.76-.38v-.23" transform="translate(0.02)"/><path class="cls-2" d="M23.65,66.07l.73.06.82.13.82-.13.67-.06v.24a.84.84,0,0,0-.43.13.34.34,0,0,0-.12.29,6.36,6.36,0,0,0,.47,1.54c.32.82.76,1.88,1.33,3.17.49-1.24.87-2.27,1.14-3.08a6.52,6.52,0,0,0,.4-1.56.41.41,0,0,0-.13-.34.82.82,0,0,0-.45-.15v-.24a3.87,3.87,0,0,1,.56.05c.21,0,.43.06.65.11s.44-.08.64-.11a4,4,0,0,1,.58-.05v.24a1.14,1.14,0,0,0-.63.22,2.11,2.11,0,0,0-.49.67c-.19.38-.5,1.12-.94,2.22s-.92,2.36-1.46,3.77h-.53q-.8-2-1.47-3.54c-.46-1.05-.83-1.86-1.12-2.43a2.29,2.29,0,0,0-.47-.69,1.12,1.12,0,0,0-.57-.22v-.24" transform="translate(0.02)"/><path class="cls-2" d="M32.53,66.07a6.37,6.37,0,0,1,.74.07c.24,0,.49.08.75.13a9.34,9.34,0,0,1,1.2-.15c.45,0,1-.05,1.49-.05h.35a1.57,1.57,0,0,1,.54.05.18.18,0,0,1,.11.19.45.45,0,0,1,0,.13,1.11,1.11,0,0,1-.12.18c0,.22.06.4.08.53s0,.24,0,.34v.18h-.3a1.09,1.09,0,0,0-.34-.85,2,2,0,0,0-1.14-.23h-1c0,.26,0,.51,0,.77s0,.52,0,.78v1.11h1a2.09,2.09,0,0,0,.93-.14.67.67,0,0,0,.29-.53h.3a3.05,3.05,0,0,1,0,.41c0,.15-.06.31-.11.48s.08.36.1.51a2.18,2.18,0,0,1,0,.42H37a.67.67,0,0,0-.26-.54,2.28,2.28,0,0,0-1-.14h-.92v1.48c0,.67.08,1.07.22,1.2a1.76,1.76,0,0,0,1,.19,2.42,2.42,0,0,0,1.38-.32,1.43,1.43,0,0,0,.57-1h.32a4.25,4.25,0,0,1-.11.71,2.25,2.25,0,0,1-.21.55.79.79,0,0,1,.08.16.78.78,0,0,1,0,.14.28.28,0,0,1-.2.27,4.63,4.63,0,0,1-1,.06h-.45c-.55,0-1,0-1.41,0a6.92,6.92,0,0,1-1-.16l-.82.15a6,6,0,0,1-.69.06v-.24a.89.89,0,0,0,.76-.36,4.23,4.23,0,0,0,.2-1.73V68.48c0-.15,0-.22,0-.23a3.68,3.68,0,0,0-.2-1.57.88.88,0,0,0-.75-.37v-.24" transform="translate(0.02)"/><path class="cls-2" d="M44.35,69.59a13.25,13.25,0,0,0,1.56,2.6,1.73,1.73,0,0,0,1.28.7h.07v.24a2.51,2.51,0,0,1-.32,0h-.25a4.08,4.08,0,0,1-1.1-.12,1.84,1.84,0,0,1-.74-.4,5.13,5.13,0,0,1-1.08-1.61c-.15-.29-.25-.5-.33-.63a1,1,0,0,0-.95-.43h-.34v1a3.89,3.89,0,0,0,.2,1.6.87.87,0,0,0,.76.36v.24a7.06,7.06,0,0,1-.75-.06c-.26,0-.55-.07-.86-.13l-.93.14c-.25,0-.48,0-.69,0v-.24a.89.89,0,0,0,.76-.35,3.56,3.56,0,0,0,.2-1.52V68.27a3.76,3.76,0,0,0-.21-1.61.93.93,0,0,0-.8-.36v-.23a5.81,5.81,0,0,1,.72.05l.76.12a7,7,0,0,1,.9-.15c.3,0,.61,0,.92,0a3.28,3.28,0,0,1,1.92.46,1.55,1.55,0,0,1,.66,1.36,1.68,1.68,0,0,1-.36,1.06,2.08,2.08,0,0,1-1,.66m-2.2,0,.38,0h.29a1.39,1.39,0,0,0,1.06-.4,1.57,1.57,0,0,0,.38-1.11,1.81,1.81,0,0,0-.42-1.28,1.55,1.55,0,0,0-1.19-.45l-.42,0h-.06v.06c0,.65,0,1.13,0,1.44Z" transform="translate(0.02)"/><path class="cls-2" d="M48.67,73.06a3.89,3.89,0,0,1,.1-.4,2.29,2.29,0,0,1,.12-.37q-.06-.35-.09-.63a4.81,4.81,0,0,1,0-.52s0-.07,0-.13v-.12h.34a2.28,2.28,0,0,0,.55,1.47,1.7,1.7,0,0,0,1.32.53,1.46,1.46,0,0,0,1-.34,1.12,1.12,0,0,0,.39-.9,1.17,1.17,0,0,0-.31-.83,4.13,4.13,0,0,0-1.28-.73,4.65,4.65,0,0,1-1.57-1A1.64,1.64,0,0,1,48.81,68a1.8,1.8,0,0,1,.66-1.45A2.57,2.57,0,0,1,51.22,66a4.75,4.75,0,0,1,.86.09,5.23,5.23,0,0,0,.58.09.29.29,0,0,0,.16,0,.16.16,0,0,0,.08-.1l.32,0-.09.32-.12.31a3.87,3.87,0,0,1,.06.46c0,.15,0,.3,0,.44a1,1,0,0,1,0,.15v.14h-.33a1.66,1.66,0,0,0-.45-1.12,1.39,1.39,0,0,0-1.06-.41,1.38,1.38,0,0,0-1,.31,1.06,1.06,0,0,0-.35.82c0,.56.59,1.08,1.75,1.58l.05,0a4,4,0,0,1,1.45.93,1.68,1.68,0,0,1,.42,1.17,1.85,1.85,0,0,1-.73,1.51,2.88,2.88,0,0,1-1.9.59,3.68,3.68,0,0,1-1.11-.18,5.12,5.12,0,0,0-.65-.18.25.25,0,0,0-.16.05.28.28,0,0,0-.1.15l-.29,0" transform="translate(0.02)"/><path class="cls-2" d="M55.47,66.07l.75.06.88.13.87-.13.75-.06v.23a.86.86,0,0,0-.76.36,3.56,3.56,0,0,0-.2,1.52V71a3.85,3.85,0,0,0,.2,1.57.9.9,0,0,0,.76.37v.24L58,73.07l-.87-.13-1,.14c-.25,0-.48,0-.68,0v-.24a.89.89,0,0,0,.77-.36A3.61,3.61,0,0,0,56.43,71V68.25a3.87,3.87,0,0,0-.19-1.57.93.93,0,0,0-.77-.38v-.23" transform="translate(0.02)"/><path class="cls-2" d="M62,72.94l-.85.13-.75.06v-.24a.89.89,0,0,0,.76-.35,3.58,3.58,0,0,0,.2-1.53V68.18a3.56,3.56,0,0,0-.2-1.52.87.87,0,0,0-.76-.36v-.23a6.68,6.68,0,0,1,.74.06c.26,0,.55.07.86.13s.71-.13,1-.17.65,0,1,0a4.66,4.66,0,0,1,3.11,1,3.6,3.6,0,0,1,0,5.23,4.58,4.58,0,0,1-3.08,1c-.29,0-.58,0-.88,0s-.69-.1-1.15-.2m.69-2.64c0,.85,0,1.39,0,1.64a1.86,1.86,0,0,0,.06.48.59.59,0,0,0,.36.33A3,3,0,0,0,65.94,72a3.26,3.26,0,0,0,.73-2.27,3.52,3.52,0,0,0-.8-2.49,2.9,2.9,0,0,0-2.27-.88,3.54,3.54,0,0,0-.48,0l-.39,0c0,.28,0,.62,0,1s0,.87,0,1.42Z" transform="translate(0.02)"/><path class="cls-2" d="M72.66,66h.75l1.37,3.52c.08.21.19.51.34.88.64,1.7,1.19,2.54,1.67,2.54h0v.24c-.29,0-.76-.07-1.4-.16l-.13,0-.85.12-.68.06v-.24a1,1,0,0,0,.51-.13.34.34,0,0,0,.17-.3,2.57,2.57,0,0,0-.11-.53c-.07-.25-.17-.56-.31-1l-.19-.54H71.43l-.19.46c-.14.36-.25.69-.34,1a2.79,2.79,0,0,0-.13.59.36.36,0,0,0,.15.32.87.87,0,0,0,.47.11v.24l-.56,0L70.18,73l-.66.13-.57,0v-.24h0c.54,0,1.17-.88,1.89-2.65l.32-.79L72.66,66m0,1.38c-.19.44-.37.89-.55,1.34s-.35.9-.52,1.36h2.06l-.51-1.42c-.16-.44-.32-.86-.48-1.28" transform="translate(0.02)"/><path class="cls-2" d="M79.38,72.94l-.84.13-.76.06v-.24a.91.91,0,0,0,.77-.35A3.64,3.64,0,0,0,78.74,71V68.18a3.61,3.61,0,0,0-.19-1.52.89.89,0,0,0-.77-.36v-.23a6.68,6.68,0,0,1,.74.06c.26,0,.55.07.85.13s.71-.13,1.05-.17.64,0,.94,0a4.69,4.69,0,0,1,3.12,1,3.28,3.28,0,0,1,1.13,2.63,3.24,3.24,0,0,1-1.12,2.6,4.6,4.6,0,0,1-3.08,1c-.29,0-.59,0-.89,0s-.68-.1-1.15-.2m.7-2.64c0,.85,0,1.39,0,1.64a2.24,2.24,0,0,0,.07.48.59.59,0,0,0,.36.33A3,3,0,0,0,83.36,72a3.26,3.26,0,0,0,.73-2.27,3.56,3.56,0,0,0-.8-2.49A2.9,2.9,0,0,0,81,66.39a3.54,3.54,0,0,0-.48,0l-.39,0c0,.28,0,.62,0,1s0,.87,0,1.42Z" transform="translate(0.02)"/><g class="cls-3"><path class="cls-2" d="M87.29,66.07a6,6,0,0,1,.74.07c.25,0,.5.08.76.13a9.34,9.34,0,0,1,1.2-.15c.45,0,1-.05,1.49-.05h.35a1.57,1.57,0,0,1,.54.05.18.18,0,0,1,.11.19.3.3,0,0,1,0,.13,1,1,0,0,1-.11.18,5.22,5.22,0,0,1,.07.53,2.06,2.06,0,0,1,0,.34v.09a.34.34,0,0,0,0,.09h-.29a1.12,1.12,0,0,0-.34-.85,2,2,0,0,0-1.14-.23h-1c0,.26,0,.51,0,.77s0,.52,0,.78v1.11h1a2.14,2.14,0,0,0,.94-.14.64.64,0,0,0,.28-.53h.31c0,.13,0,.27,0,.41s-.07.31-.11.48.08.36.1.51a3.41,3.41,0,0,1,0,.42h-.31a.66.66,0,0,0-.25-.54,2.28,2.28,0,0,0-1-.14h-.92v1.48c0,.67.08,1.07.22,1.2a1.76,1.76,0,0,0,1,.19,2.42,2.42,0,0,0,1.38-.32,1.43,1.43,0,0,0,.56-1h.33A4.25,4.25,0,0,1,93,72a2.25,2.25,0,0,1-.21.55.71.71,0,0,1,.07.16.39.39,0,0,1,0,.14.28.28,0,0,1-.2.27,4.68,4.68,0,0,1-1,.06h-.44c-.55,0-1,0-1.41,0a6.92,6.92,0,0,1-1-.16l-.82.15a6,6,0,0,1-.7.06v-.24a.91.91,0,0,0,.77-.36,4.23,4.23,0,0,0,.2-1.73V68.48c0-.15,0-.22,0-.23a3.85,3.85,0,0,0-.2-1.57.9.9,0,0,0-.76-.37v-.24" transform="translate(0.02)"/><path class="cls-2" d="M12.16,76.76l.45.16-.21.75c-.06.21-.13.4-.19.57,0,.44.09.87.12,1.27s0,.79,0,1.16H11.7a3.68,3.68,0,0,0-1.12-2.57,3.83,3.83,0,0,0-2.7-.92A4.33,4.33,0,0,0,4.3,78.84,7,7,0,0,0,3,83.33,6.77,6.77,0,0,0,4.4,87.84a4.59,4.59,0,0,0,3.69,1.69,4.31,4.31,0,0,0,2.68-.76A3.12,3.12,0,0,0,12,86.61h.67c0,.31-.08.62-.14.94s-.11.63-.18,1l.09.48c0,.11,0,.21,0,.31a8.05,8.05,0,0,1-2.08.71,12,12,0,0,1-2.52.26A8.46,8.46,0,0,1,2.1,88.43,6.13,6.13,0,0,1,0,83.52,6.49,6.49,0,0,1,2.1,78.46a8.11,8.11,0,0,1,5.65-1.92,13.66,13.66,0,0,1,2.51.24l1.37.24A.73.73,0,0,0,12,77a.5.5,0,0,0,.21-.2" transform="translate(0.02)"/><path class="cls-2" d="M30.29,83.39a6.57,6.57,0,0,1-2,4.92,7.06,7.06,0,0,1-5.1,2,7,7,0,0,1-5.1-2,7,7,0,0,1,0-9.83,7.06,7.06,0,0,1,5.1-1.94,7.06,7.06,0,0,1,5.1,1.95,6.54,6.54,0,0,1,2,4.9m-7.11,6.23a3.52,3.52,0,0,0,3-1.69,9.59,9.59,0,0,0,0-9.07,3.59,3.59,0,0,0-6.08,0,9.67,9.67,0,0,0,0,9.07,3.49,3.49,0,0,0,3,1.69" transform="translate(0.02)"/></g><path class="cls-2" d="M32.66,76.76c.42,0,.89.07,1.41.13s1.06.14,1.65.24c.58-.1,1.13-.18,1.63-.24s1-.11,1.41-.13v.44a1.72,1.72,0,0,0-1.44.67A6.87,6.87,0,0,0,37,80.73v5.21a7,7,0,0,0,.38,2.94,1.7,1.7,0,0,0,1.43.7V90q-.66,0-1.41-.12c-.5-.07-1.05-.14-1.63-.24-.71.11-1.31.2-1.79.25s-.9.1-1.27.11v-.45a1.71,1.71,0,0,0,1.43-.67A6.73,6.73,0,0,0,34.46,86V80.86a7.07,7.07,0,0,0-.37-2.94,1.71,1.71,0,0,0-1.43-.72v-.44" transform="translate(0.02)"/><path class="cls-2" d="M41.86,90v-.45a2.37,2.37,0,0,0,1-.35,1.59,1.59,0,0,0,.5-.81,26,26,0,0,0,.4-3.57l0-.3c.08-1,.15-2,.19-2.89s.06-1.65.06-2.29a2.79,2.79,0,0,0-.33-1.71,2.43,2.43,0,0,0-1.47-.44v-.46l1.07.09c.38,0,.84.11,1.39.19q.59-.17.84-.21a2.3,2.3,0,0,1,.39,0c.32,0,.65.36,1,1.07L47,78q1.56,3.28,2.52,5.2c.64,1.28,1.24,2.43,1.8,3.44q1.59-3.36,3.35-7.32c.3-.69.5-1.13.6-1.33l.13-.3q.41-.9.84-.9a6.28,6.28,0,0,1,1,.18l.15,0c.45-.08.87-.14,1.25-.19s.69-.08.93-.09v.46a1.51,1.51,0,0,0-1.13.41,4.53,4.53,0,0,0-.26,2c0,.2,0,.41,0,.61s0,.43,0,.66L58.44,86a8.24,8.24,0,0,0,.44,3,1.32,1.32,0,0,0,1.27.61V90a11.38,11.38,0,0,1-1.24-.11c-.44,0-.92-.13-1.43-.23-.53.1-1,.18-1.48.23a11.51,11.51,0,0,1-1.26.11v-.45a1.29,1.29,0,0,0,1.1-.48,3.84,3.84,0,0,0,.29-1.87c0-.13,0-.35,0-.66s0-.71,0-1.19L56,82.06c0-.7-.05-1.24-.07-1.61s0-.71-.08-1c-.84,1.72-1.65,3.46-2.45,5.23S51.81,88.21,51.07,90h-.71q-1.11-2.39-2.38-5c-.85-1.72-1.77-3.54-2.78-5.48q-.16,2.67-.27,4.62c-.06,1.31-.1,2.28-.1,2.92a3.47,3.47,0,0,0,.37,1.91,1.64,1.64,0,0,0,1.35.53V90c-.35,0-.73,0-1.12-.1s-.8-.12-1.23-.21c-.46.09-.87.16-1.26.21s-.75.09-1.07.1" transform="translate(0.02)"/><path class="cls-2" d="M64.86,84.68v-3.8a7.18,7.18,0,0,0-.37-3,1.71,1.71,0,0,0-1.43-.72v-.44c.36,0,.77.06,1.21.11s1,.14,1.64.26a15.33,15.33,0,0,1,1.86-.34,12.7,12.7,0,0,1,1.7-.12,5.29,5.29,0,0,1,3.11.78,2.57,2.57,0,0,1,1.08,2.21,2.66,2.66,0,0,1-.79,2,4.42,4.42,0,0,1-2.25,1.11v.12a5.3,5.3,0,0,1,3,1.08,3.07,3.07,0,0,1,1,2.44,3.23,3.23,0,0,1-1.35,2.76,6.34,6.34,0,0,1-3.8,1A15,15,0,0,1,67.8,90,14.68,14.68,0,0,1,66,89.67c-.68.12-1.25.21-1.69.26s-.86.09-1.23.11v-.46a1.68,1.68,0,0,0,1.43-.66A6.72,6.72,0,0,0,64.86,86V84.68m2.46-1.44V85.9a6.53,6.53,0,0,0,.39,3,1.73,1.73,0,0,0,1.49.54,2.55,2.55,0,0,0,2-.79A3.54,3.54,0,0,0,70.94,84a4.54,4.54,0,0,0-3-.8h-.67m0-.67h.87A3.19,3.19,0,0,0,70.39,82a2.56,2.56,0,0,0,.7-2A2.53,2.53,0,0,0,70.35,78a2.78,2.78,0,0,0-2-.72,3.74,3.74,0,0,0-.52,0,3.49,3.49,0,0,0-.43.07c0,.2,0,.42,0,.66s0,.61,0,1.1Z" transform="translate(0.02)"/><path class="cls-2" d="M85.53,83.39a24.58,24.58,0,0,0,2.93,4.88,3.28,3.28,0,0,0,2.41,1.31H91V90l-.61.08h-.46a7.73,7.73,0,0,1-2.07-.22,3.54,3.54,0,0,1-1.39-.75,10.32,10.32,0,0,1-2-3c-.27-.54-.47-.93-.61-1.18A1.93,1.93,0,0,0,82,84.12H81.4V85.9a7.22,7.22,0,0,0,.37,3,1.66,1.66,0,0,0,1.43.68V90c-.44,0-.9,0-1.4-.11s-1-.14-1.62-.25c-.71.12-1.3.21-1.76.26s-.89.09-1.28.1v-.45a1.67,1.67,0,0,0,1.43-.66,6.5,6.5,0,0,0,.38-2.85V80.9a7,7,0,0,0-.39-3A1.78,1.78,0,0,0,77,77.2v-.44c.45,0,.91.06,1.37.11s.93.13,1.41.22a17.13,17.13,0,0,1,1.7-.27,16.42,16.42,0,0,1,1.73-.09,6.33,6.33,0,0,1,3.61.86,3,3,0,0,1,1.22,2.56,3.1,3.1,0,0,1-.67,2,3.91,3.91,0,0,1-1.89,1.26m-4.13,0,.72.08.53,0a2.59,2.59,0,0,0,2-.76,2.9,2.9,0,0,0,.72-2.09,3.39,3.39,0,0,0-.79-2.4,2.92,2.92,0,0,0-2.23-.85c-.15,0-.42,0-.8.06h-.11v.11c0,1.21,0,2.11,0,2.69Z" transform="translate(0.02)"/><path class="cls-2" d="M98.66,76.54h1.41l2.57,6.61c.16.4.37,1,.64,1.67q1.81,4.75,3.13,4.76h0V90c-.55,0-1.43-.14-2.63-.32l-.26,0-1.59.23-1.27.12v-.46a2.16,2.16,0,0,0,1-.24.65.65,0,0,0,.31-.58,4.56,4.56,0,0,0-.2-1c-.13-.47-.33-1.07-.58-1.79l-.37-1-1.06,0H97.41l-1.06,0-.35.87c-.26.67-.48,1.28-.64,1.81a4.76,4.76,0,0,0-.24,1.1.7.7,0,0,0,.27.61,1.85,1.85,0,0,0,.9.21V90a10.25,10.25,0,0,1-1.05-.12c-.37,0-.78-.13-1.23-.23-.44.1-.86.18-1.24.23S92,90,91.71,90v-.46h.08q1.52,0,3.54-5l.6-1.48,2.74-6.58m0,2.61c-.35.82-.69,1.66-1,2.5s-.66,1.7-1,2.56l1.24,0h2l.62,0c-.33-.95-.65-1.84-1-2.66s-.61-1.63-.91-2.4" transform="translate(0.02)"/><path class="cls-2" d="M104.43,67.08a4.62,4.62,0,0,0-3.07-1,7.5,7.5,0,0,0-.93.06,8.31,8.31,0,0,0-.94.15h-.11l-.82-.13-.73-.06h0v.24a.9.9,0,0,1,.75.37,3.67,3.67,0,0,1,.2,1.54v3.16a2.56,2.56,0,0,1-.18,1.06.89.89,0,0,1-.76.36v.24l.34,0,.41,0,.83-.12.22,0c.36.07.67.12.91.15a6.58,6.58,0,0,0,.88.05,4.52,4.52,0,0,0,3-.94,3.2,3.2,0,0,0,1.11-2.57,3.24,3.24,0,0,0-1.12-2.59m-1.11,5a3.06,3.06,0,0,1-2.8.71.56.56,0,0,1-.35-.32,1.41,1.41,0,0,1-.07-.48c0-.24,0-.78,0-1.61v-.57h.67a2.26,2.26,0,0,1,1,.14.66.66,0,0,1,.25.53h.3a2,2,0,0,0-.05-.41c0-.15-.06-.32-.1-.5s.08-.33.11-.47a3.26,3.26,0,0,0,0-.41H102a.66.66,0,0,1-.28.52,2,2,0,0,1-.92.14h-.72V69c0-.54,0-1,0-1.4s0-.72.05-1l.38,0a3.54,3.54,0,0,1,.48,0,2.9,2.9,0,0,1,2.24.86A3.52,3.52,0,0,1,104,69.8a3.23,3.23,0,0,1-.72,2.24" transform="translate(0.02)"/><path class="cls-2" d="M4.37,20.05l.19.15a8,8,0,0,0-.15,1.3c0,.56,0,1.26,0,2.1v3.45a5.52,5.52,0,0,0,.32,2.45A1.43,1.43,0,0,0,5.93,30v.35q-.55,0-1.17-.09c-.4-.05-.82-.11-1.25-.2-.48.09-.92.17-1.31.21a9.05,9.05,0,0,1-1.11.08V30a1.44,1.44,0,0,0,1.25-.45,5.52,5.52,0,0,0,.31-2.45V23.39a6.07,6.07,0,0,0-.23-2.18.91.91,0,0,0-.88-.44H1.3v-.35h.09c.43,0,.74-.05.94-.05h.45l.74,0a3.17,3.17,0,0,1,.41-.21l.44-.17" transform="translate(0.02)"/><path class="cls-2" d="M19.09,29.05h2.35a4.71,4.71,0,0,0,2-.26,1.37,1.37,0,0,0,.59-.95l.44.05a5.57,5.57,0,0,1-.19.78,4.09,4.09,0,0,1-.28.66,1.71,1.71,0,0,1,.15.31.84.84,0,0,1,0,.27.33.33,0,0,1-.16.3.8.8,0,0,1-.47.11l-1.34,0c-.74,0-1.39,0-2,0l-1.61,0c-.49,0-1,0-1.42,0v-.48A18.82,18.82,0,0,0,21.09,26a5.94,5.94,0,0,0,1.16-3.42A2.78,2.78,0,0,0,21.84,21a1.25,1.25,0,0,0-1.08-.6,1.22,1.22,0,0,0-1,.42,1.52,1.52,0,0,0-.39,1.05,1.81,1.81,0,0,0,.07.54,1.68,1.68,0,0,0,.2.48,1.89,1.89,0,0,1-.48.26,1.64,1.64,0,0,1-.5.08A.88.88,0,0,1,18,23a1,1,0,0,1-.26-.7,2,2,0,0,1,.92-1.6A3.74,3.74,0,0,1,21,20a3.32,3.32,0,0,1,2.27.77,2.53,2.53,0,0,1,.87,2A4.35,4.35,0,0,1,23,25.43a25.24,25.24,0,0,1-3.93,3.62" transform="translate(0.02)"/><path class="cls-2" d="M82.39,30.53l-.17-.45a6.12,6.12,0,0,0,2.91-1.83,6,6,0,0,0,1.37-3.11,3,3,0,0,1-1,.77,3,3,0,0,1-1.28.26,2.77,2.77,0,0,1-2.06-.83,2.87,2.87,0,0,1-.81-2.1,3.21,3.21,0,0,1,1-2.43,3.61,3.61,0,0,1,2.58-1A3.22,3.22,0,0,1,87.53,21a4.52,4.52,0,0,1,1,3,5.89,5.89,0,0,1-1.65,4.13,8.46,8.46,0,0,1-4.46,2.41m2.53-4.88a1.46,1.46,0,0,0,1.25-.78,3.69,3.69,0,0,0,.48-2A3.44,3.44,0,0,0,86.19,21a1.46,1.46,0,0,0-1.26-.71,1.39,1.39,0,0,0-1.22.71,3.5,3.5,0,0,0-.46,1.92,3.74,3.74,0,0,0,.46,2A1.37,1.37,0,0,0,84.92,25.65Z" transform="translate(0.02)"/><path class="cls-2" d="M105.55,25.18a6,6,0,0,1-1.12,3.72,3.26,3.26,0,0,1-5.47,0,6,6,0,0,1-1.12-3.72A6.05,6.05,0,0,1,99,21.45a3.24,3.24,0,0,1,5.46,0,6,6,0,0,1,1.13,3.72m-3.86-4.81c-.61,0-1.06.4-1.36,1.2a10.94,10.94,0,0,0-.44,3.61,10.8,10.8,0,0,0,.44,3.59c.3.8.75,1.19,1.36,1.19s1.06-.4,1.36-1.19a10.83,10.83,0,0,0,.45-3.59,11,11,0,0,0-.45-3.61C102.75,20.77,102.29,20.37,101.69,20.37Z" transform="translate(0.02)"/><path class="cls-4" d="M53.22,0a23.15,23.15,0,0,1,6.1,2.87,29,29,0,0,1,5,3.85,24.8,24.8,0,0,1,6.37,10.16c2.69,8.42,1.09,18.33-4.77,25.05A29.13,29.13,0,0,1,54.75,49.8a5,5,0,0,1-1.49.55A3.84,3.84,0,0,1,52,49.9a30.13,30.13,0,0,1-3.29-1.58,31.6,31.6,0,0,1-5.37-3.73,25.8,25.8,0,0,1-8.52-24C36.5,10.81,44.12,3.33,53.22,0M53,.38C45.11,3.17,38.22,9.66,35.82,17.74A25.52,25.52,0,0,0,41,41.86a30.47,30.47,0,0,0,10.91,7.69,4.49,4.49,0,0,0,1.3.5,3.45,3.45,0,0,0,1.07-.35,27.47,27.47,0,0,0,3.08-1.4A30.14,30.14,0,0,0,63,44.51a25.78,25.78,0,0,0,8.33-23.83,24.44,24.44,0,0,0-6-12.57A27.66,27.66,0,0,0,59.9,3.54a29,29,0,0,0-3.11-1.78c-.56-.29-1.13-.55-1.71-.8S53.58.18,53,.38" transform="translate(0.02)"/><path class="cls-4" d="M53.23.5a3.81,3.81,0,0,1,1.44.5c.51.2,1,.42,1.48.66A28.88,28.88,0,0,1,59,3.24,28.41,28.41,0,0,1,64,7.11,24.12,24.12,0,0,1,70.3,17.8c2.29,8.22.61,17.48-5,24A28.07,28.07,0,0,1,54.49,49.3a4.46,4.46,0,0,1-1.14.41,3.43,3.43,0,0,1-1.22-.4,29.24,29.24,0,0,1-3.23-1.58,30.68,30.68,0,0,1-5.4-3.86,25.26,25.26,0,0,1-8-22.79A24.4,24.4,0,0,1,41.26,8.61a28.27,28.27,0,0,1,5.47-4.77A32.71,32.71,0,0,1,49.9,2,14.25,14.25,0,0,1,53.23.5M53,1c-.14.31.36.52.46.19S53.09.66,53,1m-.78.32a.27.27,0,0,0,.52,0c.07-.38-.59-.4-.52,0m1.51-.15a.27.27,0,0,0,.42.3c.29-.27-.25-.67-.42-.3m.7.4a.27.27,0,0,0,.49.14c.22-.32-.49-.57-.49-.14m-3,0c0,.33.55.33.51,0a.26.26,0,0,0-.51,0m1.41.05c-8.15,2.56-14.35,9.9-16.28,18.11s1,16.95,6.73,22.85a25.31,25.31,0,0,0,7.56,5.23c.82.37,2,1.13,2.92.88a23.55,23.55,0,0,0,10-6.4A24.93,24.93,0,0,0,70,20.35,25.38,25.38,0,0,0,63.75,8.28,29.11,29.11,0,0,0,58.67,4a23.13,23.13,0,0,0-2.82-1.51c-.89-.4-2.09-1.16-3.06-.85m2.62.52a.25.25,0,0,0,0-.5.25.25,0,1,0,0,.5m-4.74-.31a.27.27,0,0,0,.45.27c.26-.3-.31-.61-.45-.27m5.25.39a.26.26,0,0,0,.5.06c.11-.36-.51-.45-.5-.06m-6,.12c.1.25.55.17.5-.12s-.63-.22-.5.12m-.72.25a.26.26,0,0,0,.5.1c.15-.35-.5-.51-.5-.1M57,2.83a.25.25,0,0,0,0-.49.25.25,0,1,0,0,.49m.48.18A.26.26,0,0,0,58,3a.26.26,0,1,0-.51.06m-8.87-.08a.26.26,0,0,0,.49.15c.2-.33-.44-.54-.49-.15m-.43.67a.26.26,0,0,0,.09-.5c-.36-.12-.48.49-.09.5m10.11-.05a.26.26,0,0,0,.4-.32c-.18-.29-.65.06-.4.32M47.5,4c.45,0,.2-.71-.15-.47A.26.26,0,0,0,47.5,4m11.66,0a.25.25,0,0,0,0-.5.25.25,0,1,0,0,.5m.36.11a.26.26,0,0,0,.5.11c.07-.31-.44-.41-.5-.11m-13,.13c0,.27.45.24.52,0s-.59-.42-.52,0m-.66.3a.26.26,0,0,0,.49.17c.18-.33-.42-.53-.49-.17M60.45,5a.26.26,0,0,0,.08-.51c-.36-.11-.47.51-.08.51m-14.9.4a.25.25,0,0,0,0-.5c-.34,0-.35.54,0,.5M60.91,5c-.22.23.16.6.39.36s-.16-.6-.39-.36m-16.22.43c-.23.23.16.59.38.36s-.15-.61-.38-.36m16.82.16c-.14.31.36.53.47.21a.26.26,0,0,0-.47-.21m-17.41.3c-.23.23.15.61.38.37s-.15-.59-.38-.37m18,.24c-.11.29.27.45.46.26s-.31-.61-.46-.26m-18.44.69c.29.11.51-.31.23-.46s-.56.33-.23.46m19,.06a.29.29,0,0,0,.51,0c.16-.39-.64-.47-.51,0M43,6.93c-.2.23.11.52.34.39s-.09-.68-.34-.39m20.29.42a.27.27,0,0,0,.48.21c.25-.34-.41-.6-.48-.21m-20.84.26a.26.26,0,0,0,.51,0c0-.32-.52-.36-.51,0M63.87,8a.26.26,0,0,0,.5.06c.11-.37-.53-.44-.5-.06m-22,.08a.26.26,0,0,0,.52,0,.26.26,0,0,0-.52,0m22.9.69c.3-.12.09-.64-.22-.46a.26.26,0,0,0,.22.46M41.47,8.61a.26.26,0,0,0,.5.09c.1-.35-.48-.46-.5-.09M65,9.16a.27.27,0,0,0,.51.08c.13-.36-.51-.47-.51-.08m-23.7.27a.25.25,0,0,0,0-.5.25.25,0,1,0,0,.5m-.73.32c0,.29.43.31.5.06s-.52-.45-.5-.06m25-.11c-.24.2.08.61.33.4s-.06-.63-.33-.4m-25.41.91a.27.27,0,0,0,.42-.31c-.14-.34-.73,0-.42.31m25.74-.16c0,.32.5.4.53.06s-.49-.38-.53-.06M39.69,11a.26.26,0,0,0,.51-.06.26.26,0,1,0-.51.06m26.66.15a.26.26,0,0,0,.51,0c.1-.36-.57-.43-.51,0m-27.07.46a.27.27,0,0,0,.49.14c.23-.32-.48-.58-.49-.14m27.48.19c0,.32.58.25.51-.06s-.56-.29-.51.06m-27.87.5c.07.35.64.17.5-.16a.27.27,0,0,0-.5.16m28.31.22a.26.26,0,0,0,.5-.15c-.07-.33-.63-.2-.5.15M38.67,13a.26.26,0,0,0,.26-.44c-.29-.17-.58.3-.26.44m29.14.33a.26.26,0,0,0,.09-.5c-.36-.12-.48.49-.09.5m-29.69.22c.05.33.6.25.52-.1a.27.27,0,0,0-.52.1m29.8.19a.27.27,0,0,0,.48.19c.22-.32-.41-.58-.48-.19m-30.12.37a.26.26,0,0,0,.48.2c.17-.31-.38-.54-.48-.2m30.51.16c-.2.23.12.55.36.38s-.11-.64-.36-.38M37.43,15c0,.27.44.26.52,0s-.57-.44-.52,0m31.09.23c.08.27.55.19.5-.1s-.61-.24-.5.1m-31.13.73c.35,0,.29-.6-.07-.51a.26.26,0,0,0,.07.51m31.42-.15a.26.26,0,0,0,.51.06c.1-.36-.51-.44-.51-.06m-31.88.77c.23.22.63-.12.37-.36s-.61.12-.37.36m32.11,0a.26.26,0,0,0,.5.07c.16-.35-.52-.49-.5-.07m-32.3.78a.27.27,0,0,0,.3-.42c-.28-.28-.67.27-.3.42m32.85.15c.35,0,.29-.59-.07-.5a.25.25,0,0,0,.07.5m-33,.55c.28.13.52-.29.25-.45s-.58.3-.25.45m33,0c.2.23.63-.07.39-.33s-.61.07-.39.33m-33.36.52a.26.26,0,0,0,.48-.19c-.1-.32-.64-.15-.48.19m33.54.12c0,.25.44.24.51,0,.11-.38-.59-.45-.51,0m-33.4.77c.31-.12.08-.65-.23-.45a.25.25,0,0,0,.23.45m33.61,0a.27.27,0,0,0,.52,0c.06-.38-.59-.4-.52,0m-34.16.64c.07.35.64.17.5-.16a.27.27,0,0,0-.5.16m34.36,0a.26.26,0,0,0,.51-.05.26.26,0,0,0-.51.05m-34.47.54c-.06.34.49.43.52.09s-.46-.39-.52-.09m34.58.24a.27.27,0,0,0,.53,0c0-.33-.54-.36-.53,0m-34.69.62a.26.26,0,0,0,.5-.12.26.26,0,1,0-.5.12m34.79.11a.28.28,0,0,0,.49.14c.24-.33-.49-.59-.49-.14m-34.92.45c-.08.36.49.44.5.09s-.44-.4-.5-.09m35,.26c-.12.31.37.48.48.2s-.36-.5-.48-.2m-34.79.8c.33,0,.27-.59-.09-.5s-.22.52.09.5m34.86.05a.26.26,0,0,0,.46.21c.26-.3-.39-.59-.46-.21m-35.05.66a.26.26,0,0,0,.2-.48c-.31-.13-.54.38-.2.48m35.08.22c.06.3.58.22.5-.1a.25.25,0,0,0-.5.1m-35.24.33a.26.26,0,0,0,.5-.14.26.26,0,0,0-.5.14m35.3.34c-.21.27.26.58.43.3s-.23-.56-.43-.3M35.36,25c-.22.27.26.59.43.26a.25.25,0,0,0-.43-.26m35.51,1a.25.25,0,0,0,0-.5.25.25,0,1,0,0,.5m-35.53-.13a.25.25,0,0,0,.5.05c.09-.34-.5-.42-.5-.05m35.25.56c-.14.3.35.5.47.21s-.34-.51-.47-.21m-34.92.42c.36,0,.29-.6-.07-.5a.25.25,0,0,0,.07.5m34.85.37a.26.26,0,0,0,.47.21c.1-.28-.33-.49-.47-.21m-35,.32c.12.27.62.11.46-.21s-.6-.1-.46.21m35,.54a.27.27,0,0,0,.48.2c.22-.32-.41-.59-.48-.2m-34.89,0c-.08.38.55.42.52,0a.27.27,0,0,0-.52,0m34.8.87a.26.26,0,0,0,.51.05c.1-.36-.53-.44-.51-.05m-34.41.25a.26.26,0,0,0,.08-.5c-.36-.12-.48.5-.08.5m34.3.56c.08.27.5.18.5-.09s-.63-.3-.5.09m-34.48-.07a.27.27,0,0,0,.46.23c.3-.27-.38-.65-.46-.23m34.37.59c-.24.25.24.62.41.32s-.18-.57-.41-.32M36,30.61a.26.26,0,0,0,.48-.18.26.26,0,1,0-.48.18m.16.67c.06.3.52.22.52-.07s-.58-.3-.52.07m33.77,0a.26.26,0,0,0,.5-.11.26.26,0,0,0-.5.11M36.29,32a.27.27,0,0,0,.5,0c.17-.39-.64-.48-.5,0M69.7,32a.27.27,0,0,0,.5.11c.16-.37-.51-.52-.5-.11m-33.21.56c-.11.37.51.47.51.09a.27.27,0,0,0-.51-.09m33.07.36c.2.22.61-.09.39-.34s-.62.08-.39.34m-32.81.34c-.13.35.5.5.51.11a.27.27,0,0,0-.51-.11m32.83.44c.31-.12.08-.64-.23-.45a.25.25,0,0,0,.23.45m-32.31.7a.25.25,0,0,0,0-.5.25.25,0,1,0,0,.5M69,34.08a.25.25,0,0,0,.37.34c.28-.24-.16-.62-.37-.34m-31.69.65c-.16.26.24.52.43.31s-.23-.61-.43-.31m31.49.48c.29.11.51-.31.23-.46s-.56.33-.23.46m-31,.51a.25.25,0,0,0,0-.5.25.25,0,1,0,0,.5m30.49-.09c-.06.34.48.44.52.09s-.46-.39-.52-.09M38,35.94c-.22.24.2.61.4.34s-.16-.59-.4-.34M68,36.35a.26.26,0,0,0,.49.16c.19-.32-.42-.54-.49-.16m-29.77.56c.22.22.63-.15.35-.36s-.6.13-.35.36m29.38.27a.26.26,0,0,0,.51.06c.1-.36-.52-.44-.51-.06m-29.1.2c0,.25.36.32.5.13s-.51-.58-.5-.13m28.7.41c-.13.27.24.45.44.28s-.29-.63-.44-.28m-28.35.3c.13.29.64.1.45-.22s-.59-.08-.45.22m27.95.56a.27.27,0,0,0,.51-.1c0-.37-.66-.27-.51.1m-27.34.19a.25.25,0,0,0,0-.5.25.25,0,1,0,0,.5m.12.34a.28.28,0,0,0,.5.12c.22-.33-.51-.57-.5-.12m26.82,0a.26.26,0,0,0,.51.06c.1-.36-.51-.44-.51-.06M40.27,40c.38,0,.31-.61-.05-.5a.25.25,0,0,0,.05.5M66,39.85a.27.27,0,0,0,.51,0c.13-.39-.59-.46-.51,0m-25.62.42a.26.26,0,0,0,.51.07c.1-.36-.52-.45-.51-.07m25.36.44c.37,0,.31-.62-.06-.51a.26.26,0,0,0,.06.51m-24.92,0a.26.26,0,0,0,.49.17c.18-.33-.43-.54-.49-.17M65.07,41a.26.26,0,0,0,.51.07c.11-.36-.51-.45-.51-.07m-23.78.36a.27.27,0,0,0,.52-.1c0-.37-.66-.27-.52.1m23.33.11c-.22.24.19.61.39.33a.26.26,0,0,0-.39-.33m-22.85.31a.27.27,0,0,0,.48.18c.24-.32-.42-.59-.48-.18m22.4.69c.36.11.5-.45.14-.48s-.46.39-.14.48m-21.69.11c.39,0,.34-.61,0-.5s-.26.49,0,.5m21,.19a.27.27,0,0,0,.53,0c0-.33-.54-.36-.53,0m-20.75.14c0,.31.55.26.51-.07a.26.26,0,0,0-.51.07m20.16.34c-.11.36.48.48.5.11s-.41-.41-.5-.11m-19.41.35a.26.26,0,0,0,.09-.5c-.35-.12-.48.49-.09.5m.3.17c-.06.32.43.46.5.11s-.44-.41-.5-.11m18.76.35a.25.25,0,0,0,0-.5.25.25,0,1,0,0,.5m-18.18.11c-.1.32.41.48.49.16s-.4-.48-.49-.16M62,44.69c.34,0,.26-.58-.09-.5a.25.25,0,0,0,.09.5m-16.89-.06c-.25.22.15.63.37.37s-.13-.58-.37-.37m16,.22a.26.26,0,0,0,.49.16c.14-.33-.41-.51-.49-.16m-15.16.72c.39,0,.34-.61,0-.5a.25.25,0,0,0,0,.5m14.65.08c.32.12.53-.4.15-.48a.25.25,0,0,0-.15.48M46.39,46c.21.21.61-.11.37-.35s-.61.11-.37.35m13.31-.11a.26.26,0,0,0,.5.09c.08-.32-.46-.42-.5-.09m-12.78.34a.27.27,0,0,0,.49.18c.23-.32-.44-.59-.49-.18m12.24.4a.26.26,0,0,0,.16-.49c-.33-.13-.51.43-.16.49m-11.56.07a.26.26,0,0,0,.51.07c.11-.35-.51-.45-.51-.07m10.9.39a.26.26,0,0,0,.08-.5c-.36-.13-.48.5-.08.5M48.31,47c-.12.38.51.48.5.1s-.42-.36-.5-.1m9.41.54a.26.26,0,0,0,.05-.51c-.32-.05-.39.49-.05.51m-8.37.18c.31-.12.07-.65-.23-.45a.25.25,0,0,0,.23.45m7.72.21a.25.25,0,0,0,0-.5.25.25,0,1,0,0,.5m-7.38-.17a.27.27,0,0,0,.45.24c.32-.26-.37-.67-.45-.24m6.37.19c-.07.36.49.43.51.08s-.45-.4-.51-.08m-5.44.47c.37,0,.33-.59,0-.5a.26.26,0,0,0,0,.5m4.75,0c.06.3.54.21.51-.09a.26.26,0,1,0-.51.09m-4,.35c.3,0,.22-.56-.09-.5a.25.25,0,1,0,.09.5m3.34-.28a.26.26,0,0,0,.37.35c.28-.24-.16-.63-.37-.35m-2.87.43a.26.26,0,0,0,.5-.14.26.26,0,0,0-.5.14m2.21.2c.23.22.64-.15.35-.37s-.59.13-.35.37m-1.51,0a.27.27,0,0,0,.51.08c.12-.37-.51-.47-.51-.08m.66.1a.26.26,0,1,0,.51,0,.26.26,0,0,0-.51,0" transform="translate(0.02)"/><path class="cls-4" d="M53.3,1.58a32.68,32.68,0,0,1,5.77,3,11.91,11.91,0,0,1-2.65-1.41c-.5-.26-1-.49-1.53-.71a9.5,9.5,0,0,0-1.57-.66A16.66,16.66,0,0,0,50,3.06c-.57.28-1.13.6-1.68.91-.21.13-1.06.8-1.28.67s2.53-1.5,2.8-1.63A31.34,31.34,0,0,1,53.3,1.58" transform="translate(0.02)"/><path class="cls-4" d="M54,2.17c.24.41-.62.18-.61.17-.27.24.06.38-.44.66,0-.21.22-.3.09-.5s-.72-.08-.91-.22c.8-.41,1-.53,1.87-.11" transform="translate(0.02)"/><path class="cls-4" d="M54.6,2.76c-.34.25-.42.25-.32.68l.13.07v.37c.06.14,0,.21.2.32a1.12,1.12,0,0,0,.49,0c.44-.23,0-.23.17-.47a.72.72,0,0,1,.55-.27.53.53,0,0,1-.11.47,1.48,1.48,0,0,0,.41.15,1.46,1.46,0,0,0,.73.09,2.24,2.24,0,0,0-.65-.89c-.36-.2-.67.18-1-.11l-.37.34c0-.17,0-.35,0-.53a.25.25,0,0,0,.32-.29,4.32,4.32,0,0,1,1.56.68,14.87,14.87,0,0,1,1.71,1.13H54a2.59,2.59,0,0,1-.7-.08,1.2,1.2,0,0,0-.34-.13c0-.15.57-.11.73-.27s.3-.31.16-.37-.17.21-.29.2.11-.31.09-.38c-.11-.37-.24-.17-.48-.33.07-.42.62.31.63.31s0-.35.07-.43l.23-.25c0-.08-.09-.15-.13-.22s.49.09.42.13c.3-.14,0-.15,0-.32a.08.08,0,0,1,0-.07c.2,0,.21.29.17.42" transform="translate(0.02)"/><path class="cls-4" d="M51.91,2.52c.13.25,0,.74.27.93s.65-.1.83,0a.23.23,0,0,1-.15.41c-.24,0,0-.2-.27-.29,0,0-.48,0-.43,0-.19.14-.16.25,0,.45a.76.76,0,0,0,.52.13c0,.08-.1.09-.11.13-.07.44-.11.33-.52.33H47.61C48.68,4,49.8,3.4,50.92,2.84c0,.1-.21.21-.26.24.34.38.21,1.35.84.61a1.69,1.69,0,0,1,.13-.31c.1,0,.13-.08.08-.16s-.08-.16-.22-.12c0-.31,0-.76.42-.58m-1.43.82c-.33,0-1.29.27-1.35.71s.34.37.57.18.11-.63.44-.33.07.41.52.48c.06,0,.49,0,.51-.07.09-.28-.14-.1-.21-.2s-.18,0-.24-.11.13-.14.1-.22-.23-.46-.34-.44" transform="translate(0.02)"/><path class="cls-4" d="M52.69,3.05a1,1,0,0,1-.13.16c-.27-.19-.32-.22-.26-.62.14,0,.27.37.39.46" transform="translate(0.02)"/><path class="cls-4" d="M46.53,5.68c.18.14-.05.42.17.47-.07.12-.34.06-.42,0a1.46,1.46,0,0,0,.25-.46" transform="translate(0.02)"/><path class="cls-4" d="M53,5.87a8.47,8.47,0,0,0,.72,1.39,3.72,3.72,0,0,0,1.48,1c1.07.43,2.41.54,3.37,1.19a1.87,1.87,0,0,1,.87,1.29c0,.52-.14.4-.63.4h-.94c-.59,0-1.19,0-1.75,0-.28,0-1.17-.11-1.33.08.08.41,1,.32,1.28.29a8.06,8.06,0,0,1,1.63-.07,3.79,3.79,0,0,0,.89,0c.33,0,.78-.12.85.19a20.74,20.74,0,0,0-3.25,0c-1.08.19.75.22,1.05.21a13.19,13.19,0,0,1,1.54,0c.46,0,.28,0,.46.34.36.65.38,0,.17-.33.44-.07.32,2.08.32,2.35-.42-1.68-1.86-2.6-3.37-1.48.07-.94-2.24-1.29-2.66-2.13-.12-.23-.27-1.3-.66-1.07s-.4,1.1-.67,1.41a4.63,4.63,0,0,1-1.58.88,2.23,2.23,0,0,0-.71.46c-.34.36-.18.31-.65.14a2.09,2.09,0,0,0-2,.44c-.58.52-.52,1.25-.68,1.95a12.1,12.1,0,0,1-.07-2.24l.15.06a.32.32,0,0,0,.15-.25c0-.22.09-.28.34-.16a.27.27,0,0,0,.26-.07c0-.19-.83-.06-.9-.06-.16-.39.53-.23.77-.23h1.12c.26,0,1.84.16,1.94,0s-1.92-.07-2.29-.07a7.69,7.69,0,0,1-1,0c-.27,0-.83-.19-.32-.34a3.87,3.87,0,0,1,1.4.16,3,3,0,0,0,.84-.09c.52-.07,1.1,0,1.61,0,.18,0,1.14-.1.61-.28a5.55,5.55,0,0,0-1.35,0H47.78c-.54,0-1.17.24-1-.48.3-1.27,2.15-1.57,3.17-1.93a6.27,6.27,0,0,0,2-1,3,3,0,0,0,1.12-2m1.55,4.74c-.05-.21-.64-.21-.62,0,0,0,.24.39.26.41.25.2.6.12.9.11s.8-.09,1.22-.11c.75,0,1.51,0,2.26,0,.56,0,.75-.06.55-.62a2.19,2.19,0,0,0-1.65-1.33,18.38,18.38,0,0,1-2.45-.79,4.63,4.63,0,0,1-2-1.74C52.74,7.74,51.43,8.47,50,9c-1,.37-3.09.65-3.05,2.13,1.18,0,2.35,0,3.52,0a5.32,5.32,0,0,0,1.38,0c.44-.15.22-.27-.12-.33s-.8.11-1.12,0-.38-.51-.73-.41-.31.36-.68.43a10.81,10.81,0,0,1-2,0,1.9,1.9,0,0,1,1.37-1.13c.43-.12.64.05,1,.06.15.17.25.13.3-.11a1.38,1.38,0,0,1,.27-.27c1-.92,2.28-1.06,2.88-2.45a4.16,4.16,0,0,0,1.6,1.46c.28.15.6.26.88.42s.28.32.51.6.82-.08,1.35,0a1.88,1.88,0,0,1,1.26.72c.51.69,0,.75-.66.71a4.42,4.42,0,0,1-1.26-.1c-.19-.07-.35-.41-.52-.41,0,0-.48.38-.55.41a3,3,0,0,1-1.17.1.64.64,0,0,0,.06-.18M53.36,8.85c.13-.35.39-1.76-.39-1.4-.54.25-.18,1.51.25,1.71a2.92,2.92,0,0,0,.14-.31M52.3,8.21c.42.25.39-.22,0,0m1.61-.15c-.39,0,0,.28,0,.3s.5-.3,0-.3m.65,1.22c.71-1.25-1.11-.94-1.07-.38.27,0,.65-.4.86-.05s-.32.07-.37.06c-.13.44-.54,0-.47.59,0,0,.21.39.22.4.31.16.28-.13.53-.17,0,.18.07.59.24.67a.27.27,0,0,0,.24,0c.27-.14-.08-.32-.07-.31s0-.56.07-.51c-.17-.22-.33.14-.52,0a1,1,0,0,0,.34-.23m-2-.74a.63.63,0,0,0-1,.26,1.24,1.24,0,0,0-.07.54c0,.19.24.26.31.44a3.61,3.61,0,0,1-.42.16,7,7,0,0,1,0-1.12c-.34.2-.95.33-1.17.69-.12.2,0,.38-.2.48s-.31,0-.45-.06c-.44-.13-.47-.3-1-.09a1.28,1.28,0,0,0-.93.84,4.75,4.75,0,0,0,1.89-.1c.22-.12.23-.34.52-.33s.28.22.5.35,1.06.23,1.19,0c-.18-.15-.47-.06-.47-.33.47.24.49,0,.74-.28s.32-.18.62-.33c.5-.25.53-.55,0-.64,0-.18,0-.24.19-.2a.35.35,0,0,0-.25-.3m6.09,1.71A1.86,1.86,0,0,0,57,9.51c-.27,0-.51.33-.77.27s-.21-.25-.35-.46-.14-.33-.42-.46S55.16,8.74,55,9s0,.4,0,.55-.19.26-.19.35a2.85,2.85,0,0,0,.1.51c.09.25-.33.18.18.3s.8-.56,1.26-.53c.18,0,.41.25.58.32a2.12,2.12,0,0,0,.45.12c.41,0,1.7.32,1.23-.34m-6.49.34c-.25-.14.33.39.35,0a.53.53,0,0,0-.35,0m6.54,1.47c0,.12.47.12.48,0s-.49-.12-.48,0" transform="translate(0.02)"/><path class="cls-4" d="M52.08,8.76l.27,0c.07.08-.28.58-.27,0" transform="translate(0.02)"/><path class="cls-4" d="M45.31,9.27h.15v.09c-.17.05-.11-.07-.15-.09" transform="translate(0.02)"/><path class="cls-4" d="M52.53,9.28l.14.16c-.14.05-.82.31-.73,0,.15,0,.5.06.59-.12" transform="translate(0.02)"/><path class="cls-4" d="M54,9.44c0-.09.09-.1.16,0s-.09.1-.16,0" transform="translate(0.02)"/><path class="cls-4" d="M51.3,10c.09,0,.1.16,0,.17s-.08-.1,0-.17" transform="translate(0.02)"/><path class="cls-4" d="M40.63,12.12a.11.11,0,0,1,.16.06c0,.16-.36,0-.16-.06" transform="translate(0.02)"/><path class="cls-4" d="M40.66,12.47c.09,0,.07.26,0,.3s-.07-.26,0-.3" transform="translate(0.02)"/><path class="cls-4" d="M40.42,13.91a.9.9,0,0,1-.2.47c-.23,0,.07-.59.2-.47" transform="translate(0.02)"/><path class="cls-4" d="M40.68,14a5.75,5.75,0,0,1,0,.83c-.48,0-.07-.64,0-.83" transform="translate(0.02)"/><path class="cls-4" d="M40.34,15.09c0-.14.57.14.62.21a.54.54,0,0,1-.14.77c-.68.47-1-.5-.48-1m-.19.45c.05.25.55-.08.27-.21s-.21.08-.27.21m.81-.11c-.05-.23-.42-.12,0,.2a.34.34,0,0,0,0-.2m-.52.56c0,.11.29.11.28,0s-.28-.06-.28,0" transform="translate(0.02)"/><path class="cls-4" d="M53.79,15.43a.43.43,0,0,1-.35,0,.29.29,0,0,1,.35,0" transform="translate(0.02)"/><path class="cls-4" d="M53,15.39a.21.21,0,0,1-.26.07.23.23,0,0,1,.26-.07" transform="translate(0.02)"/><path class="cls-4" d="M50.22,15.51c.14.31-.2.07-.37.11-.08-.16.31-.11.37-.11" transform="translate(0.02)"/><path class="cls-4" d="M49.51,15.53c.27,0,0,.22,0,.19s-.22-.17,0-.19" transform="translate(0.02)"/><path class="cls-4" d="M53,15.78c-.71,0,.27-.53,0,0" transform="translate(0.02)"/><path class="cls-4" d="M53.52,15.8c.7-.13-.39-.45,0,0" transform="translate(0.02)"/><path class="cls-4" d="M49,15.76c.34.05.17,0,.35.15a1.09,1.09,0,0,0-.36,0c0-.05,0-.1,0-.15" transform="translate(0.02)"/><path class="cls-4" d="M49.63,15.83h.3v.1c-.19.05-.26,0-.3-.1" transform="translate(0.02)"/><path class="cls-4" d="M50.69,15.93a2.41,2.41,0,0,1-.38,0v-.1c.18,0,.33,0,.38.1" transform="translate(0.02)"/><path class="cls-4" d="M50.9,16.37c-.3.09-.3-.08-.49-.26a.43.43,0,0,1,.49.26" transform="translate(0.02)"/><path class="cls-4" d="M44,16.16c.5,0,.12.32.19.46s.45-.09.31.41c-.17,0-.3-.11-.44-.1s-.2.21-.26.2c-.3-.1-.07-.32,0-.46s.28.13.1-.25a.25.25,0,0,0,.14-.26" transform="translate(0.02)"/><path class="cls-4" d="M41.49,16.2c0,.37-.74.39-1,.22.07-.18.83-.21,1-.22" transform="translate(0.02)"/><path class="cls-4" d="M62.59,16.21c0,.3.26.55.25.84-.2,0-.23-.17-.38-.25,0,.26-.13.33-.39.22,0-.25-.06-.42.24-.38,0-.36-.25-.4.28-.43" transform="translate(0.02)"/><path class="cls-4" d="M47.27,16.23c0,.15.06.77-.25.63.12-.18.06-.65.25-.63" transform="translate(0.02)"/><path class="cls-4" d="M59.29,16.28c.16,0,.21.18.13.39a.68.68,0,0,1,.32.23c-.28.41-.45-.61-.45-.62" transform="translate(0.02)"/><path class="cls-4" d="M47.54,16.39c.26.23.3.3.26.64a6.11,6.11,0,0,1-.26-.64" transform="translate(0.02)"/><path class="cls-4" d="M53.35,16.39s-.3,0-.31.09c0,.32.8,0,.31-.09" transform="translate(0.02)"/><path class="cls-4" d="M50.45,17.2c0-.33-.47-.43-.49-.58-.05-.3,1.12.36.49.58" transform="translate(0.02)"/><path class="cls-4" d="M49.53,16.53a.26.26,0,0,0,.23.11c-.11.21-.22.12-.33,0,.07,0,.1,0,.1-.1" transform="translate(0.02)"/><path class="cls-4" d="M49.24,17c-.24,0-.43.05-.24-.41a.28.28,0,0,1,.24.41" transform="translate(0.02)"/><path class="cls-4" d="M63.11,16.85c.09,0,.12.22,0,.22a.14.14,0,0,1,0-.22" transform="translate(0.02)"/><path class="cls-4" d="M49.76,16.86c.33.05.24,0,.41.26-.32,0-.15.09-.52-.14.08,0,.12,0,.11-.12" transform="translate(0.02)"/><path class="cls-4" d="M47.5,16.87c0,.23.07.48-.26.55.08-.21.07-.45.26-.55" transform="translate(0.02)"/><path class="cls-4" d="M63.19,17.24c.29.22.1,1.28.1,1.59,0,.72,0,1.43,0,2.15,0,.26,0,3.3-.07,3.29a21.42,21.42,0,0,1,0-2.71c0-.27-.17-.47-.19-.7s.16-.43.18-.7a18.88,18.88,0,0,1,0-2.92" transform="translate(0.02)"/><path class="cls-4" d="M62.11,17.28c0,.13.14.08.15.11.1.23-.14.34-.14.6s.14.47.14.84,0,.49,0,.73-.23.6-.25.89a3.65,3.65,0,0,1-.27-2.17c0-.24,0-.39.06-.57s-.15-.41.3-.43" transform="translate(0.02)"/><path class="cls-4" d="M44.16,18.09c0,.25.14,2.93-.36,2.75-.27-.1-.18-1.26-.18-1.51v-.88c0-.2.11-.44.11-.58s-.32-.55,0-.6.27.61.4.82" transform="translate(0.02)"/><path class="cls-4" d="M44.45,17.27c.56.05.22.19.24.43s.08.71.1,1.11A4.59,4.59,0,0,1,44.9,20a2.52,2.52,0,0,1-.11.66c-.48.56-.38-1.22-.38-1.47a12.37,12.37,0,0,0,.05-1.34c0-.17-.14-.37,0-.57" transform="translate(0.02)"/><path class="cls-4" d="M62.68,17.39h.13c0,.82.45,2.29,0,3a1.49,1.49,0,0,1-.24-1.05c0-.57-.15-1.5.15-2" transform="translate(0.02)"/><path class="cls-4" d="M46.82,17.83c.13,0,.12.15.09.24h-.08a1.93,1.93,0,0,1,0-.24" transform="translate(0.02)"/><path class="cls-4" d="M66,18.07a2,2,0,0,1,.18.5,1.43,1.43,0,0,1-.46,0c0-.09.22-.42.28-.49" transform="translate(0.02)"/><path class="cls-4" d="M38.53,18.27a.35.35,0,0,0,.17.24.46.46,0,0,0-.14.17.2.2,0,0,0-.16-.15.36.36,0,0,0,.13-.26" transform="translate(0.02)"/><path class="cls-4" d="M40.59,18.27c0,.25,0,.07.13.26,0,.23-.39.11-.44.06.13-.11.09-.32.31-.32" transform="translate(0.02)"/><path class="cls-4" d="M51.82,19.43c-.26,0-.28-1.15-.24-1.16s.26,1.09.24,1.16" transform="translate(0.02)"/><path class="cls-4" d="M52.82,21.61c.26.29.11.22.15.54a1.44,1.44,0,0,0,.26.61c.14.25.52.54.62.74.18.37,0,0-.23.24,0,.15.27.43.31.56.11.39,0,.43.32.66a.82.82,0,0,0,.77.15c.09,0,.75-.37.58-.13s-.94.23-1.14.56c0,.11.48.31.31.52s-.44-.33-.52-.45a15.34,15.34,0,0,1-1.14-2.51,21.78,21.78,0,0,1-.76-2.37c-.17-.61-.71-1.72-.49-2.36a10.93,10.93,0,0,1,.39,1.41c.15.62.38,1.25.57,1.83" transform="translate(0.02)"/><path class="cls-4" d="M38.93,18.73c0,.19-.22.18-.3.12a.32.32,0,0,1,.3-.12" transform="translate(0.02)"/><path class="cls-4" d="M51.12,18.78c.09,0,.1.31,0,.31s-.1-.31,0-.31" transform="translate(0.02)"/><path class="cls-4" d="M38.14,18.94a.23.23,0,0,0,.06.2c.1.1,0,.17-.16.24,0,.26,0,.57,0,.84a6.52,6.52,0,0,0,.09,1.17c-.27-.09-.18-.17-.18-.47s0-.51,0-.77a3.69,3.69,0,0,1-.07-.9c-.27-.15,0-.23.09-.44l.18.13" transform="translate(0.02)"/><path class="cls-4" d="M66.93,20.61l-.18,0a2.18,2.18,0,0,0,0-.57c0-.1-.19-.15-.23-.24s-.3-.16-.21-.32.52,0,.53,0c.22.21.09.81.09,1.09" transform="translate(0.02)"/><path class="cls-4" d="M65.36,19.57c0,.09-.3.3-.32.36-.09.24.15.53.12.69-.1.46-.28-.16-.29-.19a4.12,4.12,0,0,1,0-.86h.49" transform="translate(0.02)"/><path class="cls-4" d="M41.81,19.71V21s-.37-.23-.38-.25c.15-.21.12-.27,0-.5s-.4-.44-.4-.53.65,0,.74,0" transform="translate(0.02)"/><path class="cls-4" d="M40.24,19.68c.07.09-.3.49-.32.63-.05.39.25.17-.16.53,0-.24-.1-.37-.13-.56-.08-.57.08-.61.61-.6" transform="translate(0.02)"/><path class="cls-4" d="M62.45,20.34s.25.36.25.37a.28.28,0,0,1-.4.27c-.3-.22,0-.4.15-.64" transform="translate(0.02)"/><path class="cls-4" d="M55.56,20.44c.08,0,.12.21,0,.22a.14.14,0,0,1,0-.22" transform="translate(0.02)"/><path class="cls-4" d="M44.35,21.7c-.42,0-.53-.93-.11-.91s.15.72.11.91" transform="translate(0.02)"/><path class="cls-4" d="M62.91,22.43a3.2,3.2,0,0,1,0,1.31c0,.18.09.79-.23.74s-.16-.66-.16-.82A5.89,5.89,0,0,1,62.81,21c.08.2.28,1.33.1,1.44" transform="translate(0.02)"/><path class="cls-4" d="M44.15,22.38c-.08.52,0,1.49,0,2.21-.56,0-.51-.31-.51-.82s.06-.82,0-1.17c0-.18-.18-.6,0-.78.41-.47.45.33.5.56" transform="translate(0.02)"/><path class="cls-4" d="M44.83,21.83c0,.93,0,1.86,0,2.77-.42,0-.29.08-.41-.3a2.76,2.76,0,0,1,0-.76,2.33,2.33,0,0,1,.11-1.09c-.28-.27-.11-1,.33-.62" transform="translate(0.02)"/><path class="cls-4" d="M42.84,24.1c.5,1.31-.35-.08,0,0" transform="translate(0.02)"/><path class="cls-4" d="M62.92,24.78c0,.11-.27.08-.31,0s.27-.08.31,0" transform="translate(0.02)"/><path class="cls-4" d="M68.34,25.37c-.19,0-.56.08-.57-.17a.52.52,0,0,1,.19-.32c.37-.16.41.25.38.49" transform="translate(0.02)"/><path class="cls-4" d="M56.55,25.15c.08,0,.08.07,0,.12s-.07-.07,0-.12" transform="translate(0.02)"/><path class="cls-4" d="M44.15,25.52c-.07.16-.22.89-.43.91,0-.31,0-.62,0-.93l.45,0" transform="translate(0.02)"/><path class="cls-4" d="M62.08,25.5a1.35,1.35,0,0,1-.31.83,5.61,5.61,0,0,1,0-.82c.1,0,.23.14.3,0" transform="translate(0.02)"/><path class="cls-4" d="M62.59,25.5c.48,0,.33.28.33.7a1.39,1.39,0,0,1-.33-.7" transform="translate(0.02)"/><path class="cls-4" d="M62.49,26.38a.58.58,0,0,0,.23,0c0,.27-.22.42-.25.71-.43-.16-.51-.94,0-1.06,0,.11,0,.22,0,.33" transform="translate(0.02)"/><path class="cls-4" d="M56.51,26.82c-.12,0-.12-.4,0-.4s.09.36,0,.4" transform="translate(0.02)"/><path class="cls-4" d="M68.12,27h-.49c0-.19.06-.6.37-.51s.11.36.12.51" transform="translate(0.02)"/><path class="cls-4" d="M69.34,27.1h-.58c.07-.22.08-.51.38-.47s.31.26.2.48" transform="translate(0.02)"/><path class="cls-4" d="M48.75,27.57l.17.19a.51.51,0,0,1-.3,0,.63.63,0,0,1,.13-.2" transform="translate(0.02)"/><path class="cls-4" d="M48.21,27.58a.53.53,0,0,1,.16.2.94.94,0,0,1-.29,0,.42.42,0,0,1,.13-.21" transform="translate(0.02)"/><path class="cls-4" d="M48.68,28a.23.23,0,0,1-.07.27c-.18,0-.33-.41.07-.27" transform="translate(0.02)"/><path class="cls-4" d="M53.54,28c.28.23,0,.54.28.84-.36.18.23,1.23-.15,1.31-.39-.41-.25-1.66-.13-2.15" transform="translate(0.02)"/><path class="cls-4" d="M68.94,28.82c-.27,0-1.3-.06-1.09-.57s1.06.24,1.09.57" transform="translate(0.02)"/><path class="cls-4" d="M48.72,28.68a.48.48,0,0,1,0,.2c-.1,0,.08-.48.08-.48s0,.3,0,.28" transform="translate(0.02)"/><path class="cls-4" d="M47.89,28.78c.22.61-.38.95-.44,1.49-.25-.19.15-.57.25-.82,0-.09.13-.67.19-.67" transform="translate(0.02)"/><path class="cls-4" d="M68.83,29.29c-.09.31-1,.44-1.08.09-.18-.65.88-.23,1.08-.09" transform="translate(0.02)"/><path class="cls-4" d="M57.37,29.46c.24-.08.3,0,.19.25l-.19-.25" transform="translate(0.02)"/><path class="cls-4" d="M54.57,30.26c-.31,0-.14-.39,0-.46a.9.9,0,0,1,0,.46" transform="translate(0.02)"/><path class="cls-4" d="M53.06,29.88c.35-.07.09.23.06.17s-.34-.12-.06-.17" transform="translate(0.02)"/><path class="cls-4" d="M48.57,30.47c0,.09.29,1.2-.31.8-.37-.25,0-.82.31-.8" transform="translate(0.02)"/><path class="cls-4" d="M47.8,30.54c.2.05.18.71,0,.71s0-.26,0-.31a2.36,2.36,0,0,0-.11-.36.22.22,0,0,1,.21,0" transform="translate(0.02)"/><path class="cls-4" d="M52.29,31.06c-.06,0-.1,0-.13,0s.18-.09.13,0" transform="translate(0.02)"/><path class="cls-4" d="M52.5,31.32c.08.25-.36.21-.35.1s.29-.13.35-.1" transform="translate(0.02)"/><path class="cls-4" d="M58,32.3c.05.12-.13.12-.13.05s.06-.09.13-.05" transform="translate(0.02)"/><path class="cls-4" d="M49.19,32.8a.1.1,0,0,1-.17,0c0-.08.19-.11.17,0" transform="translate(0.02)"/><path class="cls-4" d="M66.57,33.4c.67-.1,1.37.86.44.82-.36,0-1-.74-.44-.82" transform="translate(0.02)"/><path class="cls-4" d="M53.64,33.47c0,.1-.27.44-.4.32s.3-.34.4-.32" transform="translate(0.02)"/><path class="cls-4" d="M39.76,34.82l.49,0c-.14.1-.2.28-.41.25a.29.29,0,0,0-.08-.27" transform="translate(0.02)"/><path class="cls-4" d="M50.85,35.23c.1,0,.4.22.39.33s-.43-.2-.39-.33" transform="translate(0.02)"/><path class="cls-4" d="M40.51,38c.15-.24,1.32-.06,1.58-.06H62.24c.33,0,2.74-.23,2.86.06,0,0-2.14.09-2.4.09H43.42c-.34,0-2.81.2-2.91-.09" transform="translate(0.02)"/><path class="cls-4" d="M51.18,38.75c0,.16-.15.68-.33.7,0-.14.11-.8.33-.7" transform="translate(0.02)"/><path class="cls-4" d="M41.93,39.41a.44.44,0,0,1,.31-.27c.11.17-.16.41-.31.27" transform="translate(0.02)"/><path class="cls-4" d="M54.25,40.11c.08.37.57.19,1,.23A9.34,9.34,0,0,0,57,40.28a1.29,1.29,0,0,1-.36.54c-.25.25-.15.25-.46.22-.48,0-.72-.27-1.24-.18a1.94,1.94,0,0,0-1,.41c-.14.14-.41.89-.54.94s-.31-.49-.47-.67a2,2,0,0,0-1.18-.61c-.86-.12-1.4.52-1.82-.53.62,0,1.26,0,1.86,0a2.9,2.9,0,0,0,.72,0c.23-.08.55-.72.86-.75s.66.38.84.55" transform="translate(0.02)"/><path class="cls-4" d="M52.94,43c.07.33-.24.19-.27.22s.09-.3.27-.22" transform="translate(0.02)"/><path class="cls-4" d="M53.38,43.14a5.65,5.65,0,0,1,0,.59c-.17-.09-.37-.57,0-.59" transform="translate(0.02)"/><path class="cls-4" d="M51.17,45.2c-.24.3-.3.35-.56,0,.34-.19.29-.28.56,0" transform="translate(0.02)"/><path class="cls-4" d="M52.34,46.36c-.35-.23.85-1.09,0,0" transform="translate(0.02)"/><path class="cls-4" d="M50.42,45.88c.4,0,.37.58.11.66s-.6-.6-.11-.66" transform="translate(0.02)"/><path class="cls-4" d="M53.1,16.2a.23.23,0,0,0,.29,0c-.06.16-.17.14-.29,0" transform="translate(0.02)"/><path class="cls-4" d="M46.36,5.11c0,.1-.12.15-.09.27s.68.06.83.06c.82,0,1.62-.09,2.43-.09H54.2c1.38,0,2.7-.1,4.07-.09.17,0,1.25.13,1.35,0S59.07,5.1,59,5.1H57.69c-1.45,0-2.8.12-4.24.12h-6.2c-.1,0-.7,0-.62-.1s1.58,0,1.84,0H50.9a9.94,9.94,0,0,0,2,0c.2,0,.33-.14.52-.18a24.53,24.53,0,0,1,4,0H59.1c.86,0,1.42.64,2.07,1.17a24.11,24.11,0,0,1,8.74,14.76A24.84,24.84,0,0,1,67,37.53,25.81,25.81,0,0,1,53.73,48.47c-1.1.42-2.86-.79-3.85-1.29a26.1,26.1,0,0,1-3.83-2.39,27.24,27.24,0,0,1-5.74-6A22.59,22.59,0,0,1,36.92,31a26.66,26.66,0,0,1-.66-8.44A25.12,25.12,0,0,1,43.15,7.87,20.68,20.68,0,0,1,44.7,6.45a7,7,0,0,1,1.66-1.34m6.18,12.94a2.92,2.92,0,0,0,.83.29c0-.35-.31-.15-.55-.25s-.53-.58-.77-.49c.14.66.36,1.3.55,1.95.08.27.12.63.32.76s.52-.09.57.22c0,.07-.2,0-.26.09s0,.19,0,.37c-.39,0-.69-1.31-.77-1.54s-.35-1.85-.59-1.88c0,.09.09.54,0,.57s0-.45-.07-.51c-.22-.35-.63-.07-.8.13a1.16,1.16,0,0,0-.26,1c0,.11.3,1.11.45,1.09s0-.57.09-.68c.12,0,.15,1.06.17,1.26s-.1.21-.09.32a2.43,2.43,0,0,0,.37.88,3.94,3.94,0,0,1,.56,1.57c.05.35.56,1.86.36,2.11-.21-.15-.51-2.27-.74-2.19s.44,1.92.53,2.07.3.26.31.3c.13.45-.17.27-.38.27a5.53,5.53,0,0,1,.2,2.55c-.1.25-.38.32-.4.55,0-.05.44.68.1.6-.15,0-.32-.52-.49-.62-.6-.37-.09.25.11.5.39.48.6.87,1.24,1a4.84,4.84,0,0,1,1,.23c.15.08.26.25.41.29.6.15,1-.43,1.26-.86s.42-.6.63-.9a1,1,0,0,0,.29-.47.5.5,0,0,0-.19-.1c0-.12,0-.57-.31-.62-.47-.08-.4.54-.46.87s-.27,1.79-.7,1.71c-.09,0,.21-1,.21-1,0-.19-.13-.22-.13-.42a4.45,4.45,0,0,1,.23-.94c0-.14.46-1.55.27-1.55s-.78,1.33-.93,1.55a5.38,5.38,0,0,1-1.53-2,8,8,0,0,1-.52-1.66c-.17-.81-.22-1.62-.36-2.43,0-.28-.68-2.27-.43-2.39.39.31.42,1.72.53,2.21a15.89,15.89,0,0,0,.82,2.5,5.36,5.36,0,0,0,1.09,2c.61.45.86-.27.82-.76a1.28,1.28,0,0,0,.85-.6c.17-.34,0-.44,0-.76a9.72,9.72,0,0,0,.39-1.6c-.26,0-.75,1.28-.88,1.48s-.14.27-.39.37-.64.07-.7-.06c.18-.13.24-.05.34-.27s-.08-.37,0-.42.06.37.24.19a1.31,1.31,0,0,0,.07-.68.19.19,0,0,0-.29-.12c-.09-.16,0-.22.16-.2s.46-.23.46-.4a3.13,3.13,0,0,0-.54-.12c-.13,0-.37.15-.45.09.1-.26,0-.14-.11-.38.16,0,.27-.14.44-.14.08-.36-1.06-.42-1.11-.73.14-.13.51.28.75.1,0,.41.46.24.66.21a.49.49,0,0,0,0-.24c-.11,0-.49.1-.56-.06.13-.11.32-.05.47-.18s0-.42.24-.45c-.2-.16-.16-.43-.48-.26-.15.09-.15.35-.23.41a2.86,2.86,0,0,1-.18-.52l.4-.24a1.77,1.77,0,0,0,.33.19,3,3,0,0,0-.1-1.12c.08-.12.06-.18.11-.29s0-.29.31-.19c0,.07,0,.14,0,.2,0,.21,0,.28.22.22,0,.1,0,.19,0,.29-.18,0-.22.12-.09.35.09,0,.11.06.08.15a5.53,5.53,0,0,1-.1.55c0,.24.08.3.08.49,0,.48-.44,1-.41,1.45.29,0,1.26-.05,1.35-.31s-.82.08-1,.06c.11-.38.25-.72.33-1.1s.27-.62-.08-.76c0-.23.69-.26.87-.29a2.08,2.08,0,0,1,.61,0c.53,0,.91-.48,1.46-.46,0,.06-.09.45-.19.43,0-.52-.34.26-.34.43a.21.21,0,0,0,.21-.06s.07.39-.06.39.07-.24-.16-.18a1.54,1.54,0,0,1-.09.75c-.07.21-.39,1.36-.11,1.11s.14-.65.19-.87a7.27,7.27,0,0,1,.54-1.36c.13-.25.52-.61.38-.86s-.46-.27-.62-.3a1.48,1.48,0,0,0-.74.21c-.06,0-.16,0-.24,0s0,.23-.1.25a2.41,2.41,0,0,1-1-.18c-.48-.35-.6-1.36-1-1.83-.25-.28-1.06-.64-.54-.11a3.69,3.69,0,0,1,.48.37,2.16,2.16,0,0,1,.53.78c-.14.07-.59-.65-.73-.73a1.93,1.93,0,0,0-.48-.16c-.25,0-.15,0-.37.22s-1.35,1-1.62.16M55.73,5.4a.39.39,0,0,0,.13.71c.21,0,0-.68-.13-.71m-7.13.22.33.36c.17.11.08.44.24,0,.1.07,0,.35.18.37a1,1,0,0,0,0-.57c-.24-.67.08,0-.16-.17-.07-.05-.44-.17-.37-.18-.15,0-.16,0-.25.19m7.75-.21c-.13.2-.33,1,.1,1s.32-1-.1-1m.7,0c0,.21-.13.51-.13.73.19,0,.32-.16.44-.36a1.52,1.52,0,0,0,.24-.4,2.54,2.54,0,0,0-.55,0m3,0s-.74.14-.73.12a1.73,1.73,0,0,0,0,.75c.18.28.93.25.88-.17-.13,0-.84.22-.67-.26s.38,0,.55,0,.11-.45,0-.46m-6.25.18c.1.16-.09.62.24.52,0,0,.39-.56.36-.66-.24,0-.48-.12-.6.14m-3-.14c-.72-.24-.5.89-.38.89l.27-.49c.07-.13.48-.29.11-.4M46,6.17c0,.46.8.3.93,0,.36-.79-.67-.48-.83-.76a24.67,24.67,0,0,0-9.76,18,25.79,25.79,0,0,0,1.48,10.19,24.31,24.31,0,0,0,5.67,8.73A23.2,23.2,0,0,0,52.12,48a3.29,3.29,0,0,0,1.33.37,6,6,0,0,0,1.2-.45A24.66,24.66,0,0,0,57,46.83a28.63,28.63,0,0,0,4.33-2.89,24.22,24.22,0,0,0,6.16-29.61,22.25,22.25,0,0,0-3.22-5,29.61,29.61,0,0,0-2.16-2.18C62,7,60.53,5.58,60.38,5.67c0,.3,1.9,1.61,1.76,1.75s-.36-.16-.3.26a.42.42,0,0,0,.42.3c.23,0,.19-.18.4-.13s.75.76.93,1a.31.31,0,0,0-.32,0c-.06.21.43.48.44.46s-.3,0-.32,0,.33.08.41.13v.07c-.35,0-.28.44-.34.65s-.19.34-.18.44a2.37,2.37,0,0,1,.08.43c.06.13-.11.14.17.12s.56-.18.55-.58a4.1,4.1,0,0,0-.17-.73c0-.25.06-.33.07-.61,3,3,4.79,7.56,5.59,11.61A24,24,0,0,1,68.39,34a29.08,29.08,0,0,1-3,5.51,23.16,23.16,0,0,1-4.18,4.33A23.35,23.35,0,0,1,56.3,47a9.86,9.86,0,0,1-2.82,1.24c-.86.13-2-.56-2.78-.94a23.91,23.91,0,0,1-6.15-4.14c-.46-.45-.9-.91-1.34-1.37-.24-.24-1.15-.9-1.21-1.25,0-.13,0-.35.22-.28s0,.27.12.34.68-.49,1-.59c-.18-.24-.22-.13-.47-.2-.41-.11-.17-.18-.61,0-.13,0-.39.32-.55.29s-.63-.84-.75-1A21.16,21.16,0,0,1,38.62,35a23.11,23.11,0,0,1-2.13-9.13,26,26,0,0,1,1.34-9,34.86,34.86,0,0,1,2-4.29C40.05,12.24,42,9,42.47,9.18a.21.21,0,0,0-.09.21c.07.09.23-.06.32,0a.27.27,0,0,0-.12.17c.29.21.36-.36.5-.48-.74-.25.52-1.36.72-1.26,0,.25-.17.14,0,.28-.1-.07.44,0,.39,0a2.07,2.07,0,0,0,.14-.42,1.21,1.21,0,0,0-.21-.24c.12-.14.25-.28.38-.41A8.69,8.69,0,0,1,46.1,5.67c.15.23-.06.34-.08.5m6.62-.72c-.24.66-.12.88-.53,1.38-.15.18.21.58,0,.69,0,0-.06-.35-.26-.35a.71.71,0,0,0,.09-.28c-.24-.17-.9.43-.78.74s.46-.21.66.18c-.17,0-.39.14-.57.14s-.28-.08-.38-.08a1.13,1.13,0,0,0-.64.28c-.15.11,0,.14-.22.26a3.93,3.93,0,0,1-.7.28c-.28.13-1,.48-1.26.34.21-.27.09-.34.16-.56,0,0,0-.16,0-.23s.3-.09.33,0-.27.41,0,.54.37-.33.51-.4.24.11.43.06a1,1,0,0,0,.44-.35c.22-.33.29-1.31-.28-1.37a4.44,4.44,0,0,0,0,.89V8q.21-.06.18.09c-.61.78-1.42-.94-1.95-.07-.1.17.06.42,0,.55s-.05.2-.05.2c-.1.35-.52.47-.85.76-1,.89-.71,2.62-.73,3.82,0,.48-.24,1.71.1,2s.78,0,1-.22c0,.37.38.28-.23.39-.16,0-.76-.11-.85.06.12.24,1.25.12,1.38-.07s0-.71,0-.91a1.17,1.17,0,0,1,.4-.95,1.35,1.35,0,0,1,.72-.37c.18,0,.69.23.8.17.06-.48-1.13-.27-1.32-.16a11.38,11.38,0,0,0-.79,1c-.3,0,.65-1,.77-1.09a1.55,1.55,0,0,1,1-.15c.29.1.31.34.65.33s.44-.43.72-.72a2.27,2.27,0,0,1,1-.57c.67-.26,1.58-.68,1.66-1.51.3,1.32,1.36,1.12,2.18,1.87.32.29.31.79.71.95s.54-.18.91-.37a1.55,1.55,0,0,1,2.21,1.27c.1.5-.21,1.23.56,1,.41-.1.23,0,.35-.33a3.54,3.54,0,0,0,0-1c0-1-.05-1.88-.12-2.85a4.24,4.24,0,0,0-.51-1.54,2.26,2.26,0,0,0-.25-.29A.22.22,0,0,0,59.41,9c0-.27,0-.54,0-.8s0-1.07.21-1.19.19.31.22.52.2,2.35.24,2.36c.21,0,.12-1.06.12-1.3s.05-.83,0-1.22-.51-.92-1-.51.29,1.83-.12,2.35c-.14-.16-.37-.23-.51-.38.15.16-.29-.42-.21-.21-.14-.35.07-.5-.2-.77a.61.61,0,0,0-.94,0c-.32.39-.05.44,0,.77-.66.17-1.19-.46-1.56-.71s-.87.15-1.2-.2c.05,0,.45-.2.38-.14.17-.15.2,0,.1-.26-.05-.13-.48-.46-.69-.41a5.4,5.4,0,0,1,0,.66c-.28.07-.22-.64-.28-.8a5.14,5.14,0,0,0-.49-1c0-.25-.14-.34-.38-.25a3.33,3.33,0,0,0-.55,0m-.25.11c0-.2-.5-.18-.53,0s.42.41.52.41a1.29,1.29,0,0,0,0-.44m-.31.87c.47,0-.1-.6-.16-.65-.53-.47-.13,0-.32,0s-.1.11-.21.12-.11-.26-.09-.26c-.28,0-.83.64-.61.66s.19-.38.36-.35c.33,0,0,.35.41.32s.09-.41.41-.3c.12,0,.12.42.21.42m6.76-.61c.07.16.23.61.33.22s-.32-.82-.33-.22M49,6.26c0-.4-.61-.75-1-.7a.81.81,0,0,0-.54.27s-.45.61-.11.61c.18-.22.07-.55.41-.45.16,0,.11.43.33.45s.28-.34.33-.4.45.4.48.4L49,6.26m.57-.7c0,.26,0,1.22.47.78a.87.87,0,0,0,.06-.67c-.13-.18-.25-.12-.53-.11m-2.39,0c-.12.08-.05.33,0,.43l.43-.4a.86.86,0,0,0-.39,0M58.06,6c-.4,0,0-.56-.54-.3,0,0-.41.62-.18.68s0-.28.22-.34.23.07.32.13-.1.31.25.28c.14,0,0-.51.45-.41,0,.19.07.27.23.34a.54.54,0,0,0-.31-.66c-.37-.09-.1.28-.44.28m-2.61.19a.25.25,0,0,0,.11.18c.22,0-.51-1.33-.63-.25-.07-.06-.75-.59-.56-.09.41,0,.17.38.53.44.2,0,.24-.88.55-.28m-9.26.52c3.51-.07,5.88.07,5.88-.06a22.43,22.43,0,0,0-2.91-.09h-2a4,4,0,0,0-1.2,0c0,.15.17.13.27.13m10-.15a10,10,0,0,0-1.83,0,22.44,22.44,0,0,0,2.74.11,21.57,21.57,0,0,0,3.09-.08,28.72,28.72,0,0,0-4-.07m1.4.57a.31.31,0,0,0-.11.16.25.25,0,0,0,.26,0c0-.24.25-.5.55-.23.14.13,0,.3.1.44s.17,0,.27.15.34,1.2.35,1.2.07-.79.05-.88c-.07-.29-.3-.41-.46-.65s0-.28-.3-.47-.69-.18-.71.25M48.72,7c-.07-.25-.39-.31-.6-.3-.55,0-.36.3-.52.62s-.37.28-.46.61c0,.18-.06,1.31.24.85.15-.23,0-.8.07-1.06,0-.1.3-.37.38-.51.29-.48.42-.44.64,0,.1.21,0,.21.22.39a1.06,1.06,0,0,0,.44.21c.07-.3-.12-.19-.23-.41l-.16-.07c0-.11,0-.22,0-.33m-1.44-.26c-.08.2-.22.52.07.62.09-.06.24-.85-.07-.62m9.35,0c-.44-.43-.49.63-.36.8.38.47.35-.53.36-.8M47,8.8a10.78,10.78,0,0,0,.09-1.48c-.08-.63-.8-.82-1-.16a7.26,7.26,0,0,0,0,2.08c0,.16,0,1,.19,1,.17-.19,0-.73.05-1s.11-.51.12-.75c0-.45-.18-.82,0-1.26,0-.05.06-.55.32-.29.07.07,0,.56,0,.67s0,1.68.17,1.71C47,9.25,47,9,47,8.8m1.86-1.91c0,.15,0,.52.2.45s.13-.5,0-.58a.41.41,0,0,0-.23.13m1.81-.13a.62.62,0,0,0-.14.31c.2,0,.27,0,.22.26a.26.26,0,0,0-.13.29c.3,0,.68-.66.28-.79-.06.07,0,.25-.11.24A.77.77,0,0,0,50.63,6.76Zm5,.5c0,.08-.43-.46-.33-.42-.23-.08-.3.11-.17.36a1.36,1.36,0,0,0,.37.35c.3,0,.15-.16.13-.29m3.06-.48c0,.16,0,.38,0,.54.3,0,.3-.62,0-.54m-1.46.14c0,.06-.07.45.09.4s.08-.51,0-.49l-.07.09m-8,.24c0,.11-.09.72,0,.79s.2-.35.2-.43c0-.29-.19-1-.22-.36m7.29.68a.19.19,0,0,1-.27.1c0,.44.62.27.67-.1A1.34,1.34,0,0,0,56.55,7.84Zm6.08,2.6c.11.22.43.53.56.24,0-.06-.22-.84-.24-1-.07-.32-.45-1.82-.88-1.59-.2.1-.2.85-.25,1.07-.07.38-.31.81-.36,1.17-.15,1.22.84-.65.93-.69.22.16.13.54.24.76m-17.72,0a17.62,17.62,0,0,0-.54-1.7c-.09-.29-.09-.59-.41-.4s-.27,1-.34,1.25a8.28,8.28,0,0,0-.45,1.23c.55.08.51-.71.88-.78s.67.65.86.89a2,2,0,0,0,0-.49M60.8,8.68c-.68.65,1.15.61.18-.21l-.18.21m-15.58.14h-.29c.12.17.08.83.5.68A.89.89,0,0,0,45.72,9a.32.32,0,0,0-.23-.32c-.19-.1-.13-.24-.27.11m15.36.54c.57,0-1.09,2.4.53,1.89.47-.15.25-.33.17-.74a2.86,2.86,0,0,1-.1-1.16c-.11-.11-.52-.2-.6,0m-.12.55c.18,0,.16-.7-.2-.2a.23.23,0,0,0,.2.2M45.73,9.62a.44.44,0,0,0,.08.2c.45-.18,0-.26-.08-.2m-.08.63c-.09-.72-.34-.7-.49,0,0,.11-.24.79-.15.88.24.27.27,0,.45-.17.09,0,.22.57.44.26a7.09,7.09,0,0,0-.25-.95M43,10.93c-.07-.16,0-1.27-.39-1.2-.14,0-.29,1.38-.29,1.48a1.42,1.42,0,0,0,.91,0,.89.89,0,0,0-.23-.28m19.09-.54c-.17.32,0,.37.23.09.08-.1.16-.6,0-.57a2.56,2.56,0,0,1-.22.48m-18-.24a6.26,6.26,0,0,0-.84.92c0,.2.8-.63.8-.64s.52.84.66.68a6.05,6.05,0,0,0-.62-1m17.93.71c0-.2-.47.07-.35.27s.34-.17.35-.27m.88.65a4.35,4.35,0,0,0-.22-.54c-.23-.15-.09.09-.18.16s-.28.52-.39.63,0-.23-.27,0a2,2,0,0,0-.33.32l-.16,0v.43c0,.24,0,.49,0,.74s0,1.25.15,1.26,0-1.74.07-1.94.25-.16.33-.26.07-.26.2-.36c.3-.22.42-.05.56.15s.46,1.14.37.15c0-.14,0-.31-.08-.42a.32.32,0,0,0-.32,0c-.27-.36.24-.17.27-.33m-7.14,1.85c-.19-.21-.21-.59-.43-.82a1.56,1.56,0,0,0-.64-.38,4.72,4.72,0,0,1-1.55-1,3.78,3.78,0,0,1-1.69,1c-.26.11-1.42.85-1.11,1.25.21,0,.31-.43.4-.56a1.46,1.46,0,0,1,.7-.52,4.59,4.59,0,0,0,1.73-1,2.56,2.56,0,0,0,.92.72,3.36,3.36,0,0,1,1,.47,2.34,2.34,0,0,1,.47.66s.38.61.45.25a.88.88,0,0,1-.22-.1m5.93-2c-.22.25.54.22.35-.13a.49.49,0,0,0-.35.13m-18.16-.13c-.1,0-.2.23-.2.29s.29-.08.36,0,.25.24.3.24c.2,0,.41-.12.52-.42-.29-.23-.29.19-.5.18s-.3-.23-.48-.25m19.75.09c0,.09-.41.51-.09.59s.4-.51.09-.59m.57.11c0,.15.24.48.4.48,0-.19.07-.52-.09-.57s-.31,0-.31.09m-17.8.24c-.19-.59-1.09-.15-1-.11s.4-.11.57-.05c.33.11.15.26.29.43s.22-.17.18-.27m15.28.06c.14,0-.08-.35-.1-.37-.26,0-.07.4.1.37m-18.26,0c0-.14-.16-.4-.31-.36s.11.27.12.36-.29,0-.45.28a1.14,1.14,0,0,0-.09.69c0,.43-.26,1.4.24,1.47s.43-.74.43-1.14c0-.25-.06-.63-.06-.83a.24.24,0,0,1-.09-.28.29.29,0,0,0,.21-.19m-1,0c0,.3.26,0,.27-.13,0-.31-.28-.06-.27.13m18.35-.28a.64.64,0,0,0,0,.24.55.55,0,0,0,.29-.18.36.36,0,0,0-.25-.06M45.74,13.57c0-.38.24-1.6-.18-1.83s-.16.11-.29.25c-.27-.07-.35,0-.25.27a.26.26,0,0,1,0,.15c0,.1-.34-.65-.35-.66-.38-.23-.28.31-.21.51s.05.16.21.13c0,.22,0,.44,0,.65s0,.66,0,1a8.14,8.14,0,0,1-.18,1.39c.42-.14.42-1,.42-1.34,0-.15-.12-1.17,0-1.27.3.06-.08,1.11,0,1.29s.23.16.42.13c.38-.06.31-.29.31-.65m15.3.54c.44,0,.38-2.31-.06-2.41s-.81,2.44.06,2.41m2.55-2.27a.63.63,0,0,0-.21.4c-.05.2,0,.2,0,.39s0,.59,0,.89-.09.51.3.61c.77.21.53-1.09.51-1.57s-.19-1.11-.59-.72M40.65,11.7c0,.13-.43.35-.46.56a2.14,2.14,0,0,0,.07.47.28.28,0,0,0-.07.18c0,.07.2.1.22.17a1.13,1.13,0,0,1,0,.75c-.1-.12,0-.37-.08-.51-.22,0-.43.71-.41.88,0,.34.24.26.16.69s-.39.65-.35.94.28.35.59.48c0,.28-.67-.13-.64.16.41,0,.73.15,1.16.16s.48-.09.59.33a3,3,0,0,1,0,.89c0,.15-.36-.06-.11.2l.3,0c.44,0,.21,0,.16-.41s0-.89-.09-1.21a3.26,3.26,0,0,0-.23-1.08c-.32-.63-.07.38-.13.55-.21,0-.33-1.08-.35-1.18-.08-.36-.26-.87-.31-1.22a1.24,1.24,0,0,1,0-.43A.32.32,0,0,0,41,13a1.22,1.22,0,0,0,0-.38c0-.34.09-.16,0-.43a1,1,0,0,0-.4-.45m2.79.36a1.46,1.46,0,0,0-.11,1.06,11.12,11.12,0,0,1,.06,1.53c0,.16-.13,1.06,0,1.18s.44-.16.42-.41-.25-.47-.27-.72.06-.68.06-1,0-.57,0-.85.28-.83.22-1c-.21-.07-.31.12-.4.26m22.42.23c.51-.3-.49-.4-.49,0a.86.86,0,0,0,.13.14,4,4,0,0,0,0,.49c0,.09.36.18.45.21.08-.25.51-.59-.07-.35,0-.16,0-.31,0-.46m-21.93.08c0,.23-.18.45-.2.72a6.47,6.47,0,0,0,.05.76c0,.14.11.79.34.8s.22-.5.23-.64-.12-.22-.1-.34.23-.12.25-.25c.06-.33-.16-.47-.25-.73a2.48,2.48,0,0,1,0-.39c-.12-.24-.3-.31-.32.07m18.56.13c0-.19.11-.47-.19-.37a4.09,4.09,0,0,1-.28.68c0,.14-.23.6-.18.74s.17.17.32.41.16,1,.47.28a4.81,4.81,0,0,0,.1-.93,3.13,3.13,0,0,0,0-.53,1.35,1.35,0,0,1-.25-.28m-16.58,0c-.24.7.07,1.7-.11,2.47,0,.07-.15.38-.15.39,0,.34.1.17.17.33a3.87,3.87,0,0,1,.09,1.4c0,1.89.12,3.75.12,5.67,0,.25.2,2.38-.43,1.77a.93.93,0,0,1-.13-.53c.07-.38.05.07.25.16.38.17.07.11.13-.22a9,9,0,0,0,.07-1.57c0-.88,0-1.74-.09-2.57,0-.4.26-1.27-.43-1.06-.39.12-.12,0-.23.34a4.68,4.68,0,0,0,0,1c0,1.28-.16,2.66,0,3.94,0,0,.2.64,0,.66s-.14-.86-.14-.95a12.36,12.36,0,0,0,0-1.61c0-.21-.15-.41-.18-.6a2.23,2.23,0,0,1,.16-.83,10.15,10.15,0,0,0,0-1.46c0-.43-.09-.43.27-.58,0,0,.45,0,.5,0,.24-.25-.18-.22-.25-.24-.32-.11-.34.09-.51-.17-.3-.47.1-1.15-.23-1.62a4.67,4.67,0,0,0-.66-.72c-.26,0-.68.78-.7.92s0,.65,0,.9a10.36,10.36,0,0,0,0,1.13A20.31,20.31,0,0,0,43.61,21a5.59,5.59,0,0,1-.1.95c0,.62,0,1.26,0,1.88a3.16,3.16,0,0,0,0,.92,3.08,3.08,0,0,0,1,0c.4,0,.69.09,1-.18.52.47.65.15.72-.42a17.81,17.81,0,0,0,0-1.79c0-1.45,0-2.9,0-4.35a4.05,4.05,0,0,0-.12-.84,14.43,14.43,0,0,1,0-2.37c0-.27.22-2.65-.1-2.74l-.06.35m14.36.2a2.66,2.66,0,0,1,.11.87c0,.28-.26,1.8.13,1.67,0-.34,0-.66,0-.91s-.06-.4-.06-.61S60.67,12.55,60.27,12.66Zm-1.14,1.58a1.48,1.48,0,0,0-.88-1.19c-.41-.16-1.26-.18-1.5.3s.29,0,.42-.11a1.11,1.11,0,0,1,1.32.17,2,2,0,0,1,.5,1.3c.06.6-.13.83.47.93.25,0,1.11,0,.49-.24-.16-.05-.61.1-.73,0s-.06-.94-.09-1.15M53,13.09c-.06.13-.49.59,0,.57-.09.27-.07.18-.39.22,0-.2.13-.28,0-.46a.36.36,0,0,0-.42-.1c.29-.18-.14.4-.14.39s.28.15.33.2-.13.19-.21.15-.1-.08-.21-.16-.36-.49-.35-.06c0,0,.4.75.42.77.25.26.37,0,.66,0,0,.12-.36.37-.15.49s.6-.46.67-.54c-.18.07-.27,0-.26-.1.37,0,.34-.08.65.22.13.12.34.51.58.39-.08-.33,0-.28-.21-.5s-.46.14-.3-.19c.25.05.6.32.85.29a5.17,5.17,0,0,1,.2-1.21c-.18.16-.22.51-.42.52,0-.29.08-.45.1-.77-.27,0-.43.28-.58.45.54.08-.28.46-.39,0,0-.16.2-.11.08-.36s-.17-.19-.45-.2m13.23.61c-.16-.06-.13-.37-.17-.49-.29.12-.5,1.38-.51,1.67.84.14.08-.61.49-1,.39.33-.06.07.24.2,0-.13,0-.26,0-.39m-.87.7c.17-.15.53-.72.41-1-.22-.46-.29.3-.35.4-.15.25-.4.17-.53.4s.25.67.53.62c0-.1,0-.2,0-.3a.14.14,0,0,1-.13.07c-.1-.09-.07-.16.09-.23m-24.38-.9c0,.17.31,1.63.44,1.56a4.17,4.17,0,0,0-.1-.83c0-.09-.29-1-.34-.73m25.59.38c0-.21,0-.22-.23-.31a1.74,1.74,0,0,0,.24.94c.51.05.07-.08.2.33.48.2.82-1,0-.54,0-.2-.25-.23-.26-.42m-26.87.29a.37.37,0,0,0-.36.38c0,.24.31.22.44.32-.06.29-.28.28-.42.48a2.23,2.23,0,0,0-.28.58c-.13.55.41.59.58.24,0,0,0-.36,0-.44a7.21,7.21,0,0,1,.3-.77c.05-.15.15-.21.11-.39a3.78,3.78,0,0,1-.4-.4m23.53.38s0,.71.21.39c-.17-.35.12-.5-.18-.74l0,.35m3.07-.35c-.13,0-.15.52-.12.58s.51.43.49.43c0-.15-.18-1-.37-1m-24.73.1c-.06.15-.08.86.2.52.1-.12.07-.71-.2-.52m4,.07c0-.11-.16-.08-.16,0s.16.13.16,0m-3.44,0a1,1,0,0,0-.26.71,1,1,0,0,0,.48-.74.18.18,0,0,0-.22,0m22.66.44c-.07-.18-.07-.41-.31-.49-.06.21-.21.31,0,.57s.43.28.28-.08m-3.84-.38c-.15.21-.29.1-.19.4s.54.26.41.57a2.25,2.25,0,0,0,.52.07,4.07,4.07,0,0,0-.16-.67c-.16-.39-.19-.36-.58-.37m2.49.19a2.24,2.24,0,0,0,.32.51c.17.24-.06.2.24.3a.4.4,0,0,0,.45-.11c.09-.18-.09-.6-.21-.72s-.78-.37-.8,0m-.4,0c.08,0,.09-.23,0-.2s-.07.15,0,.2m-20.24.79c.3-.37.26-1.29-.3-.78a1.75,1.75,0,0,0-.26.66.31.31,0,0,0,.56.12m2.62.11a2.84,2.84,0,0,0,.35-.78.39.39,0,0,0-.59-.19c-.35.24-.48,1.25.24,1m3.81-.9a1.73,1.73,0,0,0-.1.59c0,.06.28,0,.28,0,0,.2-.12.08-.23.2s-.83,1-.29,1.08c-.34.13.21,1.3.62.54.16.18.32.76.45.31.21.35.87-.12,1-.29.34-.36.23-.72,0-1.14a1.23,1.23,0,0,0-.77-.66c-.16,0-.54.07-.67,0s-.11-.76-.36-.63m13.36.16a.09.09,0,0,0,0-.14.09.09,0,0,0-.15,0c0,.07,0,.1.11.1m-8.6.39c-.16-.12-.51-.56-.72-.55s-.61.49-.7.65c-.29.52.07,1.06.08,1.6s-.19,1,.52,1.12.86-.46.81-1.07c-.18.12-.25.34-.52.3v-.07c.6,0,.52-1,.75-1.08.05.25.22.31.41.13s.06-.45,0-.61-.16-.5-.2-.77c-.26.26-.19.39-.2.75C53.92,15.58,54.2,15.24,53.93,15.19Zm8.38-.37c0-.1-.18-.07-.18,0s.18.12.18,0M43,15.16c-.09.21-.09,1,.25.73a1.73,1.73,0,0,0,0-1.06c-.05,0-.2.33-.2.33m9.14-.29c-.28.12-.7.92-.43,1.22.07.08.41,0,.49,0s.16-1.18-.06-1.18M62.84,15c0,.33,0,.74.22.88C63.05,15.6,63.21,14.92,62.84,15Zm.54,0c-.37,0-.23,1.41-.25,1.67a1.6,1.6,0,0,1-.32-.76c-.06-.24,0-.44-.27-.6a.25.25,0,0,0,.05.36,1.52,1.52,0,0,0-.82.7.88.88,0,0,0-.27.78v2.68a1.81,1.81,0,0,0,0,.52c0,.14.21.24.22.39s-.17.34-.21.49a6.22,6.22,0,0,0,0,1.22c0,.34-.21,1.53.21,1.59a10.44,10.44,0,0,1,0-1.77.33.33,0,0,1,.2-.38l-.12-.13c0-.24-.12-.16,0-.45s.16-.28.3.07a3.44,3.44,0,0,1,.07.95c0,.47,0,.92,0,1.41a1,1,0,0,1-.16.71c-.18-.06-.26,0-.25.06v.16a1.45,1.45,0,0,0,0,.36,4,4,0,0,0,1,0,1.71,1.71,0,0,0,.51-.35c0-.1-.07-.14,0-.24a2,2,0,0,0,0-.44c0-.5,0-1,0-1.5V19.34c0-1,0-2,0-2.94a1.48,1.48,0,0,1,0-.52c0-.07.18-.23.18-.28s-.09-.58-.2-.57m1.67,0c-.17,0-.39.43-.43.58a1.09,1.09,0,0,0,0,.44c.11.3.06.18.44.21,0-.19-.14-.16-.19-.3.47.13.5-.92.17-.93m-2.92.17c.08.31.33-.12.26-.1s-.33-.16-.26.1m-.4-.14c-.06.22.14.28,0,.51s-.27.14-.29.57c.51.18.65-1.14.25-1.08m-17.84.5c-.09.21-.39.45-.43.64.28.09.59-.49.68-.68,0,.09.64,1,.78.84s-.71-1.11-.84-1.21c-.06.14-.13.28-.19.41m21.78-.26c0,.33.39-.09.27-.07s-.29-.16-.27.07m-.14.14a.17.17,0,0,0-.07-.18c-.12,0-.12.58-.07.64s.59.26.55-.05c-.13-.15-.32-.11-.41-.41m-4.75.18c.11,0,.09-.28,0-.24s-.07.24,0,.24m1.43.08c.11,0,.08-.27,0-.3s-.12.3,0,.3m-20.44.09c.45,1.33.53-.17,0-.32a.29.29,0,0,0,0,.32m25.69-.3c-.15,0,0,.36.15.37,0-.09,0-.34-.15-.37m-.67,0c-.17.15-.45.11-.51.42.36.12.48-.27.66.17a4.37,4.37,0,0,1-.09.93c0,.39-.13,1,.38,1.1a1,1,0,0,0,.07-.51.46.46,0,0,1-.2-.09c0-.2.07-.51.07-.76a.48.48,0,0,0,.14-.39,1.31,1.31,0,0,1-.19-.27c-.09-.43,0-.37-.33-.6m-2.56.15c0,.25.26,0,.17,0s-.17-.1-.17,0m-3.46.06c-.15.24-.22.24-.27.54a7.63,7.63,0,0,0,0,1.17,1.53,1.53,0,0,0,.08.85c.1.18-.1.05.11.18a1.88,1.88,0,0,0,.58,0,4.75,4.75,0,0,0,0-1c0-.35,0-.71,0-1.06,0-.58.11-.66-.51-.68m2.73.2a6.33,6.33,0,0,0,.11,2.53c.09,0,.51,0,.55,0a3.29,3.29,0,0,0,0-.77,10.6,10.6,0,0,1,0-1.38c0-.13.24-.26,0-.47s-.61-.17-.68.1M45.06,16a6.68,6.68,0,0,0,0,1c0,.06,0,.28,0,.36s0,.46.08.63.09.29.35.16c.22.09.33.08.32-.05.28-.41-.12-1.75-.12-2.21-.28,0-.28.14-.52-.08l-.11.19m-2.76-.1a4.38,4.38,0,0,0,0,1.4,3,3,0,0,0,.1,1.08s.28-.11.32-.11c.43-.07.24,0,.35-.32a5.15,5.15,0,0,0,0-1.52c0-.27,0-.44-.23-.55a1.18,1.18,0,0,0-.53,0m4.46.13c-.38.18-.67.3-.42.74.11-.12.2-.5.44-.31a.88.88,0,0,1,0,.28c-.18,0-.28.05-.29.24a.23.23,0,0,1-.07.32c-.08,0-.09.11,0,.21s.18.15.29,0c0,0,.23-.17.31-.06s-.31.2-.41.32c-.31.38.19.63.43.86a.59.59,0,0,1,.18-.29c-.49-.22.15-.66.34-.81s.51-.35.52-.69c0-.6-.86-1-1.3-.78M60,16a.87.87,0,0,0-.52-.1,1.06,1.06,0,0,0-.92.79c0,.33.2.5.51.72.68.49,0,.13.17.7-.36-.08-.26.2.06.22-.21,0,.58-.3.48-.24.16-.09.35-.14.41-.35.12-.45-.43-.41-.72-.54-.06,0-.72-.58-.33-.51a.54.54,0,0,1,.13.32l.23.09s.55.11.56.1c.43-.34-.18-.58-.21-.87,0,0,.75-.28.15-.33M38.85,18.29c-.24-.26,0-.23,0-.51,0-.08-.12-.17-.12-.27s.08-.29.08-.42a2.24,2.24,0,0,0-.13-.95c-.38-.34-.27.2-.25.4a2.07,2.07,0,0,1,0,.61c0,.14-.15.37-.16.49s.29.53,0,.74-.59-.17-.45-.33c0,.15.29.14.33,0a3.72,3.72,0,0,0-.19-.34c-.5-.18-.31.76-.17.92-.48.42-.23,1.1-.23,1.68,0,.28,0,.57,0,.78a1.2,1.2,0,0,0,0,.46.22.22,0,0,1,0,.26l.6,0c0-.76,0-1.51,0-2.26a.89.89,0,0,1,.35.37.48.48,0,0,1,0,.38,4.6,4.6,0,0,0,.1.79,3.46,3.46,0,0,0,0,.72c.07.2.05.21.23.26s.38,0,.36-.1-.71-.08-.41-.26c.05.22.36.11.45,0s0-.26,0-.38a3.55,3.55,0,0,0-.09-.82c0-.34,0-1,.25-1.22a2.36,2.36,0,0,1,.65,0,5.57,5.57,0,0,1,1.63,0c.39.15.32.39.31.8a7.27,7.27,0,0,0,.11,1.76,29.87,29.87,0,0,0-.13-5.1A22.42,22.42,0,0,0,42,19.09c-.46-.22.28-1.07-.62-.74-.24.08-.13.28-.44.1s-.17-.38-.17-.64,0-.61-.37-.39-.19.54-.28.78-.09.36-.4.35c0,0-.47-.29-.47-.27s.4-.07.31-.28c-.3-.09-.17,0-.14-.3s.21-.46.16-.79c0-.14,0-.58-.33-.41-.1.07.08.74-.1.74s-.09-.28-.13-.34c-.24,0,0,1.37,0,1.58l-.17-.19m21.4-1.76c0,.13-.06,1,.08,1s.06-1.48,0-1.45-.06.39-.06.45m5.15-.35c-.13.11-.17.07-.23.23.54,0,1-.09,1.56-.1C66.72,16.05,65.64,16.18,65.4,16.18Zm-13.32.19c-.23,0-.17-.18-.37.08s-.12.35.1.37a.91.91,0,0,0,.47-.31c.16-.37-.09-.15-.2-.14m14.12.08c-.18.19,0,.57.24.71.11-.35.16-.51-.24-.71m-11.82.18c.12.09.07.15.21.21s.07-.31,0-.37l-.2.16m13.33-.15c0,.22-.25.45.13.5,0-.23.11-.44-.13-.5m-2.25,0a1.13,1.13,0,0,0-.26.54c.37,0,.39-.16.56-.49l-.3-.05m-.85.59c0,.64.27.35.23-.13,0-.66-.23-.39-.23.13m-.69,7.66c.45.1.65.1.71-.48A5.45,5.45,0,0,0,64.56,23c-.12-1,0-2.1-.06-3.13a6.62,6.62,0,0,1-.1-1.1,4.34,4.34,0,0,0,.11-1c0-.24-.06-.45-.07-.65,0,0,.08-.73-.16-.49a6.41,6.41,0,0,0,0,1.91c0,.49,0,1,.07,1.46,0,.66,0,1.38,0,2.09a15,15,0,0,0,.09,1.67c0,.11.09.94-.23,1s-.26-.41-.26-.62c.07,0,.17.34.28.32s0-2.35,0-2.53l0-1.91c0-.26,0-.52,0-.77,0-.55,0-.44-.56-.47v3.34c0,.5,0,1,0,1.51a3.93,3.93,0,0,0,0,.84c.09.39-.07.26.32.34m-23-8c-.29-.17-.88-.11-1,.15a.81.81,0,0,0,0,.46c.22.26.24-.34.23-.34.15-.11.26-.24.48-.19s.14.2.28.29.11.31.26.12S41,16.8,41,16.76m26.53.36s.05-.42-.06-.41a1.28,1.28,0,0,0,0,.8.42.42,0,0,0,.07-.39m-15.23-.39c-.3-.06-.28.37,0,.44s.31-.38,0-.44m-.31.36c-.14-.18-.65-.08-.65.16S51.94,17.45,52,17.09Zm14.06,0c-.42-.09-.14,1-.48,1.25s-.46-.08-.58-.29a.12.12,0,0,0,.1-.17c0-.14,0-.18-.18-.14-.15-.13,0-.11-.26-.15a6.06,6.06,0,0,1,.1.67c0,.2-.25.31,0,.57s.26,0,.34,0-.14-.14,0-.21.25.13.4.12a.25.25,0,0,0-.11.16.47.47,0,0,0,.61,0c.15.08.93.09,1,.16-.46.28-1.86-.32-2.17.11.13.16,1.12,0,1,.17a3.28,3.28,0,0,0-.83,0c-.34.12-.27.05-.27.5,0,.6,0,1.2,0,1.81.49-.05.2-.13.33-.48,0-.14.58-.42.58-.48s-.13-.19-.13-.33,0-.3.14-.46c.59-.56.82.29.88.59,0,0-.09.19,0,.27s.36.07.41.1a.85.85,0,0,1,.23.32c0,.08-.08.56.06.58s.36-.1.44-.11.45.09.47-.06a3.08,3.08,0,0,0-.27-.24c-.28-.35.44-.28-.33-.41,0,0,.18.51-.1.47a8,8,0,0,1-.15-.9,3.73,3.73,0,0,0,0-.82c-.11-.4-.27-.34-.72-.36,0-.23.64,0,.84-.29s0-.46,0-.72c-.51,0,0,.18-.25.39a.52.52,0,0,1-.64,0c.27-.2.43-.21.56-.54-.1,0-.3.12-.32.12s-.1.13-.18.09-.13,0-.08-.15c-.14-.1-.42-.42-.42-.58.33,0,.29-.52,0-.59m1.62.29c0,.1,0,.2,0,.3.27,0,.34,0,.52-.2-.32-.17-.07,0-.16-.23a.26.26,0,0,0-.31.13m-17.5.43c0,.32.33-.1.24-.08s-.29-.14-.24.08M68.36,18h.25a1,1,0,0,0-.24-.23c0,.08,0,.15,0,.23m-22,.1c-.32.42-.07,1.6-.06,2.1,0,.93,0,1.86,0,2.8,0,1.87,0,3.74,0,5.61a11.82,11.82,0,0,0,.08,1.6,9.2,9.2,0,0,1,0,2.62c-.05.24-.08.15-.09.34s0,.56,0,.82a3.69,3.69,0,0,0,.11,1.41c-.23.12-.11,1,.09.9,0-3.6.13-7.22,0-10.81,0-.38,0-.81-.07-1.22,0-.6.07-1.1,0-1.71-.05-.87-.06-1.75-.07-2.62,0-.48,0-1,0-1.43,0,0,0-.5-.07-.41m13.93,0c-.09-.08-.2.32,0,.34s.09-.3,0-.34m7.91.33c.31,0,.21.32.44.35C68.65,18.47,68.19,18.12,68.16,18.48Zm-8.54.12c.19,0,.17.06.33.11a.4.4,0,0,0-.4-.36,2.33,2.33,0,0,0,.07.25m-17.34-.07c0,.13.91.08.9,0s-.91-.13-.9,0m25.29.08s.33.61.42.34c0-.09-.14-.24-.15-.36l-.27,0m-7,.11c0,1.31.09,2.82,0,4a2.12,2.12,0,0,1,.11.21.65.65,0,0,1-.11.22c0,.26.08.41.11.64s-.13.56.09.59.08-.28.29-.31,0,.5.23.43.07-.66.07-.78c0-.86,0-1.71,0-2.57a6.7,6.7,0,0,0,0-2.19c-.12-.25-.14-.21-.38-.25,0,0-.4,0-.39,0m-18.23,0v2.72c0,.38,0,.77,0,1.16a3.32,3.32,0,0,1,0,.63c0,.4-.13,1.14.11,1.41-.59.46-.07-.54-.41-.49s.05.78.28.82a1.91,1.91,0,0,1,.47-.21c.23,0,.13.26.37.1s0-.56,0-.67,0-.56,0-.83c0-.93-.07-1.79,0-2.65,0-.16-.16-2-.18-2s0,.26-.17.2c-.32-.13.2-.25-.44-.19m4.6.14c0-.12-.21-.09-.21,0s.21.16.21,0m13.16.49c0,1.54,0,3.08,0,4.62,0,.69,0,1.38,0,2.07s.13,1,.13,1.55c0,.72-.17,6.16.07,6.18a20.8,20.8,0,0,0,.1-3c-.07-1.16,0-2.34,0-3.51a4.27,4.27,0,0,1,.1-1.57c.17-.35.43-.31.66-.53-.08-.5-.63.11-.86.11.09-.42.07-.52.53-.45,0,0,.1-.06.16-.05s.16.13.22.13a.44.44,0,0,0,.53-.45c-.19-.25-.24.2-.34.2-.31,0-.18,0-.35-.24-.37,0-.21.34-.56,0-.13-.11-.15-.38-.18-.57a8.31,8.31,0,0,1,.08-2.34,10.82,10.82,0,0,0-.09-1.64c0-.18.14-.91-.06-1.1-.2,0-.11.46-.11.57m8-.28c0,.24.3,0,.31,0s-.32-.24-.31,0m-17.39,1c-.08-.18-.16-1.05-.41-1.08s-.78,2.19-.73,2.43a2.57,2.57,0,0,0,.69,1.16c.63.47.54-.24.66-.6s.38-.19-.1-.51c-.11-.07-.64-.2-.65-.28-.05-.57,1,.51.41-.53.4,0,.22-.35.13-.59m16.65-.87a2.49,2.49,0,0,0,0,1.55c.34-.11.29-.19.3-.58s0-.95-.32-1m1.08.48v1.14c0,.26,0,1.16.26.54a3.75,3.75,0,0,0,0-1.11,4.17,4.17,0,0,0,0-.5c0-.34-.26-.62-.26-.07m-.56-.09c0,.21.55.08.35-.16s-.4,0-.35.16M42.06,21.28c0-.34.2-1.37,0-1.66s-1.32-.2-1.71-.18a1.54,1.54,0,0,0-.68.1c-.27.19-.17.19-.2.56,0,.15-.16,1.56.12,1.57.07-.09.08-.29.14-.39s.25-.22.43-.41.08,0,.13-.3-.13-.45.26-.61a.53.53,0,0,1,.68.25c.09.21-.18.48-.11.62s.34.1.45.22.06.69.44.74a1.47,1.47,0,0,0,0-.51m15.75-1.19-.11.05c.11.26.28-.1.26-.22s-.14.11-.15.17m10.11.29c.09,0,.08-.3,0-.27s-.09.28,0,.27m-11.17-.1c-.19-.43-.59.42-.31.43s0-.3.08-.35,0,.23.14.24.12-.25.09-.32m.62.2c.08,0,.09-.19,0-.15s-.06.12,0,.15m12,.16c-.08-.24-.57-.31-.47.05s.57.25.47-.05M56.15,21.7c.06.36,1.63.4,1.49-.36,0-.12-.4-.8-.56-.81-.36,0,.1.48.1.52,0,.23-1.1-.27-1.2-.27-.31.35.45.76.43.83s-.29-.17-.26.09m1.63-.78c.35.12.09-.32.1-.37s-.38.19-.1.37m10.08,1.89a1.12,1.12,0,0,0,1.36-.19c.18-.19.56-1.15.07-1.14-.2,0-.1.92-.82.82-.22,0-.38-.19-.54-.16s-.31.28-.55.31a.83.83,0,0,0,.48.36M66.5,21.66c0,.81.25,1.57.24,2.39s0,1.51,0,2.27a11.51,11.51,0,0,1-.36,2.24c-.14.74-.32,1.52-.41,2.26a3.2,3.2,0,0,1-.14.83c0,.16-.44.64-.33.82.82.1,1.34-4.8,1.38-5.43.06-1,.1-2,.11-3A9.18,9.18,0,0,0,66.88,23a5.45,5.45,0,0,0,0-.7,1.9,1.9,0,0,1-.12-.63l-.26,0m2.1.31a.76.76,0,0,0-.33-.11c.07.37.73.3.62,0a.41.41,0,0,0-.29.13m-3.87-.1c-.14.24-.11.36.09.34,0-.25.08-.14.14-.36l-.23,0m3,.17c0-.23-.63-.32-.6-.06s.59.19.6.06M38,22.11c.11,0,.1-.19,0-.16s-.08.11,0,.16M51.05,22a.16.16,0,0,0,0,.19c.07,0,.33-.15.28-.24a.51.51,0,0,0-.32.05m-11.16.35c.2,0,0-.28,0-.28s-.25.29,0,.28m2-.19c.07.09.13.09.2,0s-.23-.15-.2,0m10,.32-.19-.19c-.17,0,.34,1.09.19.19m-.93,0s.38.1.28-.07a.19.19,0,0,0-.28.07m-11.24,0c-.38.43-.22,1.76-.21,2.29a26.94,26.94,0,0,0,.21,2.83,20,20,0,0,0,.51,2.78c.06.23.61,2.4.82,2.38s-.6-2.37-.65-2.58a25.12,25.12,0,0,1-.53-3.2,16.46,16.46,0,0,1-.07-2.72c0-.4.05-.82.05-1.23,0,0,0-.7-.13-.55m11.58.38c-.38.1.43.53.13-.18a.13.13,0,0,0-.13.18m5.64,0c-.36.18.26,1.1,0,1.38-.15-.05,0-.56-.11-.56s-.21,1-.22,1.05c-.32-.06.29-2.65-.22-1.41a11.3,11.3,0,0,0-.32,2.26,12.59,12.59,0,0,0-.31,1.92c.16,0,.22-.2.37-.3s.51-.2.66-.38.21-.26.1-.49c-.11,0-.16.2-.18.26-.08-.24.09-.22-.18-.29,0-.17.37-1.6.34-1.62a.34.34,0,0,0,0,.2c.18.07.1-.48.12-.56.35.1-.26,1.19.31,1.17-.11-.21-.16-2.67-.39-2.63M67.83,24a5.84,5.84,0,0,0,1.53-.17.38.38,0,0,0-.06-.69,7.42,7.42,0,0,0-1.54.14c-.33.1-.4-.05-.39.36s.09.4.46.36m-28.92-.61a1.76,1.76,0,0,1-.84.11c-.19,0-1-.14-1-.11-.23.09-.23.62,0,.77.35.28,1.14-.11,1.53-.08.18,0,.44.2.63.06s.23-.94-.25-.75M51.73,24c-.38-.89-.53.9-.56,1.13-.1.82-.23,1.65-.33,2.48,0,.22-.13,1.43.24,1.11.06-.05-.09-.24.11-.4s.46.1.6.07c-.14,0,.28-.74.26-.69a5.68,5.68,0,0,0,.05-1.89c0-.15-.12-.29-.14-.45s.12-.15.1-.26a.28.28,0,0,1-.1-.33l-.2,0c-.08-.32.12-.38,0-.72m3.34-.25s-.08.39.07.36.14-.47-.07-.36M69.5,24.79a.3.3,0,0,0,.1-.37c-.14-.23-.2-.05-.39,0s-.42.42-.61.39-.12-.28-.24-.33c-.32-.14-.64-.24-.93.07a1.34,1.34,0,0,0-.16,1.18,4.15,4.15,0,0,0,2.29,0c.42-.48-.44-.24-.55-.35-.29-.3.32-.45.49-.58m-30.3,0a.22.22,0,0,0-.07-.21,9.09,9.09,0,0,0-1.21.09h-.43c-.2,0-.48-.11-.61-.11s-.1.64-.08.69c.12.35.19.18.52.15a2.43,2.43,0,0,1,.85-.05c.18.06.65.34.45.63-.32.44-1.22-.55-1.63-.3s-.27.92.06.9c.14-.36-.16-.63.36-.45s.73.57,1.28.41.5-.47.49-.9c0,0-.1-.2-.11-.26s.13-.43.13-.59m25,.55c.24.71.15,7.82.2,7.82.21,0,.08-4.53.08-5s0-1,0-1.43a5.3,5.3,0,0,0,0-1.32.64.64,0,0,0-1.24-.07,1.79,1.79,0,0,0-.88-.2,2.61,2.61,0,0,0-.85,0c-.19.18,0,1-.06,1.23,0,.56-.05,1.14,0,1.71.08,1,.15,2.05.14,3.1,0,.34-.27,2.64.21,2.69a17.74,17.74,0,0,0,0-4.12,4.23,4.23,0,0,1,.29-2.57,3.78,3.78,0,0,1,.16,1,3.79,3.79,0,0,0,0,1,18.67,18.67,0,0,1,0,2.59,5.91,5.91,0,0,1,0,1.33c.09.23.05.32-.11.29s-.15,0-.11.12c0,.33-.07.24.24.34s.51-.1.41-.45c0-.11-.13-.14-.16-.27a2.92,2.92,0,0,1,0-.66c0-.9.05-1.83,0-2.73a4.84,4.84,0,0,1,.27-2.56A4.52,4.52,0,0,1,63,29.42c0,1.5,0,3,0,4.49.44,0,.25-.63.25-1s0-.68,0-1c0-.79,0-1.59,0-2.38a23.39,23.39,0,0,0,0-3.74.18.18,0,0,0,.14.08c.11-.2,0-.45.27-.6s.55-.14.63.12M45.31,25c-.21.21-.31-.05-.54-.11a4.18,4.18,0,0,0-1.27,0l.15.22c.18-.07,1.64-.23,1.22.19a6.68,6.68,0,0,0-1.06,0c-.33.13-.31-.11-.3.49s0,.93,0,1.39c0,.64,0,1.37,0,1.94s.11,1.43.12,2.14-.1,1.36-.1,2a1.39,1.39,0,0,1-.11.47c-.18,0-.22.07-.12.31a2.81,2.81,0,0,0,0,.29c0,.2,0,.4,0,.6a12.62,12.62,0,0,0-.2,1.69c.54-.21.33-1.09.34-1.51a3.34,3.34,0,0,1,0-1.14s.27,0,.3,0a2.09,2.09,0,0,0,0-.66c0-.22,0-.45,0-.67s.12-.39.11-.5-.11-.48-.11-.73v-1c0-.32.1-.59.1-.87s-.17-.5-.1-.79c0-.12.17-.25.19-.37,0-.29-.1-.55,0-.86,0-.12.17,0,.22-.15s-.08-.24-.09-.34c0-.29-.09-.93.24-1.09a1.35,1.35,0,0,1,.12,1.32c-.09.21-.24.34-.26.55s.06.53.06.76c0,.65,0,1.47,0,2.19s0,1.18,0,1.77a3.39,3.39,0,0,1,0,.78l-.2,0c0,.19,0,.38,0,.56.42,0,.65.14.67-.32s-.14-.24-.2-.53c-.11-.52.08-1.09,0-1.62s0-1.06-.1-1.56a4.86,4.86,0,0,1,0-1.08c0-.23,0-.51,0-.69s0-.74.27-.4,0,.41,0,.6.09.76.1,1.11.11.45.11.64-.11.3-.1.48.12.27.12.4-.13.12-.13.23,0,.34,0,.51c0,.38.08.71.11,1s0,.42,0,.63-.13.55-.11.66h.25c0-1.49,0-3,0-4.46v-2a4.35,4.35,0,0,0,0-1c-.2-.74,0-.18-.29,0a3.27,3.27,0,0,1-.34-.95,2.26,2.26,0,0,0,.45,0c.13,0,.27-.21.37-.24.52-.11.65.27.68.73a18.81,18.81,0,0,0,.2,3.23,12.47,12.47,0,0,0,0-2.37,6.15,6.15,0,0,0-.06-.74,4.4,4.4,0,0,0-.06-.82c-.06-.12-.39-.28-.51-.39a.22.22,0,0,1-.23.12m-2.13.22a.73.73,0,0,0-.72-.21c-.4.15-.3.36-.31.77a18.53,18.53,0,0,0,0,2.58,26.64,26.64,0,0,1,.12,4,7.31,7.31,0,0,1,0,1.25c-.26.1-.14,0-.17-.15a4,4,0,0,1,0-1v-.85a.35.35,0,0,1-.14-.13.46.46,0,0,1,.13-.18c0-.23,0-.47,0-.71a5.29,5.29,0,0,0,.08-1.53c-.15-.5-.23,0-.34.28s-.4.75-.59,1.11c-.11.2-.34.48-.2.72s.38,0,.5.16c.3.24.31.88.31,1.23v2.87a8.31,8.31,0,0,0-.1.85c.4.12.4-.31.43-.59a11.11,11.11,0,0,0,.12-1.16,5,5,0,0,1,.13-.94,13.14,13.14,0,0,0,0-1.66c0-1.23.06-2.47,0-3.69a27.37,27.37,0,0,1-.07-2.87c.21,0,.24-.2.46-.2s.32.32.52.3a.19.19,0,0,0-.1-.24m13.78,0c0,.05-.05.52.07.51a.89.89,0,0,0,0-.58l-.07.07m7.3,4.28c0-.8-.08-1.65-.1-2.44,0-.35.24-1.81-.4-1.66-.39.09-.32,1.05-.3,1.34s.06.36.06.48-.05.13-.05.26c0,.91.11,1.74.11,2.65v1.77a3.78,3.78,0,0,0,0,1c.17.61-.12.17.17.3.58.25.5-.21.5-.57Zm-2.77.57c0-.6-.22-1.06-.21-1.66,0-.79,0-1.58,0-2.36,0-.38,0-.81-.45-.54s-.26.54-.27.85v.83c0,.82,0,1.64,0,2.46,0,.51.13.9.13,1.41s0,1,0,1.5c0,.1-.06.51,0,.58a3.9,3.9,0,0,0,.77,0V30.06M42.85,25.41c-.74,0-.37,2.71-.37,3.2a30.41,30.41,0,0,0,.12,3s0,.34,0,.39,0,.37,0,.5-.17.37-.05.5a3.86,3.86,0,0,0,.76,0c.09-.09,0-.76,0-.87V27.92c0-.36.29-2.53-.42-2.51M46,29.66c0-1-.13-2.11-.15-3.17,0-.2.13-1.23-.36-1-.18.07-.29.49-.3.69s0,.42,0,.68c0,.62,0,1.25,0,1.87,0,1.44,0,2.88,0,4.32l.5,0c.26.07.34,0,.25-.31a4,4,0,0,0,0-.91c0-.71,0-1.42,0-2.14M67.85,26a.6.6,0,0,0-.58.52,4.81,4.81,0,0,0,0,.93,7.34,7.34,0,0,0,2.14.16,1.37,1.37,0,0,0,0-1.41c-.42-.41-.65,0-1,.23a.57.57,0,0,0-.58-.43m-10.93.28a.1.1,0,0,0,.06-.15c-.09-.15-.26.16-.06.15m-2.7,1.08c.28,0,1.17-.35,1-.78,0-.06-.67.44-.71.46s-.33,0-.37.05-.06.24.11.27M39.07,28c.37,0,.34-.48.21-.84a.72.72,0,0,0-.83-.48c-.4.1-.56.88-1,.86s0-.81-.43-.6.2,2.19,1,.9c.12-.2.31-.93.68-.65s-.53.81.31.81m10.23-.5c.43-.29-1-.26-1.15-.27-.38,0-.44-.1-.54.17,0,0,.19.18.19.23s-.19.12-.19.22c0,.29.15.34,0,.63s-.39.39-.49.7a2.05,2.05,0,0,0,.08,1.49.67.67,0,0,1,.2-.12,1.16,1.16,0,0,1-.1.65c-.06.12-.2,0-.27.08,0,.35,1.54.21,1.72.21.35,0,.53-.05.66.27,0,.06-.07.64.07.63s.08-.47.08-.5c.06-.29-.19-.25.14-.5.27.23.52.32.82.05s.2-.27,0-.33a5.06,5.06,0,0,0-1.48.15c-.37,0,0-1,0-1.12a.34.34,0,0,1-.1-.16.33.33,0,0,1,.17-.18c0-.21,0-.11-.13-.36.44-.05.19-.05.18-.32.31-.1-.2-.57-.21-.86a1.4,1.4,0,0,1,.35-.76m5.4,0c.22,0-.06-.23-.05-.2s-.17.23.05.2m2-.21c-.12.14-.15.72,0,.83A.85.85,0,0,0,56.67,27.33Zm.36.5s0-.51-.13-.44-.14.62,0,.73a.43.43,0,0,0,.1-.29m-1.21-.14c0,.16.49.37.61.29s-.45-.33-.61-.29m12.67.21c-.26-.14-1.07-.34-1.28,0s.06.38.07.61.14.19,0,.26a.9.9,0,0,0-.2.23c-.21.41,0,.59.39.77.62.27.85-.12,1.43-.12.07.07-.07.32,0,.35.43.11.64-2,.42-2s0,.33-.2.34-.46-.31-.65-.41m-29.22.31a3.09,3.09,0,0,0-.85.25c-.31.08-.81-.05-1.08.09a.46.46,0,0,0-.18.57c.11.17.39.13.6.09a8.69,8.69,0,0,0,1.4-.23c.32-.1.34,0,.34-.39,0-.25.06-.38-.23-.38m26,3.18c.16,0,.36.24.52,0s-.2-.72-.27-.88a12.75,12.75,0,0,0-.78-1.67c-.26.18,0,2.17,0,2.51,0,.93,0,1.86,0,2.8,0,.45.08.79.11,1.22,0,.26-.16.95.18,1,0-.58-.29-4.93.27-4.92M59,29.91c.05-.33.9-.43.89-.59,0-.38-1.94-.37-2.18-.26-.86.42-.52,1.74-.5,2.55.27.08.54-.43.74-.57s.83-.18,1.14-.38c.07,0,.57-.52.57-.53-.08-.2-.52.13-.61.16a.55.55,0,0,1-.05-.38m-7.89-.38a1.57,1.57,0,0,0,0,.61c.14.3.07,0,.3,0,0,0,.19-.38.24-.06,0,.13-.14.24-.21.34s-.39.33-.44.46a1.53,1.53,0,0,0,0,.3c-.09.19-.32.5-.45.76a4.59,4.59,0,0,0-.4,1.09c0,.13-.06.25-.07.33s.15.08.13.2c0,.34-.68.62-.61,1s.94.25,1.09.59c-.16.16-.69-.14-.92-.1a1.47,1.47,0,0,0-.85.77c.36.35,1-.12,1.34-.18.61-.1.86.43,1.34.59a1.7,1.7,0,0,0,1.2-.3c.13-.07.39-.33.54-.34.33,0,.25.23.49.25.23-.21,0-.38-.13-.5s-.46-.13-.52-.32.13-.28.2-.4a2.72,2.72,0,0,1,.61-.84s.59,0,.23-.34l-.16.07a2.31,2.31,0,0,1,.13-.82c.08-.33.27-.48.29-.78a.93.93,0,0,1-.3.2c-.09-.22.31-.72.07-1s-.39.15-.48.4c-.42,1.26-.82,2.52-1.19,3.8-.09.33-.34,1-.73.49-.12-.16,0-.38,0-.53s-.27-.14-.43-.25S51,35,51,34.78c0,0,.12-.19.18-.19s.18.33.32.38c.31.11.3,0,.49-.25a8.73,8.73,0,0,0,1.49-3.1c.07-.25.33-1-.09-.93s-.51,1-.62,1.28a11.31,11.31,0,0,1-.71,1.49,1.54,1.54,0,0,1-.41.57c-.22.14-.4,0-.59.11s-.18.26-.34.32c0,0-.42-.06-.38,0-.16-.14,0-1,.39-.94,0,.15-.2.44-.22.6a.78.78,0,0,0,.35-.18.23.23,0,0,0,.21.09c0-.09,0-.33,0-.4s.22-.11.31-.19a3.23,3.23,0,0,0,.72-.71c.21-.32.33-.69.51-1s.54-.67.52-.88-.19-.22-.37-.31A1.9,1.9,0,0,1,52,29.9c-.25-.31-.58-1.27-.87-.37m-11.51,0c-1-.86-3.11.55-2,1.53a.77.77,0,0,0,1.21-.41c.09-.65-1-.81-.86-.35,0,.21.36.09.44.25s-.09.33-.3.32c-.67,0-.54-.9,0-1.08a1.17,1.17,0,0,1,.76.06c.27.16.22.46.39.64.62.65.77-.59.33-1m28,.62c-.29-.08-1-.43-.83.27.1.36.87.3,1.23.39s.77.48,1,.11c.3-.55-1-.66-1.37-.77M56.38,30c-.08.22-.26.24-.4.42.07-.1-.14.35-.13.3a7.74,7.74,0,0,0-.07,1.69c.24-.24.3-.47.62-.63s.54,0,.57-.54a8.39,8.39,0,0,0-.17-1.06c-.1,0-.08.27-.13.32s0-.71-.29-.5m-10.18.59c-.08.18-.14.71,0,.88A1.16,1.16,0,0,0,46.2,30.58Zm11.28,3.17c0,.2,1.07-.81,1.17-.92a2.15,2.15,0,0,0,.65-1.5c0-.64-.26-.43-.7-.27s-.42.1-.62.48-.34.47,0,.53c-.22.11-.15.29-.21.48q-.15,0-.12.15a.16.16,0,0,0,.09.17c-.06.14-.58.53-.54.7s.57-.52.6-.39-.29.45-.28.57m-18.79-.92c.44.08,1.36.11,1.6-.4s-.15-.45-.25-.78c-.15-.49.19-.53-.34-.51a4.09,4.09,0,0,0-.89.31,4.15,4.15,0,0,0-.7.15c-.2.12-.26,0-.27.31s.11.31.37.32,1.16-.7,1.44-.38c.46.53-.62.52-.83.53s-.63-.06-.74.26.09.64.37.64c.18-.16-.06-.34-.06-.51a.51.51,0,0,1,.3.06m29.09-1.54a1.06,1.06,0,0,0-1.08-.14c-.38.24-.33.76-.54,1.09a6.21,6.21,0,0,0,2.1.75c.73-.43-.72-.78-.92-.86s-.6-.12-.51-.44.43-.2.59-.16c.31.09.56.63.86.63a.53.53,0,0,0,.41-.66c-.21,0-.27.2-.39.31a3.65,3.65,0,0,0-.52-.52m-8.28-.21c.13,1.08-.83,1.65-1.15,2.49a.16.16,0,0,0-.17-.08c0,.22-.37.34-.35.57s.58-.23.62-.27a7.7,7.7,0,0,0,.88-1.16,1.76,1.76,0,0,0,.29-1.57l-.12,0m-4.77.21a20.51,20.51,0,0,1-.35,2.08c0,.56-.07,1.05-.11,1.63,0,.36-.18.88-.58,1-.19.06-.35,0-.54,0-.39.18-.17.2-.23.51a3.66,3.66,0,0,0-1.26-.15,2,2,0,0,0-.66.13c-.06,0-.48.3-.51.18-.05-.31,1-.64.07-.93-.42-.12-.6.06-.5.47,0,.17.34.43.35.56-.16.11-.36-.25-.42-.35-.18-.31,0-.27-.27-.38-.45-.18-.85.48-1,0-.1-.23.1-.47.28-.66s.38-.26.45-.61-.13-.12,0-.46c0-.11.45-.54.41-.62-.14-.25-2.68,1-3,.23.25-.27.73,0,1-.27s.26-.71-.2-.51c0,.18.27.17,0,.25a1.07,1.07,0,0,1-.37-.12.23.23,0,0,0,.23-.13c-.23-.42-.69.4-.67-.47-.34,0-.22.29-.22.6s0,.59,0,.88c0,.5.06,1,.06,1.46,0,.2.09.67-.06.81s-.28.06-.44.13c-.39.17-.53.47-1,.38-.08,0-.25,0-.32,0s0-.26,0-.29a1.9,1.9,0,0,0-.84-.11c-.58,0-.82.33-1.41.33-.08,0-.24,0-.32,0s-.1-.12-.19-.17,0-.1-.12-.15a.86.86,0,0,0-.32,0c-.15.06-.32.33-.43.45s-.3,0-.24.26.69,0,.85,0H64.42c.34,0,.91.11,1.19-.15a1.37,1.37,0,0,0-.35-.5c-.61-.41-.24.19-.45.28a2,2,0,0,1-1.05-.09c-.48-.17-1.14-.52-1.7-.3a2.69,2.69,0,0,1,0,.4h-.58a1.27,1.27,0,0,1-.93-.24c-.51-.33-.4-1.27-.34-1.86,0-.26.32-.75.06-1-.45-.44-.38.63-.47.72-.29-.33-.41-.09-.8-.09s-.48-.15-.78.08c-.11-.19-.49.05-.72.09S57,34.59,57,35c.18,0,.25.06.2.23v.18c0-.08-.17.5-.1.43a3.31,3.31,0,0,1-1.16.43,10.24,10.24,0,0,1-1.21-.08c-.13,0-1.64.32-1.63.17a2,2,0,0,0,1.43-1c.23-.5,0-1.11.15-1.67.07-.36.14-.66.17-.92,0-.49.07-1,.15-1.53h-.23m-7.44.79c0-.18,0-.34-.24-.39,0,0,.09.45.08.55-.19-.2-.34.17,0,.24s.23-.23.19-.4m.32-.37c0,.12-.07.42,0,.51s.27,0,.38.06l.26,0c.13,0,.18,0,.14.18.26.07,1,.09.67-.25a.4.4,0,0,0,.17-.32c-.21-.1-.35-.07-.43.11s-.09.15-.17.13-.39,0-.36-.29c.24,0,.48.08.55-.17l-1.21,0m-1.39.83c.09-.08.1-.38,0-.45s-.11.39,0,.45m11.32-.31c0-.11-.25-.1-.27,0s.28.18.27,0m-2.39.14c.13.05.17,0,.12-.1s-.14,0-.12.1m1.42.15c.23,0,0-.29,0-.26s-.18.27,0,.26m-1.35.06a.14.14,0,0,0-.11.11c.15.15.36-.19.37-.3a2.48,2.48,0,0,1-.26.19m-5.32-.11c-.1,0-.16.08-.26.11a3.82,3.82,0,0,1-.83,0c-.39,0-.79,0-1.18,0a2.23,2.23,0,0,0-.42.06c-.11.36.54.09.76.18.43.16.14.59.32,1,.32.1.07-.88.07-.88.31-.48.85.44,1,.43,0-.17-.11-.5.09-.62s.23.12.36.07.35-.42.07-.33m5.84.12c-.13.27.58.67.69.54s-.66-.55-.69-.54m.84.24c.19,0,0-.3-.08-.13s0,.11.08.13m-16,.12c-.14-.35-2.14.45-2.15.86,0,.65.88,0,1.18-.14a6,6,0,0,0,.75-.25c.36-.19.38-.08.22-.47m25.14.72c.08,1.17,2.41,1.48,2.17.13-.18-1-2.27-1.41-2.17-.13m-10.29-.61c.09,0,.12-.06.09-.14s-.25.12-.09.14m-.32.12c.08,0,.1-.08.06-.16s-.26.18-.06.16m2,.17a.24.24,0,0,0,.13-.2c0-.11-.49.24-.33.33a.34.34,0,0,0,.2-.13m-1.73.19s.29-.37.13-.4-.32.35-.32.43a.17.17,0,0,0,.19,0m-12.85-.3a.35.35,0,0,0,.6.29C43.48,33.15,42.72,33.24,42.58,33.24Zm2.69.32c.1,0,.94,0,.57-.32S45.17,33.23,45.27,33.56Zm15.45.5c-.07-.19.11-.73-.16-.82,0,0-.08,1.89-.08,2a4,4,0,0,0,0,1.14c.12.25.36.26.67.28A3.28,3.28,0,0,0,61,35.6c-.15-.51-.12-1.08-.27-1.54m-5.61-.75a.45.45,0,0,0-.19.24c.18.07.26-.16.34-.26l-.15,0m8.8.27c.12,0,.71,0,.39-.25s-.66.18-.39.25m-3-.12c0,.16.44.16.48,0s-.49-.21-.48,0m2.48,3c.47,0,.56.54.56-.22,0-.43-.16-.51-.25-.89s.31-1.72-.32-1.85c0,1,0,2,0,3m-8-2.62a.28.28,0,0,0-.11.24.67.67,0,0,0,.38-.45.3.3,0,0,0-.27.21m-16.21.51c-.28.06-.5.11-.35.44s.48.06.64.38-.24.4-.14.68.29.23.51.13A8,8,0,0,0,40.92,35c.27-.21.4-.26.36-.58s-.31-.79-.51-.83c-.51-.11-.13.4-.15.57-.49.08-1,0-1.47.12m18-.51c.1.13.3-.14.3-.21a.43.43,0,0,0-.3.21M46,33.72c0,.39-.12.69-.12,1.12,0,.63-.13,1.18-.1,1.8.48-.23.34-.56.35-1,0-.63,0-1.27,0-1.91l-.13,0m-3.56.07c-.2.06.19.32.42.24.47-.18-.21-.24-.42-.24M55,33.94c.07,0,.08-.07,0-.14a.1.1,0,0,0-.15.05.1.1,0,0,0,.1.09m5.86,0c0,.17.54.14.52,0s-.53-.18-.52,0m3,0c0,.19.75.14.53-.09s-.54-.08-.53.09m-18.65-.11c-.25.09.63.55.56.11C45.8,33.72,45.49,33.81,45.28,33.81ZM59.12,34c-.09-.12-.3.1-.32.18s.41.17.32-.18m2.68.18a7.48,7.48,0,0,0,.14,1.44,5.35,5.35,0,0,0,.09.74,2.63,2.63,0,0,0,1,0c.28-.14.14-1.32.13-1.71s0-.48-.49-.49a7.49,7.49,0,0,0-.84,0m-8.13.31a.28.28,0,0,0-.06.36c.23,0,.48-.58.33-.68a.39.39,0,0,0-.27.32m-11.18-.22c0,.22,0,.45,0,.68.4,0,.55.11.56-.34S42.89,34.22,42.49,34.22Zm1.12,0c0,.31-.19,1.89,0,2.07a2.28,2.28,0,0,0,.91,0c.3.1.4,0,.3-.31,0-.14,0-.29,0-.44S45,35.36,45,35v-.75H43.61m1.56,0c0,.24,0,.49,0,.73.46,0,.56.12.56-.36S45.63,34.25,45.17,34.25Zm20.53.58c.4-.3-.55-1-.56.05,0,.72.06,1.55,1,1.55a1.08,1.08,0,0,0,1-.6c.06-.19.06-.93-.33-.69-.17.11,0,.37-.1.53s-.44.08-.65,0c-.44-.15-.9-.46-.37-.84m-10.77-.42c0,.11.24.09.15-.07s-.13,0-.15.07m6.09,0c-.09.31.16,1,.56.55s-.44-1-.56-.55m2.89,0c-.13.31.14.87.53.54s-.38-.93-.53-.54m-10.13.78c.37,0,.07-.63,0,0m-11.42.45c.09,0,1,0,.59-.35A.36.36,0,0,0,42.36,35.65ZM64,35.33c.1.19.3.47.55.35.1,0,.13-.13.07-.28s-.44-.09-.62-.07m-18.79.19c-.52.1.49.17.56.18.16-.55-.59-.51-.56-.18m16-.19c-.21.43.64.47.41.09C61.51,35.3,61.36,35.3,61.17,35.33ZM45.05,36c0,.14-.08.58,0,.69s.32.21.48.09.09-.32.06-.48a1.07,1.07,0,0,0,0-.31c-.06-.06-.54,0-.54,0m16.3.32c0,.41.34.52.48.13s-.48-.67-.48-.13m2.78-.24c-.06.21,0,1,.38.71s-.23-1.16-.38-.71M42.29,36c0,.34-.09.44.18.52s.28,0,.34-.12C43.06,35.92,42.55,36,42.29,36Zm23.15,1.42c-4.27,0-8.54,0-12.8,0H41.58c-.09,0-.95.11-.83.17a4.19,4.19,0,0,0,1.12,0h1.55l3.27,0,6.7,0H64.7c.39,0,1,.19,1-.32-.14,0-.18,0-.27.1m-25.06.33c0,.4.11.47.51.53a8.65,8.65,0,0,0,1.14,0H65.47l0-.15c0-.14,0-.19.16-.15l.4,0a.65.65,0,0,0,0-.24c-8.56.05-17.11,0-25.67,0m4.67.91c0,.35.11.82.11,1.24s-.14.84,0,1.07.09.1.31.14l.27.07a8.89,8.89,0,0,0,.08-2.55c-.14-.24-.06-.09-.37-.1s-.4-.25-.41.13m-3.54.05c.14.15,1.08,0,1.24,0h1.59c.78,0,.65-.32-.11-.33H42.5c-.11,0-1.3-.07-1,.29m20.22.21c0-.23,0-.36-.18-.49.08,0-.58.11-.53.08-.37.26-.17,1.31-.18,1.73s-.1,1.16.64.89c.26.08.35,0,.24-.31s0-.42,0-.63V38.91m-14.79-.35c-.48.35-.13.38-.21.8,0,.19-.22.24-.22.46s.29.31.33.52c-.13.13-.21.08-.31.28s-.13.54.16.52.46-.52.67-.7a2.41,2.41,0,0,1,1.42-.59,11.5,11.5,0,0,0,1.53.09c.55-.14-.21-.19-.39-.22a.9.9,0,0,1-.47-.2c-.11-.07-.12-.22-.37-.25-.43,0-.77.35-1.1.57s-1,.87-1.18.86c-.12-.16.33-.34.37-.44s-.07-.28,0-.4c.17-.56.24.32.64-.09s-.4-.52-.41-.75a.33.33,0,0,1,.38-.28c.28,0,0,.17.09.26.09.25.17,0,.1.34.25.2.59-.78-.17-.85a.64.64,0,0,0-.59.24c-.11.19,0,.3,0,.46-.49-.26,0-.42.09-.76l-.29.13m1.86,0-.33.11c0,.38,1.91.34,1.8-.15l-1.47,0m6.91,0c-.38,0-.8,0-.93.49.22.18.4-.15.51-.15.67,0,.16.08,0,.36a.34.34,0,0,0,.32.51c.25,0,.33-.68.43-.66s.07.31.14.36a.75.75,0,0,0,.41.2c.1,0,.2.25.33,0s-.14-.41-.24-.55a1.06,1.06,0,0,0-1-.52m6.29.12c0,.22,2.18.11,2.43.1.1,0,.66,0,.46-.21s-.57,0-.72,0S62,38.38,62,38.63m-7.61-.09c-.18.22.19.48.33.24s-.19-.4-.33-.24m3.54,0c-.13,0-1.42-.12-1.09.31.16.2,1.41.09,1.45-.2,0-.07-.3-.11-.36-.11m-6.75,0c-.67.05-1,.54-1.55.91.32.49.46-.12.79-.24s.4-.07.08.14c.13.12.12.36.3.44.13-.18.36,0,.45-.16s-.07-.44,0-.59.41-.1.69-.09c-.07-.38-.5-.43-.81-.41m-5.07,0c-.18.06-.08,1.3-.08,1.46s-.05,1.37.23.94a5.88,5.88,0,0,0-.15-2.4m6.9,0c-.18.16-1.08,1.29-1.23,1-.09,0-.9.44-.87.52a2.22,2.22,0,0,0,1.14-.07,3.67,3.67,0,0,0,1.4-1.07,2.31,2.31,0,0,0,.72.67c.08,0,.69.27.67.4s-1.28-.73-1.38-.87c-1.1,1.45-2.78,1-4.32,1a2.23,2.23,0,0,0-1.78.57c-.08.1-.36.4-.09.45.08,0,.57-.55.66-.6a1.61,1.61,0,0,1,1.94.35c.2.36-.09.69.42.85.34.11.75-.21,1.13-.24.61-.06,1.39.19,1.46.88a1.28,1.28,0,0,1-.09.49s-.22,0-.26,0c-.23.33-.13.48-.46.63a1,1,0,0,1,.06.33c-.17-.2-.24-.24-.18-.55s.44-.41,0-.75c-.41.27-.29.16-.66-.12-.15.28-.48,0-.68.11s.15.38.28.57.07.55.45.6,0-.31.26-.39c0,0,.19.65.39.73s.34-.12.6-.12c.47,0,.1,0,.31.24s.21.62.63.33-.34-.26-.36-.52c.25,0,.38.22.65.22.08-.24-.2-.15-.2-.33.33,0,1,.15,1.24,0s.17-.65.11-.63c.38-.1.14.5.65-.08a5.84,5.84,0,0,0,.77-.9.31.31,0,0,0-.33.11c-.09.14-.14.14-.16,0-.17,0-.33.06-.5.1l-.24,0s-.36.21-.44.24-.1-.18-.26,0c.06-.08.11.37.08.27.06.21.33.53.09.76-.22-.5-.81,0-.94-.39s.84.25.57-.32c-.18-.37-1.06.12-1.13-.24s.63,0,.77,0c.11-.35,0-.66.28-1a1.74,1.74,0,0,1,1.43-.37c.38.06.77.44,1.15.17s.37-.78.79-1a1.34,1.34,0,0,1,1.2-.1c.2.1.45.75.63.77.44.07-.3-.77-.33-.79a1.64,1.64,0,0,0-.75-.26c-.15,0-.47.07-.59,0,.29-.46,1.4.11,1.66.38s.34,1.07.78.67-.51-.83-.7-1-.21-.08,0-.43a3.45,3.45,0,0,1,.19-.34c.39,0,.06.28.06.39a.53.53,0,0,0,.36.58c0-.29.26-.37.23-.65s-.28-.3-.36-.46.22-.37-.07-.48-.1.22-.25.36-.11-.4-.09-.38c-.13-.14-.24-.13-.42-.15s-.75.07-.73.35.65-.18.82-.06-.14.71-.22.87a.32.32,0,0,1,.1.13c-.18.25-.26-.34-.28-.4-.18.1-.68.43-.49,0-.47-.08-1-.25-1.34.38a.65.65,0,0,1,.18.15c0,.14-1.43.22-1.63.22a.26.26,0,0,1,.1-.27.76.76,0,0,0-.32-.2.57.57,0,0,0-.63-.2,1.57,1.57,0,0,0-.48-.67c-.29-.24.12-.14-.37-.28a3.48,3.48,0,0,0-.79,0m-.77.16c0,.28.29,0,.25,0s-.26-.17-.25,0m8.23.51c0,.12-.07,1.75.08,1.75s.06-2.35,0-2.33-.07.48-.07.58m1.74-.26c-.42.32-.37.62-.36,1.12.21-.2.93-.75,1.25-.56.63.37-.29.44-.28.53a6.25,6.25,0,0,1,.69.31c.1.06.32.4.46.22s-.35-.56.13-.41.29.6.6.11c0,0,.21-.07.14-.22s-.14,0-.29-.08c.06,0-.23,0-.22,0l-.39-.13c.09-.18.43-.1.67-.09,0-.31.09-.51-.18-.66-.06,0-.18.1-.26.09s-.1-.13-.25-.16-.54-.16-.51.08.45,0,.53.17l-.26.25a4.24,4.24,0,0,0-.4-.31c-.17-.12-.07-.16-.29-.24a4.07,4.07,0,0,0-.78,0M44.72,41c-.2.19-.45.81-.81.69s-.19-.3-.08-.46.62-.29.85-.51a1.26,1.26,0,0,0,.34-1c-.05-.79-.92-.9-1.59-.83-.45.06-1.19.56-.39.64.18,0,.53-.2.77-.2a.89.89,0,0,1,.75.31c.53.71-.56.78-1,1-.83.44-.2,1,.23,1.4s.26.36.69.08c.16-.11.87-.69.81-.87s-.27,0-.35,0,0-.15,0-.33a.23.23,0,0,0-.25.1m-3.07-1.69c-.28.54.67.35.81.09.33-.62-.59-.51-.81-.09m14.14.51c.15.19.52,0,.71,0,0-.26-.62-.25-.71,0m-11.49,0a.29.29,0,0,0-.48.11c-.08.31.2.06.29,0s0,.32.13.2.25-.21.06-.36m17.7.48c-.58.92.72.5,1.07.71,0,.16-.33.38-.45.4.18.68,1,0,1.05-.4s-.15-.45-.43-.52c-.48-.13-.88.24-.92-.37-.1-.08-.28.12-.32.18m.25,1.44c-.17-.14-.33-.46-.56-.46,0,0-.43.32-.43.3,0,.15.43.44.56.58s.28.37.39.36.48-.46.53-.54a1.4,1.4,0,0,1-.49-.24m-1.93-.23c-.4.11-.68.09-1,.47-.13.17-.37.72.11.75s.16-.7.58-.66c.22,0,.66,1,.85,1.16s.37.36.64,0,.07-.46-.24-.7-.35-.22-.53-.35a1.27,1.27,0,0,1-.36-.41c-.06-.13.25-.13.08-.37a.47.47,0,0,1-.14.14M46.2,43.41c.52-.17,1.19-.56,1-1.2a1.09,1.09,0,0,0-1.32-.65,3.52,3.52,0,0,0-1.19,1c-.24.48.29.74.64.39s.63-1.11,1.06-.85-.47.82-.64.94-.41.2-.37.47.4.43.52.46.67-.12.42-.38-.25.34-.53,0a.63.63,0,0,1,.38-.17M47.91,42c0,.25.84.71,1,.82.47.31,1,.56,1.46.84.81.47,2,1.49,3,1.4a9.06,9.06,0,0,0,3-1.47c.35-.2,2.34-1.27,2.27-1.69s-.76.3-.9.39c-.52.34-1,.65-1.58,1a7.94,7.94,0,0,1-2.81,1.32c-1,.08-2.16-1-2.94-1.42-.48-.28-1-.56-1.44-.85-.09-.05-1.08-.87-1-.31m-1.28,2.49c.5.42.59-.17.92-.61s1.08-.87.6-1.32-.49-.08-.68.34a4.43,4.43,0,0,1-.68.81c-.08.11-.41.44-.44.5a1.24,1.24,0,0,0,.28.28M60.25,44a4.74,4.74,0,0,0-.76-.86c-.14-.15-.5-.7-.68-.73a4.46,4.46,0,0,0-1.05.65c-.3.28-.27.4.14.7a1.54,1.54,0,0,1,.58-.66c.2.35.06,1.2.13,1.63.12.77.38.45.62,0,0,0-.07-.11.1-.25s.17.07.36,0,.72-.21.56-.54m-6.91-1.33c.1,0,.12-.17,0-.15s-.08.1,0,.15M49.2,45.84c.21-.46,1.2-1.22,1-1.74-.27-.86-.78.25-.91.45s-.41.67-.68.67-.29-.23-.19-.45c.21-.49,1.23-.5.83-1.27-.21-.43-1.31-.51-1,.06.15.31.33-.15.49,0s-.43.5-.52.56c-.48.31-1.14.66-.49,1.15.25.18.59.28.85.43s.47.47.63.09m8.11-1.6c.37-.05.33-.5,0-.66s-1.21.53-1.44.65-.55.37-.17.75.32-.16.76-.34c.15.42.35.87.52,1.28s.19.39.55.16.48-.25.35-.55-.74-.67-.93-1.17a1.06,1.06,0,0,1,.34-.12m-6.85.3a1.76,1.76,0,0,0-.8,1.57c.07.39.82,1.16,1.25.89.19-.13.34-.75.44-1s.54-.7.54-.93c0-.54-1-.73-1.43-.56m4.43.22c-.57.25,0,1,.21,1.35.09.19.21.7.37.83s.1.16.42.06c.82-.25.22-.68,0-1.15s-.38-1.35-1-1.09m-.43.48c-.53-.63-1.62.69-.87,1.4.1.09.7.26.69.42,0,.34-.56.07-.67.33-.29.64,1.58.43,1.47-.47-.07-.67-.8-.29-1.07-.63s.2-.48.49-.42c0-.17.08-.48,0-.63M53,46.4c.72-.95-.78-1.86-1.11-.7a4.72,4.72,0,0,1-.5,1.12c-.17.32-.26.51.53.7,0-.13,0-.67.23-.68s.14.68.22.82.52.35.63.18c.23-.36-.32-.93-.45-1.18A.79.79,0,0,0,53,46.4" transform="translate(0.02)"/><path class="cls-4" d="M59,43.35c0,.23-.11.75.17.75.44,0-.07-.6-.17-.75" transform="translate(0.02)"/></g></g></svg>