<svg xmlns="http://www.w3.org/2000/svg" viewBox="0 0 192.43 47.07"><defs><style>.cls-1{fill:#fff;}</style></defs><title>susAsset 3</title><g id="Layer_2" data-name="Layer 2"><g id="Layer_1-2" data-name="Layer 1"><path class="cls-1" d="M30.54,35.48V.54H48.28q5.53,0,8.06,2.79A9.16,9.16,0,0,1,58.88,9.7a8,8,0,0,1-1.47,4.72A7.57,7.57,0,0,1,53,17.33Q59.8,19,59.8,25.47a11,11,0,0,1-2.39,7c-1.6,2-5,3.06-10.23,3.06Zm9.88-21.56h5A3.21,3.21,0,0,0,48,13a3.12,3.12,0,0,0,.77-2Q48.79,8,45.21,8H40.42Zm0,13.78h5.22a3.78,3.78,0,0,0,2.86-1,3.09,3.09,0,0,0,.91-2.16,3.28,3.28,0,0,0-.88-2.22,4.21,4.21,0,0,0-3.24-1H40.42Z"/><path class="cls-1" d="M60.62,25.37l9.95-1.79c.84,2.82,3,4.22,6.46,4.22q4,0,4-2.15a2,2,0,0,0-.93-1.75,9.93,9.93,0,0,0-3.34-1.11Q67.61,21,65,18.18a9.54,9.54,0,0,1-2.61-6.68,10.47,10.47,0,0,1,3.74-8.22Q69.9,0,76.93,0,87.6,0,91,8.58l-8.88,2.69c-.92-2.35-2.79-3.51-5.61-3.51-2.33,0-3.51.72-3.51,2.18a1.75,1.75,0,0,0,.8,1.51,10,10,0,0,0,3.07,1,64.28,64.28,0,0,1,8.91,2.34,9.68,9.68,0,0,1,4.41,3.49A9.81,9.81,0,0,1,92,24.13a10.31,10.31,0,0,1-4.3,8.6Q83.38,36,76.39,36,63.61,36,60.62,25.37"/><polygon class="cls-1" points="122.37 27.14 122.37 35.48 96.08 35.48 96.08 0.54 122.37 0.54 122.37 8.61 106.59 8.61 106.59 13.67 119.35 13.67 119.35 21.42 106.59 21.42 106.59 27.14 122.37 27.14"/><path class="cls-1" d="M157.72,35.48H145.83l-5.11-13.36h-3.38V35.48H126.62V.54h18.25q6,0,9.38,2.82a9.31,9.31,0,0,1,3.34,7.47,11.22,11.22,0,0,1-1.23,5.34q-1.23,2.31-5,4.08ZM137.34,14.64h4.58a5.71,5.71,0,0,0,3.26-.84,2.83,2.83,0,0,0,1.23-2.49q0-3.35-4.13-3.35h-4.94Z"/><path class="cls-1" d="M191.43,1.54V34.48H182.7V20.89H172.51V34.48h-8.72V1.54h8.72V14.39H182.7V1.54h8.73m1-1H181.7V13.39h-8.19V.54H162.79V35.48h10.72V21.89h8.19V35.48h10.73V.54Z"/><polygon class="cls-1" points="4.97 46.94 4.14 46.94 4.14 43.78 1.07 43.78 1.07 46.94 0.24 46.94 0.24 40.32 1.07 40.32 1.07 43.05 4.14 43.05 4.14 40.32 4.97 40.32 4.97 46.94"/><path class="cls-1" d="M9.89,47.07a2.3,2.3,0,0,1-2-1,4.09,4.09,0,0,1-.71-2.44,4,4,0,0,1,.74-2.47,2.36,2.36,0,0,1,2-1,2.37,2.37,0,0,1,2,1,3.86,3.86,0,0,1,.74,2.43A4.23,4.23,0,0,1,11.91,46a2.32,2.32,0,0,1-2,1m0-.67a1.55,1.55,0,0,0,1.36-.79,3.9,3.9,0,0,0,.48-2,3.42,3.42,0,0,0-.5-2,1.6,1.6,0,0,0-2.7.05,3.69,3.69,0,0,0-.49,2,3.5,3.5,0,0,0,.5,2,1.54,1.54,0,0,0,1.35.77"/><path class="cls-1" d="M14.14,45.18l.74-.17a1.88,1.88,0,0,0,2,1.36A1.85,1.85,0,0,0,18,46a1.14,1.14,0,0,0,.39-.9.87.87,0,0,0-.3-.68,1.55,1.55,0,0,0-.7-.35l-1.32-.33a3.73,3.73,0,0,1-.85-.31,1.62,1.62,0,0,1-.55-.58,1.67,1.67,0,0,1-.23-.89,1.58,1.58,0,0,1,.63-1.32,2.51,2.51,0,0,1,1.6-.5,2.29,2.29,0,0,1,2.37,1.64l-.75.22a1.32,1.32,0,0,0-.62-.88,1.93,1.93,0,0,0-1-.3,1.73,1.73,0,0,0-1,.29.92.92,0,0,0-.42.81c0,.49.36.82,1.08,1l1.23.29c1.13.27,1.7.88,1.7,1.82a1.83,1.83,0,0,1-.64,1.43,2.58,2.58,0,0,1-1.79.57,2.62,2.62,0,0,1-2.72-1.89"/><path class="cls-1" d="M22.34,46.94h-.83V40.32h2.35a2,2,0,0,1,1.62.6A2,2,0,0,1,26,42.28a1.88,1.88,0,0,1-.56,1.41,2,2,0,0,1-1.5.56h-1.6Zm0-3.37h1.52a1.29,1.29,0,0,0,.95-.36,1.26,1.26,0,0,0,.36-.93,1.36,1.36,0,0,0-.32-.88,1.15,1.15,0,0,0-.93-.39H22.34Z"/><rect class="cls-1" x="28.05" y="40.32" width="0.83" height="6.62"/><polygon class="cls-1" points="33.52 46.94 32.7 46.94 32.7 41.04 30.8 41.04 30.8 40.32 35.42 40.32 35.42 41.04 33.52 41.04 33.52 46.94"/><path class="cls-1" d="M41.2,46.94h-.85L39.69,45H37.23l-.59,1.94H36l2.15-6.62H39Zm-1.69-2.56-1-3.18-1,3.18Z"/><rect class="cls-1" x="43.05" y="40.32" width="0.83" height="6.62"/><path class="cls-1" d="M45.8,45.18l.74-.17a1.87,1.87,0,0,0,2,1.36A1.81,1.81,0,0,0,49.68,46a1.12,1.12,0,0,0,.4-.9.87.87,0,0,0-.3-.68,1.58,1.58,0,0,0-.71-.35l-1.32-.33a3.54,3.54,0,0,1-.83-.31,1.43,1.43,0,0,1-.56-.58,1.67,1.67,0,0,1-.23-.89,1.6,1.6,0,0,1,.62-1.32,2.52,2.52,0,0,1,1.61-.5,2.29,2.29,0,0,1,2.37,1.64L50,42a1.32,1.32,0,0,0-.62-.88,1.93,1.93,0,0,0-1-.3,1.71,1.71,0,0,0-1,.29.92.92,0,0,0-.42.81c0,.49.36.82,1.07,1l1.24.29c1.13.27,1.69.88,1.69,1.82a1.83,1.83,0,0,1-.64,1.43,2.57,2.57,0,0,1-1.78.57,2.62,2.62,0,0,1-2.72-1.89"/><path class="cls-1" d="M60.42,40.32h.68v4.32a2.4,2.4,0,0,1-.63,1.86,2.43,2.43,0,0,1-1.67.57,2.23,2.23,0,0,1-1.71-.59,2.58,2.58,0,0,1-.55-1.84V40.32h.83v4.32a2.38,2.38,0,0,0,.18,1.09,1.05,1.05,0,0,0,.55.46,1.93,1.93,0,0,0,.75.15,1.54,1.54,0,0,0,1.16-.4,1.78,1.78,0,0,0,.41-1.3Z"/><path class="cls-1" d="M68.52,46.94h-.81L64.3,41.17v.44c0,.16,0,.3,0,.41v4.92h-.67V40.32h1l3.19,5.39v-.46c0-.18,0-.35,0-.48V40.32h.65Z"/><rect class="cls-1" x="71.17" y="40.32" width="0.83" height="6.62"/><polygon class="cls-1" points="79.1 40.32 76.88 46.94 76.08 46.94 73.85 40.32 74.72 40.32 76.56 45.78 78.38 40.32 79.1 40.32"/><polygon class="cls-1" points="85.24 46.2 85.24 46.94 80.96 46.94 80.96 40.32 85.15 40.32 85.15 41.04 81.79 41.04 81.79 43.15 84.45 43.15 84.45 43.82 81.79 43.82 81.79 46.2 85.24 46.2"/><path class="cls-1" d="M92.15,46.94h-.87l-1.22-2.87H88.17v2.87h-.78V40.32H90a2,2,0,0,1,1.57.58,1.87,1.87,0,0,1,.51,1.27,2,2,0,0,1-.28,1,1.62,1.62,0,0,1-1,.69Zm-4-3.55H89.9a1.31,1.31,0,0,0,1-.36,1.2,1.2,0,0,0,.34-.88,1,1,0,0,0-.35-.81A1.36,1.36,0,0,0,90,41H88.17Z"/><path class="cls-1" d="M93.73,45.18l.76-.17a1.85,1.85,0,0,0,2,1.36A1.81,1.81,0,0,0,97.62,46a1.15,1.15,0,0,0,.4-.9.84.84,0,0,0-.31-.68,1.51,1.51,0,0,0-.69-.35l-1.33-.33a3.82,3.82,0,0,1-.84-.31,1.64,1.64,0,0,1-.56-.58,1.75,1.75,0,0,1-.22-.89,1.57,1.57,0,0,1,.62-1.32,2.54,2.54,0,0,1,1.61-.5,2.29,2.29,0,0,1,2.37,1.64l-.75.22a1.32,1.32,0,0,0-.62-.88,1.93,1.93,0,0,0-1-.3,1.71,1.71,0,0,0-1,.29.93.93,0,0,0-.43.81c0,.49.36.82,1.08,1l1.24.29c1.13.27,1.7.88,1.7,1.82a1.86,1.86,0,0,1-.64,1.43,3,3,0,0,1-4.52-1.32"/><rect class="cls-1" x="101.11" y="40.32" width="0.83" height="6.62"/><polygon class="cls-1" points="106.58 46.94 105.75 46.94 105.75 41.04 103.85 41.04 103.85 40.32 108.48 40.32 108.48 41.04 106.58 41.04 106.58 46.94"/><path class="cls-1" d="M114.85,46.94H114L113.34,45h-2.46l-.59,1.94h-.69l2.15-6.62h.94Zm-1.69-2.56-1-3.18-1,3.18Zm.63-5.58-2,.92-.21-.39,1.92-1.11Z"/><path class="cls-1" d="M121.46,46.94h-.86l-1.23-2.87h-1.89v2.87h-.77V40.32h2.6a2,2,0,0,1,1.57.58,1.87,1.87,0,0,1,.51,1.27,2,2,0,0,1-.28,1,1.66,1.66,0,0,1-.94.69Zm-4-3.55h1.73a1.35,1.35,0,0,0,1-.36,1.23,1.23,0,0,0,.33-.88,1,1,0,0,0-.35-.81,1.36,1.36,0,0,0-.9-.3h-1.83Z"/><rect class="cls-1" x="123.78" y="40.32" width="0.83" height="6.62"/><path class="cls-1" d="M129.54,47.07a2.3,2.3,0,0,1-2-1,4,4,0,0,1-.72-2.44,3.93,3.93,0,0,1,.75-2.47,2.48,2.48,0,0,1,4,0,3.86,3.86,0,0,1,.74,2.43,4.23,4.23,0,0,1-.72,2.45,2.33,2.33,0,0,1-2,1m0-.67a1.53,1.53,0,0,0,1.36-.79,3.81,3.81,0,0,0,.49-2,3.34,3.34,0,0,0-.51-2,1.59,1.59,0,0,0-2.69.05,3.68,3.68,0,0,0-.5,2,3.51,3.51,0,0,0,.51,2,1.53,1.53,0,0,0,1.34.77"/><path class="cls-1" d="M133.78,45.18l.75-.17a1.85,1.85,0,0,0,1.95,1.36,1.82,1.82,0,0,0,1.18-.33,1.12,1.12,0,0,0,.4-.9.87.87,0,0,0-.3-.68,1.55,1.55,0,0,0-.7-.35l-1.33-.33a3.82,3.82,0,0,1-.84-.31,1.64,1.64,0,0,1-.56-.58,1.75,1.75,0,0,1-.22-.89,1.58,1.58,0,0,1,.63-1.32,2.49,2.49,0,0,1,1.6-.5,2.29,2.29,0,0,1,2.37,1.64L138,42a1.32,1.32,0,0,0-.62-.88,1.93,1.93,0,0,0-1-.3,1.73,1.73,0,0,0-1,.29.92.92,0,0,0-.42.81c0,.49.36.82,1.07,1l1.24.29c1.13.27,1.7.88,1.7,1.82a1.83,1.83,0,0,1-.64,1.43,3,3,0,0,1-4.51-1.32"/><polygon class="cls-1" points="145.46 46.94 144.62 46.94 144.62 40.32 148.67 40.32 148.67 41.04 145.46 41.04 145.46 43.14 148.12 43.14 148.12 43.8 145.46 43.8 145.46 46.94"/><polygon class="cls-1" points="154.94 46.2 154.94 46.94 150.65 46.94 150.65 40.32 154.85 40.32 154.85 41.04 151.49 41.04 151.49 43.15 154.15 43.15 154.15 43.82 151.49 43.82 151.49 46.2 154.94 46.2"/><path class="cls-1" d="M157.09,46.94V40.32h2.22a2.68,2.68,0,0,1,2.18,1,3.59,3.59,0,0,1,.78,2.34,3.65,3.65,0,0,1-.76,2.36,2.39,2.39,0,0,1-1.93,1Zm.83-.71h1.34a1.88,1.88,0,0,0,1.62-.74,3.19,3.19,0,0,0,.55-1.94,3.08,3.08,0,0,0-.52-1.76,1.85,1.85,0,0,0-1.65-.78h-1.34Z"/><polygon class="cls-1" points="168.78 46.2 168.78 46.94 164.5 46.94 164.5 40.32 168.69 40.32 168.69 41.04 165.33 41.04 165.33 43.15 167.99 43.15 167.99 43.82 165.33 43.82 165.33 46.2 168.78 46.2"/><path class="cls-1" d="M175.69,46.94h-.86l-1.23-2.87h-1.89v2.87h-.78V40.32h2.61a2,2,0,0,1,1.57.58,1.87,1.87,0,0,1,.51,1.27,2,2,0,0,1-.28,1,1.63,1.63,0,0,1-.94.69Zm-4-3.55h1.73a1.35,1.35,0,0,0,1-.36,1.24,1.24,0,0,0,.34-.88,1,1,0,0,0-.36-.81,1.36,1.36,0,0,0-.9-.3h-1.83Z"/><path class="cls-1" d="M182.46,46.94h-.85L181,45H178.5l-.59,1.94h-.7l2.15-6.62h.94Zm-1.68-2.56-1-3.18-1,3.18Z"/><rect class="cls-1" x="184.32" y="40.32" width="0.83" height="6.62"/><path class="cls-1" d="M187.06,45.18l.76-.17a1.84,1.84,0,0,0,2,1.36A1.82,1.82,0,0,0,191,46a1.14,1.14,0,0,0,.39-.9.84.84,0,0,0-.3-.68,1.5,1.5,0,0,0-.7-.35L189,43.78a3.64,3.64,0,0,1-.84-.31,1.56,1.56,0,0,1-.56-.58,1.75,1.75,0,0,1-.22-.89,1.57,1.57,0,0,1,.62-1.32,2.51,2.51,0,0,1,1.6-.5A2.3,2.3,0,0,1,192,41.82l-.75.22a1.39,1.39,0,0,0-.62-.88,1.93,1.93,0,0,0-1-.3,1.73,1.73,0,0,0-1,.29.94.94,0,0,0-.42.81c0,.49.36.82,1.08,1l1.24.29c1.13.27,1.69.88,1.69,1.82a1.83,1.83,0,0,1-.64,1.43,2.58,2.58,0,0,1-1.79.57,2.64,2.64,0,0,1-2.72-1.89"/><polygon class="cls-1" points="26.29 27.14 26.29 35.48 0 35.48 0 0.54 26.29 0.54 26.29 8.61 10.52 8.61 10.52 13.67 23.27 13.67 23.27 21.42 10.52 21.42 10.52 27.14 26.29 27.14"/></g></g></svg>