<svg xmlns="http://www.w3.org/2000/svg" viewBox="0 0 72.7 98.23"><defs><style>.cls-1{fill:#fff;}</style></defs><title>susAsset 10</title><g id="Layer_2" data-name="Layer 2"><g id="Layer_1-2" data-name="Layer 1"><path class="cls-1" d="M72.7,79.78H0c0-.83.08-1.63.11-2.44,0-.56,0-1.12,0-1.68a3,3,0,0,0,0-.67,1.38,1.38,0,0,1,.8-1.57,1.29,1.29,0,0,0,.65-1.25c0-2.31,0-4.63,0-6.94a.65.65,0,0,0-.32-.66,6,6,0,0,1-1-.86.52.52,0,0,1-.15-.27c0-.66,0-1.32,0-2H1.55V53.09a.65.65,0,0,0-.32-.65,6.49,6.49,0,0,1-1-.86.49.49,0,0,1-.15-.28c0-.66,0-1.31,0-2H1.55V37a.66.66,0,0,0-.33-.64,10,10,0,0,1-1.1-1A.32.32,0,0,1,0,35.18c0-.67,0-1.34,0-2.06H3.81V18.05H5a3.13,3.13,0,0,0-.45-2.21,5.6,5.6,0,0,1-.23-4.08A6.1,6.1,0,0,1,7.4,8.12a13.2,13.2,0,0,1,1.41-.53c.38-.12.55-.42.31-.75a1.46,1.46,0,0,1,.15-2,1.5,1.5,0,0,0,.19-.78c.07-.87.12-1.74.17-2.62a6.25,6.25,0,0,1,0-1C9.72.26,9.8,0,10.18,0s.49.31.53.57c.1.6.13,1.21.18,1.82s.1,1.49.19,2.24a1.13,1.13,0,0,0,.29.52,1.24,1.24,0,0,1,0,1.57c-.32.47-.2.71.34.89a5.9,5.9,0,0,1,3.78,3,5.79,5.79,0,0,1,.76,3,6.48,6.48,0,0,1-.72,2.86A2.15,2.15,0,0,0,15.31,18h1.22V33.09h4.13v-.45c0-3.16,0-6.32,0-9.48a1.29,1.29,0,0,0-.54-1.05c-.07-.05-.15-.08-.21-.13a1.19,1.19,0,0,1-.54-1.18,8,8,0,0,0,0-1.1l.1-.06A2.63,2.63,0,0,0,21.23,18a.48.48,0,0,1,.37-.23c.3,0,.62,0,.92,0a1.17,1.17,0,0,1,1.22.63,1.5,1.5,0,0,0,1.44.75c1.78-.05,3.56,0,5.35,0a.85.85,0,0,0,.6-.25,2.15,2.15,0,0,1,2.29-.91,1,1,0,0,1,.57.25,2.16,2.16,0,0,0,2.28.92h.08a2.27,2.27,0,0,0,2.43-1,.73.73,0,0,1,.47-.2c.3,0,.62,0,.92,0a1.07,1.07,0,0,1,1.11.58,1.25,1.25,0,0,0,1.16.63c1.92,0,3.84,0,5.77,0a1.11,1.11,0,0,0,1-.61,1.65,1.65,0,0,1,1.56-.78c.66,0,1.09.14,1.26.8s.73.75,1.19,1c.27.13.4.27.35.56v0a2.21,2.21,0,0,1-.95,2.36.64.64,0,0,0-.21.45c0,3.36,0,6.71,0,10.07a1.25,1.25,0,0,0,0,.15h3.75V18.15h1.33a2.37,2.37,0,0,0-.17-1.45,6.56,6.56,0,0,1-.79-3.8A5.86,5.86,0,0,1,58,9.57a7,7,0,0,1,2.33-1.7,4.32,4.32,0,0,1,.86-.28c.38-.1.42-.35.31-.67a2.1,2.1,0,0,0-.15-.3,1.52,1.52,0,0,1,.22-1.71,1.68,1.68,0,0,0,.22-.6q.18-1.69.33-3.39c0-.15,0-.31,0-.46,0-.31.23-.44.55-.45s.44.18.46.45c.06,1,.07,2.07.18,3.09a2.59,2.59,0,0,0,.4,1.57,1.38,1.38,0,0,1,.09,1.56c-.32.68-.28.72.42.93A6.23,6.23,0,0,1,68,10.69a5.72,5.72,0,0,1,.76,3.05A7.16,7.16,0,0,1,68,16.5a3.27,3.27,0,0,0-.23,1.62h1.33V33H72.7v2.28c-.36.26-.71.56-1.1.79s-.42.6-.42,1c0,3.83,0,7.66,0,11.49v.54h1.43c0,.69,0,1.33,0,2a.72.72,0,0,1-.17.39,6,6,0,0,1-.93.83.65.65,0,0,0-.33.65c0,2.62,0,5.25,0,7.87v.48h1.43c0,.68,0,1.34,0,2a.43.43,0,0,1-.15.28,7.11,7.11,0,0,1-1,.86.64.64,0,0,0-.32.64c0,2.4,0,4.8,0,7.2v.57c.39.32.83.65,1.24,1a.73.73,0,0,1,.19.47c0,.89,0,1.77,0,2.65a1.8,1.8,0,0,0,.08.39ZM13,20.48c0-1.49,0-2.91,0-4.34a.53.53,0,0,1,.12-.29A3.71,3.71,0,0,0,14,14a3.41,3.41,0,0,0-1.07-3A3.67,3.67,0,0,0,9.63,9.86,3.63,3.63,0,0,0,6.77,12a3.35,3.35,0,0,0,.36,3.63,1.14,1.14,0,0,1,.3.56c.05,1.31.06,2.63.1,3.94,0,.33-.12.42-.42.4s-.61,0-.94,0V35.4H3.91V36q0,18.1,0,36.22a2.18,2.18,0,0,1-.28,1.15,11.6,11.6,0,0,1-.85,1.5c-.62.81-.31,1.7-.38,2.55H70.34V75.66a.68.68,0,0,0-.07-.23c-.23-.42-.45-.85-.7-1.26a4.54,4.54,0,0,1-.77-2.48c0-11.92,0-23.84,0-35.75v-.56H66.71V20.46H65.37c0-1.25,0-2.46,0-3.66,0-.48-.06-1,.44-1.27.06,0,.09-.13.12-.21a3.58,3.58,0,0,0-.24-3.92,3.58,3.58,0,0,0-3-1.59,3.7,3.7,0,0,0-3,1.43,3.22,3.22,0,0,0-.32,4,3.39,3.39,0,0,1,.56,2.3v3H58.45V35.37h-8.4V23.1a2.31,2.31,0,0,1,.31-1.47.9.9,0,0,0,.06-.42c-.7.07-1.37.19-2,.19q-9.74,0-19.45,0a33.12,33.12,0,0,1-6.51-.25A3.21,3.21,0,0,1,23,23.22c0,3.89,0,7.78,0,11.67v.48H14.25V20.48Z"/><path class="cls-1" d="M20.07,98.23c-.15,0-.31,0-.46-.09a4.44,4.44,0,0,1-3.32-2.53,6.35,6.35,0,0,1-.51-4,7.05,7.05,0,0,1,.52-1.89A4.51,4.51,0,0,1,20,87.18a8,8,0,0,1,3.4.27,4.41,4.41,0,0,1,2.74,2.68,6.56,6.56,0,0,1,.44,2.46A5.48,5.48,0,0,1,24.92,97a4.71,4.71,0,0,1-2.49,1.11.65.65,0,0,0-.17.08Zm3.2-5.48a4.21,4.21,0,0,0,0-.71c-.16-.94-.35-1.83-1.41-2.24a2,2,0,0,0-2.7,1.44,6.23,6.23,0,0,0,.08,3.15,1.87,1.87,0,0,0,.47.74,2.08,2.08,0,0,0,2,.48,1.58,1.58,0,0,0,1.14-.86A3.59,3.59,0,0,0,23.27,92.75Z"/><path class="cls-1" d="M54.85,98.23a11.83,11.83,0,0,1-1.34-.3A3.65,3.65,0,0,1,51,95.22a7,7,0,0,1-.18-1.52c0-2.12,0-4.23,0-6.39h3.28v.45c0,2.07,0,4.15,0,6.23a1.47,1.47,0,0,0,1.19,1.59c.82.28,2.08-.09,2.21-1a2.32,2.32,0,0,0,.06-.45V87.3h3.37v6.17a5.6,5.6,0,0,1-.67,2.78,3.82,3.82,0,0,1-2.46,1.81c-.25.07-.5.11-.74.17Z"/><path class="cls-1" d="M32.2,98.23c-.52-.16-1-.3-1.54-.49a4,4,0,0,1-2.24-2.31,7,7,0,0,1,.1-5.79,4.08,4.08,0,0,1,3.54-2.43,13.82,13.82,0,0,1,2.73,0,3.89,3.89,0,0,1,2.94,2.41l.38.79-2.9.71a1.3,1.3,0,0,1-.16-.31,1.86,1.86,0,0,0-1.59-1.2,1.93,1.93,0,0,0-1.7.78,4.31,4.31,0,0,0-.5,2.77,3.72,3.72,0,0,0,.42,1.7,2,2,0,0,0,2.16.72,2.28,2.28,0,0,0,1.42-2l2.92.94a5.21,5.21,0,0,1-2,3,3.24,3.24,0,0,1-1.57.56,1.67,1.67,0,0,0-.3.08Z"/><path class="cls-1" d="M46.74,93.29a2.89,2.89,0,0,1,1.69,1.49c.59,1,1.09,2.14,1.64,3.25l-.34,0c-1,0-2,0-3,0a.49.49,0,0,1-.52-.31c-.61-1.15-1.24-2.3-1.85-3.46-.29-.56-.77-.59-1.34-.5V98H39.72V87.28h.45c1.85,0,3.7,0,5.55,0a5.59,5.59,0,0,1,2.19.47,2.46,2.46,0,0,1,1.23,1.77,2.85,2.85,0,0,1-.37,2.38A3,3,0,0,1,46.74,93.29ZM43,89.56v2.06c.73-.05,1.43-.05,2.11-.14s.77-.44.72-1.19a.89.89,0,0,0-.77-.73C44.39,89.54,43.71,89.56,43,89.56Z"/><path class="cls-1" d="M67.84,89.64H62.71V87.31h9.23c0,.67,0,1.34,0,2a.41.41,0,0,1-.13.24c-.59.65-1.17,1.31-1.77,2s-1.34,1.38-2,2.09S66.79,95,66.12,95.69h6V98h-10a12.38,12.38,0,0,1,0-2.11c0-.34.45-.64.72-.93,1-1.1,2.08-2.18,3.11-3.28C66.57,91.05,67.17,90.37,67.84,89.64Z"/><path class="cls-1" d="M8.68,89.64H4V91.4H8v2.27H4V98H.64V87.31h8Z"/><path class="cls-1" d="M10.59,87.3h3.23V98H10.59Z"/></g></g></svg>