<svg xmlns="http://www.w3.org/2000/svg" viewBox="0 0 145.94 42.06"><defs><style>.cls-1{fill:#fff;}</style></defs><title>susAsset 3min</title><g id="Layer_2" data-name="Layer 2"><g id="Layer_1-2" data-name="Layer 1"><path class="cls-1" d="M63.15,15.35c4.38,0,6.5,1.82,6.5,4.85A4,4,0,0,1,66.85,24a5,5,0,0,1,3.78,4.69c0,3-2.14,5.22-7.09,5.22-2.41,0-4.35-.06-6.59-.08l-.17-.19v-18l.17-.19C59.13,15.4,61.19,15.35,63.15,15.35ZM59.9,23H63c2.8,0,3.43-1.5,3.43-2.76s-.57-2.76-3.37-2.76c-.83,0-2.23,0-3.19,0Zm0,2.19v6.49c1.26,0,2.51,0,3.61,0,3.22,0,3.87-1.85,3.87-3.22s-.86-3.24-4-3.24Z"/><path class="cls-1" d="M82.55,25.72A3.72,3.72,0,0,1,84.66,28L86,31.13a4.15,4.15,0,0,0,1.34,1.92,2.77,2.77,0,0,1-2.14.89c-1.19,0-1.61-.59-2.09-1.74l-1.49-3.62a2.91,2.91,0,0,0-3-2.19H76.14v7.36a10.22,10.22,0,0,1-1.58.11A9.84,9.84,0,0,1,73,33.75V15.62l.18-.19c2.23,0,4.38-.08,6.41-.08,4.14,0,6.76,1.93,6.76,5.49A5,5,0,0,1,82.55,25.72Zm-6.41-1.61c1.16,0,2.47-.06,3.31-.06,2.92,0,3.63-1.66,3.63-3.21s-.71-3.24-3.63-3.24c-.87,0-2.3,0-3.31,0Z"/><path class="cls-1" d="M93.54,29.3,92,33.78a7.35,7.35,0,0,1-1.37.1A7,7,0,0,1,89,33.7L89,33.56l6.73-18.1a13.69,13.69,0,0,1,1.82-.11,12.84,12.84,0,0,1,1.79.11L106,33.56a3.87,3.87,0,0,1-1.85.38c-1,0-1.49-.32-1.88-1.5l-1.1-3.14-1.79,0H95.27Zm.8-2.3,1.52,0h3l1.49,0L99,23.12c-.53-1.56-1.16-3.43-1.58-4.85h-.15c-.29,1.21-.83,2.89-1.16,3.88Z"/><path class="cls-1" d="M108.79,29.89a12.43,12.43,0,0,0,6,1.83c2.42,0,3.79-1,3.82-2.52,0-1.26-1-2.23-2.72-2.89l-3.51-1.37c-2.5-1-4.08-2.36-4.08-4.63,0-2.92,2.74-5.2,6.73-5.2a16.06,16.06,0,0,1,6.32,1.39,3.25,3.25,0,0,1-1.16,2.23,13.8,13.8,0,0,0-5.1-1.26c-2.2,0-3.58,1.09-3.58,2.51,0,1.18,1,1.85,2.48,2.41l3.45,1.34c2.57,1,4.47,2.6,4.47,5,0,3.08-2.38,5.38-7.3,5.38a14,14,0,0,1-7.15-2A3.5,3.5,0,0,1,108.79,29.89Z"/><path class="cls-1" d="M125.61,15.46a10.14,10.14,0,0,1,1.58-.11,10.58,10.58,0,0,1,1.58.11V33.75a10.58,10.58,0,0,1-1.58.11,10.14,10.14,0,0,1-1.58-.11Z"/><path class="cls-1" d="M145.7,31.29a7.65,7.65,0,0,1-.09,1.12c-.18.91-.93,1.37-2.06,1.37h-7.78A1.69,1.69,0,0,1,133.92,32V15.51l.21-.16h1.19c1.32,0,1.79.56,1.79,1.82V31.39c.93-.08,1.85-.1,2.66-.1Z"/><path class="cls-1" d="M59.83,9.31H58.58v3.06a4.67,4.67,0,0,1-.9.07,4.79,4.79,0,0,1-.9-.07V3.22l.09-.08c1.08,0,2-.05,3-.05A2.89,2.89,0,0,1,63,6.21,2.91,2.91,0,0,1,59.83,9.31ZM58.58,7.93l1.14,0c1.2,0,1.44-1,1.44-1.7s-.24-1.7-1.44-1.7c-.34,0-.73,0-1.14,0Z"/><path class="cls-1" d="M65.18,10.28l-.63,2.11a3.8,3.8,0,0,1-.78.06,2.9,2.9,0,0,1-.87-.12l-.06-.09,3-9.08a9.28,9.28,0,0,1,1.06-.07,7.4,7.4,0,0,1,1,.08l3,9.08a2.28,2.28,0,0,1-1,.23c-.58,0-.86-.2-1.08-1l-.37-1.23-.67,0H65.84C65.71,10.3,65.4,10.3,65.18,10.28Zm.45-1.43H68l-.4-1.38c-.23-.76-.53-1.8-.73-2.61h-.08c-.14.69-.42,1.66-.6,2.28Z"/><path class="cls-1" d="M72.77,5.65c0-.36,0-.62,0-1h0l-.81,0h-1.5a4.29,4.29,0,0,1-.07-.76,4.35,4.35,0,0,1,.07-.75h6.45a3,3,0,0,1,.09.7c0,.59-.3.81-1,.81H75.4l-.81,0h0c0,.38,0,.64,0,1v6.72a5,5,0,0,1-.92.07,4.86,4.86,0,0,1-.9-.07Z"/><path class="cls-1" d="M82.82,8.41a1.77,1.77,0,0,1,1,1.18l.5,1.37a2.25,2.25,0,0,0,.63,1,1.52,1.52,0,0,1-1.2.54c-.66,0-.89-.36-1.14-1.06L82,9.81a1.21,1.21,0,0,0-1.26-1H80v3.53a4.86,4.86,0,0,1-.9.07,4.75,4.75,0,0,1-.89-.07V3.22l.09-.08c1.08,0,2.1-.05,3.08-.05,1.87,0,3.17.93,3.17,2.85A2.57,2.57,0,0,1,82.82,8.41ZM80,7.43l1.24,0a1.28,1.28,0,0,0,1.45-1.45A1.28,1.28,0,0,0,81.2,4.48H80Z"/><path class="cls-1" d="M86.41,3.16a4.77,4.77,0,0,1,.91-.07,4.86,4.86,0,0,1,.9.07v9.21a4.86,4.86,0,0,1-.9.07,4.77,4.77,0,0,1-.91-.07Z"/><path class="cls-1" d="M91.92,10.28l-.64,2.11a3.8,3.8,0,0,1-.78.06,2.84,2.84,0,0,1-.86-.12l-.07-.09,3-9.08a9,9,0,0,1,1-.07,7.28,7.28,0,0,1,1,.08l3,9.08a2.31,2.31,0,0,1-1,.23c-.58,0-.87-.2-1.08-1l-.38-1.23-.66,0H92.58C92.44,10.3,92.13,10.3,91.92,10.28Zm.44-1.43H94.7l-.41-1.38c-.23-.76-.52-1.8-.73-2.61h-.08c-.13.69-.42,1.66-.59,2.28Z"/><path class="cls-1" d="M103.32,10.28l-.63,2.11a3.85,3.85,0,0,1-.79.06,2.88,2.88,0,0,1-.86-.12l-.07-.09,3-9.08a9.1,9.1,0,0,1,1-.07,7.17,7.17,0,0,1,1,.08l3,9.08a2.31,2.31,0,0,1-1,.23c-.58,0-.86-.2-1.08-1l-.38-1.23-.66,0H104C103.85,10.3,103.54,10.3,103.32,10.28Zm.45-1.43h2.33l-.4-1.38c-.23-.76-.53-1.8-.73-2.61h-.08c-.14.69-.42,1.66-.6,2.28Z"/><path class="cls-1" d="M110.8,3.17A7.67,7.67,0,0,1,112,3.08a6.74,6.74,0,0,1,1.15.09l1,3.74c.09.38.43,1.77.51,2.31h.09c.09-.54.42-1.93.52-2.31l1-3.74a7.13,7.13,0,0,1,1.15-.09,8,8,0,0,1,1.23.09l.71,9.18a4.39,4.39,0,0,1-.91.09,5.13,5.13,0,0,1-.8,0l-.26-4.33c0-.84-.1-2.08-.1-2.93h-.1L115.68,11a7.38,7.38,0,0,1-.93.06,7.47,7.47,0,0,1-.92-.06l-1.58-5.87h-.09c0,.85,0,2.09-.11,2.93l-.26,4.33a5.13,5.13,0,0,1-.8,0,4.46,4.46,0,0,1-.91-.09Z"/><path class="cls-1" d="M122.83,10.28l-.63,2.11a3.8,3.8,0,0,1-.78.06,2.9,2.9,0,0,1-.87-.12l-.06-.09,3-9.08a9,9,0,0,1,1-.07,7.4,7.4,0,0,1,1,.08l2.95,9.08a2.25,2.25,0,0,1-1,.23c-.58,0-.86-.2-1.08-1l-.37-1.23-.66,0H123.5C123.36,10.3,123.05,10.3,122.83,10.28Zm.45-1.43h2.34l-.41-1.38c-.23-.76-.53-1.8-.73-2.61h-.08c-.13.69-.42,1.66-.59,2.28Z"/><path class="cls-1" d="M135.55,11.77a4.32,4.32,0,0,1-2.42.67c-1.13,0-2,0-3.18,0l-.1-.08V3.22l.1-.08c1.16,0,2.05-.05,3.18-.05a4.32,4.32,0,0,1,2.42.67c1.24,1,1.47,2.43,1.47,4S136.8,10.77,135.55,11.77Zm-2.42-7.25h-1.47V11h1.47c1.77,0,2-1.77,2-3.25S134.9,4.52,133.13,4.52Z"/><path class="cls-1" d="M140,10.28l-.64,2.11a3.8,3.8,0,0,1-.78.06,2.84,2.84,0,0,1-.86-.12l-.07-.09,3-9.08a9.1,9.1,0,0,1,1-.07,7.28,7.28,0,0,1,1,.08l3,9.08a2.31,2.31,0,0,1-1,.23c-.58,0-.87-.2-1.08-1l-.38-1.23-.66,0h-1.89C140.51,10.3,140.2,10.3,140,10.28Zm.44-1.43h2.34l-.41-1.38c-.23-.76-.52-1.8-.73-2.61h-.08c-.13.69-.42,1.66-.59,2.28Z"/><path class="cls-1" d="M68.5,0a1.65,1.65,0,0,1,.72,1L67,2.29a1,1,0,0,1-.5-.6Z"/><path class="cls-1" d="M59,39.36h1q.69,0,.69.66v1.73A6.13,6.13,0,0,1,59,42a2.16,2.16,0,0,1-.83-.15,1.57,1.57,0,0,1-.61-.46,1.76,1.76,0,0,1-.37-.72,3.28,3.28,0,0,1-.13-1,2.71,2.71,0,0,1,.18-1,2,2,0,0,1,.46-.74,2,2,0,0,1,.67-.45,2.4,2.4,0,0,1,.8-.14,2.9,2.9,0,0,1,1.6.47.8.8,0,0,1,0,.21,2.12,2.12,0,0,1-.11.21,1.33,1.33,0,0,1-.14.19l-.17.14a2,2,0,0,0-1.1-.36c-.71,0-1.07.5-1.07,1.5s.37,1.49,1.1,1.49l.29,0,.28,0v-.71c0-.07,0-.13,0-.19h-.33a.51.51,0,0,1-.39-.11.45.45,0,0,1-.11-.33A1.41,1.41,0,0,1,59,39.36Z"/><path class="cls-1" d="M64.25,41.59a2.39,2.39,0,0,1-.7-1.92,3.37,3.37,0,0,1,.14-1,2,2,0,0,1,.38-.74,1.71,1.71,0,0,1,.62-.44,2.09,2.09,0,0,1,.81-.15,2.18,2.18,0,0,1,.82.15,1.59,1.59,0,0,1,.61.45,2,2,0,0,1,.39.73,3.44,3.44,0,0,1,.13,1,3.48,3.48,0,0,1-.13,1,2,2,0,0,1-.39.73,1.68,1.68,0,0,1-.61.44,2.18,2.18,0,0,1-.82.15A1.88,1.88,0,0,1,64.25,41.59Zm.53-.9a.76.76,0,0,0,1.16.37,1,1,0,0,0,.26-.34,2.06,2.06,0,0,0,.13-.46,4.36,4.36,0,0,0,0-.51c0-.15,0-.32,0-.51a2.26,2.26,0,0,0-.09-.53A1,1,0,0,0,66,38.3a.7.7,0,0,0-.5-.17.69.69,0,0,0-.48.16,1,1,0,0,0-.25.4,1.71,1.71,0,0,0-.1.5,4.11,4.11,0,0,0,0,.47,4.39,4.39,0,0,0,0,.54A3,3,0,0,0,64.78,40.69Z"/><path class="cls-1" d="M72,41l.86-3.6a2.12,2.12,0,0,1,1,0l0,0-1.23,4.4c-.25,0-.5,0-.75,0a1.17,1.17,0,0,1-.54-.1.59.59,0,0,1-.26-.38l-1.09-3.95a1.59,1.59,0,0,1,.59-.15.56.56,0,0,1,.4.12.85.85,0,0,1,.21.39l.5,1.87c.08.3.16.69.25,1.2C71.89,41,71.92,41,72,41Z"/><path class="cls-1" d="M77.64,40.58v.47h2a3.26,3.26,0,0,1,0,.37c0,.34-.28.51-.67.51H77.2a.61.61,0,0,1-.45-.17.64.64,0,0,1-.16-.44V37.47l0,0h2.83a2.54,2.54,0,0,1,0,.41,1.29,1.29,0,0,1-.09.46H77.63v.94h1.44a1.33,1.33,0,0,1,.06.42,1.44,1.44,0,0,1-.06.43H77.64Z"/><path class="cls-1" d="M85.82,38.81a1.4,1.4,0,0,1-.06.41,1.92,1.92,0,0,1-.18.35,1.6,1.6,0,0,1-.25.27A1.34,1.34,0,0,1,85,40a.88.88,0,0,1,.51.6l.19.56a1.06,1.06,0,0,0,.33.49.76.76,0,0,1-.29.22,1.08,1.08,0,0,1-.44.08.47.47,0,0,1-.36-.13,1.33,1.33,0,0,1-.25-.47l-.23-.69a.75.75,0,0,0-.2-.3.53.53,0,0,0-.36-.1h-.27v1.64a3.55,3.55,0,0,1-.52,0,3.44,3.44,0,0,1-.52,0V37.46l0-.05,1,0h.62a2.57,2.57,0,0,1,.65.08,1.38,1.38,0,0,1,.51.27,1.36,1.36,0,0,1,.32.45A1.67,1.67,0,0,1,85.82,38.81Zm-2.17-.64v1.29h.51a.73.73,0,0,0,.33-.08.52.52,0,0,0,.2-.19.92.92,0,0,0,.06-.37c0-.42-.2-.64-.61-.64h-.49Z"/><path class="cls-1" d="M92.42,37.38l0,0v4.46a2.83,2.83,0,0,1-.62.06,5.92,5.92,0,0,1-.64,0l-1-2.35c-.12-.27-.24-.58-.37-.93h0c0,.64.08,1.29.08,2v1.31a3.34,3.34,0,0,1-.49,0,3.11,3.11,0,0,1-.49,0V37.45a2.64,2.64,0,0,1,.6-.06,4,4,0,0,1,.63,0l1,2.34c.18.43.31.76.4,1h0c0-.61-.08-1.25-.08-1.93V38a.72.72,0,0,1,.14-.49.57.57,0,0,1,.44-.15Z"/><path class="cls-1" d="M96.15,41.59a2.36,2.36,0,0,1-.71-1.92,3.37,3.37,0,0,1,.14-1,2,2,0,0,1,.39-.74,1.6,1.6,0,0,1,.61-.44,2.09,2.09,0,0,1,.81-.15,2.14,2.14,0,0,1,.82.15,1.63,1.63,0,0,1,.62.45,2.19,2.19,0,0,1,.38.73,3.42,3.42,0,0,1,.14,1,3.47,3.47,0,0,1-.14,1,2.19,2.19,0,0,1-.38.73,1.71,1.71,0,0,1-.62.44,2.14,2.14,0,0,1-.82.15A1.84,1.84,0,0,1,96.15,41.59Zm.53-.9a.69.69,0,0,0,.71.51.68.68,0,0,0,.44-.14.88.88,0,0,0,.26-.34,1.36,1.36,0,0,0,.13-.46,4.36,4.36,0,0,0,0-.51c0-.15,0-.32,0-.51a2.26,2.26,0,0,0-.1-.53.91.91,0,0,0-.25-.41.81.81,0,0,0-1,0,1.09,1.09,0,0,0-.25.4,2.11,2.11,0,0,0-.1.5c0,.18,0,.34,0,.47a4.39,4.39,0,0,0,0,.54A3.11,3.11,0,0,0,96.68,40.69Z"/><path class="cls-1" d="M107.06,38.32v.92h1.41a2,2,0,0,1,0,.43,1.88,1.88,0,0,1,0,.43h-1.41v1.81a3.55,3.55,0,0,1-.52,0,3.44,3.44,0,0,1-.52,0V37.46l0,0h2.81a1.53,1.53,0,0,1,0,.41.46.46,0,0,1-.14.36.62.62,0,0,1-.42.12Z"/><path class="cls-1" d="M112.82,40.58v.47h2a3.26,3.26,0,0,1,0,.37.59.59,0,0,1-.67.51h-1.75a.59.59,0,0,1-.44-.17.6.6,0,0,1-.16-.44V37.47l0,0h2.83a1.73,1.73,0,0,1,0,.41,1.29,1.29,0,0,1-.09.46h-1.78v.94h1.44a1.33,1.33,0,0,1,.06.42,1.44,1.44,0,0,1-.06.43h-1.44Z"/><path class="cls-1" d="M120.69,41.62a1.48,1.48,0,0,1-.55.25,3.52,3.52,0,0,1-.75.08h-.59l-1,0,0-.05V37.46l0-.05.79,0h.86a2.31,2.31,0,0,1,.93.17,1.53,1.53,0,0,1,.6.49,2.06,2.06,0,0,1,.32.72,4.29,4.29,0,0,1,.09.9,3.77,3.77,0,0,1-.15,1.13A1.68,1.68,0,0,1,120.69,41.62Zm-1.2-.49c.57,0,.86-.49.86-1.46s-.29-1.46-.86-1.46h-.65v2.93h.65Z"/><path class="cls-1" d="M125.46,40.58v.47h2a3.26,3.26,0,0,1,0,.37c-.05.34-.28.51-.67.51H125a.61.61,0,0,1-.45-.17.64.64,0,0,1-.16-.44V37.47l0,0h2.83a2.48,2.48,0,0,1,0,.41,1.32,1.32,0,0,1-.1.46h-1.78v.94h1.44a1.33,1.33,0,0,1,.06.42,1.44,1.44,0,0,1-.06.43h-1.44Z"/><path class="cls-1" d="M133.64,38.81a1.4,1.4,0,0,1-.06.41,1.92,1.92,0,0,1-.18.35,1.27,1.27,0,0,1-.25.27,1.34,1.34,0,0,1-.31.17.88.88,0,0,1,.51.6l.19.56a1.06,1.06,0,0,0,.33.49.76.76,0,0,1-.29.22,1,1,0,0,1-.44.08.47.47,0,0,1-.36-.13,1.33,1.33,0,0,1-.25-.47l-.23-.69a.75.75,0,0,0-.2-.3.53.53,0,0,0-.36-.1h-.27v1.64a3.55,3.55,0,0,1-.52,0,3.44,3.44,0,0,1-.52,0V37.46l0-.05,1,0h.62a2.57,2.57,0,0,1,.65.08,1.38,1.38,0,0,1,.51.27,1.36,1.36,0,0,1,.32.45A1.67,1.67,0,0,1,133.64,38.81Zm-2.17-.64v1.29H132a.73.73,0,0,0,.33-.08.52.52,0,0,0,.2-.19.92.92,0,0,0,.06-.37c0-.42-.2-.64-.61-.64h-.49Z"/><path class="cls-1" d="M137.8,41h-.26l-.28.95a1.78,1.78,0,0,1-.44,0,1.46,1.46,0,0,1-.51-.07l0-.05,1.45-4.4a3.49,3.49,0,0,1,.59,0,3.42,3.42,0,0,1,.62,0l1.42,4.41a1.14,1.14,0,0,1-.52.12.74.74,0,0,1-.48-.11,1,1,0,0,1-.24-.46L139,41H137.8Zm0-.83h1l-.11-.41q-.17-.54-.36-1.35h0c0,.19-.14.61-.32,1.26Z"/><path class="cls-1" d="M144.8,41h1.14a3,3,0,0,1,0,.45.51.51,0,0,1-.21.32.75.75,0,0,1-.47.14h-1.48a.61.61,0,0,1-.45-.17.64.64,0,0,1-.16-.44V37.43l.05,0h.38c.41,0,.61.22.61.67v3A6.13,6.13,0,0,1,144.8,41Z"/><path class="cls-1" d="M35.08,23A82.92,82.92,0,0,0,4.68,35.23,50.68,50.68,0,0,0,0,38.67v2.6a37.56,37.56,0,0,1,4.43-3c6-3.54,18-9.06,35.42-10.07a102.36,102.36,0,0,1,11.87,0V21.72A80,80,0,0,0,35.08,23Z"/><polygon class="cls-1" points="0 3.13 0 23.04 20.58 6.43 51.72 20.17 51.72 3.13 0 3.13"/><path class="cls-1" d="M0,23.94V38.05a49.65,49.65,0,0,1,4.72-3.48A19.11,19.11,0,0,1,35.07,22.36a78.7,78.7,0,0,1,16.65-1.29L20.58,7.33Z"/><path class="cls-1" d="M39.85,29C22.42,30,10.44,35.52,4.43,39.06A39.76,39.76,0,0,0,0,42v0H51.72V29A100.27,100.27,0,0,0,39.85,29Z"/><path class="cls-1" d="M5.51,34a76.49,76.49,0,0,1,13.58-7.32A81.39,81.39,0,0,1,33.85,22.5a12.4,12.4,0,0,0-7.18-3.2c-4.6-.5-10,.34-14.28,3.8A19.08,19.08,0,0,0,5.51,34Z"/></g></g></svg>