<svg xmlns="http://www.w3.org/2000/svg" viewBox="0 0 141.63 70.02"><defs><style>.cls-1{fill:#fff;}</style></defs><title>susAsset 5min</title><g id="Layer_2" data-name="Layer 2"><g id="Layer_1-2" data-name="Layer 1"><path class="cls-1" d="M7.26,4.4V14.67H22.94V4.4a4.79,4.79,0,0,1,1-3.3A3.33,3.33,0,0,1,26.53,0a3.43,3.43,0,0,1,2.65,1.09,4.69,4.69,0,0,1,1,3.31V32.64a4.71,4.71,0,0,1-1,3.33,3.45,3.45,0,0,1-2.64,1.1A3.34,3.34,0,0,1,23.91,36a4.93,4.93,0,0,1-1-3.32v-12H7.26V32.64a4.76,4.76,0,0,1-1,3.33,3.48,3.48,0,0,1-2.65,1.1A3.3,3.3,0,0,1,1,36a4.93,4.93,0,0,1-1-3.32V4.4A4.84,4.84,0,0,1,1,1.1,3.32,3.32,0,0,1,3.59,0,3.45,3.45,0,0,1,6.25,1.09,4.73,4.73,0,0,1,7.26,4.4Z"/><path class="cls-1" d="M38.05,21.64V4.4a4.79,4.79,0,0,1,1-3.3A3.35,3.35,0,0,1,41.64,0a3.43,3.43,0,0,1,2.68,1.1,4.79,4.79,0,0,1,1,3.3V22a16.07,16.07,0,0,0,.67,5,5.82,5.82,0,0,0,2.39,3.13,8.75,8.75,0,0,0,4.79,1.11c2.83,0,4.84-.76,6-2.26s1.76-3.8,1.76-6.86V4.4a4.83,4.83,0,0,1,1-3.31A3.34,3.34,0,0,1,64.53,0a3.45,3.45,0,0,1,2.65,1.09,4.69,4.69,0,0,1,1,3.31V21.64a25.8,25.8,0,0,1-.82,7,10.88,10.88,0,0,1-3.1,4.94,12.17,12.17,0,0,1-4.54,2.64,20.06,20.06,0,0,1-6.07.83,25.13,25.13,0,0,1-7.11-.89,11.45,11.45,0,0,1-4.87-2.77,11.06,11.06,0,0,1-2.76-4.79A24.25,24.25,0,0,1,38.05,21.64Z"/><path class="cls-1" d="M91.82,0a19.14,19.14,0,0,1,9.57,2.26,14.7,14.7,0,0,1,6,6.43,21.94,21.94,0,0,1,2,9.8A23.94,23.94,0,0,1,108.37,26,16.27,16.27,0,0,1,105,31.93a14.72,14.72,0,0,1-5.53,3.82A20,20,0,0,1,92,37.07a19.7,19.7,0,0,1-7.53-1.36,14.88,14.88,0,0,1-5.55-3.83,16.32,16.32,0,0,1-3.36-5.94,23.86,23.86,0,0,1-1.14-7.5,23.13,23.13,0,0,1,1.19-7.58A16.2,16.2,0,0,1,79,5a14.87,14.87,0,0,1,5.48-3.71A19.85,19.85,0,0,1,91.82,0Zm10.31,18.44a16.82,16.82,0,0,0-1.27-6.83,9.49,9.49,0,0,0-3.63-4.36,9.94,9.94,0,0,0-5.41-1.48,9.78,9.78,0,0,0-4,.82A8.81,8.81,0,0,0,84.62,9a11.57,11.57,0,0,0-2.11,4,18.21,18.21,0,0,0-.77,5.47A18.6,18.6,0,0,0,82.51,24a11.43,11.43,0,0,0,2.18,4.1,9.19,9.19,0,0,0,3.23,2.43,9.68,9.68,0,0,0,4,.81A9.84,9.84,0,0,0,97,29.9a9.6,9.6,0,0,0,3.71-4.3A16.65,16.65,0,0,0,102.13,18.44Z"/><path class="cls-1" d="M122.82,4.4V30.49h14.72a3.87,3.87,0,0,1,2.7.86,2.76,2.76,0,0,1,.94,2.15,2.69,2.69,0,0,1-.93,2.14,4,4,0,0,1-2.71.82H120a4.66,4.66,0,0,1-3.41-1.05,4.72,4.72,0,0,1-1-3.4V4.4a4.79,4.79,0,0,1,1-3.3,3.35,3.35,0,0,1,2.6-1.1,3.45,3.45,0,0,1,2.66,1.09A4.73,4.73,0,0,1,122.82,4.4Z"/><path class="cls-1" d="M24.6,46.63V49h3.57V46.63a1.11,1.11,0,0,1,.23-.76.77.77,0,0,1,.59-.25.79.79,0,0,1,.6.25,1.07,1.07,0,0,1,.24.76v6.43a1.07,1.07,0,0,1-.24.76.77.77,0,0,1-.6.25.79.79,0,0,1-.6-.25,1.19,1.19,0,0,1-.22-.76V50.31H24.6v2.75a1.11,1.11,0,0,1-.23.76.79.79,0,0,1-.61.25.77.77,0,0,1-.59-.25,1.13,1.13,0,0,1-.22-.76V46.63a1.17,1.17,0,0,1,.21-.76.79.79,0,0,1,.6-.25.83.83,0,0,1,.61.25A1.11,1.11,0,0,1,24.6,46.63Z"/><path class="cls-1" d="M37.19,51A3.6,3.6,0,0,1,37,52.23a2.94,2.94,0,0,1-.61,1,2.86,2.86,0,0,1-1,.63,3.33,3.33,0,0,1-1.26.22,3.26,3.26,0,0,1-1.24-.22,2.7,2.7,0,0,1-.95-.64,2.87,2.87,0,0,1-.62-1A3.85,3.85,0,0,1,31.13,51a3.68,3.68,0,0,1,.22-1.27,2.78,2.78,0,0,1,.6-1,2.86,2.86,0,0,1,1-.63,3.55,3.55,0,0,1,1.24-.22,3.37,3.37,0,0,1,1.26.23A2.68,2.68,0,0,1,37,49.72,3.62,3.62,0,0,1,37.19,51Zm-1.53,0a2.29,2.29,0,0,0-.4-1.45A1.33,1.33,0,0,0,34.15,49a1.4,1.4,0,0,0-.78.23,1.45,1.45,0,0,0-.52.68A2.68,2.68,0,0,0,32.66,51a2.8,2.8,0,0,0,.18,1,1.51,1.51,0,0,0,.52.68,1.34,1.34,0,0,0,.79.24,1.36,1.36,0,0,0,1.11-.52A2.3,2.3,0,0,0,35.66,51Z"/><path class="cls-1" d="M43.29,52.08a1.77,1.77,0,0,1-1.22,1.76,4.08,4.08,0,0,1-1.45.23,3.52,3.52,0,0,1-1.41-.25,2.09,2.09,0,0,1-.86-.63,1.23,1.23,0,0,1-.28-.75.58.58,0,0,1,.18-.43.61.61,0,0,1,.45-.18.53.53,0,0,1,.37.12,1.07,1.07,0,0,1,.24.32,1.67,1.67,0,0,0,.56.61,1.65,1.65,0,0,0,.89.2,1.3,1.3,0,0,0,.75-.2.56.56,0,0,0,.29-.47.63.63,0,0,0-.3-.58,3.83,3.83,0,0,0-1-.35,8.85,8.85,0,0,1-1.28-.41,2,2,0,0,1-.79-.57,1.31,1.31,0,0,1-.29-.86,1.51,1.51,0,0,1,.27-.86,1.78,1.78,0,0,1,.81-.65,2.92,2.92,0,0,1,1.28-.25,4.27,4.27,0,0,1,1.06.13,2.51,2.51,0,0,1,.79.33,1.61,1.61,0,0,1,.48.45.89.89,0,0,1,.16.49.58.58,0,0,1-.17.43.72.72,0,0,1-.5.17.66.66,0,0,1-.4-.13,2.63,2.63,0,0,1-.38-.41,1.48,1.48,0,0,0-.4-.35,1.29,1.29,0,0,0-.64-.14,1.21,1.21,0,0,0-.68.18.5.5,0,0,0-.28.44.47.47,0,0,0,.2.39,1.69,1.69,0,0,0,.54.25l.94.25a4.84,4.84,0,0,1,1.16.41,2,2,0,0,1,.68.57A1.25,1.25,0,0,1,43.29,52.08Z"/><path class="cls-1" d="M46,48.74v.18a3,3,0,0,1,.89-.78,2.26,2.26,0,0,1,1.05-.24,2.44,2.44,0,0,1,1.29.36,2.49,2.49,0,0,1,.93,1.06A3.65,3.65,0,0,1,50.49,51a4.15,4.15,0,0,1-.2,1.29,2.81,2.81,0,0,1-.55,1,2.28,2.28,0,0,1-.81.61,2.33,2.33,0,0,1-1,.22,2.18,2.18,0,0,1-1.1-.26A3.3,3.3,0,0,1,46,53v2.28c0,.67-.25,1-.73,1a.59.59,0,0,1-.57-.26,1.72,1.72,0,0,1-.14-.76V48.75a.94.94,0,0,1,.19-.65.68.68,0,0,1,.52-.22.69.69,0,0,1,.52.22A.9.9,0,0,1,46,48.74ZM49,51a2.64,2.64,0,0,0-.18-1,1.68,1.68,0,0,0-.51-.67,1.26,1.26,0,0,0-.73-.23,1.36,1.36,0,0,0-1.06.5A2.14,2.14,0,0,0,46.05,51a2.1,2.1,0,0,0,.43,1.41,1.33,1.33,0,0,0,1.06.5,1.22,1.22,0,0,0,.71-.22,1.46,1.46,0,0,0,.51-.66A2.57,2.57,0,0,0,49,51Z"/><path class="cls-1" d="M52.47,47.18a.8.8,0,0,1-.54-.2.68.68,0,0,1-.22-.55.66.66,0,0,1,.23-.53.76.76,0,0,1,.53-.21.78.78,0,0,1,.53.19.67.67,0,0,1,.23.55A.7.7,0,0,1,53,47,.76.76,0,0,1,52.47,47.18Zm.76,1.57v4.39a1,1,0,0,1-.22.69.72.72,0,0,1-.55.24.69.69,0,0,1-.55-.24,1.07,1.07,0,0,1-.2-.69V48.79a1,1,0,0,1,.2-.68.72.72,0,0,1,.55-.23.75.75,0,0,1,.55.23A.94.94,0,0,1,53.23,48.75Z"/><path class="cls-1" d="M54.88,48h.17V47.1a4.54,4.54,0,0,1,0-.57.8.8,0,0,1,.11-.36.6.6,0,0,1,.25-.25.7.7,0,0,1,.38-.1.77.77,0,0,1,.52.21.72.72,0,0,1,.2.36,3.07,3.07,0,0,1,0,.59v1h.56a.72.72,0,0,1,.49.15.51.51,0,0,1,.17.39.44.44,0,0,1-.24.43,1.48,1.48,0,0,1-.7.13h-.28v2.79c0,.24,0,.42,0,.55a.59.59,0,0,0,.14.31.45.45,0,0,0,.35.12,1.86,1.86,0,0,0,.36,0,1.44,1.44,0,0,1,.36-.05.46.46,0,0,1,.33.15.48.48,0,0,1,.15.36.6.6,0,0,1-.4.56,2.7,2.7,0,0,1-1.15.2,2,2,0,0,1-1.09-.24,1.15,1.15,0,0,1-.48-.66A4.89,4.89,0,0,1,55.05,52V49.12h-.2a.73.73,0,0,1-.5-.16.5.5,0,0,1-.18-.4.47.47,0,0,1,.19-.39A.79.79,0,0,1,54.88,48Z"/><path class="cls-1" d="M62.68,53.21a4.53,4.53,0,0,1-1.06.64,2.89,2.89,0,0,1-1.16.22,2.26,2.26,0,0,1-1-.23,1.73,1.73,0,0,1-.68-.63,1.62,1.62,0,0,1-.24-.86,1.54,1.54,0,0,1,.39-1.06A2,2,0,0,1,60,50.7l.72-.15,1-.22c.28-.06.57-.14.89-.23a1.66,1.66,0,0,0-.24-.89,1.11,1.11,0,0,0-.89-.28,1.92,1.92,0,0,0-.87.16,1.38,1.38,0,0,0-.5.49,3.78,3.78,0,0,1-.3.42.48.48,0,0,1-.37.11.64.64,0,0,1-.44-.17.52.52,0,0,1-.19-.42,1.3,1.3,0,0,1,.29-.78,2,2,0,0,1,.88-.62,4,4,0,0,1,1.5-.25,4.23,4.23,0,0,1,1.58.24,1.49,1.49,0,0,1,.81.75,3.23,3.23,0,0,1,.23,1.36v.91c0,.25,0,.52,0,.83a2.91,2.91,0,0,0,.15.89,3.09,3.09,0,0,1,.14.6.59.59,0,0,1-.22.43.8.8,0,0,1-.5.19.64.64,0,0,1-.46-.22A3,3,0,0,1,62.68,53.21Zm-.1-2.2a7.35,7.35,0,0,1-1,.26l-.88.2a1.19,1.19,0,0,0-.47.25.63.63,0,0,0-.22.52.75.75,0,0,0,.26.59,1,1,0,0,0,.68.24,1.74,1.74,0,0,0,.84-.2,1.33,1.33,0,0,0,.56-.51,2.42,2.42,0,0,0,.2-1.13Z"/><path class="cls-1" d="M65.62,53.14V46.55a1,1,0,0,1,.2-.69.69.69,0,0,1,.55-.24.74.74,0,0,1,.56.23,1,1,0,0,1,.21.7v6.59a1,1,0,0,1-.22.7.72.72,0,0,1-.55.23.68.68,0,0,1-.54-.24A1,1,0,0,1,65.62,53.14Z"/><path class="cls-1" d="M71.68,50.55V46.63a1.11,1.11,0,0,1,.23-.76.77.77,0,0,1,.59-.25.8.8,0,0,1,.61.25,1.11,1.11,0,0,1,.22.76v4a3.75,3.75,0,0,0,.16,1.15,1.33,1.33,0,0,0,.54.71,2,2,0,0,0,1.09.25,1.63,1.63,0,0,0,1.37-.51,2.51,2.51,0,0,0,.4-1.56v-4a1.11,1.11,0,0,1,.23-.76.77.77,0,0,1,.59-.25.83.83,0,0,1,.61.25,1.11,1.11,0,0,1,.23.76v3.92a5.56,5.56,0,0,1-.19,1.6,2.45,2.45,0,0,1-.7,1.13,2.84,2.84,0,0,1-1,.6,4.38,4.38,0,0,1-1.38.19,5.87,5.87,0,0,1-1.62-.2,2.74,2.74,0,0,1-1.11-.63,2.49,2.49,0,0,1-.63-1.1A5.65,5.65,0,0,1,71.68,50.55Z"/><path class="cls-1" d="M81.61,48.73v.18a2.77,2.77,0,0,1,.88-.78,2.41,2.41,0,0,1,1.1-.25,2.1,2.1,0,0,1,1.07.27,1.64,1.64,0,0,1,.71.74,1.51,1.51,0,0,1,.19.6,6,6,0,0,1,0,.82v2.83a1,1,0,0,1-.21.69.68.68,0,0,1-.54.24.73.73,0,0,1-.56-.24,1,1,0,0,1-.21-.69V50.61a2.51,2.51,0,0,0-.21-1.15.83.83,0,0,0-.83-.4,1.23,1.23,0,0,0-.74.24,1.4,1.4,0,0,0-.49.67,4.94,4.94,0,0,0-.11,1.27v1.9a1,1,0,0,1-.22.7.72.72,0,0,1-.55.23.68.68,0,0,1-.54-.24,1,1,0,0,1-.21-.69V48.75a.94.94,0,0,1,.19-.65.66.66,0,0,1,.52-.22.75.75,0,0,1,.36.1.71.71,0,0,1,.26.28A1.09,1.09,0,0,1,81.61,48.73Z"/><path class="cls-1" d="M87.89,47.18a.8.8,0,0,1-.54-.2.68.68,0,0,1-.22-.55.66.66,0,0,1,.23-.53.76.76,0,0,1,.53-.21.8.8,0,0,1,.53.19.67.67,0,0,1,.23.55.7.7,0,0,1-.23.55A.78.78,0,0,1,87.89,47.18Zm.76,1.57v4.39a1,1,0,0,1-.22.69.72.72,0,0,1-.55.24.69.69,0,0,1-.55-.24,1,1,0,0,1-.2-.69V48.79a1,1,0,0,1,.2-.68.72.72,0,0,1,.55-.23.75.75,0,0,1,.55.23A.94.94,0,0,1,88.65,48.75Z"/><path class="cls-1" d="M91.29,48.83l1.23,3.46,1.33-3.61a2,2,0,0,1,.31-.61.53.53,0,0,1,.45-.19.7.7,0,0,1,.5.2.62.62,0,0,1,.2.45.66.66,0,0,1,0,.23,2,2,0,0,1-.08.26l-.11.26L93.62,52.9c0,.11-.09.24-.16.4a2.23,2.23,0,0,1-.21.41.87.87,0,0,1-.73.36.81.81,0,0,1-.51-.15,1.22,1.22,0,0,1-.29-.32c-.06-.12-.16-.35-.31-.7L90,49.32l-.11-.27-.09-.27a1.12,1.12,0,0,1,0-.24.61.61,0,0,1,.09-.31.89.89,0,0,1,.26-.25.82.82,0,0,1,.37-.1.6.6,0,0,1,.52.22A3.65,3.65,0,0,1,91.29,48.83Z"/><path class="cls-1" d="M100.5,51.35h-3a2,2,0,0,0,.21.91,1.44,1.44,0,0,0,.54.6,1.47,1.47,0,0,0,.74.2,1.9,1.9,0,0,0,.5-.06,1.93,1.93,0,0,0,.44-.2,2.88,2.88,0,0,0,.39-.3l.46-.42a.49.49,0,0,1,.34-.1.55.55,0,0,1,.38.13.46.46,0,0,1,.14.36.94.94,0,0,1-.16.48,1.85,1.85,0,0,1-.49.53,2.74,2.74,0,0,1-.82.42,3.53,3.53,0,0,1-1.13.17,3,3,0,0,1-2.28-.84A3.1,3.1,0,0,1,96,51a3.7,3.7,0,0,1,.2-1.26,2.74,2.74,0,0,1,.58-1,2.53,2.53,0,0,1,1-.64A3.52,3.52,0,0,1,99,47.87a3,3,0,0,1,1.53.38,2.46,2.46,0,0,1,1,1,2.58,2.58,0,0,1,.32,1.22c0,.38-.11.63-.33.74A2.1,2.1,0,0,1,100.5,51.35Zm-3-.86h2.76a1.9,1.9,0,0,0-.42-1.17,1.26,1.26,0,0,0-1-.39,1.24,1.24,0,0,0-.94.39A2,2,0,0,0,97.52,50.49Z"/><path class="cls-1" d="M104.54,51.87v1.27a1,1,0,0,1-.22.7.72.72,0,0,1-.55.23.68.68,0,0,1-.54-.24,1,1,0,0,1-.21-.69V48.91c0-.68.25-1,.74-1a.63.63,0,0,1,.55.24,1.34,1.34,0,0,1,.18.71,2.7,2.7,0,0,1,.56-.71,1.16,1.16,0,0,1,.77-.24,2,2,0,0,1,.93.24.73.73,0,0,1,.45.64.63.63,0,0,1-.19.46.61.61,0,0,1-.42.18,1.76,1.76,0,0,1-.4-.1,1.89,1.89,0,0,0-.57-.11.8.8,0,0,0-.54.18,1.17,1.17,0,0,0-.33.52,3.5,3.5,0,0,0-.16.82C104.56,51,104.54,51.42,104.54,51.87Z"/><path class="cls-1" d="M112.64,52.08a1.9,1.9,0,0,1-.3,1.08,1.94,1.94,0,0,1-.91.68,4.14,4.14,0,0,1-1.46.23,3.5,3.5,0,0,1-1.4-.25,2,2,0,0,1-.86-.63,1.23,1.23,0,0,1-.28-.75.58.58,0,0,1,.18-.43.6.6,0,0,1,.45-.18.53.53,0,0,1,.37.12,1.26,1.26,0,0,1,.24.32,1.59,1.59,0,0,0,.56.61,1.63,1.63,0,0,0,.89.2,1.35,1.35,0,0,0,.75-.2.59.59,0,0,0,.29-.47.63.63,0,0,0-.3-.58,4,4,0,0,0-1-.35,8.46,8.46,0,0,1-1.28-.41,2,2,0,0,1-.79-.57,1.27,1.27,0,0,1-.3-.86,1.52,1.52,0,0,1,.28-.86,1.8,1.8,0,0,1,.8-.65,3,3,0,0,1,1.29-.25,4.33,4.33,0,0,1,1.06.13,2.55,2.55,0,0,1,.78.33,1.61,1.61,0,0,1,.48.45.91.91,0,0,1,.17.49.55.55,0,0,1-.18.43.7.7,0,0,1-.5.17.63.63,0,0,1-.39-.13,2.63,2.63,0,0,1-.38-.41,1.53,1.53,0,0,0-.41-.35,1.45,1.45,0,0,0-1.32,0,.51.51,0,0,0-.27.44.47.47,0,0,0,.2.39,1.51,1.51,0,0,0,.54.25l.94.25a4.75,4.75,0,0,1,1.15.41,1.86,1.86,0,0,1,.68.57A1.19,1.19,0,0,1,112.64,52.08Z"/><path class="cls-1" d="M114.7,47.18a.8.8,0,0,1-.54-.2.75.75,0,0,1,0-1.08.78.78,0,0,1,.54-.21.76.76,0,0,1,.52.19.65.65,0,0,1,.23.55.69.69,0,0,1-.22.55A.79.79,0,0,1,114.7,47.18Zm.75,1.57v4.39a.94.94,0,0,1-.22.69.74.74,0,0,1-1.09,0,1,1,0,0,1-.21-.69V48.79a1,1,0,0,1,.21-.68.76.76,0,0,1,1.09,0A.89.89,0,0,1,115.45,48.75Z"/><path class="cls-1" d="M117.11,48h.16V47.1c0-.24,0-.43,0-.57a1,1,0,0,1,.11-.36.63.63,0,0,1,.26-.25.66.66,0,0,1,.37-.1.75.75,0,0,1,.52.21.65.65,0,0,1,.2.36,3.07,3.07,0,0,1,0,.59v1h.56a.7.7,0,0,1,.49.15.48.48,0,0,1,.17.39.44.44,0,0,1-.24.43,1.44,1.44,0,0,1-.69.13h-.29v2.79a3.82,3.82,0,0,0,0,.55.59.59,0,0,0,.13.31.47.47,0,0,0,.36.12,1.86,1.86,0,0,0,.36,0,1.38,1.38,0,0,1,.36-.05.46.46,0,0,1,.33.15.47.47,0,0,1,.14.36.6.6,0,0,1-.4.56,2.67,2.67,0,0,1-1.15.2,2,2,0,0,1-1.08-.24,1.07,1.07,0,0,1-.48-.66,4.33,4.33,0,0,1-.12-1.13V49.12h-.2a.75.75,0,0,1-.5-.16.53.53,0,0,1-.17-.4.48.48,0,0,1,.18-.39A.82.82,0,0,1,117.11,48Z"/><path class="cls-1" d="M124.91,53.21a4.58,4.58,0,0,1-1.07.64,2.86,2.86,0,0,1-1.16.22,2.19,2.19,0,0,1-1-.23,1.76,1.76,0,0,1-.69-.63,1.62,1.62,0,0,1-.24-.86,1.55,1.55,0,0,1,.4-1.06,2,2,0,0,1,1.08-.59l.72-.15,1-.22.89-.23a1.57,1.57,0,0,0-.25-.89,1.08,1.08,0,0,0-.88-.28,2,2,0,0,0-.88.16,1.46,1.46,0,0,0-.5.49c-.14.21-.24.36-.29.42a.48.48,0,0,1-.37.11.66.66,0,0,1-.45-.17.54.54,0,0,1-.18-.42,1.29,1.29,0,0,1,.28-.78,2,2,0,0,1,.89-.62,4,4,0,0,1,1.5-.25,4.17,4.17,0,0,1,1.57.24,1.49,1.49,0,0,1,.81.75,3.22,3.22,0,0,1,.24,1.36v.91c0,.25,0,.52,0,.83a3.22,3.22,0,0,0,.14.89,2.46,2.46,0,0,1,.14.6.55.55,0,0,1-.22.43.76.76,0,0,1-.5.19.66.66,0,0,1-.46-.22A3.41,3.41,0,0,1,124.91,53.21Zm-.1-2.2a8.07,8.07,0,0,1-1,.26l-.88.2a1.27,1.27,0,0,0-.47.25.63.63,0,0,0-.22.52.79.79,0,0,0,.26.59,1,1,0,0,0,.69.24,1.67,1.67,0,0,0,.83-.2,1.33,1.33,0,0,0,.56-.51,2.28,2.28,0,0,0,.21-1.13Zm-.92-5.31h.75c.19,0,.29,0,.29.08a2,2,0,0,1-.31.37q-.32.32-.63.6a2.22,2.22,0,0,1-.44.35,1.46,1.46,0,0,1-.68.17c-.16,0-.24-.05-.24-.14a.8.8,0,0,1,.14-.33l.25-.47a1.68,1.68,0,0,1,.38-.52A.91.91,0,0,1,123.89,45.7Z"/><path class="cls-1" d="M129.35,51.87v1.27a1,1,0,0,1-.22.7.72.72,0,0,1-.55.23.7.7,0,0,1-.54-.24,1,1,0,0,1-.21-.69V48.91c0-.68.25-1,.74-1a.62.62,0,0,1,.55.24,1.34,1.34,0,0,1,.18.71,2.7,2.7,0,0,1,.56-.71,1.16,1.16,0,0,1,.77-.24,2,2,0,0,1,.93.24.73.73,0,0,1,.45.64.59.59,0,0,1-.19.46.61.61,0,0,1-.42.18,1.76,1.76,0,0,1-.4-.1,1.84,1.84,0,0,0-.57-.11.8.8,0,0,0-.54.18,1.17,1.17,0,0,0-.33.52,3.5,3.5,0,0,0-.16.82C129.37,51,129.35,51.42,129.35,51.87Z"/><path class="cls-1" d="M133.61,47.18a.8.8,0,0,1-.54-.2.75.75,0,0,1,0-1.08.78.78,0,0,1,.54-.21.76.76,0,0,1,.52.19.65.65,0,0,1,.23.55.69.69,0,0,1-.22.55A.79.79,0,0,1,133.61,47.18Zm.75,1.57v4.39a.94.94,0,0,1-.22.69.74.74,0,0,1-1.09,0,1,1,0,0,1-.21-.69V48.79a1,1,0,0,1,.21-.68.76.76,0,0,1,1.09,0A.89.89,0,0,1,134.36,48.75Z"/><path class="cls-1" d="M141.63,51a3.6,3.6,0,0,1-.21,1.25,3,3,0,0,1-.62,1,2.76,2.76,0,0,1-1,.63,3.31,3.31,0,0,1-1.25.22,3.23,3.23,0,0,1-1.24-.22,2.74,2.74,0,0,1-1-.64,2.84,2.84,0,0,1-.61-1,3.6,3.6,0,0,1-.21-1.25,3.68,3.68,0,0,1,.21-1.27,2.8,2.8,0,0,1,.61-1,2.67,2.67,0,0,1,1-.63,3.51,3.51,0,0,1,1.24-.22,3.31,3.31,0,0,1,1.25.23,2.81,2.81,0,0,1,1,.63,2.75,2.75,0,0,1,.61,1A3.62,3.62,0,0,1,141.63,51Zm-1.53,0a2.3,2.3,0,0,0-.41-1.45,1.32,1.32,0,0,0-1.1-.52,1.41,1.41,0,0,0-.79.23,1.51,1.51,0,0,0-.52.68A2.87,2.87,0,0,0,137.1,51a2.8,2.8,0,0,0,.18,1,1.45,1.45,0,0,0,.52.68,1.32,1.32,0,0,0,.79.24,1.34,1.34,0,0,0,1.1-.52A2.3,2.3,0,0,0,140.1,51Z"/><path class="cls-1" d="M71.67,59.32a4.43,4.43,0,0,1,2.19.51,3.31,3.31,0,0,1,1.37,1.47,4.86,4.86,0,0,1,.47,2.23,5.5,5.5,0,0,1-.25,1.72,3.71,3.71,0,0,1-.77,1.34,3.31,3.31,0,0,1-1.26.87,4.57,4.57,0,0,1-1.71.3A4.47,4.47,0,0,1,70,67.45a3.31,3.31,0,0,1-1.26-.87A3.67,3.67,0,0,1,68,65.23a5.57,5.57,0,0,1-.26-1.71A5.28,5.28,0,0,1,68,61.79a3.79,3.79,0,0,1,.78-1.34A3.37,3.37,0,0,1,70,59.61,4.4,4.4,0,0,1,71.67,59.32ZM74,63.52A3.91,3.91,0,0,0,73.74,62a2.15,2.15,0,0,0-.83-1,2.24,2.24,0,0,0-1.24-.34,2.12,2.12,0,0,0-.91.19,2,2,0,0,0-.73.54,2.7,2.7,0,0,0-.48.91,4.39,4.39,0,0,0-.17,1.25,4.52,4.52,0,0,0,.17,1.26,2.75,2.75,0,0,0,.5.93,2,2,0,0,0,.74.55,2.09,2.09,0,0,0,.91.19,2.22,2.22,0,0,0,1.16-.32,2.17,2.17,0,0,0,.85-1A3.79,3.79,0,0,0,74,63.52Z"/><path class="cls-1" d="M78.39,62.42v.18a2.62,2.62,0,0,1,.88-.77,2.29,2.29,0,0,1,1.1-.25,2.2,2.2,0,0,1,1.07.26,1.64,1.64,0,0,1,.71.74,1.83,1.83,0,0,1,.19.6,6.14,6.14,0,0,1,0,.83v2.83a1,1,0,0,1-.21.69.71.71,0,0,1-.54.23.73.73,0,0,1-.56-.24,1,1,0,0,1-.21-.68V64.3a2.54,2.54,0,0,0-.21-1.15.84.84,0,0,0-.83-.4,1.18,1.18,0,0,0-.74.25,1.37,1.37,0,0,0-.49.66,5,5,0,0,0-.11,1.27v1.91a.94.94,0,0,1-.22.69.75.75,0,0,1-1.09,0,1,1,0,0,1-.21-.68v-4.4a1,1,0,0,1,.19-.65.66.66,0,0,1,.52-.21.74.74,0,0,1,.36.09.82.82,0,0,1,.26.29A1,1,0,0,1,78.39,62.42Z"/><path class="cls-1" d="M89.6,64.67a3.6,3.6,0,0,1-.21,1.25,2.73,2.73,0,0,1-.62,1,2.59,2.59,0,0,1-1,.63,3.37,3.37,0,0,1-1.26.22,3.26,3.26,0,0,1-1.24-.22,2.74,2.74,0,0,1-1-.64,2.67,2.67,0,0,1-.61-1,3.56,3.56,0,0,1-.21-1.25,3.62,3.62,0,0,1,.21-1.26,2.85,2.85,0,0,1,.61-1,2.61,2.61,0,0,1,1-.62,3.33,3.33,0,0,1,1.24-.22,3.4,3.4,0,0,1,1.26.22,2.74,2.74,0,0,1,1,.64,2.67,2.67,0,0,1,.61,1A3.52,3.52,0,0,1,89.6,64.67Zm-1.53,0a2.25,2.25,0,0,0-.41-1.45,1.43,1.43,0,0,0-1.88-.29,1.56,1.56,0,0,0-.53.69,2.82,2.82,0,0,0-.18,1.05,2.73,2.73,0,0,0,.18,1,1.4,1.4,0,0,0,.52.68,1.42,1.42,0,0,0,1.89-.28A2.24,2.24,0,0,0,88.07,64.67Z"/><path class="cls-1" d="M90.67,61.71H91v-.46a2.93,2.93,0,0,1,.18-1.13,1.14,1.14,0,0,1,.61-.61A2.93,2.93,0,0,1,93,59.32c.89,0,1.34.21,1.34.65a.52.52,0,0,1-.14.36.46.46,0,0,1-.33.15l-.31,0a1.8,1.8,0,0,0-.37,0c-.27,0-.45.08-.53.25a1.77,1.77,0,0,0-.11.69v.36h.37c.58,0,.87.18.87.53a.47.47,0,0,1-.23.47,1.62,1.62,0,0,1-.64.1h-.37v4a1,1,0,0,1-.22.69.73.73,0,0,1-.55.23.71.71,0,0,1-.54-.23,1,1,0,0,1-.21-.69v-4h-.42a.84.84,0,0,1-.53-.15.52.52,0,0,1-.18-.4C89.91,61.89,90.17,61.71,90.67,61.71Z"/><path class="cls-1" d="M96.11,65.57v1.27a1,1,0,0,1-.22.69.76.76,0,0,1-1.09,0,1,1,0,0,1-.22-.69V62.6q0-1,.75-1a.61.61,0,0,1,.54.24,1.4,1.4,0,0,1,.19.71,2.38,2.38,0,0,1,.56-.71,1.14,1.14,0,0,1,.76-.24,2,2,0,0,1,.93.24.71.71,0,0,1,.45.63.59.59,0,0,1-.19.46.61.61,0,0,1-.41.18,1.8,1.8,0,0,1-.41-.1,1.79,1.79,0,0,0-.56-.1.86.86,0,0,0-.55.17,1.17,1.17,0,0,0-.33.52,3.6,3.6,0,0,0-.16.83C96.12,64.72,96.11,65.11,96.11,65.57Z"/><path class="cls-1" d="M103.56,65h-3a2,2,0,0,0,.21.92,1.41,1.41,0,0,0,.54.59,1.35,1.35,0,0,0,.74.2,1.9,1.9,0,0,0,.5-.06,1.58,1.58,0,0,0,.44-.2,4,4,0,0,0,.39-.29l.46-.43a.55.55,0,0,1,.34-.1.6.6,0,0,1,.38.13.49.49,0,0,1,.14.36,1,1,0,0,1-.16.49,1.82,1.82,0,0,1-.49.52,2.74,2.74,0,0,1-.82.42,3.31,3.31,0,0,1-1.13.17,3.05,3.05,0,0,1-2.28-.83A3.14,3.14,0,0,1,99,64.66a3.6,3.6,0,0,1,.2-1.25,2.57,2.57,0,0,1,.58-1,2.4,2.4,0,0,1,1-.63,3.31,3.31,0,0,1,1.25-.22,3,3,0,0,1,1.53.37,2.48,2.48,0,0,1,.95,1,2.55,2.55,0,0,1,.32,1.21c0,.38-.11.63-.33.74A2,2,0,0,1,103.56,65Zm-3-.86h2.76a1.9,1.9,0,0,0-.42-1.17,1.27,1.27,0,0,0-1-.38A1.24,1.24,0,0,0,101,63,2,2,0,0,0,100.58,64.18Z"/><path class="cls-1" d="M110.67,60.32v5.94H114a.88.88,0,0,1,.61.2.66.66,0,0,1,0,1,.91.91,0,0,1-.61.18h-4a1.07,1.07,0,0,1-.78-.24,1,1,0,0,1-.23-.77V60.32a1.07,1.07,0,0,1,.22-.75.75.75,0,0,1,.59-.25.81.81,0,0,1,.61.24A1.11,1.11,0,0,1,110.67,60.32Z"/><path class="cls-1" d="M121.53,64.67a3.6,3.6,0,0,1-.21,1.25,2.85,2.85,0,0,1-.61,1,2.72,2.72,0,0,1-1,.63,3.33,3.33,0,0,1-1.26.22,3.26,3.26,0,0,1-1.24-.22,2.74,2.74,0,0,1-1-.64,2.8,2.8,0,0,1-.61-1,3.56,3.56,0,0,1-.21-1.25,3.4,3.4,0,0,1,.22-1.26,2.83,2.83,0,0,1,.6-1,2.69,2.69,0,0,1,1-.62,3.33,3.33,0,0,1,1.24-.22,3.4,3.4,0,0,1,1.26.22,2.74,2.74,0,0,1,1,.64,2.67,2.67,0,0,1,.61,1A3.52,3.52,0,0,1,121.53,64.67Zm-1.53,0a2.25,2.25,0,0,0-.41-1.45,1.34,1.34,0,0,0-1.1-.52,1.38,1.38,0,0,0-.78.23,1.56,1.56,0,0,0-.53.69,2.82,2.82,0,0,0-.18,1.05,2.73,2.73,0,0,0,.18,1,1.4,1.4,0,0,0,.52.68,1.42,1.42,0,0,0,1.89-.28A2.24,2.24,0,0,0,120,64.67Z"/><path class="cls-1" d="M124.13,62.43v.18a3,3,0,0,1,.89-.77,2.14,2.14,0,0,1,1-.25,2.41,2.41,0,0,1,1.29.36A2.44,2.44,0,0,1,128.3,63a3.65,3.65,0,0,1,.34,1.65,4.06,4.06,0,0,1-.2,1.29,2.8,2.8,0,0,1-.54,1,2.26,2.26,0,0,1-.82.62,2.44,2.44,0,0,1-1,.21A2.14,2.14,0,0,1,125,67.5a3,3,0,0,1-.85-.77V69c0,.66-.24,1-.73,1a.61.61,0,0,1-.57-.26,1.69,1.69,0,0,1-.14-.76V62.44a1,1,0,0,1,.19-.65.67.67,0,0,1,.52-.21.68.68,0,0,1,.53.22A.92.92,0,0,1,124.13,62.43Zm3,2.21a2.67,2.67,0,0,0-.18-1,1.44,1.44,0,0,0-.51-.66,1.2,1.2,0,0,0-.72-.24,1.35,1.35,0,0,0-1.06.5,2.16,2.16,0,0,0-.44,1.46,2.12,2.12,0,0,0,.43,1.41,1.34,1.34,0,0,0,1.07.51,1.29,1.29,0,0,0,.7-.22,1.52,1.52,0,0,0,.52-.66A2.66,2.66,0,0,0,127.11,64.64Z"/><path class="cls-1" d="M134.11,65h-3a2,2,0,0,0,.21.92,1.4,1.4,0,0,0,1.28.79,2,2,0,0,0,.5-.06,1.58,1.58,0,0,0,.44-.2,4,4,0,0,0,.39-.29l.46-.43a.55.55,0,0,1,.34-.1.6.6,0,0,1,.38.13.49.49,0,0,1,.14.36,1.11,1.11,0,0,1-.16.49,1.82,1.82,0,0,1-.49.52,2.74,2.74,0,0,1-.82.42,3.31,3.31,0,0,1-1.13.17,3.05,3.05,0,0,1-2.28-.83,3.14,3.14,0,0,1-.81-2.27,3.6,3.6,0,0,1,.2-1.25,2.57,2.57,0,0,1,.58-1,2.4,2.4,0,0,1,.95-.63,3.31,3.31,0,0,1,1.25-.22,3,3,0,0,1,1.53.37,2.48,2.48,0,0,1,.95,1,2.55,2.55,0,0,1,.32,1.21c0,.38-.11.63-.33.74A2,2,0,0,1,134.11,65Zm-3-.86h2.76a1.9,1.9,0,0,0-.42-1.17,1.27,1.27,0,0,0-1-.38,1.24,1.24,0,0,0-.94.39A2,2,0,0,0,131.13,64.18Z"/><path class="cls-1" d="M141.54,65.77a1.83,1.83,0,0,1-.31,1.08,1.85,1.85,0,0,1-.9.68,4,4,0,0,1-1.46.23,3.52,3.52,0,0,1-1.41-.25,2,2,0,0,1-.86-.63,1.29,1.29,0,0,1-.28-.75.58.58,0,0,1,.18-.43.61.61,0,0,1,.45-.18.53.53,0,0,1,.37.12,1.08,1.08,0,0,1,.24.33,1.77,1.77,0,0,0,.57.61,1.69,1.69,0,0,0,.88.2,1.23,1.23,0,0,0,.75-.21.56.56,0,0,0,.3-.46.66.66,0,0,0-.31-.59,3.69,3.69,0,0,0-1-.35,7.76,7.76,0,0,1-1.28-.41,2.13,2.13,0,0,1-.79-.56,1.36,1.36,0,0,1-.29-.87,1.53,1.53,0,0,1,.27-.86,1.84,1.84,0,0,1,.81-.65,3.08,3.08,0,0,1,1.28-.24,4.24,4.24,0,0,1,1.06.12,2.51,2.51,0,0,1,.79.33,1.63,1.63,0,0,1,.48.46.86.86,0,0,1,.16.49.61.61,0,0,1-.17.43.72.72,0,0,1-.5.16.6.6,0,0,1-.4-.13,2.5,2.5,0,0,1-.38-.4,1.37,1.37,0,0,0-.4-.36,1.53,1.53,0,0,0-1.32,0,.52.52,0,0,0-.28.44.47.47,0,0,0,.2.39,1.66,1.66,0,0,0,.55.26c.22.06.53.15.93.24a5.32,5.32,0,0,1,1.16.41,2,2,0,0,1,.68.57A1.3,1.3,0,0,1,141.54,65.77Z"/></g></g></svg>