<svg xmlns="http://www.w3.org/2000/svg" viewBox="0 0 105.83 48.48"><defs><style>.cls-1{fill:#fff;}</style></defs><title>susAsset 18</title><g id="Layer_2" data-name="Layer 2"><g id="Layer_1-2" data-name="Layer 1"><path class="cls-1" d="M31.07,24.47H11.38A18.15,18.15,0,0,1,10,18.32a1.94,1.94,0,0,0,0-.22l0-.86s0-.84,0-.84v-.23h0A18.59,18.59,0,0,1,11.38,10H32.8l-.11-.3a11.88,11.88,0,0,0-2-3.26A17.25,17.25,0,0,0,0,17.25a17.25,17.25,0,0,0,31.8,9.27l.12-.19h0a9.51,9.51,0,0,0,.8-1.55l.11-.31H31.07ZM18.33,32V26.63h4.05A28.31,28.31,0,0,1,18.33,32Zm3.13-.28a23.59,23.59,0,0,0,3.33-5.11h4.27A15,15,0,0,1,21.46,31.74ZM18.33,2.48a28.52,28.52,0,0,1,4.05,5.38H18.33Zm6.46,5.38a23.76,23.76,0,0,0-3.33-5.1,15.05,15.05,0,0,1,7.6,5.1ZM16.17,32a25.18,25.18,0,0,1-3.79-5.35h3.79ZM13.11,2.74A26.82,26.82,0,0,0,9.93,7.86H5.44A15.53,15.53,0,0,1,6.58,6.58,15.09,15.09,0,0,1,13.11,2.74Zm-.73,5.12a25.32,25.32,0,0,1,3.79-5.34V7.86ZM4,24.47a14.84,14.84,0,0,1-1.79-6.14H7.87a20.72,20.72,0,0,0,1.18,6.14ZM4,10H9.05a20.66,20.66,0,0,0-1.18,6.14H2.21A14.79,14.79,0,0,1,4,10Zm5.93,16.6a26.62,26.62,0,0,0,3.18,5.13,15.19,15.19,0,0,1-6.53-3.84,15.67,15.67,0,0,1-1.14-1.29Z"/><polygon class="cls-1" points="15.36 12.59 15.4 12.4 15.76 10.69 15.81 10.42 15.54 10.42 13.82 10.42 13.64 10.42 13.6 10.6 13.24 12.31 13.19 12.59 13.47 12.59 15.18 12.59 15.36 12.59"/><polygon class="cls-1" points="12.98 13.97 12.94 14.15 11.19 22.39 11.13 22.66 11.41 22.66 12.93 22.66 13.12 22.66 13.16 22.48 14.9 14.25 14.96 13.97 14.68 13.97 13.16 13.97 12.98 13.97"/><path class="cls-1" d="M34,14.76a2.85,2.85,0,0,0-1.9-1.17,3.36,3.36,0,0,0-2.83.74,6,6,0,0,0-1.95,4.4A3.87,3.87,0,0,0,28.57,22c1,.72,2.49.77,4.65.14l.13,0,0-.14.27-1.44.07-.41-.39.16c-.64.27-2.51.81-3.39.12a1.82,1.82,0,0,1-.49-1.72l4.69-.05h.19l0-.18A4.92,4.92,0,0,0,34,14.76ZM32.66,17H29.73c.37-1.15,1-1.68,1.9-1.63a1.07,1.07,0,0,1,.8.35A1.71,1.71,0,0,1,32.66,17Z"/><path class="cls-1" d="M24.48,22.6h1.87l0-.2c.11-.89,2.29-11.82,2.31-11.93l0-.27h-2l0,.18L26,14.55a2.91,2.91,0,0,0-2.49-.84,4.29,4.29,0,0,0-3.15,2.06l.33-1.31.06-.22-.22-.05a4.94,4.94,0,0,0-4.49.52,5.49,5.49,0,0,0-1.69,4.53,3.43,3.43,0,0,0,1.32,2.92,4.41,4.41,0,0,0,3.57.34l.11,0,0-.12.43-1.62.1-.37a3,3,0,0,0,1.47,2.06,3.82,3.82,0,0,0,3.21-.3l0,.21Zm.87-5.15a4.68,4.68,0,0,1-1.18,3A1.49,1.49,0,0,1,23.1,21c-.87,0-1.39-.78-1.39-2,0-2,.63-3.18,1.93-3.47a1.14,1.14,0,0,1,1,.24A2.25,2.25,0,0,1,25.35,17.45Zm-5.85,3A3,3,0,0,1,17,20.5,1.69,1.69,0,0,1,16.41,19a3.58,3.58,0,0,1,1.15-2.93A2.59,2.59,0,0,1,20,16l.17.06a5.45,5.45,0,0,0-.53,3,8.68,8.68,0,0,0,.2,1.27Z"/><path class="cls-1" d="M38.25,8.12h.59V12.2h-.59Z"/><path class="cls-1" d="M39.87,8.12h.8l1.8,3.28h0V8.12h.58V12.2h-.75L40.47,8.85h0V12.2h-.59Z"/><path class="cls-1" d="M44.9,8.63H43.64V8.12h3.12v.51H45.49V12.2H44.9Z"/><path class="cls-1" d="M47.37,8.12h2.28v.51H48v1.2H49.5v.51H48v1.34h1.7v.52H47.37Z"/><path class="cls-1" d="M50.55,8.12h1c.81,0,1.58.13,1.58,1.1a.94.94,0,0,1-.84.93v0a.68.68,0,0,1,.4.4l.77,1.63h-.67l-.62-1.42c-.18-.39-.37-.39-.68-.39h-.35V12.2h-.59Zm.59,1.75h.49c.56,0,.88-.24.88-.63s-.28-.61-.81-.61h-.56Z"/><path class="cls-1" d="M54.15,8.12h.79l1.8,3.28h0V8.12h.59V12.2h-.75L54.74,8.85h0V12.2h-.58Z"/><path class="cls-1" d="M59.66,8.12h.61L62,12.2h-.64l-.41-1H59l-.42,1h-.61Zm.29.55-.82,2h1.63Z"/><path class="cls-1" d="M63,8.63H61.7V8.12h3.12v.51H63.55V12.2H63Z"/><path class="cls-1" d="M65.4,8.12H66V12.2H65.4Z"/><path class="cls-1" d="M68.78,8.05a1.93,1.93,0,0,1,2,2.11,2,2,0,1,1-3.93,0A1.93,1.93,0,0,1,68.78,8.05Zm0,3.7c.94,0,1.34-.78,1.34-1.59s-.44-1.6-1.34-1.6a1.42,1.42,0,0,0-1.35,1.6C67.43,11,67.83,11.75,68.78,11.75Z"/><path class="cls-1" d="M71.56,8.12h.79l1.8,3.28h0V8.12h.58V12.2H74L72.16,8.85h0V12.2h-.58Z"/><path class="cls-1" d="M77.07,8.12h.62l1.72,4.08h-.64l-.41-1h-2l-.42,1h-.61Zm.29.55-.81,2h1.62Z"/><path class="cls-1" d="M80,8.12h.58v3.56h1.71v.52H80Z"/><path class="cls-1" d="M41.07,15.8a1.66,1.66,0,0,0-.84-.23,1.6,1.6,0,0,0,0,3.19,2,2,0,0,0,.89-.2l0,.57a2.53,2.53,0,0,1-.93.15A2,2,0,0,1,38,17.15a2,2,0,0,1,2.16-2.09,2.27,2.27,0,0,1,.92.17Z"/><path class="cls-1" d="M43.57,15.06a1.93,1.93,0,0,1,2,2.11,2,2,0,1,1-3.93,0A1.93,1.93,0,0,1,43.57,15.06Zm0,3.7c.94,0,1.35-.78,1.35-1.59a1.42,1.42,0,0,0-1.35-1.6c-.9,0-1.34.77-1.34,1.6S42.63,18.76,43.57,18.76Z"/><path class="cls-1" d="M49.54,17.52c0,1.14-.58,1.76-1.59,1.76s-1.58-.62-1.58-1.76V15.13H47v2.31c0,.78.25,1.32,1,1.32s1-.54,1-1.32V15.13h.59Z"/><path class="cls-1" d="M50.57,15.13h.8l1.8,3.28h0V15.13h.58v4.08H53l-1.85-3.36h0v3.36h-.59Z"/><path class="cls-1" d="M57.61,15.8a1.66,1.66,0,0,0-.84-.23,1.6,1.6,0,0,0,0,3.19,2,2,0,0,0,.89-.2l0,.57a2.51,2.51,0,0,1-.92.15,2,2,0,0,1-2.15-2.13,2,2,0,0,1,2.15-2.09,2.21,2.21,0,0,1,.92.17Z"/><path class="cls-1" d="M58.36,15.13H59v4.08h-.59Z"/><path class="cls-1" d="M60,15.13h.59v3.56h1.7v.52H60Z"/><path class="cls-1" d="M64.49,15.13h2.17v.51H65.08v1.19h1.51v.52H65.08v1.86h-.59Z"/><path class="cls-1" d="M69.2,15.06a1.92,1.92,0,0,1,2,2.11,2,2,0,1,1-3.92,0A1.92,1.92,0,0,1,69.2,15.06Zm0,3.7c.94,0,1.35-.78,1.35-1.59a1.42,1.42,0,0,0-1.35-1.6c-.9,0-1.34.77-1.34,1.6S68.26,18.76,69.2,18.76Z"/><path class="cls-1" d="M72,15.13h1c.8,0,1.58.13,1.58,1.1a1,1,0,0,1-.84.93h0a.66.66,0,0,1,.39.41l.78,1.63H74.2l-.63-1.42c-.18-.4-.37-.4-.68-.4h-.35v1.82H72Zm.58,1.75H73c.55,0,.88-.25.88-.64s-.28-.6-.82-.6h-.56Z"/><path class="cls-1" d="M78.94,15.06a1.93,1.93,0,0,1,2,2.11,2,2,0,1,1-3.93,0A1.93,1.93,0,0,1,78.94,15.06Zm0,3.7c.94,0,1.34-.78,1.34-1.59a1.37,1.37,0,1,0-2.69,0C77.59,18,78,18.76,78.94,18.76Z"/><path class="cls-1" d="M81.69,15.13h1.07c.83,0,1.53.29,1.53,1.22s-.71,1.23-1.44,1.23h-.58v1.63h-.58Zm.58,1.93h.58a.74.74,0,0,0,.82-.72c0-.51-.54-.7-.9-.7h-.5Z"/><path class="cls-1" d="M85,15.13h2.28v.51h-1.7v1.19h1.55v.52H85.58v1.34h1.7v.52H85Z"/><path class="cls-1" d="M88.21,15.13H89l1.8,3.28h0V15.13h.58v4.08h-.75l-1.84-3.36h0v3.36h-.59Z"/><path class="cls-1" d="M95.35,15.13H96l1.72,4.08h-.63l-.42-1h-2l-.42,1h-.61Zm.28.55-.81,2h1.63Z"/><path class="cls-1" d="M98.27,15.13h.79l1.8,3.28h0V15.13h.59v4.08h-.75l-1.85-3.36h0v3.36h-.58Z"/><path class="cls-1" d="M102.45,15.13h1.21a2,2,0,0,1,2.17,2,1.93,1.93,0,0,1-2.17,2.08h-1.21Zm.59,3.56h.61a1.37,1.37,0,0,0,1.56-1.54,1.42,1.42,0,0,0-1.49-1.51H103Z"/><path class="cls-1" d="M38.22,22.13h1.2a2,2,0,0,1,2.18,2,1.93,1.93,0,0,1-2.18,2.07h-1.2Zm.58,3.57h.62A1.38,1.38,0,0,0,41,24.16a1.42,1.42,0,0,0-1.49-1.51H38.8Z"/><path class="cls-1" d="M42.47,22.13h.58v4.08h-.58Z"/><path class="cls-1" d="M45.94,22.75a1.72,1.72,0,0,0-.76-.17c-.33,0-.71.12-.71.54,0,.78,1.75.6,1.75,1.95,0,.87-.67,1.21-1.49,1.21a2.67,2.67,0,0,1-.84-.17l.06-.54a2.53,2.53,0,0,0,.85.2.73.73,0,0,0,.8-.67c0-.91-1.75-.66-1.75-1.93,0-.72.57-1.11,1.31-1.11a2.75,2.75,0,0,1,.87.15Z"/><path class="cls-1" d="M47.82,22.65H46.56v-.52h3.12v.52H48.41v3.56h-.59Z"/><path class="cls-1" d="M51.23,22.13h.61l1.73,4.08h-.64l-.42-1h-2l-.42,1h-.61Zm.29.55-.82,2h1.63Z"/><path class="cls-1" d="M54.15,22.13h.79l1.8,3.29h0V22.13h.59v4.08h-.75l-1.85-3.35h0v3.35h-.58Z"/><path class="cls-1" d="M61.19,22.81a1.6,1.6,0,0,0-.85-.23,1.51,1.51,0,0,0-1.56,1.59,1.52,1.52,0,0,0,1.54,1.6,2,2,0,0,0,.88-.2l0,.57a2.73,2.73,0,0,1-.93.14,2,2,0,0,1-2.15-2.12,2,2,0,0,1,2.16-2.1,2.21,2.21,0,0,1,.91.18Z"/><path class="cls-1" d="M62,22.13h2.28v.52h-1.7v1.19H64.1v.51H62.55V25.7h1.7v.51H62Z"/><path class="cls-1" d="M66.84,22.13h2.28v.52h-1.7v1.19H69v.51H67.42V25.7h1.7v.51H66.84Z"/><path class="cls-1" d="M70,22.13h1.2a2,2,0,0,1,2.18,2,1.93,1.93,0,0,1-2.18,2.07H70Zm.58,3.57h.62a1.38,1.38,0,0,0,1.56-1.54,1.42,1.42,0,0,0-1.49-1.51H70.6Z"/><path class="cls-1" d="M77.44,24.52c0,1.15-.58,1.76-1.58,1.76s-1.58-.61-1.58-1.76V22.13h.58v2.32c0,.78.24,1.32,1,1.32s1-.54,1-1.32V22.13h.58Z"/><path class="cls-1" d="M81.3,22.81a1.56,1.56,0,0,0-.84-.23,1.6,1.6,0,0,0,0,3.19,2.08,2.08,0,0,0,.89-.2l0,.57a2.73,2.73,0,0,1-.93.14,2,2,0,0,1-2.15-2.12,2,2,0,0,1,2.16-2.1,2.22,2.22,0,0,1,.92.18Z"/><path class="cls-1" d="M83.34,22.13H84l1.72,4.08H85l-.41-1h-2l-.41,1H81.6Zm.29.55-.81,2h1.62Z"/><path class="cls-1" d="M86.65,22.65H85.38v-.52H88.5v.52H87.23v3.56h-.58Z"/><path class="cls-1" d="M89.08,22.13h.59v4.08h-.59Z"/><path class="cls-1" d="M92.46,22.06a1.92,1.92,0,0,1,2,2.11,2,2,0,1,1-3.93,0A1.93,1.93,0,0,1,92.46,22.06Zm0,3.71c.94,0,1.34-.78,1.34-1.6s-.44-1.6-1.34-1.59-1.35.76-1.35,1.59S91.52,25.77,92.46,25.77Z"/><path class="cls-1" d="M95.24,22.13H96l1.8,3.29h0V22.13h.58v4.08h-.75l-1.84-3.35h0v3.35h-.59Z"/><path class="cls-1" d="M11.84,40.08h3.47l1.75,5.49h0l1.84-5.49h3.34v8.26H20.1l0-6.34h0L18,48.34H16L14,42h0L14,48.34H11.84Z"/><path class="cls-1" d="M25.49,45.88c.11.85.77,1.18,1.81,1.18a4,4,0,0,0,1.88-.47v1.5a6,6,0,0,1-2.26.39c-2,0-3.59-1.19-3.59-3.23A3.07,3.07,0,0,1,26.63,42c2.29,0,3.12,1.63,3.12,3.46v.39Zm2.34-1.21c0-.71-.33-1.29-1.18-1.29s-1.14.58-1.19,1.29Z"/><path class="cls-1" d="M30.86,42.18H32.8v1.13h0A2.34,2.34,0,0,1,35.07,42,1.94,1.94,0,0,1,37,43.22,2.44,2.44,0,0,1,39.19,42c1.77,0,2.18,1,2.18,2.68v3.63H39.24V45c0-.7-.25-1.22-.86-1.22s-1.2.6-1.2,1.93v2.6H35.05V45c0-.7-.25-1.22-.85-1.22-.76,0-1.21.6-1.21,1.93v2.6H30.86Z"/><path class="cls-1" d="M42.64,39.47h2.15V43h0A2.51,2.51,0,0,1,46.93,42a2.89,2.89,0,0,1,2.64,3.12c0,1.82-1,3.33-2.82,3.33a2.27,2.27,0,0,1-2.12-1.24h0v1.1h-2Zm3.44,4.2c-.79,0-1.31.68-1.31,1.61a1.45,1.45,0,0,0,1.31,1.57c.8,0,1.29-.67,1.29-1.66A1.37,1.37,0,0,0,46.08,43.67Z"/><path class="cls-1" d="M52.45,45.88c.12.85.77,1.18,1.81,1.18a4.06,4.06,0,0,0,1.89-.47v1.5a6,6,0,0,1-2.26.39c-2,0-3.59-1.19-3.59-3.23A3.06,3.06,0,0,1,53.6,42c2.28,0,3.11,1.63,3.11,3.46v.39Zm2.35-1.21a1.14,1.14,0,0,0-1.19-1.29c-.77,0-1.13.58-1.18,1.29Z"/><path class="cls-1" d="M62.23,43.88a2.52,2.52,0,0,0-.72-.07c-1,0-1.55.72-1.55,1.93v2.6H57.83V42.18h1.94v1.13h0A1.91,1.91,0,0,1,61.61,42a4,4,0,0,1,.72.08Z"/><path class="cls-1" d="M66.53,46.77c1.68-1.46,3.63-3,3.63-4.16,0-.73-.51-1-1.18-1a4.93,4.93,0,0,0-2.16.57l-.08-1.72a7.1,7.1,0,0,1,2.44-.48c1.85,0,3.18.78,3.18,2.43s-1.74,3.23-2.52,3.9l-.6.51h3.27v1.56h-6Z"/><path class="cls-1" d="M73.69,44.21c0-2.14.48-4.27,3.21-4.27s3.21,2.13,3.21,4.27-.48,4.27-3.21,4.27S73.69,46.35,73.69,44.21Zm4.29,0c0-1.31-.09-2.78-1.08-2.78s-1.08,1.47-1.08,2.78S75.91,47,76.9,47,78,45.53,78,44.21Z"/><path class="cls-1" d="M83.83,42.28,82.27,43.4l-1-1.5,2.8-1.82H86v8.26h-2.2Z"/><path class="cls-1" d="M93.9,41.94a3.1,3.1,0,0,0-1.74-.44c-1.46,0-1.91,1-1.92,2.43h0a2,2,0,0,1,1.79-.84,2.42,2.42,0,0,1,2.47,2.6,2.9,2.9,0,0,1-3.1,2.79c-2.36,0-3.17-1.84-3.17-3.91,0-2.54.91-4.63,3.64-4.63a5.57,5.57,0,0,1,2.14.38Zm-2.49,5.12a1.06,1.06,0,0,0,1-1.17c0-.68-.28-1.31-1-1.31a1.09,1.09,0,0,0-1.08,1.22A1.12,1.12,0,0,0,91.41,47.06Z"/></g></g></svg>