<svg xmlns="http://www.w3.org/2000/svg" viewBox="0 0 173.41 45.22"><defs><style>.cls-1{fill:#fff;}.cls-2{isolation:isolate;}</style></defs><title>susAsset 9</title><g id="Layer_2" data-name="Layer 2"><g id="Layer_1-2" data-name="Layer 1"><path class="cls-1" d="M21.77,9.21a1,1,0,0,1-1,1H13a1,1,0,0,1-1-1V1.42a1,1,0,0,1,1-1H20.8a1,1,0,0,1,1,1Z"/><path class="cls-1" d="M33.46,9.21a1,1,0,0,1-1,1H24.69a1,1,0,0,1-1-1V1.42a1,1,0,0,1,1-1h7.79a1,1,0,0,1,1,1Z"/><path class="cls-1" d="M33.46,32.48a1,1,0,0,1-1,1H24.69a1,1,0,0,1-1-1V24.69a1,1,0,0,1,1-1h7.79a1,1,0,0,1,1,1Z"/><path class="cls-1" d="M10.18,20.8a1,1,0,0,1-1,1H1.42a1,1,0,0,1-1-1V13a1,1,0,0,1,1-1H9.21a1,1,0,0,1,1,1Z"/><path class="cls-1" d="M21.77,20.8a1,1,0,0,1-1,1H13a1,1,0,0,1-1-1V13a1,1,0,0,1,1-1H20.8a1,1,0,0,1,1,1Z"/><path class="cls-1" d="M10.18,32.48a1,1,0,0,1-1,1H1.42a1,1,0,0,1-1-1V24.69a1,1,0,0,1,1-1H9.21a1,1,0,0,1,1,1Z"/><path class="cls-1" d="M21.77,32.48a1,1,0,0,1-1,1H13a1,1,0,0,1-1-1V24.69a1,1,0,0,1,1-1H20.8a1,1,0,0,1,1,1Z"/><path class="cls-1" d="M10.18,44.17a1,1,0,0,1-1,1H1.42a1,1,0,0,1-1-1V36.38a1,1,0,0,1,1-1H9.21a1,1,0,0,1,1,1Z"/><path class="cls-1" d="M21.77,44.17a1,1,0,0,1-1,1H13a1,1,0,0,1-1-1V36.38a1,1,0,0,1,1-1H20.8a1,1,0,0,1,1,1Z"/><path class="cls-1" d="M10.62,5.31A5.31,5.31,0,1,1,5.31,0a5.33,5.33,0,0,1,5.31,5.31"/><g class="cls-2"><g class="cls-2"><path class="cls-1" d="M40.74,33.43V23.78h2v9.65Z"/></g><g class="cls-2"><path class="cls-1" d="M53.84,33.43h-2.6L47,26.13H47c.09,1.29.13,2.21.13,2.76v4.54H45.27V23.78h2.58L52.05,31h.05c-.07-1.25-.1-2.14-.1-2.66V23.78h1.84Z"/><path class="cls-1" d="M62,30.75A2.49,2.49,0,0,1,61,32.81a4.11,4.11,0,0,1-2.62.76A6.17,6.17,0,0,1,55.68,33v-1.9a11.61,11.61,0,0,0,1.66.62,4.82,4.82,0,0,0,1.24.18,1.76,1.76,0,0,0,1-.26.88.88,0,0,0,.36-.77.84.84,0,0,0-.15-.5,2,2,0,0,0-.47-.43,12.06,12.06,0,0,0-1.25-.65,5.9,5.9,0,0,1-1.33-.8,2.88,2.88,0,0,1-.71-.89,2.52,2.52,0,0,1-.27-1.19,2.47,2.47,0,0,1,.87-2,3.62,3.62,0,0,1,2.41-.74,5.68,5.68,0,0,1,1.44.18,11.17,11.17,0,0,1,1.43.5l-.66,1.59A9.84,9.84,0,0,0,60,25.47a4.34,4.34,0,0,0-1-.12,1.32,1.32,0,0,0-.89.27.87.87,0,0,0-.31.7,1,1,0,0,0,.12.48,1.47,1.47,0,0,0,.4.38,11.35,11.35,0,0,0,1.3.68,5.1,5.1,0,0,1,1.86,1.3A2.48,2.48,0,0,1,62,30.75Z"/></g><g class="cls-2"><path class="cls-1" d="M67.53,33.43h-2V25.48H62.85v-1.7h7.3v1.7H67.53Z"/><path class="cls-1" d="M71.64,33.43V23.78h2v9.65Z"/><path class="cls-1" d="M79.85,33.43h-2V25.48H75.18v-1.7h7.3v1.7H79.85Z"/></g><g class="cls-2"><path class="cls-1" d="M91.88,23.78V30a3.59,3.59,0,0,1-.48,1.87A3.12,3.12,0,0,1,90,33.14a5,5,0,0,1-2.14.43,4.07,4.07,0,0,1-2.89-1,3.36,3.36,0,0,1-1-2.61V23.78h2v5.91a2.49,2.49,0,0,0,.45,1.64,2.32,2.32,0,0,0,2.94,0,2.42,2.42,0,0,0,.46-1.64v-5.9Z"/></g><g class="cls-2"><path class="cls-1" d="M97.94,33.43h-2V25.48H93.26v-1.7h7.3v1.7H97.94Z"/></g><g class="cls-2"><path class="cls-1" d="M110.87,28.59a5.22,5.22,0,0,1-1.19,3.69,5.15,5.15,0,0,1-6.82,0,5.23,5.23,0,0,1-1.19-3.7,5.16,5.16,0,0,1,1.19-3.68,4.47,4.47,0,0,1,3.42-1.27,4.4,4.4,0,0,1,3.41,1.28A5.22,5.22,0,0,1,110.87,28.59Zm-7.05,0a4,4,0,0,0,.61,2.44,2.14,2.14,0,0,0,1.84.82c1.64,0,2.45-1.09,2.45-3.26s-.81-3.26-2.44-3.26a2.16,2.16,0,0,0-1.84.83A3.94,3.94,0,0,0,103.82,28.59Z"/><path class="cls-1" d="M118.41,33.43h-2V23.78h5.54v1.68h-3.53V28h3.28v1.67h-3.28Z"/></g><g class="cls-2"><path class="cls-1" d="M129.47,33.43h-5.56V23.78h5.56v1.68H126v2.12h3.27v1.67H126v2.49h3.51Z"/><path class="cls-1" d="M139.51,28.51a4.76,4.76,0,0,1-1.36,3.66,5.55,5.55,0,0,1-3.92,1.26h-2.74V23.78h3A5.1,5.1,0,0,1,138.2,25,4.55,4.55,0,0,1,139.51,28.51Zm-2.13.06c0-2.08-.91-3.11-2.75-3.11h-1.09v6.28h.88C136.4,31.74,137.38,30.68,137.38,28.57Z"/><path class="cls-1" d="M147.09,33.43h-5.57V23.78h5.57v1.68h-3.52v2.12h3.27v1.67h-3.27v2.49h3.52Z"/><path class="cls-1" d="M151.15,29.73v3.7H149.1V23.78h2.82a4.83,4.83,0,0,1,2.92.72,2.55,2.55,0,0,1,.94,2.17,2.52,2.52,0,0,1-.47,1.52,3.06,3.06,0,0,1-1.33,1q2.19,3.25,2.85,4.2h-2.28l-2.31-3.7Zm0-1.66h.66a2.51,2.51,0,0,0,1.44-.33,1.13,1.13,0,0,0,.46-1,1.06,1.06,0,0,0-.47-1,2.82,2.82,0,0,0-1.47-.29h-.62Z"/></g><g class="cls-2"><path class="cls-1" d="M164.05,33.43l-.7-2.29h-3.53l-.7,2.29h-2.21l3.41-9.69h2.51l3.43,9.69Zm-1.19-4c-.65-2.08-1-3.26-1.1-3.53s-.14-.49-.17-.65c-.15.56-.56,2-1.25,4.18Z"/></g><g class="cls-2"><path class="cls-1" d="M167.44,33.43V23.78h2.05v8h3.92v1.69Z"/></g></g><g class="cls-2"><path class="cls-1" d="M41.6,42.09v3h-.84V37.83h2a3.12,3.12,0,0,1,2,.51,1.89,1.89,0,0,1,.63,1.55,1.93,1.93,0,0,1-1.45,2l2,3.27h-1l-1.74-3Zm0-.73h1.14A2,2,0,0,0,44,41a1.36,1.36,0,0,0,.41-1.07,1.24,1.24,0,0,0-.42-1,2.27,2.27,0,0,0-1.35-.32H41.6Z"/><path class="cls-1" d="M46.79,38.17a.56.56,0,0,1,.14-.41.51.51,0,0,1,.68,0,.53.53,0,0,1,.14.41.53.53,0,0,1-.14.42.48.48,0,0,1-.68,0A.57.57,0,0,1,46.79,38.17Zm.89,6.95h-.82V39.66h.82Z"/><path class="cls-1" d="M54.06,42.39a3,3,0,0,1-.67,2.08,2.31,2.31,0,0,1-1.83.75,2.38,2.38,0,0,1-1.28-.34,2.22,2.22,0,0,1-.87-1,3.52,3.52,0,0,1-.3-1.5,3.09,3.09,0,0,1,.65-2.09,2.34,2.34,0,0,1,1.83-.74,2.25,2.25,0,0,1,1.8.76A3.07,3.07,0,0,1,54.06,42.39Zm-4.11,0A2.65,2.65,0,0,0,50.36,44a1.63,1.63,0,0,0,2.44,0,3.29,3.29,0,0,0,0-3.18,1.46,1.46,0,0,0-1.23-.54,1.43,1.43,0,0,0-1.21.53A2.64,2.64,0,0,0,50,42.39Z"/><path class="cls-1" d="M61.38,41.3h2.45v3.55a7.83,7.83,0,0,1-1.16.28,9.25,9.25,0,0,1-1.37.09,3.27,3.27,0,0,1-2.54-1,3.91,3.91,0,0,1-.91-2.76,4.24,4.24,0,0,1,.45-2,3.05,3.05,0,0,1,1.29-1.3,4.2,4.2,0,0,1,2-.45,5.28,5.28,0,0,1,2.14.43l-.33.74a4.71,4.71,0,0,0-1.87-.42,2.67,2.67,0,0,0-2.05.8,3.11,3.11,0,0,0-.74,2.2,3.2,3.2,0,0,0,.71,2.24,2.72,2.72,0,0,0,2.09.76A6.41,6.41,0,0,0,63,44.31V42.06H61.38Z"/><path class="cls-1" d="M67.89,39.56a3.1,3.1,0,0,1,.64.06l-.11.76a2.75,2.75,0,0,0-.59-.07,1.42,1.42,0,0,0-1.12.54,2,2,0,0,0-.47,1.34v2.93h-.81V39.66h.67l.1,1h0a2.35,2.35,0,0,1,.73-.82A1.55,1.55,0,0,1,67.89,39.56Z"/><path class="cls-1" d="M72.85,45.12l-.16-.77h0a2.26,2.26,0,0,1-.81.69,2.4,2.4,0,0,1-1,.18,1.78,1.78,0,0,1-1.26-.42,1.53,1.53,0,0,1-.46-1.19c0-1.1.87-1.68,2.61-1.73l.92,0v-.34a1.4,1.4,0,0,0-.27-.95,1.12,1.12,0,0,0-.88-.31,3.5,3.5,0,0,0-1.52.42L69.74,40a3.37,3.37,0,0,1,.87-.35,3.87,3.87,0,0,1,1-.12A2,2,0,0,1,73,40a1.82,1.82,0,0,1,.46,1.39v3.73ZM71,44.54a1.65,1.65,0,0,0,1.19-.42,1.6,1.6,0,0,0,.44-1.19v-.5l-.82,0a2.89,2.89,0,0,0-1.4.31.91.91,0,0,0-.43.84.87.87,0,0,0,.27.69A1.14,1.14,0,0,0,71,44.54Z"/><path class="cls-1" d="M78.82,45.12V41.59a1.44,1.44,0,0,0-.3-1,1.21,1.21,0,0,0-.94-.33,1.58,1.58,0,0,0-1.24.46A2.4,2.4,0,0,0,76,42.26v2.86h-.81V39.66h.66l.13.74h0a1.76,1.76,0,0,1,.7-.62,2.23,2.23,0,0,1,1-.22,1.72,1.72,0,0,1,2,2v3.56Z"/><path class="cls-1" d="M85,44.39h0a1.89,1.89,0,0,1-1.69.83,2,2,0,0,1-1.64-.73A3.26,3.26,0,0,1,81,42.41a3.3,3.3,0,0,1,.59-2.1,2.18,2.18,0,0,1,3.33,0H85L85,40l0-.38V37.36h.82v7.76h-.66Zm-1.63.14a1.47,1.47,0,0,0,1.21-.46,2.38,2.38,0,0,0,.37-1.49v-.17a2.73,2.73,0,0,0-.38-1.66,1.43,1.43,0,0,0-1.21-.5,1.24,1.24,0,0,0-1.1.57,2.87,2.87,0,0,0-.38,1.6A2.69,2.69,0,0,0,82.24,44,1.28,1.28,0,0,0,83.35,44.53Z"/><path class="cls-1" d="M89.76,45.22a2.46,2.46,0,0,1-1.89-.73,2.92,2.92,0,0,1-.69-2.06,3.19,3.19,0,0,1,.64-2.1,2.14,2.14,0,0,1,1.72-.77,2,2,0,0,1,1.61.67A2.65,2.65,0,0,1,91.74,42v.52H88A2.12,2.12,0,0,0,88.51,44a1.65,1.65,0,0,0,1.28.5,4.23,4.23,0,0,0,1.72-.37v.74a3.91,3.91,0,0,1-.82.27A4.24,4.24,0,0,1,89.76,45.22Zm-.23-5a1.31,1.31,0,0,0-1,.43,2,2,0,0,0-.45,1.19h2.81a1.81,1.81,0,0,0-.34-1.2A1.21,1.21,0,0,0,89.53,40.25Z"/><path class="cls-1" d="M99.41,44.39h0a1.89,1.89,0,0,1-1.69.83A2,2,0,0,1,96,44.49a3.26,3.26,0,0,1-.59-2.08,3.3,3.3,0,0,1,.59-2.1,2.17,2.17,0,0,1,3.32,0h.07l0-.39,0-.38V37.36h.82v7.76h-.66Zm-1.63.14A1.47,1.47,0,0,0,99,44.07a2.38,2.38,0,0,0,.37-1.49v-.17A2.73,2.73,0,0,0,99,40.75a1.43,1.43,0,0,0-1.21-.5,1.24,1.24,0,0,0-1.1.57,2.78,2.78,0,0,0-.38,1.6A2.69,2.69,0,0,0,96.67,44,1.28,1.28,0,0,0,97.78,44.53Z"/><path class="cls-1" d="M106.56,42.39a3,3,0,0,1-.66,2.08,2.35,2.35,0,0,1-1.84.75,2.38,2.38,0,0,1-1.28-.34,2.26,2.26,0,0,1-.86-1,3.38,3.38,0,0,1-.31-1.5,3,3,0,0,1,.66-2.09,2.34,2.34,0,0,1,1.83-.74,2.24,2.24,0,0,1,1.79.76A3,3,0,0,1,106.56,42.39Zm-4.1,0a2.58,2.58,0,0,0,.41,1.59,1.41,1.41,0,0,0,1.21.55A1.42,1.42,0,0,0,105.3,44a3.29,3.29,0,0,0,0-3.18,1.66,1.66,0,0,0-2.44,0A2.64,2.64,0,0,0,102.46,42.39Z"/><path class="cls-1" d="M116.34,45.12h-1L111.46,39h0c0,.72.08,1.38.08,2v4.14h-.77V37.83h.94l3.92,6.1h0c0-.09,0-.38,0-.87s0-.83,0-1V37.83h.78Z"/><path class="cls-1" d="M122.84,42.39a3,3,0,0,1-.66,2.08,2.31,2.31,0,0,1-1.83.75,2.41,2.41,0,0,1-1.29-.34,2.26,2.26,0,0,1-.86-1,3.38,3.38,0,0,1-.31-1.5,3,3,0,0,1,.66-2.09,2.34,2.34,0,0,1,1.83-.74,2.28,2.28,0,0,1,1.8.76A3.06,3.06,0,0,1,122.84,42.39Zm-4.1,0a2.65,2.65,0,0,0,.41,1.59,1.62,1.62,0,0,0,2.43,0,3.22,3.22,0,0,0,0-3.18,1.65,1.65,0,0,0-2.43,0A2.57,2.57,0,0,0,118.74,42.39Z"/><path class="cls-1" d="M126.73,39.56a3.1,3.1,0,0,1,.64.06l-.11.76a2.68,2.68,0,0,0-.59-.07,1.42,1.42,0,0,0-1.12.54,2,2,0,0,0-.46,1.34v2.93h-.82V39.66H125l.09,1h0a2.33,2.33,0,0,1,.72-.82A1.55,1.55,0,0,1,126.73,39.56Z"/><path class="cls-1" d="M130.12,44.54a3,3,0,0,0,.42,0l.32-.07v.63a1.32,1.32,0,0,1-.39.11,2.71,2.71,0,0,1-.47,0c-1,0-1.56-.55-1.56-1.67V40.3h-.77v-.4l.77-.34.34-1.17h.48v1.27h1.56v.64h-1.56v3.22a1.1,1.1,0,0,0,.23.76A.8.8,0,0,0,130.12,44.54Z"/><path class="cls-1" d="M134.21,45.22a2.44,2.44,0,0,1-1.88-.73,2.87,2.87,0,0,1-.7-2.06,3.2,3.2,0,0,1,.65-2.1,2.12,2.12,0,0,1,1.72-.77,2,2,0,0,1,1.6.67,2.65,2.65,0,0,1,.59,1.79v.52h-3.71A2.22,2.22,0,0,0,133,44a1.65,1.65,0,0,0,1.28.5,4.23,4.23,0,0,0,1.72-.37v.74a3.73,3.73,0,0,1-.82.27A4.24,4.24,0,0,1,134.21,45.22Zm-.22-5a1.33,1.33,0,0,0-1,.43,2.07,2.07,0,0,0-.45,1.19h2.82a1.81,1.81,0,0,0-.35-1.2A1.2,1.2,0,0,0,134,40.25Z"/></g></g></g></svg>