<svg xmlns="http://www.w3.org/2000/svg" viewBox="0 0 839.7 200"><defs><style>.cls-1{fill:#da001a;}.cls-2{fill:#fff;}</style></defs><title>AASP</title><g id="Camada_2" data-name="Camada 2"><g id="Layer_1" data-name="Layer 1"><circle class="cls-1" cx="100" cy="100" r="100"/><path class="cls-1" d="M301.77,48.13c1.66-4.27,3.56-9,3.56-12.82,0-6.17-6.41-8.31-18.28-11.15v-4h40.83l61.25,159.76h-23l-19.94-52.94H286.34l-18.75,52.94h-15Zm-12.11,69.56h53.89L316.73,45.28Z"/><path class="cls-1" d="M469.85,48.13c1.66-4.27,3.56-9,3.56-12.82,0-6.17-6.41-8.31-18.28-11.15v-4H496L557.2,179.88h-23l-19.94-52.94H454.42l-18.76,52.94h-15Zm-12.11,69.56h53.89L484.8,45.28Z"/><path class="cls-1" d="M675.66,37.92c-7.35-3.32-22.55-9.73-39.16-9.73-17.1,0-28.73,9.26-28.73,23.74,0,37.51,78.34,32.76,78.34,84.75,0,32.76-27.06,45.81-57.68,45.81-16.62,0-33.95-3.8-38-4.75V161.36c8.79,4.28,25.17,10.45,41.31,10.45,20.89,0,33.23-10,33.23-30.15,0-40.12-76.2-34.18-76.2-84,0-25.88,20.18-40.12,51.75-40.12a172.65,172.65,0,0,1,35.13,3.8Z"/><path class="cls-1" d="M741.43,45.28c0-14.48-3.33-18-23.74-21.12v-4h57.45c28.72,0,64.56,0,64.56,41.54,0,41.31-38,41.31-66.94,41.31H762.08v76.91H741.43Zm20.65,48.43h10.21c22.07,0,44.15-1.43,44.15-32,0-23.5-13.05-32.28-34.18-32.28-19,0-20.18,2.13-20.18,15.9Z"/><polygon class="cls-2" points="137.59 95.84 106.32 150 186.6 150 100 0 13.4 150 93.68 150 62.41 95.84 55.12 108.47 71.81 137.37 35.28 137.37 93.68 36.2 93.68 144.53 100 155.47 106.32 144.53 106.32 36.2 164.72 137.37 128.19 137.37 144.88 108.47 137.59 95.84"/></g></g></svg>