<svg xmlns="http://www.w3.org/2000/svg" viewBox="0 0 235.1 83.89"><defs><style>.cls-1{fill:#fff;}</style></defs><title>susAsset 7</title><g id="Layer_2" data-name="Layer 2"><g id="Layer_1-2" data-name="Layer 1"><path class="cls-1" d="M41.94,0a41.95,41.95,0,1,0,42,41.94A41.94,41.94,0,0,0,41.94,0ZM40.33,66.37H35.66A17.47,17.47,0,0,1,18.19,48.91V20.66H30.9V47.31a7.17,7.17,0,0,0,11.19,5.95,20.6,20.6,0,0,0,6.47,11A17.29,17.29,0,0,1,40.33,66.37Zm28.74,0H62.22A17.46,17.46,0,0,1,44.76,48.91V20.66h12.7V47.31a7.18,7.18,0,0,0,7.18,7.18c.78,0,3.68.11,4.43,0Z"/><path class="cls-1" d="M96.64,37V21.62h3.81V37.26c0,1.44.73,2,1.94,2s1.94-.52,1.94-2V21.62H108V37c0,3.23-1.94,5.07-5.68,5.07S96.64,40.26,96.64,37Z"/><path class="cls-1" d="M111.39,21.62h4.78l3.7,12.09h.07V21.62h3.4v20.2h-3.92l-4.57-14.75h-.07V41.82h-3.39Z"/><path class="cls-1" d="M126.87,21.62h3.81v20.2h-3.81Z"/><path class="cls-1" d="M133.2,21.62h3.85l2.49,15.66h.07l2.49-15.66h3.5l-3.67,20.2h-5.06Z"/><path class="cls-1" d="M148.13,21.62h10.38V24.5h-6.58v5.34h5.23v2.89h-5.23v6.2h6.58v2.89H148.13Z"/><path class="cls-1" d="M161.39,21.62H167c3.95,0,5.64,1.53,5.64,4.64V27.5c0,2.08-.79,3.41-2.49,4v.06c1.9.49,2.53,2,2.53,4.27v3.55a5.09,5.09,0,0,0,.41,2.46h-3.87a5.24,5.24,0,0,1-.35-2.49V35.64c0-1.88-.66-2.48-2.39-2.48H165.2v8.66h-3.81Zm5.19,8.65c1.42,0,2.28-.52,2.28-2.13V26.58c0-1.44-.58-2.08-1.93-2.08H165.2v5.77Z"/><path class="cls-1" d="M175.37,37V35.87H179v1.39a1.72,1.72,0,0,0,2,2c1.21,0,2-.52,2-2,0-1.68-.76-2.74-3.25-4.56-3.19-2.34-4.23-4-4.23-6.29,0-3.18,2-5,5.68-5s5.54,1.84,5.54,5.08v.83h-3.6v-1c0-1.44-.69-2-1.9-2a1.68,1.68,0,0,0-1.91,1.94c0,1.47.8,2.54,3.29,4.35,3.19,2.34,4.19,4,4.19,6.47,0,3.29-2,5.13-5.75,5.13S175.37,40.26,175.37,37Z"/><path class="cls-1" d="M189.61,21.62h3.8v20.2h-3.8Z"/><path class="cls-1" d="M199.92,24.5h-4V21.62h11.77V24.5h-4V41.82h-3.81Z"/><path class="cls-1" d="M210.24,21.62h10.39V24.5h-6.58v5.34h5.23v2.89h-5.23v6.2h6.58v2.89H210.24Zm5.54-4.68h4.15l-3.7,3.32h-2.87Z"/><path class="cls-1" d="M96.78,45.18h5.82c3.8,0,5.67,1.76,5.67,5V60.39c0,3.23-1.87,5-5.67,5H96.78Zm5.75,17.32c1.21,0,1.94-.52,1.94-2V50c0-1.44-.73-2-1.94-2h-1.94V62.5Z"/><path class="cls-1" d="M111.53,45.18h10.39v2.89h-6.58V53.4h5.23v2.89h-5.23V62.5h6.58v2.88H111.53Z"/><path class="cls-1" d="M131,45.18h3.81V62.5h6.27v2.88H131Z"/><path class="cls-1" d="M143.21,60.59V50c0-3.23,2-5.08,5.78-5.08s5.78,1.85,5.78,5.08V60.59c0,3.23-2,5.08-5.78,5.08S143.21,63.82,143.21,60.59Zm7.75.2v-11a2,2,0,1,0-3.94,0v11a2,2,0,1,0,3.94,0Z"/><path class="cls-1" d="M158,45.18h5.64c4,0,5.65,1.53,5.65,4.65v1.24c0,2.08-.8,3.4-2.5,4v.06c1.91.49,2.53,2,2.53,4.27v3.55a4.93,4.93,0,0,0,.42,2.45h-3.88a5.22,5.22,0,0,1-.35-2.48V59.21c0-1.88-.66-2.49-2.39-2.49h-1.31v8.66H158Zm5.19,8.66c1.42,0,2.29-.52,2.29-2.14V50.14c0-1.44-.59-2.07-1.94-2.07h-1.73v5.77Z"/><path class="cls-1" d="M172.67,45.18h5.65c3.94,0,5.64,1.53,5.64,4.65v1.24c0,2.08-.8,3.4-2.49,4v.06c1.9.49,2.53,2,2.53,4.27v3.55a5,5,0,0,0,.41,2.45h-3.88a5.42,5.42,0,0,1-.34-2.48V59.21c0-1.88-.66-2.49-2.39-2.49h-1.32v8.66h-3.81Zm5.2,8.66c1.42,0,2.28-.52,2.28-2.14V50.14c0-1.44-.59-2.07-1.94-2.07h-1.73v5.77Z"/><path class="cls-1" d="M190.26,45.18h5.16l4,20.2h-3.81l-.69-4v.06h-4.33l-.69,3.95h-3.53Zm4.16,13.51-1.7-10h-.07l-1.66,10Z"/><path class="cls-1" d="M201.9,45.18h3.81v20.2H201.9Z"/><path class="cls-1" d="M209.24,45.18H214l3.71,12.09h.07V45.18h3.39v20.2h-3.91L212.7,50.63h-.07V65.38h-3.39Z"/><path class="cls-1" d="M224.71,45.18H235.1v2.89h-6.58V53.4h5.23v2.89h-5.23V62.5h6.58v2.88H224.71Z"/></g></g></svg>