<svg xmlns="http://www.w3.org/2000/svg" viewBox="0 0 148.38 36.38"><defs><style>.cls-1{fill:#fff;}</style></defs><title>susAsset 1min</title><g id="Layer_2" data-name="Layer 2"><g id="Layer_1-2" data-name="Layer 1"><path class="cls-1" d="M77.6,10.34l.63-8a4.82,4.82,0,0,1,.61,0,4.2,4.2,0,0,1,.58,0l1.34,4.12c.07.2.17.51.28.94s.19.69.2.78h.06a13.71,13.71,0,0,1,.48-1.72l1.35-4.12a5,5,0,0,1,.59,0,5.21,5.21,0,0,1,.6,0l.62,8a1.61,1.61,0,0,1-.44.06,2.86,2.86,0,0,1-.43,0L83.73,5.5c0-.35-.06-1.09-.09-2.21h-.06l-1.86,5.8a3.14,3.14,0,0,1-.47.05,2.37,2.37,0,0,1-.42-.05L79,3.29h-.06c0,.19,0,.56,0,1.1s0,.92-.06,1.11l-.32,4.86a3.42,3.42,0,0,1-.46,0A1.61,1.61,0,0,1,77.6,10.34Z"/><path class="cls-1" d="M86.67,10.35v-8a2.54,2.54,0,0,1,.43,0,3.28,3.28,0,0,1,.47,0v8a3.28,3.28,0,0,1-.47,0A2.54,2.54,0,0,1,86.67,10.35Z"/><path class="cls-1" d="M95,2.3l.07.06v8a4.22,4.22,0,0,1-.55,0,4.39,4.39,0,0,1-.56,0L91.07,5c-.23-.43-.5-1-.79-1.62h0c.05,1.46.07,2.3.07,2.54v4.4l-.43,0-.4,0v-8a3.89,3.89,0,0,1,.53,0,4.5,4.5,0,0,1,.56,0l2.85,5.32c.19.34.46.89.82,1.65h0c-.06-1-.08-1.89-.08-2.67V2.89a.88.88,0,0,1,.09-.46c.06-.09.19-.13.38-.13Z"/><path class="cls-1" d="M96.94,10.35v-8a2.46,2.46,0,0,1,.43,0,3,3,0,0,1,.46,0v8a3,3,0,0,1-.46,0A2.46,2.46,0,0,1,96.94,10.35Z"/><path class="cls-1" d="M99,9.61a1,1,0,0,1,.41-.72,4.19,4.19,0,0,0,2.35.81,2.14,2.14,0,0,0,1.31-.35,1.12,1.12,0,0,0,.48-1c0-.6-.41-1.09-1.24-1.46L101,6.34c-1.06-.46-1.59-1.11-1.59-2a2.06,2.06,0,0,1,.19-.84,2.1,2.1,0,0,1,.52-.69,2.58,2.58,0,0,1,.81-.47,3.11,3.11,0,0,1,1-.17,5.29,5.29,0,0,1,2.32.57.94.94,0,0,1-.36.75,4.84,4.84,0,0,0-1.06-.42A3.37,3.37,0,0,0,102,3a2,2,0,0,0-.67.1,2,2,0,0,0-.52.28,1.06,1.06,0,0,0-.33.4,1,1,0,0,0-.12.47,1.08,1.08,0,0,0,.3.81,2.75,2.75,0,0,0,.84.51l1.32.57c1.17.51,1.75,1.22,1.75,2.13a2.11,2.11,0,0,1-.69,1.64,3.17,3.17,0,0,1-2.15.62A4.39,4.39,0,0,1,99,9.61Z"/><path class="cls-1" d="M108.56,3.11h-.65v7.25a2.76,2.76,0,0,1-.44,0,3,3,0,0,1-.45,0V3.1h-2.13a1.69,1.69,0,0,1,0-.38,2,2,0,0,1,0-.4H110a1.07,1.07,0,0,1,.07.38c0,.27-.19.4-.56.4Z"/><path class="cls-1" d="M111.88,9.14v.45l.72,0h3.22a1.81,1.81,0,0,1,0,.38c0,.27-.24.41-.57.41h-3.7a.46.46,0,0,1-.37-.16.63.63,0,0,1-.13-.43V2.41l.07-.08h4.53a3.57,3.57,0,0,1,0,.37,1.27,1.27,0,0,1-.06.41h-3.7v2.8H115a2.87,2.87,0,0,1,0,.39,2.46,2.46,0,0,1,0,.37h-3.13Zm.44-7.84L114.56,0a1.09,1.09,0,0,1,.45.79l-2.41,1A.72.72,0,0,1,112.32,1.3Z"/><path class="cls-1" d="M117.23,2.33l2.37,0a2.65,2.65,0,0,1,1.87.61,2.19,2.19,0,0,1,.67,1.71A2.22,2.22,0,0,1,121.73,6a2.05,2.05,0,0,1-1.12.78,1.42,1.42,0,0,1,.78,1L122,9.29a3.43,3.43,0,0,0,.26.54,1.64,1.64,0,0,0,.25.3.7.7,0,0,1-.62.29.53.53,0,0,1-.39-.13,1.43,1.43,0,0,1-.26-.46l-.68-1.78a2.1,2.1,0,0,0-.48-.8,1.06,1.06,0,0,0-.81-.28h-1.22v3.38a3.23,3.23,0,0,1-.46,0,2.54,2.54,0,0,1-.43,0V2.41Zm.82.7v3.2l.6,0h.85a2.39,2.39,0,0,0,.82-.13,1.4,1.4,0,0,0,.52-.35,1.12,1.12,0,0,0,.28-.5,2,2,0,0,0,.09-.61,2.11,2.11,0,0,0-.09-.62,1.18,1.18,0,0,0-.28-.5,1.47,1.47,0,0,0-.53-.34,2.57,2.57,0,0,0-.84-.12h-1.42Z"/><path class="cls-1" d="M123.69,10.35v-8a2.54,2.54,0,0,1,.43,0,3,3,0,0,1,.46,0v8a3,3,0,0,1-.46,0A2.54,2.54,0,0,1,123.69,10.35Z"/><path class="cls-1" d="M127.25,9.81A4.4,4.4,0,0,1,126,6.35a6.43,6.43,0,0,1,.21-1.7,4.06,4.06,0,0,1,.6-1.31,2.73,2.73,0,0,1,1-.85,2.92,2.92,0,0,1,1.35-.3,2.88,2.88,0,0,1,1.41.34,2.85,2.85,0,0,1,1,.9,4,4,0,0,1,.58,1.32,6.3,6.3,0,0,1,.19,1.59A6.41,6.41,0,0,1,132.12,8a3.81,3.81,0,0,1-.6,1.32,2.85,2.85,0,0,1-1,.84,3,3,0,0,1-1.37.3A2.76,2.76,0,0,1,127.25,9.81Zm-.2-4.66a3.53,3.53,0,0,0-.08.58c0,.2,0,.4,0,.61A7.47,7.47,0,0,0,127,7.46a4,4,0,0,0,.31,1.11,2.33,2.33,0,0,0,.67.85,1.84,1.84,0,0,0,1.14.33,1.85,1.85,0,0,0,1.42-.59,2.1,2.1,0,0,0,.39-.62,4.57,4.57,0,0,0,.24-.74,5,5,0,0,0,.12-.76c0-.25,0-.48,0-.7a7.54,7.54,0,0,0-.09-1.12A3.66,3.66,0,0,0,131,4.11a2.21,2.21,0,0,0-.67-.84,1.79,1.79,0,0,0-1.13-.34,1.88,1.88,0,0,0-1.52.7,2.52,2.52,0,0,0-.37.71A5.36,5.36,0,0,0,127.05,5.15Z"/><path class="cls-1" d="M140.25,9.8a1.71,1.71,0,0,1-.4.25,3.7,3.7,0,0,1-.5.19,3.33,3.33,0,0,1-.53.11,2.79,2.79,0,0,1-.46.05l-.82,0-1.64,0-.07-.07V2.41l.07-.08c.68,0,1.47,0,2.38,0a3.26,3.26,0,0,1,1.52.32,2.56,2.56,0,0,1,1,.86,3.4,3.4,0,0,1,.52,1.29,7.39,7.39,0,0,1,.16,1.59,9,9,0,0,1-.06,1.08,4.37,4.37,0,0,1-.19.93,3.49,3.49,0,0,1-.37.78A3.28,3.28,0,0,1,140.25,9.8Zm-3.53-.16,1.55,0a2.06,2.06,0,0,0,1.1-.27,2,2,0,0,0,.69-.7,3.35,3.35,0,0,0,.35-1,6.57,6.57,0,0,0,.1-1.08,10.74,10.74,0,0,0-.09-1.45,2.89,2.89,0,0,0-.34-1.13,1.9,1.9,0,0,0-.71-.75,2.24,2.24,0,0,0-1.1-.26h-1.55Z"/><path class="cls-1" d="M146.75,8.26h-3.21l-.69,2.1a1.82,1.82,0,0,1-.37,0,1.88,1.88,0,0,1-.46-.06l0,0,2.68-8a3.79,3.79,0,0,1,.53,0,2.72,2.72,0,0,1,.48,0l2.69,8a.84.84,0,0,1-.47.12.67.67,0,0,1-.4-.09.83.83,0,0,1-.2-.38Zm-3-.76h2.71l-.74-2.23c-.29-.92-.49-1.57-.59-2h-.06c-.15.58-.28,1-.4,1.39Z"/><path class="cls-1" d="M42,17v-.11a2.73,2.73,0,0,0-.09-.72,1.68,1.68,0,0,0-.25-.56,1.2,1.2,0,0,0-.46-.37,1.46,1.46,0,0,0-.66-.14,1.3,1.3,0,0,0-1.24.77,5.35,5.35,0,0,0-.39,2.33,3.42,3.42,0,0,0,.47,1.93,1.5,1.5,0,0,0,1.3.69,2.52,2.52,0,0,0,1-.21A4.8,4.8,0,0,0,42.73,20a1.85,1.85,0,0,1,.47.46,1.28,1.28,0,0,1,.28.56,3.71,3.71,0,0,1-.6.48,5.26,5.26,0,0,1-.75.38,4.44,4.44,0,0,1-.83.25,3.69,3.69,0,0,1-.87.1A2.87,2.87,0,0,1,39,21.85a2.73,2.73,0,0,1-1-.9,3.72,3.72,0,0,1-.55-1.32,6.77,6.77,0,0,1-.17-1.58,6,6,0,0,1,.25-1.85,4.12,4.12,0,0,1,.7-1.32,3,3,0,0,1,1-.78,3,3,0,0,1,1.27-.27,4.1,4.1,0,0,1,1.25.19,3.12,3.12,0,0,1,.94.51,2.37,2.37,0,0,1,.6.75,2.11,2.11,0,0,1,.21.93.78.78,0,0,1-.89.87h-.28A2.29,2.29,0,0,1,42,17Z"/><path class="cls-1" d="M44.43,22V14a4.11,4.11,0,0,1,.78-.06A4.62,4.62,0,0,1,46,14v8a4.62,4.62,0,0,1-.81.06A4.11,4.11,0,0,1,44.43,22Z"/><path class="cls-1" d="M49.08,20v.73l.82,0h2.88a4,4,0,0,1,0,.58.88.88,0,0,1-1,.75h-3.3a.9.9,0,0,1-.66-.25,1,1,0,0,1-.24-.69v-7L47.6,14h4.9a4.23,4.23,0,0,1,0,.63,2.29,2.29,0,0,1-.12.7H49.07v2l.76,0h2a2.08,2.08,0,0,1,.09.65,2,2,0,0,1-.09.64H49.08Zm2.32-6.63-1.34-.87-1.39,1a1.55,1.55,0,0,1-.39-.26.84.84,0,0,1-.25-.4l1.37-1.37a2.85,2.85,0,0,1,1.3,0L52,12.74a.87.87,0,0,1-.26.4A1.05,1.05,0,0,1,51.4,13.39Z"/><path class="cls-1" d="M59.81,13.94l.08.08v8a4,4,0,0,1-.92.08A6.65,6.65,0,0,1,58,22l-2.16-4.54c-.31-.68-.55-1.23-.7-1.64h0c.09,1.11.13,2.17.13,3.19v3a4.22,4.22,0,0,1-.75.06,3.88,3.88,0,0,1-.72-.06V14a4.3,4.3,0,0,1,.89-.08,6.9,6.9,0,0,1,1,.06l2.13,4.54.76,1.74h0c-.08-1.14-.12-2.21-.12-3.22V14.91a1.14,1.14,0,0,1,.2-.75.86.86,0,0,1,.67-.22Z"/><path class="cls-1" d="M65.64,17v-.11a2.73,2.73,0,0,0-.09-.72,1.68,1.68,0,0,0-.25-.56,1.24,1.24,0,0,0-.45-.37,1.54,1.54,0,0,0-.67-.14,1.3,1.3,0,0,0-1.24.77,5.35,5.35,0,0,0-.39,2.33A3.34,3.34,0,0,0,63,20.13a1.48,1.48,0,0,0,1.29.69,2.52,2.52,0,0,0,1-.21A4.8,4.8,0,0,0,66.36,20a1.7,1.7,0,0,1,.47.46,1.43,1.43,0,0,1,.29.56,4.31,4.31,0,0,1-.61.48,5.72,5.72,0,0,1-.74.38,4.78,4.78,0,0,1-.84.25,3.69,3.69,0,0,1-.87.1,2.89,2.89,0,0,1-1.46-.34,2.73,2.73,0,0,1-1-.9,3.72,3.72,0,0,1-.55-1.32,6.77,6.77,0,0,1-.17-1.58,6,6,0,0,1,.25-1.85,4.12,4.12,0,0,1,.7-1.32,2.91,2.91,0,0,1,1-.78,3,3,0,0,1,1.26-.27A4,4,0,0,1,65.4,14a3.12,3.12,0,0,1,.94.51,2.37,2.37,0,0,1,.6.75,2.11,2.11,0,0,1,.21.93.78.78,0,0,1-.89.87H66A2.58,2.58,0,0,1,65.64,17Z"/><path class="cls-1" d="M68.07,22V14a3.93,3.93,0,0,1,.77-.06,4.62,4.62,0,0,1,.81.06v8a4.62,4.62,0,0,1-.81.06A3.93,3.93,0,0,1,68.07,22Z"/><path class="cls-1" d="M75.19,20.21h-2.8L71.84,22a3.13,3.13,0,0,1-.69.05,2.17,2.17,0,0,1-.74-.1l-.06-.08L73,14a6.86,6.86,0,0,1,.94-.06,5.61,5.61,0,0,1,.88.07l2.57,7.9a1.63,1.63,0,0,1-.82.2,1,1,0,0,1-.68-.18,1.37,1.37,0,0,1-.34-.67ZM72.78,19h2l-.35-1.19q-.4-1.35-.63-2.28h-.07c-.07.33-.25,1-.52,2Z"/><path class="cls-1" d="M79.54,20.66a2.38,2.38,0,0,1,.14.86,2.59,2.59,0,0,1-.5,1.52,2.59,2.59,0,0,1-.6.59,2.67,2.67,0,0,1-.81.4.63.63,0,0,1-.29-.27.81.81,0,0,1-.1-.46,1.84,1.84,0,0,0,.71-.47,1.35,1.35,0,0,0,.34-.71c-.29,0-.46-.12-.53-.24a1.31,1.31,0,0,1-.1-.58,1.56,1.56,0,0,1,0-.44.54.54,0,0,1,.13-.21.69.69,0,0,1,.33-.13,2.53,2.53,0,0,1,.46,0A1.35,1.35,0,0,1,79.54,20.66Z"/><path class="cls-1" d="M85.8,16.18V22a4.74,4.74,0,0,1-.8.06,4.62,4.62,0,0,1-.79-.06V15.31l-.71,0H82.2a3.41,3.41,0,0,1,0-.66,3.41,3.41,0,0,1,0-.66h5.61a2.2,2.2,0,0,1,.09.64.63.63,0,0,1-.2.51,1,1,0,0,1-.65.17H86.5l-.72,0Z"/><path class="cls-1" d="M90,20l0,.73.82,0h2.88a3,3,0,0,1,0,.58c-.08.5-.42.75-1,.75H89.34a.94.94,0,0,1-.67-.25,1,1,0,0,1-.24-.69v-7l.09-.08h4.89a3.21,3.21,0,0,1,.06.63,2.32,2.32,0,0,1-.13.7H90l0,.81v1.21l.76,0h2a2.08,2.08,0,0,1,.09.65,2,2,0,0,1-.09.64H90Z"/><path class="cls-1" d="M98.94,17v-.11a2.73,2.73,0,0,0-.09-.72,1.68,1.68,0,0,0-.25-.56,1.2,1.2,0,0,0-.46-.37,1.46,1.46,0,0,0-.66-.14,1.3,1.3,0,0,0-1.24.77,5.35,5.35,0,0,0-.39,2.33,3.34,3.34,0,0,0,.48,1.93,1.47,1.47,0,0,0,1.29.69,2.52,2.52,0,0,0,.95-.21A4.8,4.8,0,0,0,99.66,20a1.85,1.85,0,0,1,.47.46,1.28,1.28,0,0,1,.28.56,3.71,3.71,0,0,1-.6.48,5.26,5.26,0,0,1-.75.38,4.44,4.44,0,0,1-.83.25,3.69,3.69,0,0,1-.87.1,2.87,2.87,0,0,1-1.46-.34,2.73,2.73,0,0,1-1-.9,3.72,3.72,0,0,1-.55-1.32,6.77,6.77,0,0,1-.17-1.58,6,6,0,0,1,.25-1.85,4.12,4.12,0,0,1,.7-1.32,3,3,0,0,1,1-.78,3,3,0,0,1,1.27-.27A4.1,4.1,0,0,1,98.7,14a3.12,3.12,0,0,1,.94.51,2.37,2.37,0,0,1,.6.75,2.11,2.11,0,0,1,.21.93.78.78,0,0,1-.89.87h-.28A2.29,2.29,0,0,1,98.94,17Z"/><path class="cls-1" d="M107.37,13.94l.08.08v8a3.88,3.88,0,0,1-.91.08,6.65,6.65,0,0,1-1-.06l-2.16-4.54c-.31-.68-.55-1.23-.71-1.64h0c.08,1.11.13,2.17.13,3.19v3a4.22,4.22,0,0,1-.75.06,3.73,3.73,0,0,1-.72-.06V14a4.23,4.23,0,0,1,.89-.08,6.65,6.65,0,0,1,1,.06l2.14,4.54.76,1.74h0c-.08-1.14-.12-2.21-.12-3.22V14.91a1.14,1.14,0,0,1,.2-.75.86.86,0,0,1,.67-.22Z"/><path class="cls-1" d="M109.72,21.47A4.31,4.31,0,0,1,108.46,18a6.38,6.38,0,0,1,.23-1.77,4,4,0,0,1,.67-1.31,3,3,0,0,1,1.07-.81,3.46,3.46,0,0,1,1.44-.28,3.4,3.4,0,0,1,1.42.28,2.92,2.92,0,0,1,1.06.81,3.91,3.91,0,0,1,.67,1.32,6.36,6.36,0,0,1,.23,1.76,6.26,6.26,0,0,1-.23,1.76,3.76,3.76,0,0,1-.67,1.31,2.84,2.84,0,0,1-1.06.82,3.56,3.56,0,0,1-1.42.28A3.25,3.25,0,0,1,109.72,21.47ZM113.59,18q0-2.94-1.74-2.94c-1.15,0-1.73,1-1.73,2.94S110.7,21,111.85,21,113.59,20,113.59,18Z"/><path class="cls-1" d="M118.89,20.69h2.19a3.45,3.45,0,0,1,0,.6.9.9,0,0,1-1,.76h-2.85a.92.92,0,0,1-.67-.25,1,1,0,0,1-.25-.69V14l.09-.08h.58a.9.9,0,0,1,.69.24,1.11,1.11,0,0,1,.23.77v5.78C118.16,20.7,118.52,20.69,118.89,20.69Z"/><path class="cls-1" d="M122.64,21.47A4.31,4.31,0,0,1,121.38,18a6.38,6.38,0,0,1,.23-1.77,3.77,3.77,0,0,1,.67-1.31,3,3,0,0,1,1.07-.81,3.79,3.79,0,0,1,2.86,0,2.92,2.92,0,0,1,1.06.81,3.91,3.91,0,0,1,.67,1.32,6.37,6.37,0,0,1,.22,1.76,6.28,6.28,0,0,1-.22,1.76,3.76,3.76,0,0,1-.67,1.31,2.84,2.84,0,0,1-1.06.82,3.58,3.58,0,0,1-1.43.28A3.24,3.24,0,0,1,122.64,21.47ZM126.51,18q0-2.94-1.74-2.94c-1.16,0-1.73,1-1.73,2.94s.57,2.94,1.73,2.94S126.51,20,126.51,18Z"/><path class="cls-1" d="M132.25,17.64l1.82,0c.72,0,1.07.34,1.07,1V21.7a9.35,9.35,0,0,1-3.06.49,3.58,3.58,0,0,1-1.48-.29,2.83,2.83,0,0,1-1.06-.84,3.68,3.68,0,0,1-.64-1.3,6.36,6.36,0,0,1-.21-1.69,5.15,5.15,0,0,1,.31-1.88,3.78,3.78,0,0,1,.81-1.32A3.23,3.23,0,0,1,131,14.1a3.88,3.88,0,0,1,1.39-.25,4.85,4.85,0,0,1,2.76.84,1.41,1.41,0,0,1-.25.66,1.61,1.61,0,0,1-.48.49,3.37,3.37,0,0,0-2-.67c-1.4,0-2.11,1-2.11,2.88s.7,2.87,2.1,2.87a5.7,5.7,0,0,0,1.25-.14V19.29c0-.13,0-.24,0-.33h-.8a.82.82,0,0,1-.58-.16.73.73,0,0,1-.17-.53A1.8,1.8,0,0,1,132.25,17.64Z"/><path class="cls-1" d="M136.37,22V14a3.93,3.93,0,0,1,.77-.06A4.62,4.62,0,0,1,138,14v8a4.62,4.62,0,0,1-.81.06A3.93,3.93,0,0,1,136.37,22Z"/><path class="cls-1" d="M143.49,20.21h-2.8L140.14,22a3.18,3.18,0,0,1-.7.05,2.14,2.14,0,0,1-.73-.1l-.06-.08,2.62-7.9a6.86,6.86,0,0,1,.94-.06,5.61,5.61,0,0,1,.88.07l2.57,7.9a1.63,1.63,0,0,1-.82.2,1,1,0,0,1-.68-.18,1.37,1.37,0,0,1-.34-.67ZM141.08,19h2l-.35-1.19q-.4-1.35-.63-2.28h-.07c-.07.33-.25,1-.52,2Z"/><path class="cls-1" d="M147.84,20.66a2.38,2.38,0,0,1,.14.86,2.59,2.59,0,0,1-.5,1.52,2.59,2.59,0,0,1-.6.59,2.67,2.67,0,0,1-.81.4.71.71,0,0,1-.3-.27.81.81,0,0,1-.09-.46,1.84,1.84,0,0,0,.71-.47,1.35,1.35,0,0,0,.34-.71c-.29,0-.46-.12-.53-.24a1.31,1.31,0,0,1-.1-.58,1.56,1.56,0,0,1,.05-.44.54.54,0,0,1,.13-.21.65.65,0,0,1,.33-.13,2.53,2.53,0,0,1,.46,0A1.35,1.35,0,0,1,147.84,20.66Z"/><path class="cls-1" d="M0,33.7v-8a4.07,4.07,0,0,1,.77-.06,4.62,4.62,0,0,1,.81.06v8a4.62,4.62,0,0,1-.81.06A4.07,4.07,0,0,1,0,33.7Z"/><path class="cls-1" d="M9.14,25.62l.08.08v8a4.58,4.58,0,0,1-.91.08,6.65,6.65,0,0,1-1-.06L5.19,29.16c-.32-.69-.55-1.24-.71-1.64H4.43c.09,1.1.13,2.17.13,3.19v3a4,4,0,0,1-.74.06,3.73,3.73,0,0,1-.72-.06v-8A3.6,3.6,0,0,1,4,25.63a6.65,6.65,0,0,1,1,.06l2.14,4.54L7.85,32h0q-.12-1.69-.12-3.21V26.59a1.09,1.09,0,0,1,.2-.75.84.84,0,0,1,.67-.22Z"/><path class="cls-1" d="M11.49,33.15a4.31,4.31,0,0,1-1.26-3.45,6.28,6.28,0,0,1,.23-1.77,3.69,3.69,0,0,1,.67-1.31,2.87,2.87,0,0,1,1.07-.82,3.79,3.79,0,0,1,2.86,0,2.84,2.84,0,0,1,1.06.82,3.67,3.67,0,0,1,.66,1.31A6,6,0,0,1,17,29.7a6,6,0,0,1-.23,1.76,3.67,3.67,0,0,1-.66,1.31,2.81,2.81,0,0,1-1.06.81,3.41,3.41,0,0,1-1.43.29A3.24,3.24,0,0,1,11.49,33.15Zm3.87-3.45c0-2-.58-2.95-1.74-2.95s-1.73,1-1.73,2.95.57,2.93,1.73,2.93S15.36,31.66,15.36,29.7Z"/><path class="cls-1" d="M20.66,32.35l1.7-6.66a2.73,2.73,0,0,1,.66-.06,2.39,2.39,0,0,1,.75.1l.07.1L21.58,33.7a8.66,8.66,0,0,1-1.08.06,1.81,1.81,0,0,1-.86-.15.85.85,0,0,1-.37-.58l-2.06-7.2a2.28,2.28,0,0,1,.92-.24.82.82,0,0,1,.58.18,1.17,1.17,0,0,1,.31.6l1.06,3.78q.24.9.48,2.07C20.57,32.31,20.61,32.35,20.66,32.35Z"/><path class="cls-1" d="M28.52,31.88H25.73l-.55,1.83a3.12,3.12,0,0,1-.7.06,1.9,1.9,0,0,1-.73-.11l-.06-.08,2.62-7.89a6.81,6.81,0,0,1,.93-.06,4.55,4.55,0,0,1,.88.07l2.57,7.89a1.48,1.48,0,0,1-.81.2,1,1,0,0,1-.68-.17,1.42,1.42,0,0,1-.35-.67Zm-2.4-1.24h2l-.35-1.2c-.27-.89-.48-1.65-.64-2.28h-.07c-.07.34-.24,1-.51,2Z"/><path class="cls-1" d="M33.43,34.59c0-.13.06-.26.1-.38s.09-.25.13-.37a2.57,2.57,0,0,1-1.28-.44,3.06,3.06,0,0,1-.86-.93A4.29,4.29,0,0,1,31,31.2a7.21,7.21,0,0,1-.15-1.48,6.07,6.07,0,0,1,.26-1.85,4,4,0,0,1,.7-1.31,2.91,2.91,0,0,1,1-.79,3.19,3.19,0,0,1,1.26-.26,3.77,3.77,0,0,1,1.25.19,2.79,2.79,0,0,1,1,.51,2.17,2.17,0,0,1,.6.75,2.07,2.07,0,0,1,.21.92.78.78,0,0,1-.89.88l-.29,0-.34-.06v-.12a2.66,2.66,0,0,0-.08-.71,1.52,1.52,0,0,0-.26-.56,1.12,1.12,0,0,0-.45-.38,1.47,1.47,0,0,0-.66-.13,1.3,1.3,0,0,0-1.25.77,5.5,5.5,0,0,0-.38,2.33A3.44,3.44,0,0,0,33,31.81a1.51,1.51,0,0,0,1.3.68,2.65,2.65,0,0,0,.94-.2,4.92,4.92,0,0,0,1.1-.66,2,2,0,0,1,.47.46,1.5,1.5,0,0,1,.28.57,4.14,4.14,0,0,1-1.14.77,4.3,4.3,0,0,1-1.45.41,1.44,1.44,0,0,0-.12.26,1.28,1.28,0,0,1,.83.32,1,1,0,0,1,.31.77.93.93,0,0,1-.12.46,1.24,1.24,0,0,1-.32.37,1.59,1.59,0,0,1-.48.26,1.8,1.8,0,0,1-.57.1,1.72,1.72,0,0,1-1-.26,1.05,1.05,0,0,1,.27-.71,1,1,0,0,0,.57.16c.31,0,.47-.13.47-.39a.36.36,0,0,0-.13-.3.57.57,0,0,0-.32-.09.66.66,0,0,0-.25,0A.53.53,0,0,1,33.43,34.59Z"/><path class="cls-1" d="M38.8,33.15a4.31,4.31,0,0,1-1.25-3.45,5.94,5.94,0,0,1,.23-1.77,3.67,3.67,0,0,1,.66-1.31,3,3,0,0,1,1.07-.82A3.62,3.62,0,0,1,41,25.52a3.53,3.53,0,0,1,1.42.28,2.87,2.87,0,0,1,1.07.82,3.67,3.67,0,0,1,.66,1.31,6.38,6.38,0,0,1,.23,1.77,6.31,6.31,0,0,1-.23,1.76,3.67,3.67,0,0,1-.66,1.31,2.85,2.85,0,0,1-1.07.81,3.37,3.37,0,0,1-1.42.29A3.27,3.27,0,0,1,38.8,33.15Zm2.14-8.34-.6-.28a.58.58,0,0,0-.18-.08.57.57,0,0,0-.18,0,.55.55,0,0,0-.46.28l-.12.17a1,1,0,0,1-.46-.15.6.6,0,0,1-.31-.32l.1-.23a1.42,1.42,0,0,1,1.34-1,.85.85,0,0,1,.35.05l.38.15.59.28.19.08a.57.57,0,0,0,.18,0,.56.56,0,0,0,.46-.28l.11-.15a1,1,0,0,1,.47.12.75.75,0,0,1,.31.33l-.11.23a1.42,1.42,0,0,1-1.33,1A1.51,1.51,0,0,1,40.94,24.81Zm1.73,4.89c0-2-.58-2.95-1.73-2.95s-1.74,1-1.74,2.95.58,2.93,1.74,2.93S42.67,31.66,42.67,29.7Z"/><path class="cls-1" d="M46.89,31.69v.73l.82,0h2.87a4,4,0,0,1,0,.57.89.89,0,0,1-1,.75h-3.3a.86.86,0,0,1-.66-.25,1,1,0,0,1-.24-.69v-7l.08-.08H50.3a3,3,0,0,1,.06.62,2,2,0,0,1-.13.7H46.88v2h2.74a2,2,0,0,1,.1.64,2.06,2.06,0,0,1-.1.65H46.89Z"/><path class="cls-1" d="M50.85,33a1.82,1.82,0,0,1,.22-.67,1.76,1.76,0,0,1,.42-.53,4.32,4.32,0,0,0,2.37.77,1.37,1.37,0,0,0,.89-.26.82.82,0,0,0,.33-.66c0-.46-.32-.81-.91-1.07L52.79,30a2.86,2.86,0,0,1-1.23-.87,2,2,0,0,1-.42-1.23,2.18,2.18,0,0,1,.21-1,2.14,2.14,0,0,1,.59-.75,3,3,0,0,1,.9-.48A3.53,3.53,0,0,1,54,25.52a5.44,5.44,0,0,1,2.53.65A1.69,1.69,0,0,1,56,27.36a5.16,5.16,0,0,0-2.07-.55,1.3,1.3,0,0,0-.86.26.8.8,0,0,0-.3.63c0,.36.28.65.84.88l1.38.59a3.16,3.16,0,0,1,1.3.93,2,2,0,0,1,.46,1.32,2.41,2.41,0,0,1-.19,1,1.9,1.9,0,0,1-.57.78,2.76,2.76,0,0,1-.95.5,4.42,4.42,0,0,1-1.34.19A5.09,5.09,0,0,1,50.85,33Z"/><path class="cls-1" d="M61.31,31.69v.73l.82,0H65A4,4,0,0,1,65,33a.89.89,0,0,1-1,.75h-3.3a.86.86,0,0,1-.66-.25,1,1,0,0,1-.24-.69v-7l.08-.08h4.89a3,3,0,0,1,.06.62,2,2,0,0,1-.13.7H61.3v2h2.74a1.76,1.76,0,0,1,.1.64,1.81,1.81,0,0,1-.1.65H61.31Z"/><path class="cls-1" d="M72.37,28.68v-.12a3.15,3.15,0,0,0-.08-.71,1.7,1.7,0,0,0-.26-.56,1.27,1.27,0,0,0-.45-.38,1.53,1.53,0,0,0-.66-.13,1.29,1.29,0,0,0-1.25.77,5.34,5.34,0,0,0-.38,2.33,3.36,3.36,0,0,0,.47,1.93,1.51,1.51,0,0,0,1.3.68,2.65,2.65,0,0,0,.94-.2,4.92,4.92,0,0,0,1.1-.66,2.25,2.25,0,0,1,.47.46,1.5,1.5,0,0,1,.28.57,3.2,3.2,0,0,1-.6.47,4.79,4.79,0,0,1-.75.38,4.71,4.71,0,0,1-.83.26,4.3,4.3,0,0,1-.87.1,3,3,0,0,1-1.47-.34,2.82,2.82,0,0,1-1-.9,3.92,3.92,0,0,1-.55-1.32,7.38,7.38,0,0,1-.17-1.59,6.07,6.07,0,0,1,.26-1.85,3.8,3.8,0,0,1,.7-1.31,2.82,2.82,0,0,1,1-.79,3.16,3.16,0,0,1,1.26-.26,3.77,3.77,0,0,1,1.25.19,2.65,2.65,0,0,1,.94.51,2.17,2.17,0,0,1,.6.75,2.07,2.07,0,0,1,.21.92.78.78,0,0,1-.89.88l-.28,0Z"/><path class="cls-1" d="M75.54,33.15a4.31,4.31,0,0,1-1.26-3.45,6.28,6.28,0,0,1,.23-1.77,3.86,3.86,0,0,1,.67-1.31,3,3,0,0,1,1.07-.82,3.62,3.62,0,0,1,1.44-.28,3.56,3.56,0,0,1,1.42.28,2.84,2.84,0,0,1,1.06.82,3.86,3.86,0,0,1,.67,1.31,6.38,6.38,0,0,1,.23,1.77,6.31,6.31,0,0,1-.23,1.76,3.86,3.86,0,0,1-.67,1.31,2.81,2.81,0,0,1-1.06.81,3.4,3.4,0,0,1-1.42.29A3.25,3.25,0,0,1,75.54,33.15Zm3.87-3.45c0-2-.58-2.95-1.74-2.95s-1.73,1-1.73,2.95.58,2.93,1.73,2.93S79.41,31.66,79.41,29.7Z"/><path class="cls-1" d="M81.85,33.68l.62-8a5.7,5.7,0,0,1,1-.08,5.41,5.41,0,0,1,1,.08l.9,3.25c.24,1,.39,1.64.45,2H86c.05-.36.2-1,.44-2l.9-3.25a5.66,5.66,0,0,1,1-.08,5.73,5.73,0,0,1,1,.08l.62,8a3.25,3.25,0,0,1-.75.08,5,5,0,0,1-.74,0L88.27,30q-.09-1.45-.09-2.55h-.09l-1.37,5.1a5.43,5.43,0,0,1-1.61,0l-1.37-5.1h-.08c0,1,0,1.81-.1,2.55l-.22,3.76a4.81,4.81,0,0,1-.73,0A3.34,3.34,0,0,1,81.85,33.68Z"/><path class="cls-1" d="M97.28,25.69v5.12a3.05,3.05,0,0,1-.8,2.26,3.11,3.11,0,0,1-2.27.8,3.07,3.07,0,0,1-2.26-.8,3,3,0,0,1-.81-2.26V25.7l.08-.08h.59a.9.9,0,0,1,.69.24,1.09,1.09,0,0,1,.23.77v4.2c0,1.19.49,1.78,1.48,1.78S95.7,32,95.7,30.83V25.69a5.23,5.23,0,0,1,1.58,0Z"/><path class="cls-1" d="M104.71,25.62l.08.08v8a4.58,4.58,0,0,1-.91.08,6.9,6.9,0,0,1-1-.06l-2.16-4.54c-.31-.69-.54-1.24-.7-1.64h0c.09,1.1.13,2.17.13,3.19v3a4.18,4.18,0,0,1-.74.06,3.73,3.73,0,0,1-.72-.06v-8a3.6,3.6,0,0,1,.89-.08,6.65,6.65,0,0,1,1,.06l2.14,4.54.76,1.73h0c-.08-1.13-.11-2.2-.11-3.21V26.59a1.15,1.15,0,0,1,.19-.75.87.87,0,0,1,.67-.22Z"/><path class="cls-1" d="M106.32,33.7v-8a3.93,3.93,0,0,1,.77-.06,4.62,4.62,0,0,1,.81.06v8a4.62,4.62,0,0,1-.81.06A3.93,3.93,0,0,1,106.32,33.7Z"/><path class="cls-1" d="M113.67,28.68v-.12a3.15,3.15,0,0,0-.08-.71,1.7,1.7,0,0,0-.26-.56,1.19,1.19,0,0,0-.45-.38,1.47,1.47,0,0,0-.66-.13,1.3,1.3,0,0,0-1.25.77,5.5,5.5,0,0,0-.38,2.33,3.36,3.36,0,0,0,.47,1.93,1.51,1.51,0,0,0,1.3.68,2.65,2.65,0,0,0,.94-.2,4.92,4.92,0,0,0,1.1-.66,2.25,2.25,0,0,1,.47.46,1.5,1.5,0,0,1,.28.57,3.2,3.2,0,0,1-.6.47,4.39,4.39,0,0,1-.75.38,4.71,4.71,0,0,1-.83.26,4.3,4.3,0,0,1-.87.1,3,3,0,0,1-1.47-.34,2.82,2.82,0,0,1-1-.9,4.13,4.13,0,0,1-.55-1.32,7.38,7.38,0,0,1-.17-1.59,6.07,6.07,0,0,1,.26-1.85,3.8,3.8,0,0,1,.7-1.31,2.91,2.91,0,0,1,1-.79,3.19,3.19,0,0,1,1.26-.26,3.77,3.77,0,0,1,1.25.19,2.79,2.79,0,0,1,.95.51A2.26,2.26,0,0,1,115,27a2,2,0,0,1,.22.92.79.79,0,0,1-.9.88l-.28,0Z"/><path class="cls-1" d="M120.09,31.88H117.3l-.55,1.83a3.18,3.18,0,0,1-.7.06,1.87,1.87,0,0,1-.73-.11l-.06-.08,2.61-7.89a7,7,0,0,1,.94-.06,4.55,4.55,0,0,1,.88.07l2.57,7.89a1.52,1.52,0,0,1-.81.2,1,1,0,0,1-.68-.17,1.34,1.34,0,0,1-.35-.67Zm-2.4-1.24h2l-.36-1.2q-.39-1.34-.63-2.28h-.07c-.07.34-.24,1-.52,2Z"/><path class="cls-1" d="M125,34.59c0-.13.06-.26.1-.38s.08-.25.13-.37A2.54,2.54,0,0,1,124,33.4a3.06,3.06,0,0,1-.86-.93,4.29,4.29,0,0,1-.48-1.27,7.21,7.21,0,0,1-.15-1.48,6.07,6.07,0,0,1,.26-1.85,3.8,3.8,0,0,1,.7-1.31,2.91,2.91,0,0,1,1-.79,3.16,3.16,0,0,1,1.26-.26,3.77,3.77,0,0,1,1.25.19,2.65,2.65,0,0,1,.94.51,2.17,2.17,0,0,1,.6.75,2.07,2.07,0,0,1,.21.92.78.78,0,0,1-.89.88l-.28,0-.34-.06v-.12a3.15,3.15,0,0,0-.08-.71,1.7,1.7,0,0,0-.26-.56,1.27,1.27,0,0,0-.45-.38,1.5,1.5,0,0,0-.66-.13,1.3,1.3,0,0,0-1.25.77,5.34,5.34,0,0,0-.38,2.33,3.36,3.36,0,0,0,.47,1.93,1.51,1.51,0,0,0,1.3.68,2.65,2.65,0,0,0,.94-.2,4.92,4.92,0,0,0,1.1-.66,2.25,2.25,0,0,1,.47.46,1.5,1.5,0,0,1,.28.57,4.29,4.29,0,0,1-1.14.77,4.37,4.37,0,0,1-1.45.41,1,1,0,0,0-.12.26,1.28,1.28,0,0,1,.83.32,1,1,0,0,1,.31.77.93.93,0,0,1-.12.46,1.4,1.4,0,0,1-.32.37,1.59,1.59,0,0,1-.48.26,1.8,1.8,0,0,1-.57.1,1.7,1.7,0,0,1-1-.26,1.05,1.05,0,0,1,.27-.71,1,1,0,0,0,.56.16c.32,0,.47-.13.47-.39a.33.33,0,0,0-.13-.3.52.52,0,0,0-.31-.09.62.62,0,0,0-.25,0A.44.44,0,0,1,125,34.59Z"/><path class="cls-1" d="M130.37,33.15a4.31,4.31,0,0,1-1.26-3.45,6.28,6.28,0,0,1,.23-1.77,3.86,3.86,0,0,1,.67-1.31,3,3,0,0,1,1.07-.82,3.62,3.62,0,0,1,1.44-.28,3.56,3.56,0,0,1,1.42.28,2.84,2.84,0,0,1,1.06.82,3.86,3.86,0,0,1,.67,1.31,6.38,6.38,0,0,1,.23,1.77,6.31,6.31,0,0,1-.23,1.76,3.86,3.86,0,0,1-.67,1.31,2.81,2.81,0,0,1-1.06.81,3.4,3.4,0,0,1-1.42.29A3.25,3.25,0,0,1,130.37,33.15Zm2.13-8.34-.59-.28a.71.71,0,0,0-.18-.08.58.58,0,0,0-.19,0,.55.55,0,0,0-.45.28l-.12.17a1.08,1.08,0,0,1-.47-.15.68.68,0,0,1-.31-.32l.11-.23a1.42,1.42,0,0,1,1.34-1,.87.87,0,0,1,.35.05l.37.15.6.28.18.08a.58.58,0,0,0,.19,0,.55.55,0,0,0,.45-.28l.12-.15a1,1,0,0,1,.46.12.72.72,0,0,1,.32.33l-.11.23a1.43,1.43,0,0,1-1.34,1A1.58,1.58,0,0,1,132.5,24.81Zm1.74,4.89c0-2-.58-2.95-1.74-2.95s-1.73,1-1.73,2.95.58,2.93,1.73,2.93S134.24,31.66,134.24,29.7Z"/><path class="cls-1" d="M138.45,31.69v.73l.82,0h2.88a2.78,2.78,0,0,1,0,.57c-.08.5-.42.75-1,.75H137.8a.88.88,0,0,1-.67-.25,1,1,0,0,1-.24-.69v-7l.09-.08h4.89a3,3,0,0,1,.06.62,2.21,2.21,0,0,1-.13.7h-3.36v2h2.75a2,2,0,0,1,.09.64,2.08,2.08,0,0,1-.09.65h-2.75Z"/><path class="cls-1" d="M142.42,33a1.82,1.82,0,0,1,.22-.67,1.91,1.91,0,0,1,.41-.53,4.37,4.37,0,0,0,2.37.77,1.33,1.33,0,0,0,.89-.26.82.82,0,0,0,.33-.66c0-.46-.31-.81-.9-1.07L144.35,30a3,3,0,0,1-1.23-.87,2,2,0,0,1-.41-1.23,2.18,2.18,0,0,1,.21-1,2.11,2.11,0,0,1,.58-.75,3.15,3.15,0,0,1,.91-.48,3.51,3.51,0,0,1,1.15-.18,5.48,5.48,0,0,1,2.54.65,1.73,1.73,0,0,1-.55,1.19,5.16,5.16,0,0,0-2.07-.55,1.3,1.3,0,0,0-.86.26.8.8,0,0,0-.3.63c0,.36.28.65.83.88l1.39.59a3.23,3.23,0,0,1,1.3.93,2,2,0,0,1,.46,1.32,2.59,2.59,0,0,1-.19,1,2,2,0,0,1-.57.78,2.76,2.76,0,0,1-.95.5,4.46,4.46,0,0,1-1.34.19A5.06,5.06,0,0,1,142.42,33Z"/></g></g></svg>