<svg xmlns="http://www.w3.org/2000/svg" viewBox="0 0 120.39 37.74"><defs><style>.cls-1{fill:#fff;}</style></defs><title>susAsset 2min</title><g id="Layer_2" data-name="Layer 2"><g id="Layer_1-2" data-name="Layer 1"><path class="cls-1" d="M0,17.58,1.06,4a7,7,0,0,1,1-.06,6.17,6.17,0,0,1,1,.06l2.28,7q.18.5.48,1.59c.2.74.31,1.18.34,1.32h.1A20.85,20.85,0,0,1,7.11,11L9.4,4a7.31,7.31,0,0,1,1-.06,7.31,7.31,0,0,1,1,.06l1.05,13.61a2.66,2.66,0,0,1-.75.1,4.11,4.11,0,0,1-.72-.06l-.58-8.26c0-.6-.09-1.86-.16-3.77h-.1L7,15.47a5.5,5.5,0,0,1-.8.08,4.05,4.05,0,0,1-.72-.08L2.34,5.59h-.1c0,.33,0,1-.07,1.88S2.1,9,2.08,9.36l-.56,8.26a4.81,4.81,0,0,1-.77.06A2.57,2.57,0,0,1,0,17.58Z"/><path class="cls-1" d="M15.43,17.6V4a3.56,3.56,0,0,1,.73-.06,4.5,4.5,0,0,1,.78.06V17.6a4.5,4.5,0,0,1-.78.06A3.56,3.56,0,0,1,15.43,17.6Z"/><path class="cls-1" d="M29.54,3.91l.12.1V17.6a6.27,6.27,0,0,1-.94.06,6.65,6.65,0,0,1-1-.06l-4.85-9c-.4-.74-.85-1.66-1.35-2.75H21.5c.07,2.47.11,3.91.11,4.31V17.6a5.1,5.1,0,0,1-.73.06,4.08,4.08,0,0,1-.68-.06V4a5.67,5.67,0,0,1,.91-.06,6.36,6.36,0,0,1,.94.06l4.85,9c.32.57.79,1.51,1.4,2.82h.06c-.09-1.71-.14-3.22-.14-4.55V4.91a1.36,1.36,0,0,1,.16-.77A.75.75,0,0,1,29,3.91Z"/><path class="cls-1" d="M32.89,17.6V4a3.62,3.62,0,0,1,.73-.06,4.62,4.62,0,0,1,.79.06V17.6a4.62,4.62,0,0,1-.79.06A3.62,3.62,0,0,1,32.89,17.6Z"/><path class="cls-1" d="M36.46,16.35a1.65,1.65,0,0,1,.7-1.22,7.12,7.12,0,0,0,4,1.38,3.72,3.72,0,0,0,2.24-.6,1.92,1.92,0,0,0,.82-1.64c0-1-.71-1.85-2.12-2.48l-2.33-1c-1.8-.78-2.7-1.89-2.7-3.36A3.36,3.36,0,0,1,37.38,6a3.54,3.54,0,0,1,.89-1.18A4.28,4.28,0,0,1,39.64,4a5.21,5.21,0,0,1,1.77-.29,9.13,9.13,0,0,1,4,1A1.58,1.58,0,0,1,44.75,6a9.05,9.05,0,0,0-1.81-.72A5.82,5.82,0,0,0,41.41,5a3.41,3.41,0,0,0-1.14.18,3.06,3.06,0,0,0-.88.47,1.94,1.94,0,0,0-.57.68,1.8,1.8,0,0,0-.2.81,1.79,1.79,0,0,0,.51,1.36,4.37,4.37,0,0,0,1.43.87l2.25,1c2,.86,3,2.07,3,3.61a3.57,3.57,0,0,1-1.17,2.79A5.35,5.35,0,0,1,41,17.84,7.52,7.52,0,0,1,36.46,16.35Z"/><path class="cls-1" d="M52.65,5.29l-1.1,0V17.6a4.06,4.06,0,0,1-.75.06A4.26,4.26,0,0,1,50,17.6V5.27L49,5.29H46.4a3.74,3.74,0,0,1-.06-.65A4.06,4.06,0,0,1,46.4,4h8.76a1.56,1.56,0,0,1,.12.64c0,.45-.31.68-.93.68Z"/><path class="cls-1" d="M58.3,15.54l0,.77c.45,0,.86,0,1.23,0H65a3.53,3.53,0,0,1,0,.64c-.09.46-.42.69-1,.69H57.68a.77.77,0,0,1-.63-.27,1.1,1.1,0,0,1-.23-.73V4.09L56.94,4h7.7a3.62,3.62,0,0,1,0,.63,2.09,2.09,0,0,1-.1.69h-6.3l0,1.24v3.53l1.19,0h4.14a3.85,3.85,0,0,1,.06.66,3.72,3.72,0,0,1-.06.64H59.49l-1.19,0Zm.75-13.33L62.87,0a1.91,1.91,0,0,1,.76,1.34l-4.1,1.71A1.19,1.19,0,0,1,59.05,2.21Z"/><path class="cls-1" d="M67.4,4l4-.06a4.57,4.57,0,0,1,3.19,1,3.74,3.74,0,0,1,1.14,2.92,3.78,3.78,0,0,1-.7,2.3,3.46,3.46,0,0,1-1.92,1.33,2.39,2.39,0,0,1,1.34,1.62l1,2.69a6,6,0,0,0,.44.91,1.69,1.69,0,0,0,.42.5,1.15,1.15,0,0,1-1.06.5.88.88,0,0,1-.65-.22,2.24,2.24,0,0,1-.45-.77l-1.16-3a3.84,3.84,0,0,0-.8-1.37,1.92,1.92,0,0,0-1.39-.47H68.79V17.6a4.72,4.72,0,0,1-.77.06,3.8,3.8,0,0,1-.74-.06V4.09Zm1.39,1.18V10.6c.28,0,.63,0,1,0h1.45a3.93,3.93,0,0,0,1.39-.22,2.35,2.35,0,0,0,.88-.59A1.94,1.94,0,0,0,74,8.9a3.58,3.58,0,0,0,.14-1A3.6,3.6,0,0,0,74,6.81,2,2,0,0,0,73.54,6a2.32,2.32,0,0,0-.9-.57,4.19,4.19,0,0,0-1.43-.21H69.77Z"/><path class="cls-1" d="M78.39,17.6V4a3.62,3.62,0,0,1,.73-.06,4.54,4.54,0,0,1,.79.06V17.6a4.54,4.54,0,0,1-.79.06A3.62,3.62,0,0,1,78.39,17.6Z"/><path class="cls-1" d="M84.44,16.69q-2.11-1.89-2.11-5.89a10.9,10.9,0,0,1,.35-2.89,6.64,6.64,0,0,1,1-2.23,4.77,4.77,0,0,1,1.69-1.44,5,5,0,0,1,2.3-.51,4.84,4.84,0,0,1,2.4.57,5,5,0,0,1,1.69,1.54,6.81,6.81,0,0,1,1,2.24,10.8,10.8,0,0,1,.32,2.7,10.83,10.83,0,0,1-.35,2.88,6.69,6.69,0,0,1-1,2.24A4.84,4.84,0,0,1,90,17.33a5.09,5.09,0,0,1-2.33.51A4.66,4.66,0,0,1,84.44,16.69ZM84.1,8.75a6.51,6.51,0,0,0-.13,1c0,.34,0,.68,0,1a14.45,14.45,0,0,0,.14,1.91,6.81,6.81,0,0,0,.54,1.88A3.85,3.85,0,0,0,85.76,16a3.08,3.08,0,0,0,1.93.57,3.21,3.21,0,0,0,1.4-.28,3.16,3.16,0,0,0,1-.73,3.56,3.56,0,0,0,.67-1.05,8.67,8.67,0,0,0,.4-1.25A9.63,9.63,0,0,0,91.39,12q.06-.64.06-1.2a14.82,14.82,0,0,0-.14-1.91A6.72,6.72,0,0,0,90.76,7a3.89,3.89,0,0,0-1.14-1.43A3.06,3.06,0,0,0,87.69,5a3.26,3.26,0,0,0-1.53.33,3.08,3.08,0,0,0-1,.86,4.19,4.19,0,0,0-.64,1.2A13.2,13.2,0,0,0,84.1,8.75Z"/><path class="cls-1" d="M106.55,16.67a3.07,3.07,0,0,1-.67.42,4.8,4.8,0,0,1-.85.32,5.81,5.81,0,0,1-.9.2,4.79,4.79,0,0,1-.79.07l-1.4,0-2.79-.06L99,17.48V4.09L99.15,4q1.74-.06,4-.06a5.62,5.62,0,0,1,2.6.54,4.46,4.46,0,0,1,1.66,1.47,6,6,0,0,1,.89,2.19,13.77,13.77,0,0,1,.26,2.71,17.44,17.44,0,0,1-.09,1.84,7.39,7.39,0,0,1-.33,1.57,5.63,5.63,0,0,1-.64,1.33A5.18,5.18,0,0,1,106.55,16.67Zm-6-.27,2.63,0a3.58,3.58,0,0,0,1.88-.46,3.34,3.34,0,0,0,1.17-1.19,5.2,5.2,0,0,0,.59-1.66,9.55,9.55,0,0,0,.17-1.84,18.82,18.82,0,0,0-.14-2.47,5.47,5.47,0,0,0-.57-1.93,3.22,3.22,0,0,0-1.22-1.26,3.71,3.71,0,0,0-1.88-.45l-2.63,0Z"/><path class="cls-1" d="M117.61,14.05l-1.4,0h-2.67l-1.4,0L111,17.62a3.24,3.24,0,0,1-1.42,0l0-.06L114.1,4a5.36,5.36,0,0,1,.9-.06,3.9,3.9,0,0,1,.81.06l4.58,13.55a1.44,1.44,0,0,1-.8.2,1.08,1.08,0,0,1-.68-.16,1.25,1.25,0,0,1-.34-.63Zm-5-1.3,1.16,0h3.45L115.94,9q-.76-2.34-1-3.33h-.1c-.25,1-.48,1.77-.68,2.37Z"/><path class="cls-1" d="M63,36.26a2.93,2.93,0,0,1,.36-1.12,3.24,3.24,0,0,1,.71-.91,7.46,7.46,0,0,0,4,1.32,2.35,2.35,0,0,0,1.52-.45A1.41,1.41,0,0,0,70.17,34c0-.77-.54-1.38-1.54-1.82l-2.35-1a5.11,5.11,0,0,1-2.1-1.49,3.37,3.37,0,0,1-.7-2.09A3.81,3.81,0,0,1,63.83,26a3.74,3.74,0,0,1,1-1.27,4.94,4.94,0,0,1,1.54-.83,6.11,6.11,0,0,1,2-.3,9.26,9.26,0,0,1,4.31,1.1,2.87,2.87,0,0,1-.93,2,8.67,8.67,0,0,0-3.52-.93,2.19,2.19,0,0,0-1.46.43,1.36,1.36,0,0,0-.51,1.07c0,.61.47,1.11,1.41,1.51l2.36,1a5.37,5.37,0,0,1,2.22,1.58A3.49,3.49,0,0,1,73,33.59a4.21,4.21,0,0,1-.32,1.67,3.35,3.35,0,0,1-1,1.31,4.55,4.55,0,0,1-1.62.86,7.4,7.4,0,0,1-2.28.31A8.56,8.56,0,0,1,63,36.26Z"/><path class="cls-1" d="M81.37,34.37l-1,0h-2.8l-1,0-.94,3.11a5.25,5.25,0,0,1-1.19.1,3.64,3.64,0,0,1-1.25-.18l-.1-.14,4.45-13.43a11.54,11.54,0,0,1,1.6-.1,8.28,8.28,0,0,1,1.5.12l4.37,13.43a2.68,2.68,0,0,1-1.39.34,1.79,1.79,0,0,1-1.16-.3,2.4,2.4,0,0,1-.58-1.13Zm-4.09-2.12.89,0h1.72l.84,0-.6-2q-.67-2.28-1.08-3.87h-.12c-.12.57-.41,1.69-.88,3.37Z"/><path class="cls-1" d="M96.48,23.83v8.72a5.13,5.13,0,0,1-1.37,3.84,6.18,6.18,0,0,1-7.71,0A5.13,5.13,0,0,1,86,32.55v-8.7l.12-.14h1a1.56,1.56,0,0,1,1.19.41,1.9,1.9,0,0,1,.38,1.31v7.14c0,2,.84,3,2.52,3s2.53-1,2.53-3V23.83a9.16,9.16,0,0,1,2.7,0ZM89,21.66l4.25-2.58a3.12,3.12,0,0,1,.7.87,2.65,2.65,0,0,1,.38,1.15l-4.57,1.83a1.32,1.32,0,0,1-.5-.54A1.9,1.9,0,0,1,89,21.66Z"/><path class="cls-1" d="M107.25,36.56a3.69,3.69,0,0,1-1.63.76,9.14,9.14,0,0,1-2.1.24c-.36,0-.92,0-1.67,0L99,37.48l-.14-.12V23.93l.14-.12c.77,0,1.55,0,2.32-.06l2.39,0a6.29,6.29,0,0,1,2.78.54,4.54,4.54,0,0,1,1.77,1.49,6,6,0,0,1,.93,2.2,12.87,12.87,0,0,1,.27,2.7A11.62,11.62,0,0,1,109,34.1,5,5,0,0,1,107.25,36.56Zm-1.09-9.12a2.38,2.38,0,0,0-2.47-1.59h-1.23l-.94,0v9.64c.26,0,.54,0,.87,0l1,0c.33,0,.64,0,.93-.08a2.34,2.34,0,0,0,.7-.2,2.47,2.47,0,0,0,.85-.75,3.59,3.59,0,0,0,.51-1.08A7.22,7.22,0,0,0,106.6,32a13.87,13.87,0,0,0,.07-1.46,10.06,10.06,0,0,0-.11-1.6A6.69,6.69,0,0,0,106.16,27.44Z"/><path class="cls-1" d="M113.82,34.05l0,1.24,1.39,0h4.89a5.89,5.89,0,0,1-.06,1c-.14.86-.71,1.28-1.71,1.28H112.7a1.48,1.48,0,0,1-1.13-.43,1.61,1.61,0,0,1-.41-1.16V24l.14-.14h8.32a5.17,5.17,0,0,1,.11,1.07,3.76,3.76,0,0,1-.22,1.19H113.8l0,1.37v2.06l1.29,0h3.38a3.55,3.55,0,0,1,.16,1.1,3.48,3.48,0,0,1-.16,1.09h-4.67Z"/></g></g></svg>