<svg xmlns="http://www.w3.org/2000/svg" viewBox="0 0 149.62 48.49"><defs><style>.cls-1,.cls-2{fill:#fff;}.cls-1{fill-rule:evenodd;}</style></defs><title>susAsset 4</title><g id="Layer_2" data-name="Layer 2"><g id="Layer_1-2" data-name="Layer 1"><path class="cls-1" d="M24.27,1.11A23.13,23.13,0,1,0,47.43,24.24,23.17,23.17,0,0,0,24.27,1.11Zm0,47.38A24.25,24.25,0,1,1,48.54,24.24,24.29,24.29,0,0,1,24.27,48.49Z"/><path class="cls-1" d="M24.27,7.9A16.62,16.62,0,0,0,7.44,24.24,16.61,16.61,0,0,0,24.27,40.58,16.61,16.61,0,0,0,41.11,24.24,16.62,16.62,0,0,0,24.27,7.9Zm0,33.92A17.86,17.86,0,0,1,6.2,24.24,17.86,17.86,0,0,1,24.27,6.66,17.86,17.86,0,0,1,42.35,24.24,17.86,17.86,0,0,1,24.27,41.82Z"/><polygon class="cls-1" points="5.1 15.81 5.42 17 6.58 17 5.74 17.67 6.05 18.7 5.05 17.88 4.08 18.77 4.47 17.67 3.47 17 4.63 17.02 5.1 15.81"/><path class="cls-1" d="M3.68,17.06l.86.58-.32.92.83-.76.88.72-.26-.88.73-.58h-1L5.09,16l-.42,1.08-1,0Zm2.49,1.82L5.06,18l-.94.86L4,18.75l.38-1.06-1.14-.75,1.33,0,.52-1.35.36,1.33H6.76l-1,.75Z"/><polygon class="cls-1" points="42.13 32.62 42.44 33.81 43.6 33.81 42.76 34.48 43.08 35.52 42.07 34.69 41.1 35.59 41.49 34.48 40.49 33.82 41.65 33.84 42.13 32.62"/><path class="cls-1" d="M40.7,33.88l.87.57-.33.93.83-.77.89.73-.27-.88.73-.59h-1l-.28-1-.42,1.08-1,0Zm2.49,1.82-1.12-.92-.93.86-.1-.07.38-1.07-1.14-.75,1.33,0,.53-1.35.35,1.32h1.29l-1,.75Z"/><polygon class="cls-1" points="6.34 32.36 6.66 33.55 7.82 33.55 6.98 34.22 7.29 35.26 6.29 34.43 5.32 35.33 5.71 34.22 4.71 33.55 5.87 33.57 6.34 32.36"/><path class="cls-1" d="M4.92,33.62l.86.57-.32.92.83-.76.88.72-.26-.88.73-.58h-1l-.28-1-.42,1.08h0l-1,0Zm2.49,1.81-1.12-.92-.93.86-.1-.07.38-1.06L4.5,33.48l1.33,0,.52-1.35.36,1.32H8l-1,.76Z"/><polygon class="cls-1" points="43.56 14.96 43.98 16.14 45.04 16.14 44.2 16.81 44.51 17.85 43.56 16.97 42.54 17.93 42.93 16.81 41.93 16.15 43.09 16.17 43.56 14.96"/><path class="cls-1" d="M42.14,16.21l.87.57-.33.93.88-.83.83.77-.27-.87.74-.57h-.92l-.38-1.08-.43,1.1-1,0Zm2.5,1.84-1.08-1-1,.92-.1-.07.38-1.07-1.14-.75,1.33,0,.52-1.33.46,1.3h1.19l-.95.75Z"/><path class="cls-1" d="M25.7,24.24h0Z"/><polygon class="cls-1" points="11.98 38.02 12.49 38.48 10.07 41.09 9.53 40.59 10.19 37.76 10.18 37.75 8.45 39.61 7.95 39.14 10.36 36.53 10.94 37.06 10.29 39.82 10.3 39.83 11.98 38.02"/><path class="cls-1" d="M25.76,4.4l.92.09-.31-1.43h0l-.6,1.34Zm-.58,1.29-.79-.08L26,2.23l.86.09L27.79,6,27,5.86l-.16-.74L25.5,5Z"/><polygon class="cls-1" points="30.02 5.85 31.72 6.39 31.51 7 29.1 6.22 30.24 2.92 30.95 3.14 30.02 5.85"/><path class="cls-1" d="M35.5,8a1.28,1.28,0,0,1-2,.32,1.48,1.48,0,0,1-.71-1,1.32,1.32,0,0,1,.24-.86l1.3-1.94L35,5,33.73,6.88a.6.6,0,0,0,.13.92.63.63,0,0,0,1-.18l1.28-1.93.64.41Z"/><polygon class="cls-1" points="37.12 10.79 36.54 10.33 38.44 8.11 37.61 7.45 38.02 6.97 40.27 8.78 39.86 9.26 39.02 8.58 37.12 10.79"/><path class="cls-1" d="M21.2,4.87c0,.19.2.54.85.45.35-.05.72-.19.66-.56s-.32-.31-.71-.34l-.4,0c-.59,0-1.17-.09-1.29-.86-.07-.39,0-1.11,1.18-1.28a1.24,1.24,0,0,1,1.57.93l-.71.1c-.05-.15-.17-.52-.82-.42-.28,0-.59.19-.54.51s.28.3.43.31l.9.08c.51.05,1,.18,1.09.81.17,1-.9,1.3-1.21,1.35-1.29.19-1.64-.52-1.71-1Z"/><path class="cls-1" d="M14.53,7.7c.36-.19.75-.66.28-1.54s-1.08-.83-1.44-.65-.74.67-.28,1.54,1.08.83,1.44.65ZM13.08,5a1.69,1.69,0,0,1,2.4.86,1.64,1.64,0,0,1-.66,2.43,1.68,1.68,0,0,1-2.4-.86A1.64,1.64,0,0,1,13.08,5Z"/><path class="cls-1" d="M10.14,9.12c.27-.28.31-.51,0-.74a.44.44,0,0,0-.69.06l-.65.66.68.64.61-.62Zm-2.23.09L9.15,7.92a1,1,0,0,1,1.5-.13.82.82,0,0,1,.23,1c.29-.12.48-.16,1,.28s.46.44.62.36l.07.07-.57.59a2.67,2.67,0,0,1-.58-.43c-.34-.32-.5-.43-.88,0l-.54.56,1,.93-.5.52Z"/><polygon class="cls-1" points="34.02 40.09 34.62 39.76 36.36 42.8 35.71 43.16 33.2 41.68 33.19 41.69 34.43 43.86 33.82 44.19 32.08 41.15 32.77 40.77 35.22 42.21 35.23 42.21 34.02 40.09"/><path class="cls-1" d="M37.72,41l.57-.44c.48-.36.27-1-.1-1.42-.65-.82-1.09-.58-1.35-.39l-.56.43L37.72,41Zm-2.41-1.86,1.25-1a1.51,1.51,0,0,1,2.2.45,1.57,1.57,0,0,1,0,2.35l-1.22.92Z"/><polygon class="cls-1" points="41.3 38.6 40.8 39.15 38.11 36.85 38.61 36.29 41.3 38.6"/><polygon class="cls-1" points="42.44 12.53 41.29 11.04 40.69 11.49 41.75 12.85 41.25 13.23 40.19 11.87 39.45 12.41 40.65 13.96 40.15 14.34 38.5 12.21 41.35 10.1 42.95 12.15 42.44 12.53"/><path class="cls-1" d="M12.57,42.35c.33.23.94.34,1.51-.46s.25-1.33-.09-1.55-.93-.35-1.5.46-.25,1.33.08,1.55Zm1.78-2.52a1.62,1.62,0,0,1,.34,2.48,1.69,1.69,0,0,1-2.48.55,1.63,1.63,0,0,1-.34-2.48A1.68,1.68,0,0,1,14.35,39.83Z"/><polygon class="cls-1" points="18.15 41.73 18.87 42.01 16.44 44.86 15.78 44.62 15.97 40.91 16.71 41.19 16.43 43.94 16.44 43.95 18.15 41.73"/><polygon class="cls-1" points="19.37 45.72 18.64 45.53 19.56 42.16 20.29 42.35 19.37 45.72"/><polygon class="cls-1" points="27.85 45.98 27.15 46.03 26.95 43.1 26.93 43.1 26.47 46.08 25.74 46.13 24.88 43.24 24.87 43.24 25.07 46.17 24.38 46.22 24.13 42.72 25.22 42.65 26.07 45.36 26.07 45.36 26.52 42.55 27.61 42.48 27.85 45.98"/><path class="cls-1" d="M32,43.8c.24.91-.21,1.43-1.09,1.65a1.56,1.56,0,0,1-1.21-.14,1.3,1.3,0,0,1-.49-.76l-.6-2.27.74-.18.59,2.22a.63.63,0,0,0,.8.53c.5-.12.64-.42.53-.83l-.59-2.26.74-.18Z"/><path class="cls-1" d="M7.08,12.72A.48.48,0,0,0,6.93,12c-.28-.19-.51-.12-.77.27l-.34.49.87.57.39-.56Zm1.19,1.62L7.85,15l-3-2,.92-1.34a1.06,1.06,0,0,1,1.57-.28,1.07,1.07,0,0,1,.3,1.57l-.48.71Z"/><path class="cls-1" d="M27.82,38.05c.26.61-.42.45-.69.67h-.21C27,38.38,27.33,37.82,27.82,38.05Z"/><path class="cls-1" d="M24,27.35v.23H23C23,27.07,23.74,27,24,27.35Z"/><polygon class="cls-1" points="25.56 21.21 26 20.67 27.18 20.58 27.73 20.48 27.48 20.97 26.84 21.21 26.93 20.97 26.2 20.92 25.8 21.21 25.56 21.21"/><polygon class="cls-1" points="28.46 20.53 28.86 20.48 29.3 20.67 29.05 20.97 28.61 21.07 28.41 21.31 28.17 21.12 27.78 21.21 27.73 21.02 28.07 20.92 27.92 20.72 28.07 20.58 28.46 20.53"/><polygon class="cls-1" points="29.68 20.99 29.93 20.79 30.37 20.84 30.27 21.09 29.63 21.23 29.68 20.99"/><polygon class="cls-1" points="26.2 21.56 26.69 21.51 26.59 21.8 26.1 21.8 26.2 21.56"/><polygon class="cls-1" points="29.55 21.48 29.84 21.26 30 21.42 29.8 21.59 29.55 21.48"/><polygon class="cls-1" points="29.29 21.97 29.54 22.26 29.74 22.16 29.59 21.67 29.29 21.97"/><polygon class="cls-1" points="30.19 22.15 30.34 21.95 29.9 21.7 30.19 22.15"/><path class="cls-1" d="M30.19,22.15l.15-.2Z"/><polygon class="cls-1" points="30.69 21.94 30.86 22 30.79 22.73 30.55 22.07 30.69 21.94"/><path class="cls-1" d="M26.81,24.24a4,4,0,0,1,1.46-.67c-.06.21.11.32.22.45.5-.57.81-.1,1.18.22a.71.71,0,0,0,.64.21.64.64,0,0,1,.09-.21h.24c.34.82,1.61,1.31,1.73,2.23.78.38,1.88.06,2.49.88,1.6,1.78-1.92,2.42-1.36,4.25-.28,1.17-1.18,1.37-2.27,1.54-.35.9-1.05,1.27-1.82,1.78-1.14,0-1.29.8-2.28,1.12-.35,1.16-1.31,1.48-1.59,2.68.17.36.78.15.67.67-.78,0-1.79-.45-1.81-1.34.31-2.49,2.12-4.37,2.27-6.91-1.22-.9-1.42-2.61-1.35-4.22.79-.41.61-1.2.89-1.79l-.43-.44c-.46.66-.77-.35-1.38,0a1.28,1.28,0,0,0-.23-.45c-.25-.33-.64-.59-.91-.91a10.22,10.22,0,0,1-2.71-.87c-1-.09-.44-1.25-1.36-1.57-.13.13-.31.23-.24.45-1.47-.39-.88-2-1.58-2.9a3.85,3.85,0,0,0,.05-1.78,3.4,3.4,0,0,0-.51-1.12c-1.44-1.58-3,1.16-4.77.22a2.12,2.12,0,0,0,1.57-.88c-.13-.21-.52-.34-.44-.66L13.5,14l-.23-.22.23-.21c-.14-.13-.31-.24-.23-.45a5.42,5.42,0,0,1,3.4-1.57c1-.38,2.47.86,3.42-.45-.48,0-1-.73-.47-1.09.33,0,.68-.54.93,0,.28-.15.21-.43.21-.69.75-.41,1.56.86,1.82-.22H23c-.06.22.11.33.22.46l.24-.24.22.24c.61-.6,1,.62,1.82.21a3.15,3.15,0,0,1,1.13,2c-.24,0-.52-.07-.67.21l.92.91c.28-.15.21-.44.21-.69a5.81,5.81,0,0,1,2.28,2.68,4.12,4.12,0,0,0-2.95,1.78c.72,1.8-2.32,1.76-.92,3.56l-.45.46a2.26,2.26,0,0,0-.45-1.12c-1.18.75-3.24-.75-3,1.56.31.26.29.65.68.89.57.25.77-.46,1.14-.67v-.22h.9c.48.82-1,1.79.46,2,0,.25.07.54-.22.66a.61.61,0,0,0,.53.46,3.13,3.13,0,0,0,.53,0H26a.61.61,0,0,1,.47.21l.35-.21ZM24.4,13.55a2.83,2.83,0,0,1,.23-1.79l.23-.23a1.25,1.25,0,0,0-.23.23l-.45-.44.22-.24c-.33.11-.44-.27-.68-.42-.31.83,1.66,1.9-.22,2-.13-.13-.31-.23-.24-.45H23v.23h.22c-.13.11-.24.29-.44.22,0,.26.05.53-.24.66H23c.13.13.31.24.22.45.31.09.77-.19.92.22-.07-.2.11-.3.22-.43Zm-1.58-2.68c.18-.2.05-1-.24-1.12-.33.52.68.75,0,1.12Z"/><path class="cls-1" d="M44.23,20.87h.14c.24,0,.4-.12.4-.32s-.12-.3-.36-.3h-.18v.61Zm-.63-1a4.69,4.69,0,0,1,.78,0,1.15,1.15,0,0,1,.74.19.68.68,0,0,1,.27.56.75.75,0,0,1-.23.58,1.16,1.16,0,0,1-.78.25h-.15v.79H43.6Z"/><path class="cls-1" d="M45.14,24.4,45,24c0-.14-.08-.33-.11-.47h0l-.1.47-.11.42Zm-.52.46-.13.54h-.65l.68-2.35h.84l.7,2.35h-.68l-.15-.54Z"/><polygon class="cls-1" points="44.12 26.41 44.12 27.28 44.88 27.28 44.88 26.41 45.51 26.41 45.51 28.76 44.88 28.76 44.88 27.83 44.12 27.83 44.12 28.76 43.48 28.76 43.48 26.41 44.12 26.41"/><path class="cls-1" d="M43.31,30.91c0,.45.19.71.49.71s.48-.29.48-.71-.18-.71-.48-.71-.49.28-.49.71Zm1.64,0a1.12,1.12,0,0,1-1.18,1.23,1.1,1.1,0,0,1-1.13-1.2,1.15,1.15,0,0,1,1.17-1.22A1.11,1.11,0,0,1,45,30.89Z"/><path class="cls-1" d="M3.63,22.22c0,.45.2.72.5.72s.48-.3.48-.72-.18-.72-.49-.72-.49.29-.49.72Zm1.64,0A1.12,1.12,0,0,1,4.1,23.43,1.1,1.1,0,0,1,3,22.23,1.15,1.15,0,0,1,4.13,21,1.1,1.1,0,0,1,5.27,22.2Z"/><path class="cls-1" d="M3.59,25.87h.15c.24,0,.39-.12.39-.33s-.11-.29-.35-.29a.66.66,0,0,0-.19,0v.6Zm-.62-1a4.64,4.64,0,0,1,.77,0,1.14,1.14,0,0,1,.75.19.67.67,0,0,1,.26.56.75.75,0,0,1-.22.58,1.17,1.17,0,0,1-.79.24H3.59v.8H3Z"/><path class="cls-1" d="M4,29.81a1.34,1.34,0,0,0,.61.15c.22,0,.32-.07.32-.2s-.1-.17-.37-.27-.66-.35-.66-.7.35-.74.94-.74a1.53,1.53,0,0,1,.64.13l-.13.5a1.13,1.13,0,0,0-.51-.11c-.19,0-.3.06-.3.17s.13.17.42.28.61.38.61.71-.31.75-1,.75a1.5,1.5,0,0,1-.69-.15Z"/><path class="cls-1" d="M58.1,13.85c1.3,0,2.34-1.2,2.34-4.54s-1-4.54-2.34-4.54S55.75,6,55.75,9.31s1,4.54,2.35,4.54Zm0-10.79c2.32,0,4.46,1.88,4.46,6.25s-2.14,6.25-4.46,6.25-4.47-1.88-4.47-6.25S55.77,3.06,58.1,3.06Z"/><path class="cls-1" d="M64,7.9c0-.56,0-1.08-.06-1.48h1.79c0,.54.07,1.1.07,1.64h0A2.36,2.36,0,0,1,68,6.28a1.74,1.74,0,0,1,.34,0v2a1.94,1.94,0,0,0-.56-.08c-.82,0-1.72.53-1.72,2.21v4.91H64Z"/><path class="cls-1" d="M72.38,13.8c1.25,0,1.75-1,1.75-3,0-1.88-.66-2.89-1.61-2.87S71.08,9,71.08,10.81c0,2.1.62,3,1.3,3Zm-2.88,3a5,5,0,0,0,2.44.76c1.88,0,2.19-1.41,2.19-2.82v-.85h0a2.29,2.29,0,0,1-2.19,1.52c-1.16,0-2.89-.84-2.89-4.46,0-2.47.82-4.65,3-4.65a2.37,2.37,0,0,1,2.18,1.53h.07c0-.47,0-.92.06-1.39h1.8c0,.47-.06.94-.06,1.41v6.62c0,2.8-.79,4.8-3.83,4.8a8.06,8.06,0,0,1-2.84-.55Z"/><path class="cls-1" d="M82,11h-.18c-1.7,0-2.71.38-2.71,1.69a1.24,1.24,0,0,0,1.26,1.37c1.19,0,1.63-1,1.63-2.56V11ZM78.05,6.94a5.4,5.4,0,0,1,2.62-.66c2.57,0,3.16,1.36,3.16,3.6V13.8a11.78,11.78,0,0,0,.11,1.59h-1.8A5.17,5.17,0,0,1,82,14.17h0a2.61,2.61,0,0,1-2.31,1.35,2.47,2.47,0,0,1-2.48-2.62c0-2.44,1.83-3.05,4.36-3.05H82V9.52c0-.89-.4-1.71-1.55-1.71a3.65,3.65,0,0,0-2.26.87Z"/><path class="cls-1" d="M85.44,7.9a12.66,12.66,0,0,0-.07-1.48h1.87c0,.45.06.92.06,1.37h0a2.45,2.45,0,0,1,2.2-1.51C91.41,6.28,92,7.79,92,9.61v5.78H90V10c0-1.37-.32-1.94-1.14-1.94-1,0-1.41.95-1.41,2.1v5.23h-2Z"/><path class="cls-1" d="M93.73,6.42h2v9h-2v-9Zm0-3.81h2.06V4.73H93.69Z"/><polygon class="cls-1" points="97.04 13.52 100.57 8.06 97.15 8.06 97.15 6.42 102.56 6.42 102.56 8.27 99.09 13.75 102.68 13.75 102.68 15.39 97.04 15.39 97.04 13.52"/><path class="cls-1" d="M108.12,11h-.18c-1.7,0-2.71.38-2.71,1.69a1.25,1.25,0,0,0,1.27,1.37c1.19,0,1.62-1,1.62-2.56V11ZM104.2,6.94a5.4,5.4,0,0,1,2.62-.66c2.57,0,3.16,1.36,3.16,3.6V13.8a11.49,11.49,0,0,0,.12,1.59h-1.8a4.7,4.7,0,0,1-.11-1.22h0a2.6,2.6,0,0,1-2.31,1.35,2.47,2.47,0,0,1-2.48-2.62c0-2.44,1.84-3.05,4.36-3.05h.4V9.52c0-.89-.4-1.71-1.54-1.71a3.65,3.65,0,0,0-2.27.87Z"/><path class="cls-1" d="M117.21,15.16a5.27,5.27,0,0,1-2,.36h-.09l-.29.95a1.68,1.68,0,0,1,.62-.11,1.26,1.26,0,0,1,1.4,1.29,1.67,1.67,0,0,1-1.78,1.6,4.11,4.11,0,0,1-1.69-.35l.26-.7a2.73,2.73,0,0,0,1.12.25c.53,0,.84-.3.84-.72a.66.66,0,0,0-.74-.64,1.29,1.29,0,0,0-.63.13l-.29-.3.49-1.46c-2.19-.39-3.1-2.28-3.1-4.55,0-2.56,1.22-4.63,4-4.63a5,5,0,0,1,1.73.37L117,8.35a3,3,0,0,0-1.4-.43c-1.51,0-2.17,1.09-2.17,3,0,1.67.74,3,2.27,3a3,3,0,0,0,1.41-.44Z"/><path class="cls-1" d="M122.53,11h-.18c-1.7,0-2.71.38-2.71,1.69a1.25,1.25,0,0,0,1.27,1.37c1.19,0,1.62-1,1.62-2.56V11Zm-3.61-5.76c0-.61.3-2,1.51-2,.74,0,1.36.59,1.84.59s.47-.33.47-.68h1c0,.51-.31,2-1.5,2-.63,0-1.22-.59-1.8-.59-.4,0-.59.31-.59.68Zm-.31,1.7a5.4,5.4,0,0,1,2.62-.66c2.57,0,3.16,1.36,3.16,3.6V13.8a11.49,11.49,0,0,0,.12,1.59h-1.8a4.7,4.7,0,0,1-.11-1.22h0a2.6,2.6,0,0,1-2.31,1.35,2.46,2.46,0,0,1-2.47-2.62c0-2.44,1.83-3.05,4.35-3.05h.4V9.52c0-.89-.4-1.71-1.54-1.71a3.65,3.65,0,0,0-2.27.87Z"/><path class="cls-1" d="M129.44,14c1.28,0,1.57-1.6,1.57-3.1s-.29-3.08-1.57-3.08-1.59,1.59-1.59,3.08.3,3.1,1.59,3.1Zm0-7.71c1.69,0,3.63,1,3.63,4.61s-1.94,4.63-3.63,4.63-3.65-.87-3.65-4.63S127.75,6.28,129.44,6.28Z"/><path class="cls-1" d="M56.81,24.19c1.29,0,1.85-.67,1.85-2s-.56-2-1.85-2H56v4ZM54,18.5H57.2c2.31,0,3.52,1.4,3.52,3.69S59.51,25.9,57.2,25.9H56v4.75H54Z"/><path class="cls-1" d="M65.33,26.27h-.18c-1.7,0-2.72.38-2.72,1.68a1.25,1.25,0,0,0,1.27,1.38c1.19,0,1.63-1,1.63-2.56v-.5ZM61.4,22.21A5.46,5.46,0,0,1,64,21.55c2.57,0,3.17,1.35,3.17,3.6v3.91a11.78,11.78,0,0,0,.11,1.59H65.5a5.12,5.12,0,0,1-.11-1.22h0A2.64,2.64,0,0,1,63,30.79a2.47,2.47,0,0,1-2.47-2.63c0-2.43,1.83-3,4.35-3h.41v-.34a1.5,1.5,0,0,0-1.55-1.7,3.62,3.62,0,0,0-2.26.87Z"/><path class="cls-1" d="M68.81,23.17c0-.56,0-1.09-.06-1.48h1.86c0,.45.06.92.06,1.37h0a2.41,2.41,0,0,1,2.2-1.51c1.88,0,2.44,1.51,2.44,3.32v5.78h-2V25.27c0-1.37-.32-1.95-1.14-1.95-1,0-1.42,1-1.42,2.11v5.22h-2Z"/><rect class="cls-2" x="76.7" y="24.82" width="3.71" height="1.77"/><path class="cls-1" d="M87.24,26l-1.42-5.67h0L84.25,26Zm.43,1.71H83.82L83,30.65H81L84.72,18.5H87l3.61,12.15H88.46Z"/><path class="cls-1" d="M91.3,23.15c0-.65,0-1.13-.06-1.46h2c0,.47.06.94.06,1.4h0a2.3,2.3,0,0,1,2.08-1.54A2.15,2.15,0,0,1,97.5,23a2.55,2.55,0,0,1,2.22-1.43c1.8,0,2.38,1.39,2.38,3.57v5.53h-2V25c0-1.11-.32-1.67-1.06-1.67s-1.34.91-1.34,1.9v5.43h-2V25c0-1.11-.32-1.67-1.06-1.67s-1.35.91-1.35,1.9v5.43h-2Z"/><path class="cls-1" d="M108.19,25.39c0-1.58-.49-2.38-1.39-2.38s-1.47,1.2-1.47,2.38Zm1.51,4.83a5.85,5.85,0,0,1-2.48.57c-2.67,0-3.82-2.07-3.82-4.49,0-2.68,1.3-4.75,3.4-4.75,1.79,0,3.31,1.13,3.31,4.78v.42h-4.78c0,1.53.56,2.46,2.1,2.46a3.16,3.16,0,0,0,2.17-.7Z"/><path class="cls-1" d="M111.48,23.17a12.54,12.54,0,0,0-.07-1.48h1.8c0,.54.07,1.1.07,1.63h0a2.36,2.36,0,0,1,2.1-1.77,1.74,1.74,0,0,1,.34.05v2a1.69,1.69,0,0,0-.56-.09c-.82,0-1.72.54-1.72,2.21v4.91h-2Z"/><path class="cls-1" d="M117,21.69h2v9h-2v-9Zm0-3.81h2V20h-2Z"/><path class="cls-1" d="M126.42,30.42a5.33,5.33,0,0,1-2,.37c-2.73,0-3.89-2.07-3.89-4.61s1.22-4.63,4-4.63a5,5,0,0,1,1.74.37l-.12,1.7a3,3,0,0,0-1.39-.44c-1.51,0-2.17,1.1-2.17,3,0,1.66.74,2.95,2.26,2.95a3.09,3.09,0,0,0,1.42-.43Z"/><path class="cls-1" d="M131.72,26.27h-.18c-1.7,0-2.71.38-2.71,1.68a1.25,1.25,0,0,0,1.27,1.38c1.18,0,1.62-1,1.62-2.56v-.5Zm-3.92-4.06a5.4,5.4,0,0,1,2.62-.66c2.57,0,3.16,1.35,3.16,3.6v3.91a13.71,13.71,0,0,0,.11,1.59H131.9a4.63,4.63,0,0,1-.12-1.22h0a2.62,2.62,0,0,1-2.31,1.36A2.47,2.47,0,0,1,127,28.16c0-2.43,1.83-3,4.35-3h.4v-.34a1.49,1.49,0,0,0-1.54-1.7,3.65,3.65,0,0,0-2.27.87Z"/><path class="cls-1" d="M135.21,23.17a12.54,12.54,0,0,0-.07-1.48H137c0,.45.06.92.06,1.37h0a2.42,2.42,0,0,1,2.2-1.51c1.88,0,2.44,1.51,2.44,3.32v5.78h-2V25.27c0-1.37-.32-1.95-1.14-1.95-1,0-1.41,1-1.41,2.11v5.22h-2Z"/><path class="cls-1" d="M147.64,26.27h-.18c-1.7,0-2.71.38-2.71,1.68A1.25,1.25,0,0,0,146,29.33c1.19,0,1.62-1,1.62-2.56v-.5Zm-3.92-4.06a5.4,5.4,0,0,1,2.62-.66c2.57,0,3.16,1.35,3.16,3.6v3.91a11.49,11.49,0,0,0,.12,1.59h-1.8a4.63,4.63,0,0,1-.12-1.22h0a2.61,2.61,0,0,1-2.31,1.36,2.47,2.47,0,0,1-2.48-2.63c0-2.43,1.84-3,4.36-3h.4v-.34a1.49,1.49,0,0,0-1.54-1.7,3.65,3.65,0,0,0-2.27.87Z"/><path class="cls-1" d="M57,44.48c1.17,0,1.57-1.38,1.57-3.07s-.45-3-1.54-3-1.49,1.16-1.49,3c0,2.07.3,3.12,1.46,3.12Zm3.57-11.62V44.39a12.31,12.31,0,0,0,.06,1.53H58.79a10.9,10.9,0,0,1-.07-1.4h0a2.23,2.23,0,0,1-2.2,1.54c-2,0-2.9-2.12-2.9-4.61,0-2.93,1.07-4.64,2.85-4.64a2.24,2.24,0,0,1,2.14,1.43h0V32.86Z"/><path class="cls-1" d="M66.51,41.53h-.17c-1.71,0-2.72.39-2.72,1.69a1.25,1.25,0,0,0,1.27,1.38c1.19,0,1.62-1,1.62-2.56v-.51ZM62.6,37.48a5.33,5.33,0,0,1,2.61-.67c2.57,0,3.17,1.36,3.17,3.61v3.92a11.74,11.74,0,0,0,.11,1.58h-1.8a4.65,4.65,0,0,1-.11-1.22h0a2.64,2.64,0,0,1-2.32,1.36,2.47,2.47,0,0,1-2.47-2.63c0-2.44,1.83-3,4.35-3h.4v-.34A1.49,1.49,0,0,0,65,38.35a3.62,3.62,0,0,0-2.26.87Z"/><path class="cls-1" d="M74.08,43.57a4.31,4.31,0,0,0,2.38.75,1.61,1.61,0,0,0,1.7-1.76c0-.87-.46-1.25-1.46-1.84l-1-.63a3.45,3.45,0,0,1-1.84-3.19,3.27,3.27,0,0,1,3.54-3.31A6.84,6.84,0,0,1,79.7,34l-.09,1.86a5,5,0,0,0-2.11-.52,1.38,1.38,0,0,0-1.56,1.43c0,.9.56,1.25,1.19,1.63l1.21.74a3.33,3.33,0,0,1,1.94,3.27,3.42,3.42,0,0,1-3.76,3.65A4.74,4.74,0,0,1,74,45.55Z"/><path class="cls-1" d="M86.06,41.53h-.17c-1.7,0-2.72.39-2.72,1.69a1.25,1.25,0,0,0,1.27,1.38c1.19,0,1.62-1,1.62-2.56v-.51Zm-3.92-4.05a5.41,5.41,0,0,1,2.62-.67c2.57,0,3.17,1.36,3.17,3.61v3.92A11.74,11.74,0,0,0,88,45.92h-1.8a5.12,5.12,0,0,1-.11-1.22h0a2.64,2.64,0,0,1-2.32,1.36,2.47,2.47,0,0,1-2.47-2.63c0-2.44,1.83-3,4.35-3h.4v-.34a1.49,1.49,0,0,0-1.54-1.7,3.62,3.62,0,0,0-2.26.87Z"/><path class="cls-1" d="M92.91,33.46h1.86L93.13,36H91.88l1-2.5Zm3.18,11a12.89,12.89,0,0,0,.06,1.48H94.29c0-.45-.06-.92-.06-1.38l0,0v0A2.4,2.4,0,0,1,92,46.06c-1.88,0-2.44-1.52-2.44-3.33V37h2v5.37c0,1.38.36,2,1.19,2,1.06,0,1.37-1,1.37-2.19V37h2Z"/><path class="cls-1" d="M100.89,44.48c1.18,0,1.58-1.38,1.58-3.07s-.45-3-1.55-3-1.49,1.16-1.49,3c0,2.07.31,3.12,1.46,3.12Zm3.57-11.62V44.39a12.31,12.31,0,0,0,.06,1.53h-1.86a13.17,13.17,0,0,1-.07-1.4h0a2.25,2.25,0,0,1-2.2,1.54c-2.06,0-2.91-2.12-2.91-4.61,0-2.93,1.07-4.64,2.86-4.64a2.22,2.22,0,0,1,2.13,1.43h0V32.86Z"/><path class="cls-1" d="M110.63,40.66c0-1.58-.49-2.38-1.39-2.38s-1.47,1.2-1.47,2.38Zm1.51,4.83a5.85,5.85,0,0,1-2.48.57c-2.66,0-3.82-2.07-3.82-4.49,0-2.68,1.3-4.76,3.4-4.76,1.79,0,3.32,1.14,3.32,4.79V42h-4.79c0,1.53.56,2.46,2.1,2.46a3.16,3.16,0,0,0,2.17-.7Z"/></g></g></svg>