<svg xmlns="http://www.w3.org/2000/svg" viewBox="0 0 139.3 35.79"><defs><style>.cls-1{fill:#fff;}</style></defs><title>susAsset 6</title><g id="Layer_2" data-name="Layer 2"><g id="Layer_1-2" data-name="Layer 1"><path class="cls-1" d="M59.76,13.05a13.76,13.76,0,0,0-3.3-3,8.88,8.88,0,0,0-4.93-1.28,11,11,0,0,0-4.19.82A10.48,10.48,0,0,0,43.75,12,12.17,12.17,0,0,0,41.26,16a12.66,12.66,0,0,0-.41,1.23l-.11-.38a12.46,12.46,0,0,0-2.18-4.15,10.5,10.5,0,0,0-3.62-2.84,11.52,11.52,0,0,0-5.06-1.05,11.22,11.22,0,0,0-8.5,3.69,12.12,12.12,0,0,0-2.45,4,13.65,13.65,0,0,0-.87,4.9v.09c0,.46,0,.91.05,1.35a6.72,6.72,0,0,0-1.31-1.3,11.72,11.72,0,0,0-2.41-1.35c-.89-.36-1.77-.68-2.66-1q-1.05-.31-2-.66A13.23,13.23,0,0,1,8,17.83,4.49,4.49,0,0,1,6.74,17a1.55,1.55,0,0,1-.46-1.12v-.09A2.12,2.12,0,0,1,7.17,14a4,4,0,0,1,2.5-.69,10.2,10.2,0,0,1,3.3.62,18.59,18.59,0,0,1,3.53,1.68l2.2-4a16.66,16.66,0,0,0-4.27-2,15.32,15.32,0,0,0-4.62-.74,11.21,11.21,0,0,0-3.37.5,8.24,8.24,0,0,0-2.75,1.47,6.73,6.73,0,0,0-1.83,2.33,6.81,6.81,0,0,0-.67,3.06v.09a5.75,5.75,0,0,0,.69,2.93,6.48,6.48,0,0,0,1.76,2,9.74,9.74,0,0,0,2.43,1.3c.9.34,1.8.63,2.68.87.71.21,1.38.43,2,.64a12.13,12.13,0,0,1,1.74.69,3.47,3.47,0,0,1,1.19.87,1.74,1.74,0,0,1,.44,1.18v.1a2.21,2.21,0,0,1-1,1.89,4.61,4.61,0,0,1-2.77.71,11.36,11.36,0,0,1-3.92-.75,16.38,16.38,0,0,1-4-2.23L0,30.29A17,17,0,0,0,5,33a16.08,16.08,0,0,0,5.29.93,12.55,12.55,0,0,0,3.53-.48,8.67,8.67,0,0,0,2.87-1.42,6.55,6.55,0,0,0,1.9-2.36,7.22,7.22,0,0,0,.66-2.64,11.6,11.6,0,0,0,6.37,6.07,13,13,0,0,0,4.88.92,12.36,12.36,0,0,0,5.75-1.24,13.18,13.18,0,0,0,4.15-3.3l-3.25-2.89a11.62,11.62,0,0,1-3,2.16,8.1,8.1,0,0,1-3.57.73A7,7,0,0,1,26,27.92a7.06,7.06,0,0,1-2.36-4.56H40.43a13,13,0,0,0,.86,3.44,12.23,12.23,0,0,0,2.52,3.94,10.5,10.5,0,0,0,3.57,2.43,11,11,0,0,0,4.17.82,8.66,8.66,0,0,0,4.93-1.33,12.35,12.35,0,0,0,3.32-3.2l0,4h5.59V0H59.76ZM23.55,19.69a8,8,0,0,1,2-4.6,6,6,0,0,1,6.69-1.26,6,6,0,0,1,1.86,1.35,6.53,6.53,0,0,1,1.24,2A9.64,9.64,0,0,1,36,19.69Zm36.3,1.75a8.43,8.43,0,0,1-.57,3.16,7.83,7.83,0,0,1-1.53,2.45,6.7,6.7,0,0,1-4.89,2.13,6.51,6.51,0,0,1-2.67-.55A6.88,6.88,0,0,1,48,27.07a7.29,7.29,0,0,1-1.51-2.45,9,9,0,0,1-.54-3.18v-.1a9.2,9.2,0,0,1,.54-3.23A7.29,7.29,0,0,1,48,15.66a6.5,6.5,0,0,1,2.22-1.53,6.84,6.84,0,0,1,2.67-.53,6.59,6.59,0,0,1,2.65.55,6.85,6.85,0,0,1,2.24,1.56,7.5,7.5,0,0,1,1.53,2.45,8.57,8.57,0,0,1,.57,3.18Z"/><rect class="cls-1" x="67.78" y="0.03" width="6" height="5.27"/><rect class="cls-1" x="68" y="7.85" width="5.59" height="25.66"/><path class="cls-1" d="M92.8,23.48A6.73,6.73,0,0,0,91,21.53a11.64,11.64,0,0,0-2.4-1.35c-.89-.36-1.78-.68-2.66-1q-1.06-.31-2-.66a13.23,13.23,0,0,1-1.74-.73A4.55,4.55,0,0,1,81,17a1.59,1.59,0,0,1-.46-1.12v-.09a2.11,2.11,0,0,1,.9-1.74,4,4,0,0,1,2.5-.69,10.3,10.3,0,0,1,3.3.62,18.51,18.51,0,0,1,3.52,1.68l2.2-4a16.44,16.44,0,0,0-4.26-2A15.38,15.38,0,0,0,84,8.88a11.15,11.15,0,0,0-3.36.5,8.15,8.15,0,0,0-2.75,1.47,6.75,6.75,0,0,0-1.84,2.33,6.94,6.94,0,0,0-.66,3.06v.09a5.75,5.75,0,0,0,.69,2.93,6.35,6.35,0,0,0,1.76,2,9.74,9.74,0,0,0,2.43,1.3c.9.34,1.79.63,2.68.87l2,.64a12.61,12.61,0,0,1,1.74.69,3.57,3.57,0,0,1,1.19.87,1.74,1.74,0,0,1,.44,1.18v.1a2.21,2.21,0,0,1-1,1.89,4.63,4.63,0,0,1-2.77.71,11.36,11.36,0,0,1-3.92-.75,16.2,16.2,0,0,1-4-2.23l-2.47,3.77a16.91,16.91,0,0,0,5,2.73A16.08,16.08,0,0,0,84.5,34,12.6,12.6,0,0,0,88,33.47a8.61,8.61,0,0,0,2.86-1.42,6.58,6.58,0,0,0,1.91-2.36,7.64,7.64,0,0,0,.68-3.33v-.09A5.39,5.39,0,0,0,92.8,23.48Z"/><path class="cls-1" d="M139.18,5.56a.75.75,0,0,0-.34-.09A60.78,60.78,0,0,0,111,12.25a63.94,63.94,0,0,0-9,5.63,65.72,65.72,0,0,1,8,3.25l.87.44.39.2s-.53,7.46-.54,7.71h0l.34-.32.18-.17c1-.94,3.25-3,4.68-4.3l.24-.21a57.43,57.43,0,0,1,8.39,6.69,54.89,54.89,0,0,1,13-23.87l.5-.52c.36-.38.73-.76,1.11-1.12h0C139.34,5.64,139.27,5.62,139.18,5.56Zm-27.43,22.6,1.9-5.19,1.13.6,1.15.73C114.35,25.7,112.92,27,111.75,28.16Zm12.48,2a52.56,52.56,0,0,0-10.5-7.83,46.56,46.56,0,0,1,12.4-11.16c3.13-1.94,7.17-3.18,10.54-4.36C133,8,128.54,9.23,125.06,11.15A59.65,59.65,0,0,0,111.7,21.27a54.52,54.52,0,0,0-8.39-3.43,55.8,55.8,0,0,1,8.5-5.56,56.39,56.39,0,0,1,24.9-6.64c.67,0,2.3,0,2.3,0l.25,0A53.12,53.12,0,0,0,124.23,30.2Z"/><path class="cls-1" d="M135.42,16.68V30.59a3.67,3.67,0,0,1-3.67,3.67H102a.26.26,0,0,1-.26-.26V4.12A3.55,3.55,0,0,1,105.28.57h28.65a1.49,1.49,0,0,1,1.49,1.49V3.29H136V2.2a2.2,2.2,0,0,0-2.2-2.2H104.5a4.31,4.31,0,0,0-4.3,4.31V34.85a.94.94,0,0,0,.94.94h30.42A4.43,4.43,0,0,0,136,31.36V15.92Z"/></g></g></svg>