<svg xmlns="http://www.w3.org/2000/svg" viewBox="0 0 134.18 48.48"><defs><style>.cls-1{fill:#fff;}</style></defs><title>susAsset 19</title><g id="Layer_2" data-name="Layer 2"><g id="Layer_1-2" data-name="Layer 1"><path class="cls-1" d="M56.62,14.52v2.7h-.43V11h1.47a2.79,2.79,0,0,1,1.7.43,1.5,1.5,0,0,1,.55,1.28,1.69,1.69,0,0,1-.33,1,1.83,1.83,0,0,1-1,.61l1.67,2.82h-.51l-1.6-2.7Zm0-.37H57.8A1.88,1.88,0,0,0,59,13.8a1.23,1.23,0,0,0,.43-1,1.19,1.19,0,0,0-.42-1,2.26,2.26,0,0,0-1.38-.33h-1Z"/><path class="cls-1" d="M63.08,17.3a2,2,0,0,1-1.56-.62A2.48,2.48,0,0,1,61,15a2.7,2.7,0,0,1,.54-1.76A1.79,1.79,0,0,1,63,12.53a1.57,1.57,0,0,1,1.28.57,2.31,2.31,0,0,1,.47,1.54V15H61.4a2.17,2.17,0,0,0,.44,1.44,1.58,1.58,0,0,0,1.24.5,4.68,4.68,0,0,0,.7-.05,4.78,4.78,0,0,0,.75-.24V17a3.49,3.49,0,0,1-.72.23A4.07,4.07,0,0,1,63.08,17.3ZM63,12.9a1.37,1.37,0,0,0-1.06.44,2,2,0,0,0-.47,1.26h2.84a2,2,0,0,0-.35-1.25A1.14,1.14,0,0,0,63,12.9Z"/><path class="cls-1" d="M67.66,12.53a2,2,0,0,1,.87.18,1.73,1.73,0,0,1,.65.62h0c0-.35,0-.7,0-1V10.64h.41v6.58h-.27l-.11-.71h0a1.69,1.69,0,0,1-1.51.79,1.81,1.81,0,0,1-1.45-.59A2.59,2.59,0,0,1,65.71,15a2.9,2.9,0,0,1,.5-1.82A1.75,1.75,0,0,1,67.66,12.53Zm0,.38a1.32,1.32,0,0,0-1.13.53A2.63,2.63,0,0,0,66.15,15c0,1.3.51,1.95,1.52,1.95a1.37,1.37,0,0,0,1.14-.45,2.38,2.38,0,0,0,.37-1.5v-.07a2.53,2.53,0,0,0-.36-1.53A1.37,1.37,0,0,0,67.66,12.91Z"/><path class="cls-1" d="M73,17.3a2,2,0,0,1-1.56-.62A2.48,2.48,0,0,1,70.87,15a2.7,2.7,0,0,1,.54-1.76,1.79,1.79,0,0,1,1.46-.66,1.57,1.57,0,0,1,1.28.57,2.36,2.36,0,0,1,.47,1.54V15H71.31a2.12,2.12,0,0,0,.44,1.44,1.56,1.56,0,0,0,1.24.5,4.65,4.65,0,0,0,.69-.05,4.84,4.84,0,0,0,.76-.24V17a3.49,3.49,0,0,1-.72.23A4.07,4.07,0,0,1,73,17.3Zm-.12-4.4a1.4,1.4,0,0,0-1.07.44,2.13,2.13,0,0,0-.47,1.26h2.85a2,2,0,0,0-.35-1.25A1.14,1.14,0,0,0,72.87,12.9Z"/><path class="cls-1" d="M81.66,15.62a1.48,1.48,0,0,1-.57,1.23,2.38,2.38,0,0,1-1.51.45,4.64,4.64,0,0,1-1.74-.25v-.43a4.34,4.34,0,0,0,1.7.28,1.87,1.87,0,0,0,1.21-.35,1.09,1.09,0,0,0,.45-.91,1,1,0,0,0-.15-.58,1.26,1.26,0,0,0-.48-.42,5.29,5.29,0,0,0-1-.41,3.25,3.25,0,0,1-1.3-.71,1.37,1.37,0,0,1-.37-1,1.41,1.41,0,0,1,.55-1.13A2.16,2.16,0,0,1,79.85,11a4.07,4.07,0,0,1,1.64.33l-.16.37a3.69,3.69,0,0,0-1.47-.32,1.74,1.74,0,0,0-1.09.31,1,1,0,0,0-.4.87,1.19,1.19,0,0,0,.12.56,1,1,0,0,0,.41.39,5.11,5.11,0,0,0,1,.42,5.25,5.25,0,0,1,1.09.49,1.57,1.57,0,0,1,.53.53A1.47,1.47,0,0,1,81.66,15.62Z"/><path class="cls-1" d="M86.66,14.91a2.58,2.58,0,0,1-.55,1.76,1.87,1.87,0,0,1-1.5.63A2,2,0,0,1,83.54,17a1.82,1.82,0,0,1-.7-.84,2.92,2.92,0,0,1-.25-1.26,2.55,2.55,0,0,1,.55-1.75,1.86,1.86,0,0,1,1.49-.63,1.84,1.84,0,0,1,1.49.64A2.59,2.59,0,0,1,86.66,14.91Zm-3.63,0a2.33,2.33,0,0,0,.42,1.48,1.41,1.41,0,0,0,1.17.53,1.42,1.42,0,0,0,1.18-.53,2.33,2.33,0,0,0,.42-1.48,2.3,2.3,0,0,0-.42-1.47,1.59,1.59,0,0,0-2.36,0A2.39,2.39,0,0,0,83,14.91Z"/><path class="cls-1" d="M89.77,17.3a2,2,0,0,1-1.55-.62A2.5,2.5,0,0,1,87.66,15a2.56,2.56,0,0,1,.58-1.78,2,2,0,0,1,1.59-.64,3.12,3.12,0,0,1,1.14.21l-.11.37a3.49,3.49,0,0,0-1-.2,1.6,1.6,0,0,0-1.28.52,2.3,2.3,0,0,0-.44,1.51,2.2,2.2,0,0,0,.44,1.45,1.48,1.48,0,0,0,1.22.53,3,3,0,0,0,1.16-.22v.39A2.69,2.69,0,0,1,89.77,17.3Z"/><path class="cls-1" d="M92,11.34c0-.27.08-.4.26-.4a.24.24,0,0,1,.21.1.68.68,0,0,1,0,.6.23.23,0,0,1-.21.11C92.07,11.75,92,11.62,92,11.34Zm.47,5.88h-.41v-4.6h.41Z"/><path class="cls-1" d="M97.8,14.91a2.63,2.63,0,0,1-.54,1.76,1.89,1.89,0,0,1-1.51.63A2,2,0,0,1,94.69,17a1.9,1.9,0,0,1-.71-.84,3.08,3.08,0,0,1-.24-1.26,2.6,2.6,0,0,1,.54-1.75,1.88,1.88,0,0,1,1.5-.63,1.84,1.84,0,0,1,1.49.64A2.64,2.64,0,0,1,97.8,14.91Zm-3.62,0a2.39,2.39,0,0,0,.41,1.48,1.58,1.58,0,0,0,2.36,0,2.33,2.33,0,0,0,.41-1.48,2.3,2.3,0,0,0-.42-1.47,1.58,1.58,0,0,0-2.35,0A2.33,2.33,0,0,0,94.18,14.91Z"/><path class="cls-1" d="M100.29,16.93a2.77,2.77,0,0,0,.69-.07v.34a2.11,2.11,0,0,1-.7.1,1.19,1.19,0,0,1-.9-.32,1.54,1.54,0,0,1-.29-1V13h-.68v-.24l.68-.19.22-1h.21v1.11h1.35V13H99.52v2.91a1.3,1.3,0,0,0,.19.79A.69.69,0,0,0,100.29,16.93Z"/><path class="cls-1" d="M103.83,17.3a2,2,0,0,1-1.56-.62,2.48,2.48,0,0,1-.56-1.73,2.7,2.7,0,0,1,.54-1.76,1.79,1.79,0,0,1,1.46-.66,1.57,1.57,0,0,1,1.28.57,2.31,2.31,0,0,1,.47,1.54V15h-3.31a2.17,2.17,0,0,0,.44,1.44,1.58,1.58,0,0,0,1.24.5,4.68,4.68,0,0,0,.7-.05,4.78,4.78,0,0,0,.75-.24V17a3.49,3.49,0,0,1-.72.23A4.07,4.07,0,0,1,103.83,17.3Zm-.12-4.4a1.37,1.37,0,0,0-1.06.44,2,2,0,0,0-.47,1.26H105a2,2,0,0,0-.35-1.25A1.14,1.14,0,0,0,103.71,12.9Zm-.59-1a8.87,8.87,0,0,0,.61-.72,4.31,4.31,0,0,0,.41-.6h.6v.07a4.43,4.43,0,0,1-.52.59c-.24.24-.51.48-.8.73h-.3Z"/><path class="cls-1" d="M108.57,17.3a2,2,0,0,1-1.55-.62,2.5,2.5,0,0,1-.56-1.73,2.56,2.56,0,0,1,.58-1.78,2,2,0,0,1,1.59-.64,3.12,3.12,0,0,1,1.14.21l-.11.37a3.49,3.49,0,0,0-1-.2,1.6,1.6,0,0,0-1.28.52,2.3,2.3,0,0,0-.44,1.51,2.2,2.2,0,0,0,.44,1.45,1.48,1.48,0,0,0,1.22.53,3,3,0,0,0,1.16-.22v.39A2.69,2.69,0,0,1,108.57,17.3Z"/><path class="cls-1" d="M114.05,17.22v-3a1.47,1.47,0,0,0-.29-1,1.2,1.2,0,0,0-.91-.32,1.53,1.53,0,0,0-1.2.42,1.94,1.94,0,0,0-.39,1.35v2.54h-.42v-4.6h.36l.08.63h0a1.71,1.71,0,0,1,1.59-.72q1.56,0,1.56,1.68v3Z"/><path class="cls-1" d="M115.89,11.34c0-.27.09-.4.27-.4a.24.24,0,0,1,.21.1.68.68,0,0,1,0,.6.23.23,0,0,1-.21.11C116,11.75,115.89,11.62,115.89,11.34Zm.48,5.88H116v-4.6h.42Z"/><path class="cls-1" d="M119.75,17.3a2,2,0,0,1-1.55-.62,2.5,2.5,0,0,1-.56-1.73,2.56,2.56,0,0,1,.58-1.78,2,2,0,0,1,1.59-.64,3.12,3.12,0,0,1,1.14.21l-.11.37a3.49,3.49,0,0,0-1-.2,1.6,1.6,0,0,0-1.28.52,2.3,2.3,0,0,0-.44,1.51,2.2,2.2,0,0,0,.44,1.45,1.48,1.48,0,0,0,1.22.53,3,3,0,0,0,1.16-.22v.39A2.69,2.69,0,0,1,119.75,17.3Z"/><path class="cls-1" d="M124.82,17.22l-.11-.73h0a2.28,2.28,0,0,1-.72.63,1.91,1.91,0,0,1-.86.18,1.45,1.45,0,0,1-1-.35,1.24,1.24,0,0,1-.38-1,1.2,1.2,0,0,1,.56-1,3,3,0,0,1,1.62-.39l.88,0v-.3a1.54,1.54,0,0,0-.27-1,1,1,0,0,0-.86-.34,2.86,2.86,0,0,0-1.32.36l-.16-.36a3.51,3.51,0,0,1,1.5-.36,1.5,1.5,0,0,1,1.13.39,1.74,1.74,0,0,1,.37,1.23v3.06Zm-1.7-.3a1.61,1.61,0,0,0,1.17-.42,1.58,1.58,0,0,0,.42-1.17v-.45l-.8,0a3,3,0,0,0-1.38.3.88.88,0,0,0-.42.8.85.85,0,0,0,.27.67A1,1,0,0,0,123.12,16.92Z"/><path class="cls-1" d="M57.77,22.36a1.91,1.91,0,0,1,.86.18,1.73,1.73,0,0,1,.65.62h0c0-.35,0-.7,0-1V20.46h.41V27h-.27l-.11-.7h0a1.69,1.69,0,0,1-1.51.79,1.81,1.81,0,0,1-1.45-.59,2.59,2.59,0,0,1-.5-1.73,2.82,2.82,0,0,1,.5-1.82A1.73,1.73,0,0,1,57.77,22.36Zm0,.38a1.3,1.3,0,0,0-1.14.53,2.62,2.62,0,0,0-.37,1.53c0,1.3.5,2,1.51,2a1.41,1.41,0,0,0,1.15-.46,2.41,2.41,0,0,0,.36-1.49v-.07a2.53,2.53,0,0,0-.36-1.53A1.33,1.33,0,0,0,57.77,22.74Z"/><path class="cls-1" d="M63.09,27.13a2,2,0,0,1-1.56-.62A2.5,2.5,0,0,1,61,24.78,2.7,2.7,0,0,1,61.51,23,1.79,1.79,0,0,1,63,22.36a1.59,1.59,0,0,1,1.28.56,2.36,2.36,0,0,1,.47,1.54v.34H61.41a2.2,2.2,0,0,0,.44,1.45,1.56,1.56,0,0,0,1.24.5,3.4,3.4,0,0,0,.69-.06,3.36,3.36,0,0,0,.76-.24v.39a4.23,4.23,0,0,1-.72.23A4.07,4.07,0,0,1,63.09,27.13ZM63,22.73a1.37,1.37,0,0,0-1.06.44,2,2,0,0,0-.47,1.26h2.84a2,2,0,0,0-.35-1.25A1.14,1.14,0,0,0,63,22.73Z"/><path class="cls-1" d="M68.78,27h-.44V20.86h3.39v.4h-3v2.62h2.79v.4H68.78Z"/><path class="cls-1" d="M76.39,24.74a2.6,2.6,0,0,1-.55,1.76,1.87,1.87,0,0,1-1.5.63,2,2,0,0,1-1.07-.29,2,2,0,0,1-.71-.84,3.15,3.15,0,0,1-.24-1.26A2.53,2.53,0,0,1,72.87,23a2.08,2.08,0,0,1,3,0A2.63,2.63,0,0,1,76.39,24.74Zm-3.63,0a2.35,2.35,0,0,0,.42,1.48,1.41,1.41,0,0,0,1.17.53,1.42,1.42,0,0,0,1.18-.53A2.35,2.35,0,0,0,76,24.74a2.31,2.31,0,0,0-.42-1.48,1.6,1.6,0,0,0-2.36,0A2.37,2.37,0,0,0,72.76,24.74Z"/><path class="cls-1" d="M79.47,22.36a3.7,3.7,0,0,1,.63.06l-.08.4a2.46,2.46,0,0,0-.6-.07,1.13,1.13,0,0,0-1,.5,2,2,0,0,0-.38,1.26V27h-.42V22.45H78l0,.83h0a2,2,0,0,1,.6-.72A1.51,1.51,0,0,1,79.47,22.36Z"/><path class="cls-1" d="M86.77,27V24a1.46,1.46,0,0,0-.26-1,1,1,0,0,0-.8-.31,1.33,1.33,0,0,0-1,.39,1.85,1.85,0,0,0-.34,1.22V27H83.9V23.9c0-.77-.36-1.16-1.07-1.16a1.25,1.25,0,0,0-1,.42,2.19,2.19,0,0,0-.33,1.35V27H81V22.45h.35l.09.63h0a1.31,1.31,0,0,1,.54-.53,1.58,1.58,0,0,1,.78-.19,1.31,1.31,0,0,1,1.39.81h0a1.57,1.57,0,0,1,.6-.6,1.74,1.74,0,0,1,.86-.21,1.47,1.47,0,0,1,1.13.4A1.83,1.83,0,0,1,87.19,24v3Z"/><path class="cls-1" d="M91.47,27l-.11-.72h0a2.14,2.14,0,0,1-.72.62,1.79,1.79,0,0,1-.86.19,1.5,1.5,0,0,1-1-.35,1.24,1.24,0,0,1-.38-1,1.17,1.17,0,0,1,.56-1,3.06,3.06,0,0,1,1.62-.4l.88,0v-.31a1.58,1.58,0,0,0-.27-1,1,1,0,0,0-.86-.33,3,3,0,0,0-1.32.35l-.16-.36a3.49,3.49,0,0,1,1.5-.35,1.5,1.5,0,0,1,1.13.39A1.72,1.72,0,0,1,91.77,24V27Zm-1.7-.29a1.46,1.46,0,0,0,1.59-1.59V24.7l-.8,0a3,3,0,0,0-1.38.3.87.87,0,0,0-.42.8.85.85,0,0,0,.27.67A1,1,0,0,0,89.77,26.75Z"/><path class="cls-1" d="M95.1,27.13a2,2,0,0,1-1.55-.62A2.54,2.54,0,0,1,93,24.77,2.54,2.54,0,0,1,93.58,23a2,2,0,0,1,1.58-.63,3.33,3.33,0,0,1,1.14.2l-.11.38a3.15,3.15,0,0,0-1-.2,1.57,1.57,0,0,0-1.28.52,2.29,2.29,0,0,0-.43,1.5,2.23,2.23,0,0,0,.43,1.46,1.5,1.5,0,0,0,1.22.53,3,3,0,0,0,1.16-.23v.39A2.53,2.53,0,0,1,95.1,27.13Zm.45,1.14a.75.75,0,0,1-.28.64,1.33,1.33,0,0,1-.8.21,1.24,1.24,0,0,1-.4,0V28.7a1.27,1.27,0,0,0,.39.05.86.86,0,0,0,.5-.12.38.38,0,0,0,.18-.34c0-.27-.28-.44-.82-.51l.39-.74h.41l-.28.5C95.31,27.64,95.55,27.89,95.55,28.27Z"/><path class="cls-1" d="M100.17,27l-.11-.72h0a2.21,2.21,0,0,1-.71.62,1.86,1.86,0,0,1-.87.19,1.5,1.5,0,0,1-1-.35,1.24,1.24,0,0,1-.38-1,1.17,1.17,0,0,1,.56-1,3.11,3.11,0,0,1,1.62-.4l.88,0v-.31a1.58,1.58,0,0,0-.27-1,1,1,0,0,0-.86-.33,3,3,0,0,0-1.32.35l-.16-.36a3.49,3.49,0,0,1,1.5-.35,1.49,1.49,0,0,1,1.13.39,1.72,1.72,0,0,1,.38,1.23V27Zm-.61-5.25a.76.76,0,0,1-.32-.08,2.13,2.13,0,0,1-.43-.3c-.09-.08-.18-.14-.26-.2a.56.56,0,0,0-.27-.08.41.41,0,0,0-.31.14,1.11,1.11,0,0,0-.21.52h-.31a1.31,1.31,0,0,1,.27-.74.72.72,0,0,1,.58-.27.7.7,0,0,1,.37.11,3.31,3.31,0,0,1,.35.25l.28.21a.45.45,0,0,0,.26.09.42.42,0,0,0,.32-.15,1.11,1.11,0,0,0,.2-.51h.33a1.44,1.44,0,0,1-.3.75A.71.71,0,0,1,99.56,21.79Zm-1.08,5a1.46,1.46,0,0,0,1.58-1.59V24.7l-.8,0a3,3,0,0,0-1.38.3.86.86,0,0,0-.41.8.84.84,0,0,0,.26.67A1.09,1.09,0,0,0,98.48,26.75Z"/><path class="cls-1" d="M105.77,24.74a2.65,2.65,0,0,1-.55,1.76,1.87,1.87,0,0,1-1.5.63,2,2,0,0,1-1.07-.29,2,2,0,0,1-.71-.84,3.15,3.15,0,0,1-.24-1.26,2.58,2.58,0,0,1,.54-1.75,1.9,1.9,0,0,1,1.5-.63,1.86,1.86,0,0,1,1.49.63A2.63,2.63,0,0,1,105.77,24.74Zm-3.63,0a2.35,2.35,0,0,0,.42,1.48,1.41,1.41,0,0,0,1.17.53,1.42,1.42,0,0,0,1.18-.53,2.35,2.35,0,0,0,.42-1.48,2.31,2.31,0,0,0-.42-1.48,1.44,1.44,0,0,0-1.19-.52,1.41,1.41,0,0,0-1.17.52A2.37,2.37,0,0,0,102.14,24.74Z"/><path class="cls-1" d="M60.67,36.87h-.44v-3H56.62v3h-.43V30.69h.43v2.74h3.61V30.69h.44Z"/><path class="cls-1" d="M62.67,32.27v3a1.43,1.43,0,0,0,.3,1,1.16,1.16,0,0,0,.9.31,1.61,1.61,0,0,0,1.21-.41,1.94,1.94,0,0,0,.39-1.35V32.27h.41v4.6h-.36l-.07-.64h0a1.72,1.72,0,0,1-1.59.72c-1,0-1.57-.56-1.57-1.68v-3Z"/><path class="cls-1" d="M73.16,36.87v-3a1.55,1.55,0,0,0-.26-1,1,1,0,0,0-.8-.31,1.32,1.32,0,0,0-1,.39,1.88,1.88,0,0,0-.34,1.23v2.69h-.42V33.73c0-.78-.36-1.17-1.07-1.17a1.25,1.25,0,0,0-1,.42,2.22,2.22,0,0,0-.33,1.35v2.54h-.42v-4.6h.35l.08.63h0a1.38,1.38,0,0,1,.54-.53,1.69,1.69,0,0,1,.77-.19,1.33,1.33,0,0,1,1.4.82h0a1.67,1.67,0,0,1,.6-.61,1.74,1.74,0,0,1,.86-.21,1.47,1.47,0,0,1,1.13.41,1.8,1.8,0,0,1,.38,1.27v3Z"/><path class="cls-1" d="M77.85,36.87l-.1-.73h0a2.16,2.16,0,0,1-.72.63,1.91,1.91,0,0,1-.86.18,1.49,1.49,0,0,1-1-.34,1.32,1.32,0,0,1,.18-2,3,3,0,0,1,1.62-.39l.88,0v-.3a1.54,1.54,0,0,0-.27-1,1,1,0,0,0-.86-.33,2.81,2.81,0,0,0-1.32.35l-.16-.36a3.47,3.47,0,0,1,1.5-.36,1.47,1.47,0,0,1,1.13.4,1.71,1.71,0,0,1,.37,1.22v3.06Zm-1.69-.3a1.57,1.57,0,0,0,1.16-.42A1.55,1.55,0,0,0,77.75,35v-.45l-.8,0a3.11,3.11,0,0,0-1.38.31.86.86,0,0,0-.42.79.85.85,0,0,0,.27.67A1,1,0,0,0,76.16,36.57Z"/><path class="cls-1" d="M82.86,36.87v-3a1.49,1.49,0,0,0-.29-1,1.2,1.2,0,0,0-.91-.32,1.57,1.57,0,0,0-1.21.42,2,2,0,0,0-.38,1.35v2.54h-.42v-4.6H80l.08.63h0a1.73,1.73,0,0,1,1.6-.72q1.56,0,1.56,1.68v3Z"/><path class="cls-1" d="M87.55,36.87l-.11-.73h0a2.14,2.14,0,0,1-.71.63,2,2,0,0,1-.87.18,1.49,1.49,0,0,1-1-.34,1.24,1.24,0,0,1-.38-1,1.2,1.2,0,0,1,.56-1,3,3,0,0,1,1.63-.39l.87,0v-.3a1.6,1.6,0,0,0-.26-1,1.05,1.05,0,0,0-.86-.33,2.84,2.84,0,0,0-1.33.35l-.15-.36a3.43,3.43,0,0,1,1.49-.36,1.48,1.48,0,0,1,1.14.4,1.76,1.76,0,0,1,.37,1.22v3.06Zm-1.69-.3A1.46,1.46,0,0,0,87.44,35v-.45l-.8,0a3.19,3.19,0,0,0-1.38.31,1,1,0,0,0-.15,1.46A1.09,1.09,0,0,0,85.86,36.57Z"/><path class="cls-1" d="M93.45,37a2,2,0,0,1-1.56-.61,2.52,2.52,0,0,1-.56-1.73,2.68,2.68,0,0,1,.54-1.76,1.77,1.77,0,0,1,1.46-.67,1.57,1.57,0,0,1,1.28.57,2.36,2.36,0,0,1,.47,1.54v.34H91.77a2.17,2.17,0,0,0,.44,1.44,1.53,1.53,0,0,0,1.24.5,4.44,4.44,0,0,0,.69,0,4.54,4.54,0,0,0,.76-.24v.38a3.49,3.49,0,0,1-.72.23A4.07,4.07,0,0,1,93.45,37Zm-.12-4.39a1.36,1.36,0,0,0-1.06.43,2,2,0,0,0-.47,1.27h2.84A2,2,0,0,0,94.29,33,1.14,1.14,0,0,0,93.33,32.56Z"/><path class="cls-1" d="M102.09,36.87v-3a1.55,1.55,0,0,0-.26-1,1,1,0,0,0-.8-.31,1.33,1.33,0,0,0-1,.39,1.88,1.88,0,0,0-.34,1.23v2.69h-.42V33.73c0-.78-.36-1.17-1.07-1.17A1.25,1.25,0,0,0,97.1,33a2.22,2.22,0,0,0-.33,1.35v2.54h-.42v-4.6h.35l.09.63h0a1.38,1.38,0,0,1,.54-.53,1.7,1.7,0,0,1,.78-.19,1.32,1.32,0,0,1,1.39.82h0a1.67,1.67,0,0,1,.6-.61,1.74,1.74,0,0,1,.86-.21,1.47,1.47,0,0,1,1.13.41,1.8,1.8,0,0,1,.38,1.27v3Z"/><path class="cls-1" d="M109.76,35.27a1.48,1.48,0,0,1-.57,1.23,2.36,2.36,0,0,1-1.51.45,4.71,4.71,0,0,1-1.74-.25v-.43a4.42,4.42,0,0,0,1.71.29,1.93,1.93,0,0,0,1.21-.35,1.14,1.14,0,0,0,.44-.92,1,1,0,0,0-.15-.58,1.45,1.45,0,0,0-.48-.42,5.9,5.9,0,0,0-1-.41,3.44,3.44,0,0,1-1.31-.7,1.42,1.42,0,0,1-.36-1,1.37,1.37,0,0,1,.54-1.13,2.13,2.13,0,0,1,1.4-.44,4.11,4.11,0,0,1,1.64.33l-.16.37A3.87,3.87,0,0,0,108,31a1.67,1.67,0,0,0-1.09.32,1,1,0,0,0-.41.86,1.06,1.06,0,0,0,.13.56,1.12,1.12,0,0,0,.41.4,6.38,6.38,0,0,0,1,.42,4.7,4.7,0,0,1,1.08.48,1.61,1.61,0,0,1,.54.53A1.47,1.47,0,0,1,109.76,35.27Z"/><path class="cls-1" d="M113.75,36.87l-.1-.73h0a2,2,0,0,1-.71.63A1.91,1.91,0,0,1,112,37a1.54,1.54,0,0,1-1.06-.34,1.24,1.24,0,0,1-.37-1,1.18,1.18,0,0,1,.56-1,3,3,0,0,1,1.62-.39l.88,0v-.3a1.54,1.54,0,0,0-.27-1,1,1,0,0,0-.86-.33,2.78,2.78,0,0,0-1.32.35l-.16-.36a3.47,3.47,0,0,1,1.5-.36,1.47,1.47,0,0,1,1.13.4,1.71,1.71,0,0,1,.37,1.22v3.06Zm-1.69-.3a1.57,1.57,0,0,0,1.16-.42,1.55,1.55,0,0,0,.43-1.17v-.45l-.8,0a3.2,3.2,0,0,0-1.39.31.87.87,0,0,0-.41.79.85.85,0,0,0,.27.67A1,1,0,0,0,112.06,36.57Z"/><path class="cls-1" d="M115.91,32.27v3a1.43,1.43,0,0,0,.3,1,1.16,1.16,0,0,0,.9.31,1.61,1.61,0,0,0,1.21-.41,1.94,1.94,0,0,0,.39-1.35V32.27h.41v4.6h-.36l-.07-.64h0a1.72,1.72,0,0,1-1.59.72c-1,0-1.57-.56-1.57-1.68v-3Zm1-.72c.21-.22.41-.46.62-.72a5.45,5.45,0,0,0,.41-.6h.59v.08a5,5,0,0,1-.51.58c-.25.24-.52.49-.81.73h-.3Z"/><path class="cls-1" d="M122.34,32.18a1.79,1.79,0,0,1,.86.19,1.68,1.68,0,0,1,.66.62h0c0-.36,0-.71,0-1.05V30.29h.41v6.58H124l-.11-.7h0a1.72,1.72,0,0,1-1.51.78,1.77,1.77,0,0,1-1.45-.59,2.56,2.56,0,0,1-.51-1.72,2.91,2.91,0,0,1,.5-1.83A1.74,1.74,0,0,1,122.34,32.18Zm0,.38a1.3,1.3,0,0,0-1.13.53,2.67,2.67,0,0,0-.38,1.54c0,1.3.51,1.95,1.52,1.95a1.37,1.37,0,0,0,1.14-.45,2.41,2.41,0,0,0,.37-1.49v-.08A2.53,2.53,0,0,0,123.5,33,1.38,1.38,0,0,0,122.34,32.56Z"/><path class="cls-1" d="M127.67,37a2,2,0,0,1-1.56-.61,2.47,2.47,0,0,1-.56-1.73,2.68,2.68,0,0,1,.54-1.76,1.77,1.77,0,0,1,1.46-.67,1.57,1.57,0,0,1,1.28.57,2.36,2.36,0,0,1,.47,1.54v.34H126a2.12,2.12,0,0,0,.44,1.44,1.53,1.53,0,0,0,1.24.5,4.65,4.65,0,0,0,.69,0,4.84,4.84,0,0,0,.76-.24v.38a3.49,3.49,0,0,1-.72.23A4.15,4.15,0,0,1,127.67,37Zm-.12-4.39a1.38,1.38,0,0,0-1.07.43,2.1,2.1,0,0,0-.47,1.27h2.84a2,2,0,0,0-.34-1.25A1.14,1.14,0,0,0,127.55,32.56Z"/><rect class="cls-1" x="55.99" y="7.61" width="78.2" height="0.33"/><rect class="cls-1" x="55.99" y="40.51" width="78.2" height="0.33"/><path class="cls-1" d="M25.22,22.51c-.27-.27-.53-.55-.78-.83-.24.28-.5.56-.78.83l.78,0Z"/><path class="cls-1" d="M33.43,11.86a10.81,10.81,0,0,1,2.23-.63h.05A11.31,11.31,0,0,0,34.1,5.45a9.37,9.37,0,0,0-2.7.09,9,9,0,0,1,2.05,5.73C33.45,11.47,33.44,11.66,33.43,11.86Z"/><path class="cls-1" d="M29.31,18.84a9.11,9.11,0,0,0-.68,2.89,11.27,11.27,0,0,0,6.84-8.15,8.91,8.91,0,0,0-2.72,1.16A9,9,0,0,1,29.31,18.84Z"/><path class="cls-1" d="M24.44,2.26a9,9,0,0,1,4.94,1.48,11.42,11.42,0,0,1,2.88-.58,11.26,11.26,0,0,0-15.64,0,11.33,11.33,0,0,1,2.88.58A9,9,0,0,1,24.44,2.26Z"/><path class="cls-1" d="M16.13,14.74a8.8,8.8,0,0,0-2.72-1.16,11.31,11.31,0,0,0,6.85,8.15,9.12,9.12,0,0,0-.69-2.89A9.07,9.07,0,0,1,16.13,14.74Z"/><path class="cls-1" d="M13.23,11.23a11.17,11.17,0,0,1,2.23.63c0-.2,0-.39,0-.59a9,9,0,0,1,2-5.73,9.4,9.4,0,0,0-2.7-.09,11.22,11.22,0,0,0-1.61,5.77Z"/><path class="cls-1" d="M22.8,20.12,22.3,20c0,.19.07.37.1.56Z"/><path class="cls-1" d="M26.59,20l-.5.11.4.45C26.52,20.38,26.55,20.2,26.59,20Z"/><path class="cls-1" d="M22.74,8.61c.13.15.25.31.37.47a11.46,11.46,0,0,1,1.3-1.93l0,0A11.23,11.23,0,0,0,19.5,3.74a9.07,9.07,0,0,0-2,1.8A9,9,0,0,1,22.74,8.61Z"/><path class="cls-1" d="M10.06,7.5a8.89,8.89,0,0,1,4.73-2,11.58,11.58,0,0,1,1.83-2.29,11.27,11.27,0,0,0-12,10.05,11.29,11.29,0,0,1,2.58-1.4A9,9,0,0,1,10.06,7.5Z"/><path class="cls-1" d="M24.44,17.07a9,9,0,0,0,1.34,2.65,11.3,11.3,0,0,0,0-10.64,9.09,9.09,0,0,0-1.34,2.63A9,9,0,0,1,24.44,17.07Z"/><path class="cls-1" d="M23.11,19.72c-.1.14-.21.27-.31.4a5.58,5.58,0,0,0,.59.09C23.29,20.05,23.2,19.88,23.11,19.72Z"/><path class="cls-1" d="M20.27,22.24l-.45.24a4.94,4.94,0,0,1,.44.36C20.27,22.64,20.28,22.44,20.27,22.24Z"/><path class="cls-1" d="M23.66,22.51c-.38,0-.75-.08-1.12-.14,0,.38,0,.76-.07,1.14.21-.16.42-.31.62-.48S23.48,22.68,23.66,22.51Z"/><path class="cls-1" d="M7.22,21.57a11.34,11.34,0,0,1,2.12-.94l-.4-.44a9,9,0,0,1-2.1-5.71,9.09,9.09,0,0,0-2.13,1.67A11.26,11.26,0,0,0,7.18,21.6Z"/><path class="cls-1" d="M17,23.33a9,9,0,0,1-5.27-.93,8.89,8.89,0,0,0-2.83.86A11.28,11.28,0,0,0,19.36,25.1,8.89,8.89,0,0,0,17,23.33Z"/><path class="cls-1" d="M20.26,21.73c0,.17,0,.34,0,.51a5.58,5.58,0,0,0,.52-.32Z"/><path class="cls-1" d="M2.4,20.76a9,9,0,0,1,2.31-4.61,11.58,11.58,0,0,1-.07-2.94,11.24,11.24,0,0,0-2.71,15.4A10.84,10.84,0,0,1,3,25.88,8.87,8.87,0,0,1,2.4,20.76Z"/><path class="cls-1" d="M22.47,23.51c-.31.22-.63.43-.95.62a10.25,10.25,0,0,1,.68.91c.06-.25.12-.5.17-.76S22.44,23.76,22.47,23.51Z"/><path class="cls-1" d="M17.88,28.43a9,9,0,0,1-4.64,2.68,9.08,9.08,0,0,0-1.61,2.47,11.26,11.26,0,0,0,9.21-5.32A8.89,8.89,0,0,0,17.88,28.43Z"/><path class="cls-1" d="M19.57,18.84A9.09,9.09,0,0,0,22.3,20a11.3,11.3,0,0,0-6.84-8.15,9,9,0,0,0,.67,2.88A9,9,0,0,1,19.57,18.84Z"/><path class="cls-1" d="M9.28,33.36a11.53,11.53,0,0,1,1-2.09,5.77,5.77,0,0,1-.58-.08,9,9,0,0,1-5.29-3,9.2,9.2,0,0,0-.55,2.65,11.28,11.28,0,0,0,5.39,2.59Z"/><path class="cls-1" d="M12.83,13.45l.58.13a11.75,11.75,0,0,1-.23-2.31v0a11.18,11.18,0,0,0-6,.59,8.93,8.93,0,0,0-.38,2.67A9,9,0,0,1,12.83,13.45Z"/><path class="cls-1" d="M20.08,26c-.12-.16-.25-.32-.38-.47-.06.16-.12.32-.19.47Z"/><path class="cls-1" d="M21.63,21.3a8.25,8.25,0,0,1-.84.62,10,10,0,0,0,1.75.45,11.92,11.92,0,0,0-.14-1.8A8.93,8.93,0,0,1,21.63,21.3Z"/><path class="cls-1" d="M21.85,31.76a9.09,9.09,0,0,1-1.83,5,9,9,0,0,0,.35,2.93,11.27,11.27,0,0,0,3.64-10A9.08,9.08,0,0,0,21.85,31.76Z"/><path class="cls-1" d="M21.35,28.33c.06.16.11.32.16.49l.43-.37Z"/><path class="cls-1" d="M11.71,22.4a9,9,0,0,1,5.27.93,9,9,0,0,0,2.84-.85A11.28,11.28,0,0,0,9.34,20.63,9.17,9.17,0,0,0,11.71,22.4Z"/><path class="cls-1" d="M19.36,25.1c.12.12.23.25.34.38.07-.19.14-.38.19-.57Z"/><path class="cls-1" d="M22.2,25a10.51,10.51,0,0,1-.33,1.09,11.13,11.13,0,0,1,1.11.26q-.16-.34-.36-.69T22.2,25Z"/><path class="cls-1" d="M8.35,23.53c.18-.1.35-.19.53-.27a11.6,11.6,0,0,1-1.67-1.62l0,0A11.21,11.21,0,0,0,3,25.88a9.15,9.15,0,0,0,1.42,2.29A9,9,0,0,1,8.35,23.53Z"/><path class="cls-1" d="M18.43,41.07a11.61,11.61,0,0,1-.57-2.25c-.16.11-.33.21-.5.31a9,9,0,0,1-6,1.09,9.09,9.09,0,0,0,1.27,2.38,11.16,11.16,0,0,0,5.8-1.49S18.44,41.08,18.43,41.07Z"/><path class="cls-1" d="M5.06,35.84a9,9,0,0,1-1.19-5,10.73,10.73,0,0,1-1.94-2.21A11.25,11.25,0,0,0,9.75,42.16a11.39,11.39,0,0,1-.94-2.78A9,9,0,0,1,5.06,35.84Z"/><path class="cls-1" d="M20.26,22.84a9.94,9.94,0,0,1-.12,1.05,8.44,8.44,0,0,1-.25,1,10.57,10.57,0,0,0,1.63-.78A11,11,0,0,0,20.26,22.84Z"/><path class="cls-1" d="M20.84,28.26l.51.07c-.07-.19-.14-.37-.22-.56C21,27.94,20.94,28.1,20.84,28.26Z"/><path class="cls-1" d="M13.24,31.11a9,9,0,0,1,4.64-2.68A8.89,8.89,0,0,0,19.51,26a11.3,11.3,0,0,0-9.22,5.32A9.06,9.06,0,0,0,13.24,31.11Z"/><path class="cls-1" d="M30.44,41.11l-.05,0a11.71,11.71,0,0,1-1.88-1.36,5.22,5.22,0,0,1-.18.56A8.91,8.91,0,0,1,24.44,45,9.11,9.11,0,0,0,27,46,11.27,11.27,0,0,0,30.44,41.11Z"/><path class="cls-1" d="M11.4,34.13c.07-.18.15-.37.23-.55a10.75,10.75,0,0,1-2.32-.16H9.26a11.23,11.23,0,0,0-.45,6,9.22,9.22,0,0,0,2.57.84A9,9,0,0,1,11.4,34.13Z"/><path class="cls-1" d="M23,26.39a10.53,10.53,0,0,1,.45,1c.32-.18.66-.35,1-.51-.23-.1-.47-.2-.72-.29S23.23,26.46,23,26.39Z"/><path class="cls-1" d="M16.79,45.68a9,9,0,0,1-4.14-3.08,11.31,11.31,0,0,1-2.9-.44,11.26,11.26,0,0,0,14.69,5.35A11.26,11.26,0,0,1,21.94,46,9,9,0,0,1,16.79,45.68Z"/><path class="cls-1" d="M24.44,29.46a3.87,3.87,0,0,1,.43.27c0-.19.06-.37.1-.56Z"/><path class="cls-1" d="M27,31.76a9.07,9.07,0,0,1,1.84,5,9,9,0,0,0,2.15,2,11.28,11.28,0,0,0-3.64-10A9.22,9.22,0,0,0,27,31.76Z"/><path class="cls-1" d="M20.66,26.83a9.15,9.15,0,0,1,.47.94,10.54,10.54,0,0,0,.74-1.64A11,11,0,0,0,20.08,26C20.28,26.23,20.48,26.52,20.66,26.83Z"/><path class="cls-1" d="M24.44,26.92q.52.24,1,.51a10.53,10.53,0,0,1,.45-1q-.37.11-.75.24Z"/><path class="cls-1" d="M27.54,28.33l.5-.07c-.1-.16-.19-.32-.28-.49C27.68,28,27.6,28.14,27.54,28.33Z"/><path class="cls-1" d="M20,36.8a9.06,9.06,0,0,1,1.83-5,8.94,8.94,0,0,0-.34-2.94,11.28,11.28,0,0,0-3.65,10A9.07,9.07,0,0,0,20,36.8Z"/><path class="cls-1" d="M24,29.73a5.08,5.08,0,0,1,.43-.27c-.17-.1-.34-.2-.52-.29Z"/><path class="cls-1" d="M20.55,40.29l-.18-.56a11.28,11.28,0,0,1-1.88,1.36l0,0A11.18,11.18,0,0,0,21.94,46a9.05,9.05,0,0,0,2.5-1A9,9,0,0,1,20.55,40.29Z"/><path class="cls-1" d="M36.24,42.6A9,9,0,0,1,27,46a11.32,11.32,0,0,1-2.51,1.53,11.27,11.27,0,0,0,14.7-5.35A11.38,11.38,0,0,1,36.24,42.6Z"/><path class="cls-1" d="M39.62,33.41h0a10.66,10.66,0,0,1-2.31.16c.08.18.15.37.22.55a9,9,0,0,1,0,6.09,9.33,9.33,0,0,0,2.57-.84A11.24,11.24,0,0,0,39.62,33.41Z"/><path class="cls-1" d="M29.37,26A8.89,8.89,0,0,0,31,28.43a9,9,0,0,1,4.64,2.68,9.07,9.07,0,0,0,3,.16A11.28,11.28,0,0,0,29.37,26Z"/><path class="cls-1" d="M23,28.75a9.16,9.16,0,0,1,1,.42,12.21,12.21,0,0,0-.49-1.74,11.19,11.19,0,0,0-1.49,1A9.66,9.66,0,0,1,23,28.75Z"/><path class="cls-1" d="M37.18,22.4a9.12,9.12,0,0,0,2.36-1.77,11.29,11.29,0,0,0-10.48,1.85,9.11,9.11,0,0,0,2.84.85A9.07,9.07,0,0,1,37.18,22.4Z"/><path class="cls-1" d="M31.52,39.13l-.5-.31a11.57,11.57,0,0,1-.56,2.25.08.08,0,0,0,0,0,11.16,11.16,0,0,0,5.8,1.49,9.09,9.09,0,0,0,1.27-2.38A9,9,0,0,1,31.52,39.13Z"/><path class="cls-1" d="M45,30.82a9,9,0,0,1-1.19,5,9.1,9.1,0,0,1-3.75,3.54,11.39,11.39,0,0,1-.94,2.78A11.25,11.25,0,0,0,47,28.61,11.35,11.35,0,0,1,45,30.82Z"/><path class="cls-1" d="M29.18,25.48l.34-.38L29,24.91C29.05,25.1,29.11,25.29,29.18,25.48Z"/><path class="cls-1" d="M41.7,21.6l0,0A12.07,12.07,0,0,1,40,23.26c.17.08.35.17.52.27a9,9,0,0,1,3.93,4.64,8.9,8.9,0,0,0,1.43-2.29A11.24,11.24,0,0,0,41.7,21.6Z"/><path class="cls-1" d="M26.27,25.7q-.19.35-.36.69a10.34,10.34,0,0,1,1.1-.26c-.12-.36-.23-.72-.33-1.09C26.54,25.25,26.4,25.47,26.27,25.7Z"/><path class="cls-1" d="M27.38,28.82c.05-.17.1-.33.16-.49a5.6,5.6,0,0,0-.59.12Z"/><path class="cls-1" d="M28.87,36.8a9,9,0,0,1-1.84-5,8.9,8.9,0,0,0-2.16-2,11.32,11.32,0,0,0,3.64,10A9,9,0,0,0,28.87,36.8Z"/><path class="cls-1" d="M25.94,28.75a9,9,0,0,1,1-.3,11.87,11.87,0,0,0-1.49-1A11,11,0,0,0,25,29.17,7.67,7.67,0,0,1,25.94,28.75Z"/><path class="cls-1" d="M44.17,16.15a8.93,8.93,0,0,1,2.32,4.61,9,9,0,0,1-.6,5.12A11.65,11.65,0,0,1,47,28.61a11.26,11.26,0,0,0-2.72-15.4A11.14,11.14,0,0,1,44.17,16.15Z"/><path class="cls-1" d="M39.18,31.19c-.2,0-.39.06-.59.08a11.56,11.56,0,0,1,1,2.09s0,0,0,0A11.27,11.27,0,0,0,45,30.82a8.89,8.89,0,0,0-.56-2.65A9,9,0,0,1,39.18,31.19Z"/><path class="cls-1" d="M29.37,26c-.06-.15-.13-.31-.19-.47-.13.15-.25.31-.37.47Z"/><path class="cls-1" d="M32.75,14.74a9,9,0,0,0,.68-2.88A11.28,11.28,0,0,0,26.59,20a8.93,8.93,0,0,0,2.72-1.17A9,9,0,0,1,32.75,14.74Z"/><path class="cls-1" d="M31,28.43a8.88,8.88,0,0,0-3-.17,11.29,11.29,0,0,0,9.22,5.32,8.88,8.88,0,0,0-1.62-2.47A9,9,0,0,1,31,28.43Z"/><path class="cls-1" d="M35.71,11.22v0a11,11,0,0,1-.24,2.31l.58-.13a9,9,0,0,1,6,1,9.27,9.27,0,0,0-.38-2.67A11.19,11.19,0,0,0,35.71,11.22Z"/><path class="cls-1" d="M26.68,25c.22-.32.45-.62.69-.91-.33-.19-.65-.4-1-.62,0,.25.06.51.11.77S26.62,24.79,26.68,25Z"/><path class="cls-1" d="M28.61,22.24c0-.17,0-.34,0-.51l-.53.19C28.27,22,28.44,22.14,28.61,22.24Z"/><path class="cls-1" d="M27.76,27.77a7.49,7.49,0,0,1,.47-.94,8.92,8.92,0,0,1,.58-.88,11,11,0,0,0-1.8.18A11.61,11.61,0,0,0,27.76,27.77Z"/><path class="cls-1" d="M26.41,23.51a10.88,10.88,0,0,1-.06-1.14c-.37.06-.75.11-1.13.14l.58.52C26,23.2,26.21,23.35,26.41,23.51Z"/><path class="cls-1" d="M39.54,20.63a10.8,10.8,0,0,1,2.12.94l0,0a11.17,11.17,0,0,0,2.47-5.45,9.25,9.25,0,0,0-2.12-1.67,9,9,0,0,1-2.11,5.71Z"/><path class="cls-1" d="M28.63,22.84a4.82,4.82,0,0,1,.43-.36l-.45-.24C28.61,22.44,28.61,22.64,28.63,22.84Z"/><path class="cls-1" d="M24.44,7.12l0,0a12.09,12.09,0,0,1,1.3,1.93,5.32,5.32,0,0,1,.36-.47A9,9,0,0,1,31.4,5.54a9.12,9.12,0,0,0-2-1.8A11.23,11.23,0,0,0,24.44,7.12Z"/><path class="cls-1" d="M31.9,23.33a9.05,9.05,0,0,0-2.38,1.77A11.31,11.31,0,0,0,40,23.26a8.89,8.89,0,0,0-2.83-.86A9,9,0,0,1,31.9,23.33Z"/><path class="cls-1" d="M26.09,20.12c-.11-.13-.21-.26-.31-.4l-.28.49C25.7,20.19,25.89,20.16,26.09,20.12Z"/><path class="cls-1" d="M24.44,11.71a9.06,9.06,0,0,0-1.33-2.63,11.27,11.27,0,0,0,0,10.64,8.92,8.92,0,0,0,1.33-2.65A9.15,9.15,0,0,1,24.44,11.71Z"/><path class="cls-1" d="M34.1,5.45a9,9,0,0,1,7.57,6.36,11.44,11.44,0,0,1,2.57,1.4,11.27,11.27,0,0,0-12-10A11.28,11.28,0,0,1,34.1,5.45Z"/><path class="cls-1" d="M24.44,20.27a9.24,9.24,0,0,1-1.05-.06,12.33,12.33,0,0,0,1.05,1.47,11.37,11.37,0,0,0,1.06-1.47A9.28,9.28,0,0,1,24.44,20.27Z"/><path class="cls-1" d="M27.25,21.3a8.79,8.79,0,0,1-.76-.73,10.75,10.75,0,0,0-.14,1.8,10.21,10.21,0,0,0,1.75-.45A9.66,9.66,0,0,1,27.25,21.3Z"/><path class="cls-1" d="M28.75,23.89a7.86,7.86,0,0,1-.12-1.05,10.25,10.25,0,0,0-1.26,1.29,10.47,10.47,0,0,0,1.62.78A8.42,8.42,0,0,1,28.75,23.89Z"/></g></g></svg>