<svg xmlns="http://www.w3.org/2000/svg" viewBox="0 0 91.96 48.49"><defs><style>.cls-1,.cls-2{fill:#fff;}.cls-1{fill-rule:evenodd;}</style></defs><title>susAsset 1</title><g id="Layer_2" data-name="Layer 2"><g id="Layer_1-2" data-name="Layer 1"><polygon class="cls-1" points="60.68 34.14 74.63 34.14 76.17 48.49 61.09 48.49 60.68 34.14"/><rect class="cls-2" x="61.09" width="15.08" height="14.6"/><polygon class="cls-1" points="75.76 33.86 77.3 33.86 77.3 46.45 75.76 33.86"/><polygon class="cls-1" points="45.99 16.49 59.11 17.52 73.92 32.98 45.99 31.52 45.99 16.49"/><polygon class="cls-1" points="45.99 15.76 91.96 15.76 91.96 31.53 74.58 31.53 60.09 16.64 45.99 15.76"/><path class="cls-1" d="M34.78,25.87c-2-.68-4.87-1.71-4.77-5.21s3.11-4.77,5.48-4.77h5v2.69H37.43c-2.62,0-2.23.7-2.3,1.25-.13.86,2,1.24,3.57,1.94A5.17,5.17,0,0,1,41.56,27c-.07,2.24-1.81,4.9-5.65,4.9H30.18V29.21h4.14c2.76,0,2.89-2.56.46-3.34"/><path class="cls-1" d="M4.78,25.87c-2-.68-4.88-1.71-4.78-5.21s3.13-4.77,5.48-4.77h5v2.69H7.44c-2.62,0-2.25.7-2.32,1.25-.1.86,2,1.24,3.57,1.94A5.19,5.19,0,0,1,11.58,27c-.1,2.24-1.81,4.9-5.68,4.9H.2V29.21H4.31c2.77,0,2.91-2.56.47-3.34"/><path class="cls-1" d="M26.17,15.89V26.22a6.11,6.11,0,0,1-6.32,6.43,6.09,6.09,0,0,1-6.29-6.43V15.89H18.8V27.55a2.15,2.15,0,0,0,2.25,2.29,2.22,2.22,0,0,0,2.23-2.29V15.89Z"/></g></g></svg>