<svg xmlns="http://www.w3.org/2000/svg" viewBox="0 0 144.43 64.11"><defs><style>.cls-1{fill:#fff;}</style></defs><title>susAsset 4min</title><g id="Layer_2" data-name="Layer 2"><g id="Layer_1-2" data-name="Layer 1"><path class="cls-1" d="M59,.17V27.49H73c3.32,0,5.49-.57,7.22-2A7.42,7.42,0,0,0,83,19.33a6.45,6.45,0,0,0-4.43-6.61l-.45-.16A5.92,5.92,0,0,0,81.7,7,6.35,6.35,0,0,0,78.17,1.2a13.38,13.38,0,0,0-6.07-1Zm7.14,5.42H71c2.58,0,3.73.82,3.73,2.71,0,1.68-1.27,2.62-3.57,2.58H66.12Zm0,10h5.45c2.91,0,4.23,1,4.23,3.16s-1.28,3.11-4.06,3.11H66.12ZM23.83.17H16.7V16.91c0,3.81-1.4,5.41-4.64,5.41-3.44,0-4.92-1.64-4.92-5.45V.17H0V16.38c0,3.32.33,5.12,1.27,6.85,1.81,3.32,5.33,4.92,10.67,4.92,4,0,6.81-.82,8.86-2.71a9.7,9.7,0,0,0,2.58-4.39,17.1,17.1,0,0,0,.45-4.63Z"/><path class="cls-1" d="M39.68,16.77l5.26-1.23,1.06,1-.59,1.87ZM44.24,2.38s.82,7.72.65,8.49c0,0-.18,1.86,2.63,8.6s1,2.1,3.33,7.43l1.06,1.52L53,20c.18-3,.12-8,.12-8a82.17,82.17,0,0,0,.7-9A25.09,25.09,0,0,1,53.72.1c-8.6-.35-10.53.35-10.53.35C36.87,0,29.79,0,29.79,0a17.16,17.16,0,0,0-.58,4.33,21.66,21.66,0,0,1,.05,3.57c-.11,1.81.29,7.08.29,7.08l-.4-.12c.29,5-.12,12.58-.12,12.58h5.73c.3-.35,6-14.16,6-14.16A60.19,60.19,0,0,0,44.24,2.38Z"/><path class="cls-1" d="M9.42,43.57c0,2.7-1.59,4-4.25,4s-4.25-1.3-4.25-4v-6.2H3.11v6.2c0,1.09.28,2.16,2.06,2.16,1.56,0,2.06-.68,2.06-2.16v-6.2H9.42Z"/><path class="cls-1" d="M11.1,40.13H13v1h0a2.59,2.59,0,0,1,2.21-1.2c2.11,0,2.64,1.18,2.64,3v4.44h-2V43.27c0-1.19-.35-1.78-1.28-1.78s-1.53.6-1.53,2.07v3.78h-2Z"/><path class="cls-1" d="M21.55,39h-2V37.37h2Zm-2,1.12h2v7.21h-2Z"/><path class="cls-1" d="M27.18,47.34H25L22.5,40.13h2.08l1.52,4.92h0l1.52-4.92h2Z"/><path class="cls-1" d="M31.8,44.21c.05,1.26.67,1.83,1.77,1.83a1.64,1.64,0,0,0,1.56-.93h1.75a3.26,3.26,0,0,1-3.38,2.43,3.53,3.53,0,0,1-3.69-3.8,3.63,3.63,0,0,1,3.69-3.81c2.46,0,3.64,2.06,3.5,4.28ZM35,43c-.18-1-.61-1.54-1.58-1.54A1.56,1.56,0,0,0,31.8,43Z"/><path class="cls-1" d="M38.17,40.13h1.89v1.33h0a2.55,2.55,0,0,1,2.3-1.53,1.49,1.49,0,0,1,.43.07v1.84a3.71,3.71,0,0,0-.71-.07c-1.45,0-2,1-2,2.32v3.25h-2Z"/><path class="cls-1" d="M45.21,45c0,.86.74,1.21,1.52,1.21.57,0,1.3-.22,1.3-.92s-.82-.81-2.25-1.12c-1.14-.25-2.29-.65-2.29-1.92,0-1.85,1.59-2.32,3.14-2.32s3,.53,3.18,2.3H47.93c-.06-.77-.64-1-1.35-1-.45,0-1.11.09-1.11.67s1.12.81,2.25,1.08S50,43.68,50,45c0,1.9-1.65,2.52-3.29,2.52s-3.31-.63-3.4-2.54Z"/><path class="cls-1" d="M53.28,39h-2V37.37h2Zm-2,1.12h2v7.21h-2Z"/><path class="cls-1" d="M57.63,40.13h1.45v1.32H57.63V45c0,.67.17.84.84.84a3.14,3.14,0,0,0,.61,0v1.54a7.09,7.09,0,0,1-1.16.07c-1.21,0-2.27-.27-2.27-1.71V41.45h-1.2V40.13h1.2V38h2Z"/><path class="cls-1" d="M60.3,42.34c.11-1.85,1.77-2.41,3.39-2.41,1.44,0,3.17.32,3.17,2v3.75a3.73,3.73,0,0,0,.25,1.61h-2a2.72,2.72,0,0,1-.14-.7,3.3,3.3,0,0,1-2.43.9c-1.37,0-2.46-.69-2.46-2.17s1.23-2,2.46-2.19,2.34-.14,2.34-1-.58-1-1.28-1-1.24.31-1.31,1.09Zm4.57,1.47a3.93,3.93,0,0,1-1.64.42c-.62.12-1.18.33-1.18,1.06s.58.92,1.22.92a1.47,1.47,0,0,0,1.6-1.66Z"/><path class="cls-1" d="M70.83,40.13h1.46v1.32H70.83V45c0,.67.17.84.84.84a3.24,3.24,0,0,0,.62,0v1.54a7.16,7.16,0,0,1-1.16.07c-1.22,0-2.28-.27-2.28-1.71V41.45h-1.2V40.13h1.2V38h2Z"/><path class="cls-1" d="M80,37.37h2.24l3.73,10H83.68l-.76-2.22H79.2l-.79,2.22H76.19Zm-.21,6.12h2.58l-1.26-3.66h0Z"/><path class="cls-1" d="M93.31,47.34H91.42v-1h0a2.57,2.57,0,0,1-2.21,1.2c-2.1,0-2.63-1.19-2.63-3V40.13h2V44.2c0,1.19.35,1.77,1.27,1.77s1.53-.6,1.53-2.06V40.13h2Z"/><path class="cls-1" d="M97.67,40.13h1.46v1.32H97.67V45c0,.67.17.84.84.84a3.24,3.24,0,0,0,.62,0v1.54a7.16,7.16,0,0,1-1.16.07c-1.22,0-2.28-.27-2.28-1.71V41.45h-1.2V40.13h1.2V38h2Z"/><path class="cls-1" d="M103.79,39.93a3.55,3.55,0,0,1,3.74,3.81,3.74,3.74,0,1,1-7.47,0A3.54,3.54,0,0,1,103.79,39.93Zm-2.47-2.68h2.19l1.34,2h-1.38ZM103.79,46c1.35,0,1.76-1.16,1.76-2.3s-.41-2.32-1.76-2.32S102,42.58,102,43.74,102.45,46,103.79,46Z"/><path class="cls-1" d="M108.67,40.13h1.89v1h0a2.57,2.57,0,0,1,2.2-1.2c2.11,0,2.64,1.18,2.64,3v4.44h-2V43.27c0-1.19-.35-1.78-1.27-1.78s-1.54.6-1.54,2.07v3.78h-2Z"/><path class="cls-1" d="M120.31,39.93a3.54,3.54,0,0,1,3.74,3.81,3.73,3.73,0,1,1-7.46,0A3.54,3.54,0,0,1,120.31,39.93Zm0,6.11c1.36,0,1.76-1.16,1.76-2.3s-.4-2.32-1.76-2.32-1.74,1.16-1.74,2.32S119,46,120.31,46Z"/><path class="cls-1" d="M125.25,40.13h1.87v1h0a2.61,2.61,0,0,1,2.21-1.17,2.15,2.15,0,0,1,2.11,1.2,2.6,2.6,0,0,1,2.17-1.2,2.33,2.33,0,0,1,2.64,2.58v4.83h-2V43.25c0-1-.09-1.76-1.22-1.76s-1.32.92-1.32,1.83v4h-2V43.29c0-.83.05-1.8-1.2-1.8-.39,0-1.34.25-1.34,1.66v4.19h-2Z"/><path class="cls-1" d="M137.62,42.34c.11-1.85,1.77-2.41,3.39-2.41,1.44,0,3.17.32,3.17,2v3.75a3.73,3.73,0,0,0,.25,1.61h-2a3.22,3.22,0,0,1-.14-.7,3.3,3.3,0,0,1-2.43.9,2.15,2.15,0,0,1-2.45-2.17c0-1.63,1.22-2,2.45-2.19s2.35-.14,2.35-1-.59-1-1.29-1-1.24.31-1.31,1.09Zm4.58,1.47a4,4,0,0,1-1.65.42c-.61.12-1.17.33-1.17,1.06s.57.92,1.21.92a1.48,1.48,0,0,0,1.61-1.66Z"/><path class="cls-1" d="M5.9,63h0a2.39,2.39,0,0,1-2.2,1.12c-2.17,0-3.23-1.87-3.23-3.87S1.52,56.5,3.64,56.5a2.54,2.54,0,0,1,2.15,1.08h0V54h2v10H5.9ZM4.17,58c-1.29,0-1.74,1.11-1.74,2.3S3,62.62,4.17,62.62s1.71-1.15,1.71-2.33S5.46,58,4.17,58Z"/><path class="cls-1" d="M11.05,60.79c.06,1.25.68,1.83,1.78,1.83a1.64,1.64,0,0,0,1.56-.94h1.74a3.23,3.23,0,0,1-3.37,2.43,3.52,3.52,0,0,1-3.69-3.79,3.63,3.63,0,0,1,3.69-3.82c2.45,0,3.64,2.07,3.5,4.29Zm3.23-1.26c-.18-1-.62-1.53-1.58-1.53a1.57,1.57,0,0,0-1.65,1.53Z"/><path class="cls-1" d="M20.61,54h4.7c1.89,0,3.18.61,3.18,2.47a2.18,2.18,0,0,1-1.36,2.08A2.43,2.43,0,0,1,29,61c0,2-1.71,2.89-3.52,2.89H20.61Zm2.2,4H25c.76,0,1.34-.35,1.34-1.18s-.73-1.15-1.51-1.15H22.81Zm0,4.23h2.34c.87,0,1.62-.28,1.62-1.31s-.64-1.42-1.58-1.42H22.81Z"/><path class="cls-1" d="M30.22,58.92c.11-1.86,1.77-2.42,3.39-2.42,1.44,0,3.17.32,3.17,2v3.76A3.76,3.76,0,0,0,37,63.92H35a3.47,3.47,0,0,1-.14-.7,3.34,3.34,0,0,1-2.43.89C31.08,64.11,30,63.43,30,62c0-1.63,1.22-2,2.45-2.19s2.35-.14,2.35-.95-.59-1-1.29-1-1.24.31-1.31,1.09Zm4.58,1.46a3.87,3.87,0,0,1-1.65.42c-.61.13-1.17.34-1.17,1.06s.57.93,1.21.93a1.48,1.48,0,0,0,1.61-1.67Z"/><path class="cls-1" d="M38.45,56.7h1.89V58h0a2.55,2.55,0,0,1,2.3-1.54,1.55,1.55,0,0,1,.43.07v1.85a3,3,0,0,0-.71-.07c-1.45,0-2,1-2,2.31v3.26h-2Z"/><path class="cls-1" d="M48.75,59.24A1.34,1.34,0,0,0,47.29,58C46,58,45.6,59.28,45.6,60.34s.4,2.28,1.65,2.28a1.52,1.52,0,0,0,1.57-1.47h1.92a3.24,3.24,0,0,1-3.48,3,3.5,3.5,0,0,1-3.64-3.7c0-2.25,1.34-3.91,3.68-3.91,1.71,0,3.27.9,3.39,2.74Z"/><path class="cls-1" d="M53.55,60.79c.06,1.25.68,1.83,1.78,1.83a1.62,1.62,0,0,0,1.56-.94h1.75a3.25,3.25,0,0,1-3.38,2.43,3.52,3.52,0,0,1-3.69-3.79,3.63,3.63,0,0,1,3.69-3.82c2.45,0,3.64,2.07,3.5,4.29Zm3.23-1.26c-.18-1-.61-1.53-1.58-1.53a1.57,1.57,0,0,0-1.65,1.53Z"/><path class="cls-1" d="M60,54h2v10H60Z"/><path class="cls-1" d="M67,56.5a3.81,3.81,0,1,1-3.73,3.82A3.55,3.55,0,0,1,67,56.5Zm0,6.12c1.35,0,1.76-1.16,1.76-2.3S68.39,58,67,58s-1.75,1.16-1.75,2.32S65.7,62.62,67,62.62Z"/><path class="cls-1" d="M72.06,56.7H74v1h0a2.59,2.59,0,0,1,2.2-1.2c2.11,0,2.64,1.19,2.64,3v4.44h-2V59.84c0-1.19-.35-1.77-1.27-1.77S74,58.67,74,60.13v3.79h-2Z"/><path class="cls-1" d="M80.33,58.92c.11-1.86,1.77-2.42,3.39-2.42,1.43,0,3.17.32,3.17,2v3.76a3.76,3.76,0,0,0,.25,1.61h-2a2.9,2.9,0,0,1-.14-.7,3.34,3.34,0,0,1-2.43.89c-1.37,0-2.46-.68-2.46-2.16,0-1.63,1.23-2,2.46-2.19s2.34-.14,2.34-.95-.58-1-1.28-1-1.24.31-1.31,1.09Zm4.57,1.46a3.78,3.78,0,0,1-1.64.42c-.62.13-1.17.34-1.17,1.06s.57.93,1.21.93a1.47,1.47,0,0,0,1.6-1.67Z"/></g></g></svg>