<svg xmlns="http://www.w3.org/2000/svg" viewBox="0 0 83.54 26.82"><defs><style>.cls-1{fill:#fff;}</style></defs><title>susAsset 14</title><g id="Layer_2" data-name="Layer 2"><g id="Layer_1-2" data-name="Layer 1"><path class="cls-1" d="M75.53,11.64l-.76.24C73.38,8.72,72,5.53,70.56,2.43c-.4-.83-1.15-1.87-1.83-2A38.92,38.92,0,0,0,63,.36V25.69h8.43V18.13l.62-.21c1,2,1.92,4,3,5.87.43.76,1.09,1.75,1.73,1.86a22.5,22.5,0,0,0,5.44.17,2.16,2.16,0,0,0,1.29-1.6c.08-7.32.09-14.64,0-22A2.43,2.43,0,0,0,82.08.45C80,.24,77.89.37,75.53.37Zm-33.61-1v8.45c0,6.86,0,6.8,5.82,6.7,1.64,0,2.39-.56,2.21-2.64-.13-1.49,0-3,0-4.53l.79-.11c.67,1.67,1.33,3.36,2,5,.29.7.66,1.9,1,1.92,2.63.17,5.27.09,8.34.09-1.34-2.72-2.33-4.84-3.42-6.89A2.42,2.42,0,0,1,59,15.48c4.34-5.22,2.43-13.11-3.72-14.42C51,.15,46.56.39,42.05.11v8c2.82,0,5.6-.09,8.37,0,.75,0,1.46.77,2.2,1.19-.72.46-1.42,1.28-2.15,1.32C47.76,10.78,45,10.69,41.92,10.69Zm-18.5,15h16.8V18.59H32.89c.14-.49.16-.77.24-.79a38.34,38.34,0,0,0,4.56-1.45,3,3,0,0,0,1.48-2c.32-3.61.22-3.65-2.76-3.65a5.41,5.41,0,0,1-1.8,0A14.51,14.51,0,0,1,32.38,9.4a14.63,14.63,0,0,1,2.11-1.3,4.61,4.61,0,0,1,1.58,0C41,8,40.37,9,40.42,2.63c0-.27.08-.64,0-.79C40,1.3,39.55.44,39.12.43c-5.2-.1-10.4-.07-15.7-.07Z"/><path class="cls-1" d="M0,.17H9c.34,5.38.59,10.23,1,15.06a10.07,10.07,0,0,0,1.16,2.83,9.4,9.4,0,0,0,1.24-2.83c.42-4.83.67-9.68,1-14.69h8.38V9.91c0,2.08,0,4.16,0,6.24-.07,5.32-2.53,9-6.84,10.43a60.27,60.27,0,0,1-7,.21C2.29,25,.65,22.36.51,15.5.44,12.38,0,2.16,0,.17Z"/><path class="cls-1" d="M75.53,11.64V.37c2.36,0,4.46,0,6.55.08,1.41.08,1.41,0,1.39,1.81,0,7.32,0,14.64,0,22,0,2.23-.82,1.56-1.29,1.6a22.5,22.5,0,0,1-5.44-.17c-.64-.11-1.3-1.1-1.73-1.86-1.06-1.9-2-3.9-3-5.87l-.62.21v7.56H63V.36a38.92,38.92,0,0,1,5.74.1c.68.1,1.43,1.14,1.83,2,1.48,3.1,2.82,6.29,4.21,9.45Z"/><path class="cls-1" d="M41.92,10.69c3.12,0,5.84.09,8.55-.07.73,0,1.43-.86,2.15-1.32-.74-.42-1.45-1.15-2.2-1.19-2.77-.14-5.55,0-8.37,0V.11A95.72,95.72,0,0,1,55.27.4c6.23.55,8,9.86,3.69,15.08a2.42,2.42,0,0,0-.26,3.22c1.09,2.05,2.08,4.17,3.42,6.89-3.07,0-5.71.08-8.34-.09-.38,0-.75-1.22-1-1.92-.7-1.66-1.36-3.35-2-5l-.79.11c0,1.51-.1,3,0,4.53.18,2.08-.57,2.61-2.21,2.64-5.82.1-5.82.16-5.82-6.7Z"/><path class="cls-1" d="M23.42,25.71V.36c5.3,0,10.5,0,15.7.07.43,0,.85-.17,1.24.36a10,10,0,0,1,.06,1.84C40.37,9,41,8,36.07,8.05a4.61,4.61,0,0,0-1.58,0,14.63,14.63,0,0,0-2.11,1.3,14.51,14.51,0,0,0,2.23,1.25,5.41,5.41,0,0,0,1.8,0c3,0,3.08,0,2.76,3.65a3,3,0,0,1-1.48,2,38.34,38.34,0,0,1-4.56,1.45c-.08,0-.1.3-.24.79h7.33v7.12Z"/></g></g></svg>