<svg xmlns="http://www.w3.org/2000/svg" viewBox="0 0 113.39 34.02"><defs><style>.cls-1{fill:#fff;fill-rule:evenodd;}</style></defs><title>susAsset 11</title><g id="Layer_2" data-name="Layer 2"><g id="Layer_1-2" data-name="Layer 1"><path class="cls-1" d="M54.09,7.16l0,11.65,0,8.4h6c.28,0,.37-.08.37-.36V17.73H62.2c1.2,0,3.2.06,3.2,1.2v8.28h5.66V19.05a3.05,3.05,0,0,0-2.83-2.64c1.33-.11,2.83-.05,2.83-3V10.88c0-3.23-2.67-4.08-6-4.08H54.45c-.28,0-.36.09-.36.36M62.7,15H60.48V9.56h3c.91,0,2.28.26,2.28,1.2V14c0,.84-1.7,1-2.64,1H62.7Z"/><path class="cls-1" d="M0,7.16V23a6.08,6.08,0,0,0,1.72,3.07,5.49,5.49,0,0,0,3.79,1.13H17V6.8H11.86c-.28,0-.36.09-.36.36V24.57H9c-1.71,0-2.4-.9-2.39-2.64s0-3.44,0-5.16V7.17a.33.33,0,0,0-.36-.37H.36c-.28,0-.36.09-.36.36"/><path class="cls-1" d="M36.62,27.21H51.93V24.57H43.41c-.28,0-.37-.08-.37-.36V18.09c0-.28.09-.36.37-.36h6.3V15H43V9.56h8.89V6.8H36.62Z"/><path class="cls-1" d="M90.71,27.21h5.08V22.53h8.11c.06.25,1.46,2.29,1.7,2.63.48.67,1.25,2.05,2,2.05h5.8c-.14-.51-6.81-9.68-7.75-11-1.37-1.89-2.6-3.66-4-5.52S99,6.8,95.79,6.8H90.71ZM95.79,12l.11.16V12l5.17,7.08H95.79Z"/><polygon class="cls-1" points="19.16 27.21 25.7 27.21 25.7 17.73 32.25 17.73 32.25 14.97 25.7 14.97 25.7 9.56 34.47 9.56 34.47 6.8 19.16 6.8 19.16 27.21"/><path class="cls-1" d="M105.93.91h.7v1.7h1.09v.56h-1.79Zm-4,1.4-.25-.81-.24.81Zm.15.49h-.8l-.1.37h-.72L101.3.91h.76l.85,2.26h-.73Zm-5.93-1h.29l.19,0a.18.18,0,0,0,.11-.08.19.19,0,0,0,0-.13.2.2,0,0,0-.07-.16.43.43,0,0,0-.26-.06h-.31Zm-.7,1.34V.91H96.6a1.61,1.61,0,0,1,.5.06.48.48,0,0,1,.27.2.62.62,0,0,1,.11.37.66.66,0,0,1-.08.32.66.66,0,0,1-.47.31.59.59,0,0,1,.18.09.36.36,0,0,1,.12.11,1,1,0,0,1,.09.14l.34.66h-.79l-.37-.69a.59.59,0,0,0-.13-.18.31.31,0,0,0-.17,0h-.06v.92ZM90.36.91h1.86v.48H91.05v.36h1.09v.46H91.05v.45h1.21v.51h-1.9Zm-4.55.51V2.66H86a.82.82,0,0,0,.32-.05.3.3,0,0,0,.14-.17,1,1,0,0,0,0-.39.8.8,0,0,0-.11-.49A.5.5,0,0,0,86,1.42ZM85.12.91h1a1.37,1.37,0,0,1,.5.08.92.92,0,0,1,.31.24,1.16,1.16,0,0,1,.18.37,2,2,0,0,1,0,.43,1.41,1.41,0,0,1-.08.56.82.82,0,0,1-.23.34.7.7,0,0,1-.31.18,1.64,1.64,0,0,1-.42.06h-1ZM80,.91H81.9v.48H80.73v.36h1.09v.46H80.73v.45h1.2v.51H80Zm-4.89,0h1.72V1.4h-1v.39h.87v.46h-.87v.92h-.7ZM60.82.91h1.87v.48H61.52v.36h1.09v.46H61.52v.45h1.21v.51H60.82Zm-4.54.51V2.66h.17a.73.73,0,0,0,.31-.05.32.32,0,0,0,.15-.17A1.18,1.18,0,0,0,57,2.05a.73.73,0,0,0-.12-.49.46.46,0,0,0-.38-.14ZM55.59.91h1a1.37,1.37,0,0,1,.5.08.92.92,0,0,1,.31.24,1.16,1.16,0,0,1,.18.37,2,2,0,0,1,0,.43,1.62,1.62,0,0,1-.08.56.93.93,0,0,1-.23.34.76.76,0,0,1-.31.18,1.7,1.7,0,0,1-.42.06h-1Zm-4,1.4-.25-.81-.25.81Zm.14.49h-.79l-.11.37H50.1L51,.91h.76l.85,2.26h-.73ZM45.92,1.42V2.66h.17a.73.73,0,0,0,.31-.05.36.36,0,0,0,.15-.17,1.18,1.18,0,0,0,.05-.39.73.73,0,0,0-.12-.49.5.5,0,0,0-.39-.14Zm-.7-.51h1a1.32,1.32,0,0,1,.49.08.83.83,0,0,1,.31.24.85.85,0,0,1,.18.37A1.49,1.49,0,0,1,47.3,2a1.62,1.62,0,0,1-.08.56,1.07,1.07,0,0,1-.23.34.73.73,0,0,1-.32.18,1.62,1.62,0,0,1-.41.06h-1Zm-4,0h.69V3.17h-.69ZM36,2.42l.67,0a.53.53,0,0,0,.08.25.37.37,0,0,0,.31.13.32.32,0,0,0,.23-.07.18.18,0,0,0,.08-.16.21.21,0,0,0-.07-.16,1.15,1.15,0,0,0-.36-.13A1.59,1.59,0,0,1,36.27,2a.55.55,0,0,1-.19-.44.6.6,0,0,1,.1-.33.67.67,0,0,1,.3-.24A1.42,1.42,0,0,1,37,.87,1.24,1.24,0,0,1,37.7,1a.72.72,0,0,1,.27.52l-.66,0a.42.42,0,0,0-.11-.22A.42.42,0,0,0,37,1.29a.27.27,0,0,0-.19.06.14.14,0,0,0-.06.12.14.14,0,0,0,.05.1.71.71,0,0,0,.24.08,3,3,0,0,1,.65.2A.72.72,0,0,1,38,2.1a.63.63,0,0,1,.09.33.7.7,0,0,1-.12.4.67.67,0,0,1-.34.28,1.21,1.21,0,0,1-.54.1,1.18,1.18,0,0,1-.8-.22A.88.88,0,0,1,36,2.42Zm-4.42-.59h.3l.18,0a.2.2,0,0,0,.12-.08.25.25,0,0,0,0-.13.18.18,0,0,0-.07-.16.41.41,0,0,0-.26-.06h-.31Zm-.7,1.34V.91H32a1.54,1.54,0,0,1,.49.06.51.51,0,0,1,.28.2.62.62,0,0,1,.1.37.66.66,0,0,1-.08.32.58.58,0,0,1-.22.22.66.66,0,0,1-.25.09.67.67,0,0,1,.19.09.53.53,0,0,1,.11.11,1.37,1.37,0,0,1,.1.14l.33.66H32.3l-.37-.69a.61.61,0,0,0-.12-.18.35.35,0,0,0-.18,0h-.06v.92ZM25.79.91h1.87v.48H26.49v.36h1.08v.46H26.49v.45h1.2v.51h-1.9Zm-5.47,0h.73l.5,1.63.5-1.63h.71l-.83,2.26h-.76Zm-3.78,0h.7V3.17h-.7ZM11.1.91h.65l.85,1.25V.91h.66V3.17H12.6l-.85-1.24V3.17H11.1Zm-4,0h.69V2.26a1.21,1.21,0,0,1-.06.38.87.87,0,0,1-.2.31.64.64,0,0,1-.27.18,1.44,1.44,0,0,1-.49.08l-.36,0a1,1,0,0,1-.33-.1,1,1,0,0,1-.24-.19.87.87,0,0,1-.15-.26,1.42,1.42,0,0,1-.06-.38V.91h.7V2.29a.39.39,0,0,0,.1.29.37.37,0,0,0,.28.1A.36.36,0,0,0,7,2.58a.4.4,0,0,0,.11-.29ZM0,0H113.39V4.08H0Z"/><path class="cls-1" d="M106,32a.75.75,0,0,0,.13.5.44.44,0,0,0,.35.15.45.45,0,0,0,.36-.15A.88.88,0,0,0,107,32a.71.71,0,0,0-.13-.48.43.43,0,0,0-.35-.15.44.44,0,0,0-.35.15A.78.78,0,0,0,106,32m-.71,0a1.09,1.09,0,0,1,1.19-1.2,1.25,1.25,0,0,1,.89.31,1.21,1.21,0,0,1,.31.87,1.4,1.4,0,0,1-.14.66.94.94,0,0,1-.39.4,1.26,1.26,0,0,1-.64.15,1.53,1.53,0,0,1-.65-.13.91.91,0,0,1-.41-.39A1.28,1.28,0,0,1,105.33,32Zm-4.55-.64V32.6H101a.64.64,0,0,0,.32-.05.32.32,0,0,0,.15-.17,1,1,0,0,0,0-.4.78.78,0,0,0-.12-.5.5.5,0,0,0-.39-.14Zm-.71-.52h1.06a1.21,1.21,0,0,1,.5.09.7.7,0,0,1,.32.24,1.16,1.16,0,0,1,.18.37,1.63,1.63,0,0,1,.06.45,1.48,1.48,0,0,1-.09.57.89.89,0,0,1-.23.34.73.73,0,0,1-.32.18,1.41,1.41,0,0,1-.42.07h-1.06Zm-4.09,0h.71v2.31H96Zm-4.66.94h.3l.18,0a.19.19,0,0,0,.12-.07.2.2,0,0,0,0-.13.19.19,0,0,0-.07-.17.39.39,0,0,0-.26-.06h-.31Zm-.72,1.37V30.82h1.19a1.57,1.57,0,0,1,.5.06.54.54,0,0,1,.28.21.62.62,0,0,1,.11.37.67.67,0,0,1-.08.33.63.63,0,0,1-.23.23.88.88,0,0,1-.25.09l.19.08a.54.54,0,0,1,.11.13.46.46,0,0,1,.1.14l.35.67h-.81l-.38-.71a.59.59,0,0,0-.13-.18.34.34,0,0,0-.17-.05h-.06v.94Zm-4.1-.88-.25-.83-.26.83Zm.15.5h-.81l-.11.38H85l.86-2.31h.78l.87,2.31h-.75ZM81.14,32h.93v.49h-.93Zm-3.92-1.22h.72v2.31h-.72Zm-5.93,0h.94l.36,1.4.36-1.4h.94v2.31H73.3V31.37l-.45,1.76h-.52l-.45-1.76v1.76h-.59Zm-5.17,0H68v.49h-1.2v.37h1.11v.47H66.83v.45h1.23v.53H66.12Zm-5.3,1.54.67,0a.6.6,0,0,0,.09.25.37.37,0,0,0,.32.14.32.32,0,0,0,.23-.07.21.21,0,0,0,.09-.16.21.21,0,0,0-.08-.16.91.91,0,0,0-.37-.14,1.56,1.56,0,0,1-.67-.28.56.56,0,0,1-.2-.44.62.62,0,0,1,.11-.34.66.66,0,0,1,.31-.25,1.39,1.39,0,0,1,.56-.09,1.18,1.18,0,0,1,.68.17.72.72,0,0,1,.27.52l-.67,0a.36.36,0,0,0-.11-.23.43.43,0,0,0-.24-.07.36.36,0,0,0-.19.05.18.18,0,0,0-.06.13.14.14,0,0,0,0,.1.75.75,0,0,0,.24.09,2.59,2.59,0,0,1,.67.2.7.7,0,0,1,.3.26.64.64,0,0,1,.09.34.66.66,0,0,1-.13.4.75.75,0,0,1-.34.29,1.42,1.42,0,0,1-.55.1,1.16,1.16,0,0,1-.82-.23A.89.89,0,0,1,60.82,32.36ZM47.12,32a.75.75,0,0,0,.13.5.48.48,0,0,0,.7,0,.81.81,0,0,0,.13-.53.71.71,0,0,0-.13-.48.46.46,0,0,0-.36-.15.42.42,0,0,0-.34.15A.78.78,0,0,0,47.12,32Zm-.72,0a1.11,1.11,0,0,1,1.19-1.2,1.23,1.23,0,0,1,.89.31,1.17,1.17,0,0,1,.31.87,1.41,1.41,0,0,1-.13.66,1,1,0,0,1-.4.4,1.24,1.24,0,0,1-.64.15A1.48,1.48,0,0,1,47,33a1,1,0,0,1-.42-.39A1.38,1.38,0,0,1,46.4,32Zm-4.55-.64V32.6H42a.67.67,0,0,0,.32-.05.3.3,0,0,0,.14-.17,1,1,0,0,0,.06-.4.78.78,0,0,0-.12-.5.51.51,0,0,0-.4-.14Zm-.71-.52H42.2a1.23,1.23,0,0,1,.51.09.73.73,0,0,1,.31.24,1,1,0,0,1,.19.37,2.14,2.14,0,0,1,0,.45,1.5,1.5,0,0,1-.08.57,1,1,0,0,1-.23.34.79.79,0,0,1-.32.18,1.42,1.42,0,0,1-.43.07H41.14Zm-13.92,0h.71v1.74H29v.57H27.22Zm-4.09,1.43-.26-.83-.25.83Zm.15.5h-.81l-.11.38h-.73l.86-2.31h.78l.87,2.31h-.75Zm-6.05-1h.3l.18,0a.19.19,0,0,0,.12-.07.21.21,0,0,0,.05-.13.2.2,0,0,0-.08-.17.39.39,0,0,0-.26-.06h-.31Zm-.72,1.37V30.82H17.7a1.57,1.57,0,0,1,.5.06.54.54,0,0,1,.28.21.62.62,0,0,1,.11.37.67.67,0,0,1-.08.33.63.63,0,0,1-.23.23.88.88,0,0,1-.25.09l.19.08a.54.54,0,0,1,.11.13.46.46,0,0,1,.1.14l.35.67H18l-.38-.71a.59.59,0,0,0-.13-.18.34.34,0,0,0-.17-.05h-.06v.94Zm-4.05-2.31h.71V32.2a1.21,1.21,0,0,1-.06.38.87.87,0,0,1-.48.51,1.5,1.5,0,0,1-.5.08l-.37,0a.8.8,0,0,1-.33-.09.92.92,0,0,1-.25-.2.76.76,0,0,1-.15-.26A1.55,1.55,0,0,1,11,32.2V30.82h.71v1.41a.39.39,0,0,0,.1.29.44.44,0,0,0,.58,0,.37.37,0,0,0,.1-.29Zm-6.08.94h.3a.63.63,0,0,0,.19,0A.19.19,0,0,0,7,31.65a.2.2,0,0,0,0-.13A.19.19,0,0,0,7,31.35a.39.39,0,0,0-.26-.06H6.38Zm-.71,1.37V30.82H6.86a1.61,1.61,0,0,1,.5.06.54.54,0,0,1,.28.21.62.62,0,0,1,.11.37.67.67,0,0,1-.08.33.63.63,0,0,1-.23.23.88.88,0,0,1-.25.09l.19.08a1,1,0,0,1,.11.13.76.76,0,0,1,.1.14l.35.67H7.13l-.38-.71a.59.59,0,0,0-.13-.18.34.34,0,0,0-.17-.05H6.38v.94ZM0,29.93H113.39V34H0Z"/><path class="cls-1" d="M73.3,23.27c0,2.91,2.19,3.86,5.27,3.93l4.83,0c3-.11,4.85-1.15,5.12-3.56l0-2.43a4.73,4.73,0,0,0-2-3.26l-7-5.08a1.92,1.92,0,0,1-1-1.41v-.72c.07-.83,1.11-1.06,1.77-1.11h.76c1.12,0,2,.51,2.06,1.08l0,.89h5.32l0-.85c0-2.91-2.19-3.86-5.27-3.93l-4.83,0c-3,.11-4.85,1.15-5.12,3.56l0,2.42a4.75,4.75,0,0,0,2,3.27l.85.62,6.17,4.64c.4.28.94.49,1,1.23v.72c-.07.83-1.11,1.06-1.77,1.11h-.76c-1.12,0-2-.51-2-1.08v-.89H73.33Z"/><polygon class="cls-1" points="86.21 30.18 86.76 30.18 86.25 30.65 85.95 30.65 86.21 30.18"/></g></g></svg>