<svg xmlns="http://www.w3.org/2000/svg" viewBox="0 0 217.95 65.38"><defs><style>.cls-1,.cls-2{fill:#fff;}.cls-2{fill-rule:evenodd;}</style></defs><title>susAsset 12</title><g id="Layer_2" data-name="Layer 2"><g id="Layer_1-2" data-name="Layer 1"><path class="cls-1" d="M61.47,5.58H58.83l-.49,1.48a.36.36,0,0,1-.37.29.35.35,0,0,1-.28-.13.33.33,0,0,1-.1-.25.49.49,0,0,1,0-.15L59.75.47C59.86.16,60,0,60.18,0a.34.34,0,0,1,.34.2c0,.07.07.17.11.29L62.7,6.82a.47.47,0,0,1,0,.16.38.38,0,0,1-.38.37A.37.37,0,0,1,62,7.06Zm-2.39-.77h2.16L60.18,1.56Z"/><path class="cls-1" d="M71.49,5.47V.41a.38.38,0,0,1,.06-.22A.34.34,0,0,1,71.87,0a.35.35,0,0,1,.33.19.38.38,0,0,1,0,.22V6.63c0,.48-.12.71-.37.71a.32.32,0,0,1-.25-.11,1.92,1.92,0,0,1-.21-.33L68.56,1.77V6.93a.48.48,0,0,1,0,.22.37.37,0,0,1-.33.19.36.36,0,0,1-.33-.19.38.38,0,0,1,0-.22V.7c0-.47.12-.7.36-.7a.49.49,0,0,1,.42.3Z"/><path class="cls-1" d="M77.58,4.89V2.42A2.4,2.4,0,0,1,78.14.74,2.19,2.19,0,0,1,78.9.2a2.24,2.24,0,0,1,1.83,0,2.06,2.06,0,0,1,.73.52,2.14,2.14,0,0,1,.42.72,2.5,2.5,0,0,1,.15.85V5.06a2.55,2.55,0,0,1-.17.89,2.18,2.18,0,0,1-.47.75,2.1,2.1,0,0,1-1.57.64,2.17,2.17,0,0,1-1.65-.71,2,2,0,0,1-.48-.84A3.08,3.08,0,0,1,77.58,4.89ZM81.27,5V2.4a1.68,1.68,0,0,0-.35-1.15A1.42,1.42,0,0,0,79.79.76a1.36,1.36,0,0,0-1.11.5,1.79,1.79,0,0,0-.34,1.17V4.89a1.69,1.69,0,0,0,.41,1.27,1.43,1.43,0,0,0,1.06.42A1.39,1.39,0,0,0,81,6.06,1.73,1.73,0,0,0,81.27,5Z"/><path class="cls-1" d="M89.21,0a3.08,3.08,0,0,1,1.56.41c.26.15.39.31.39.49a.34.34,0,0,1-.12.27.25.25,0,0,1-.19.08,1.08,1.08,0,0,1-.41-.15A2.54,2.54,0,0,0,89.26.76a1.92,1.92,0,0,0-1,.26.84.84,0,0,0-.47.75.92.92,0,0,0,.26.62A10.45,10.45,0,0,0,90,3.79a4,4,0,0,1,1,.78,1.55,1.55,0,0,1,.33,1,1.58,1.58,0,0,1-.69,1.33A2.6,2.6,0,0,1,89,7.34,3.42,3.42,0,0,1,87.58,7c-.46-.22-.68-.44-.68-.67A.36.36,0,0,1,87,6.06.34.34,0,0,1,87.21,6a.72.72,0,0,1,.28.07l.53.26a2.57,2.57,0,0,0,1.1.26,1.86,1.86,0,0,0,1-.28.8.8,0,0,0,.4-.7,1,1,0,0,0-.45-.78c-.16-.13-.61-.44-1.35-.94a7.43,7.43,0,0,1-1.29-1,1.49,1.49,0,0,1-.43-1,1.6,1.6,0,0,1,.19-.77,1.56,1.56,0,0,1,.53-.61A2.36,2.36,0,0,1,89.21,0Z"/><path class="cls-1" d="M75.06,22.36c10.72.46,8.72,16.41,6.87,21.82C79.1,52.45,75.77,56.67,73,58.83l.46,0a20.47,20.47,0,0,0,14-7.76,23.61,23.61,0,0,0,1.93-3.19c10.14-21.37-1-29.57-9.17-30.43-6.39-.67-19.07.46-31,19.94C37.53,56.5,33.44,60.68,23.45,62.42c-12.45,2.17-15.81-7-16-7.65,3.06,9.86,13,12.43,24,9.39,14.67-4,21.91-19.67,27.23-27.87C65.25,26.12,69.1,22.1,75.06,22.36Z"/><path class="cls-1" d="M87.67,52S81.84,60,73,61c-4.06.43-10.25-2.64-16.87-11.37S38.74,24.05,26,21.49C15.06,19.27,6.59,26.58.84,34c-2.14,2.77.26.23,2.23-1.34,3-2.41,8.18-4,14.22-3.89,7.49.19,15,6.24,23.64,21.58,8.5,15,22.77,17.66,33.73,12.83C84.09,59,87.67,52,87.67,52Z"/><path class="cls-1" d="M30.73,57.38s-9.64,5.53-13.62-5.86,5.17-30.41,14.43-38.91C37.81,6.86,43,4.51,45.05,3.71c3.15-1.21,4.29-1.94,3.27-2.19A12.82,12.82,0,0,0,43,2.07C36.25,3.81,18.77,11.82,9.88,32-.69,56,13.68,67.47,30.73,57.38Z"/><polygon class="cls-2" points="154.07 56.92 155 56.92 154.77 55.37 154.07 56.92"/><path class="cls-2" d="M144.93,55.3h-.45L144,58h.55a1.2,1.2,0,0,0,1-.42,1.67,1.67,0,0,0,.36-1.12,1.3,1.3,0,0,0-.25-.86A.93.93,0,0,0,144.93,55.3Z"/><path class="cls-2" d="M140.87,25.26l-.27,2.21h21.62l-.58,5H147.85l-.61,5.24h12.55l-.59,5.08H146.65l-1.12,9.68h-7.89l-.87,7.33h21.69l4.27-34.54ZM140,55.33h-1.16l-.17,1h1.15l-.07.51h-1.16l-.27,1.6h-.46l.61-3.67h1.62Zm2.79,0h-1.16l-.17,1h1.16l-.09.51h-1.15L141.2,58h1.15l-.08.52h-1.62l.61-3.67h1.62Zm3.1,2.59a1.64,1.64,0,0,1-1.3.56h-1.08l.6-3.67h.82a1.36,1.36,0,0,1,1.07.42,1.71,1.71,0,0,1,.38,1.18A2.23,2.23,0,0,1,145.89,57.92Zm3.41-2.59h-1.15l-.17,1h1.15l-.08.51H147.9L147.72,58h1.15l-.09.52h-1.61l.61-3.67h1.61Zm3,1.4a1.14,1.14,0,0,1-.76.38l.64,1.37h-.51l-.83-1.8h.07a2,2,0,0,0,.86-.13.75.75,0,0,0,.31-.63.61.61,0,0,0-.17-.45.64.64,0,0,0-.47-.16h-.2l-.24,0-.52,3.15H150l.61-3.67h.79a1.18,1.18,0,0,1,.85.28,1.06,1.06,0,0,1,.3.81A1.26,1.26,0,0,1,152.31,56.73Zm2.94,1.75-.17-1h-1.24l-.49,1h-.49l1.71-3.67h.53l.63,3.67Zm2.78,0h-1.51l.6-3.67h.47L157.07,58h1.05Z"/><path class="cls-2" d="M134.43,58.48l.61-3.67h1.62l-.09.52h-1.16l-.17,1h1.16l-.08.51h-1.16L135,58h1.15l-.08.52Zm-3,0,.6-3.67h.82a1.36,1.36,0,0,1,1.07.42,1.7,1.7,0,0,1,.37,1.18,2.28,2.28,0,0,1-.48,1.51,1.66,1.66,0,0,1-1.3.56Zm1.42-3.18h-.45L132,58h.55a1.19,1.19,0,0,0,1-.42,1.63,1.63,0,0,0,.37-1.12,1.35,1.35,0,0,0-.25-.86A.93.93,0,0,0,132.88,55.3Zm-2.25,1.62-.23-1.55-.7,1.55Zm-2.15,1.56,1.72-3.67h.52l.64,3.67h-.48l-.17-1h-1.24l-.49,1Zm-2.57,0,.6-3.67h.82a1.36,1.36,0,0,1,1.07.42,1.71,1.71,0,0,1,.38,1.18,2.23,2.23,0,0,1-.49,1.51,1.66,1.66,0,0,1-1.3.56Zm1.42-3.18h-.45L126.44,58H127a1.2,1.2,0,0,0,1-.42,1.67,1.67,0,0,0,.36-1.12,1.3,1.3,0,0,0-.25-.86A.93.93,0,0,0,127.33,55.3Zm-2.41,3.18.6-3.67H126l-.61,3.67Zm-2.11-1.17h.48v.1a.76.76,0,0,0,.12.47.42.42,0,0,0,.36.17.48.48,0,0,0,.37-.17.64.64,0,0,0,.15-.43.62.62,0,0,0-.08-.31,1,1,0,0,0-.31-.29l-.12-.08a2.39,2.39,0,0,1-.45-.37.85.85,0,0,1-.15-.28,1,1,0,0,1-.05-.35,1.08,1.08,0,0,1,.26-.74.86.86,0,0,1,.68-.29.79.79,0,0,1,.62.25,1,1,0,0,1,.22.69v.11h-.47v0a.08.08,0,0,0,0,0,.57.57,0,0,0-.11-.36.37.37,0,0,0-.3-.14.37.37,0,0,0-.3.15.51.51,0,0,0-.13.35q0,.28.54.66a.94.94,0,0,0,.17.11,1.32,1.32,0,0,1,.34.4,1.26,1.26,0,0,1-.17,1.34.94.94,0,0,1-.72.33.86.86,0,0,1-.71-.3,1.34,1.34,0,0,1-.25-.86Zm-2.66,1.17.6-3.67h.8a1.19,1.19,0,0,1,.85.28,1.06,1.06,0,0,1,.3.81,1.21,1.21,0,0,1-.28.83,1.09,1.09,0,0,1-.75.38l.64,1.37h-.51l-.84-1.8H121a1.94,1.94,0,0,0,.85-.13.67.67,0,0,0,.23-.27.74.74,0,0,0,.09-.36.61.61,0,0,0-.17-.45.64.64,0,0,0-.47-.16h-.2l-.24,0-.52,3.15Zm-2.18,0,.61-3.67h1.61l-.09.52h-1.16l-.16,1h1.15l-.08.51h-1.16L118.51,58h1.16l-.09.52Zm-2.33-3.67h.46l.4,3.07,1.37-3.07h.5l-1.67,3.67h-.55Zm-1.22,3.67.61-3.67h.45l-.6,3.67Zm-3,0,.61-3.67h.63l.89,2.95.49-2.95h.45l-.6,3.67h-.6l-.91-3-.5,3Zm-2-3.67h.46l-.37,2.24c0,.09,0,.18,0,.26a1.62,1.62,0,0,0,0,.21.52.52,0,0,0,.13.38.45.45,0,0,0,.35.13.5.5,0,0,0,.44-.21,2.09,2.09,0,0,0,.25-.84l.36-2.17h.46L111.05,57s0,0,0,.1a3.16,3.16,0,0,1-.26.92.86.86,0,0,1-.35.38,1.22,1.22,0,0,1-.56.13.86.86,0,0,1-.65-.26.93.93,0,0,1-.25-.69c0-.08,0-.17,0-.27s0-.2,0-.31Z"/><path class="cls-2" d="M212.63,58.48l.61-3.67h1.61l-.09.52h-1.15l-.17,1h1.15l-.08.51h-1.15L213.18,58h1.15l-.09.52Zm-1.43,0,.53-3.17H211l.08-.5h1.81l-.08.5h-.66l-.53,3.17Zm-3,0,.61-3.67h.79a1.16,1.16,0,0,1,.85.28,1.06,1.06,0,0,1,.3.81,1.26,1.26,0,0,1-.27.83,1.14,1.14,0,0,1-.76.38l.64,1.37h-.51l-.83-1.8h.08a2,2,0,0,0,.85-.13.75.75,0,0,0,.23-.27.86.86,0,0,0,.08-.36.57.57,0,0,0-.17-.45.64.64,0,0,0-.47-.16h-.2l-.24,0-.52,3.15Zm-3.28-1.59A2.84,2.84,0,0,1,205,56a1.94,1.94,0,0,1,.39-.69,1.59,1.59,0,0,1,.56-.42,1.56,1.56,0,0,1,.68-.14,1.3,1.3,0,0,1,1,.45,1.85,1.85,0,0,1,.39,1.23,2.64,2.64,0,0,1-.08.7,2,2,0,0,1-.24.6,1.65,1.65,0,0,1-.61.62,1.52,1.52,0,0,1-.81.22,1.34,1.34,0,0,1-1.06-.45A1.81,1.81,0,0,1,204.9,56.89Zm.47,0a1.31,1.31,0,0,0,.27.88.88.88,0,0,0,.72.33,1.1,1.1,0,0,0,.91-.46,1.84,1.84,0,0,0,.36-1.18,1.35,1.35,0,0,0-.27-.89.89.89,0,0,0-.73-.33,1.1,1.1,0,0,0-.91.46A1.87,1.87,0,0,0,205.37,56.87Zm-3.65,1.61.62-3.67H203l.89,2.95.49-2.95h.46l-.61,3.67h-.6l-.91-3-.5,3ZM197,56.89a2.83,2.83,0,0,1,.14-.9,1.94,1.94,0,0,1,.39-.69,1.6,1.6,0,0,1,1.24-.56,1.31,1.31,0,0,1,1,.45,1.85,1.85,0,0,1,.39,1.23,3.13,3.13,0,0,1-.08.7,2.69,2.69,0,0,1-.24.6,1.73,1.73,0,0,1-.61.62,1.55,1.55,0,0,1-.82.22,1.32,1.32,0,0,1-1.05-.45A1.81,1.81,0,0,1,197,56.89Zm.47,0a1.36,1.36,0,0,0,.27.88.89.89,0,0,0,.73.33,1.07,1.07,0,0,0,.9-.46,1.84,1.84,0,0,0,.36-1.18,1.35,1.35,0,0,0-.27-.89.88.88,0,0,0-.72-.33,1.1,1.1,0,0,0-.91.46A1.87,1.87,0,0,0,197.42,56.87Zm-3.6,1.61.6-3.67h.82a1.36,1.36,0,0,1,1.07.42,1.71,1.71,0,0,1,.38,1.18,2.28,2.28,0,0,1-.49,1.51,1.66,1.66,0,0,1-1.3.56Zm1.42-3.18h-.45L194.35,58h.55a1.21,1.21,0,0,0,1-.42,1.67,1.67,0,0,0,.36-1.12,1.3,1.3,0,0,0-.25-.86A.93.93,0,0,0,195.24,55.3Zm-4.86,3.18.61-3.67h1.62l-.09.52h-1.16l-.17,1h1.16l-.08.51h-1.16L190.93,58h1.15l-.08.52Zm-3,0,.6-3.67h.82a1.34,1.34,0,0,1,1.06.42,1.66,1.66,0,0,1,.38,1.18,2.28,2.28,0,0,1-.48,1.51,1.66,1.66,0,0,1-1.3.56Zm1.42-3.18h-.45L187.93,58h.56a1.19,1.19,0,0,0,.95-.42,1.63,1.63,0,0,0,.37-1.12,1.35,1.35,0,0,0-.25-.86A.93.93,0,0,0,188.83,55.3Zm-4.44,3.18.61-3.67h.63l.89,2.95.49-2.95h.45l-.6,3.67h-.6l-.91-3-.5,3Zm-.88-1.56-.23-1.55-.7,1.55Zm-2.14,1.56,1.71-3.67h.53l.63,3.67h-.47l-.18-1h-1.24l-.49,1Zm-2.15,0,.61-3.67h.79a1.18,1.18,0,0,1,.85.28,1.06,1.06,0,0,1,.3.81,1.26,1.26,0,0,1-.27.83,1.14,1.14,0,0,1-.76.38l.64,1.37h-.51l-.83-1.8h.07a2,2,0,0,0,.86-.13.75.75,0,0,0,.23-.27.73.73,0,0,0,.08-.36.57.57,0,0,0-.17-.45.64.64,0,0,0-.47-.16h-.2l-.24,0-.52,3.15Zm-.65-1.34h-1.43l.08-.46h1.91a2.34,2.34,0,0,1-.56,1.37,1.54,1.54,0,0,1-1.18.51,1.32,1.32,0,0,1-1.07-.46,1.87,1.87,0,0,1-.39-1.25,2.47,2.47,0,0,1,.13-.82,2,2,0,0,1,.36-.68,1.75,1.75,0,0,1,.56-.46,1.58,1.58,0,0,1,.69-.15,1.39,1.39,0,0,1,.94.32,1.77,1.77,0,0,1,.5,1h-.49a1.17,1.17,0,0,0-.34-.6,1,1,0,0,0-.6-.2,1.13,1.13,0,0,0-.92.46,1.83,1.83,0,0,0-.36,1.16,1.38,1.38,0,0,0,.27.9.9.9,0,0,0,.73.34,1.11,1.11,0,0,0,.71-.26A1.42,1.42,0,0,0,178.57,57.14Zm-7.69-.25A2.83,2.83,0,0,1,171,56a1.94,1.94,0,0,1,.39-.69,1.6,1.6,0,0,1,1.24-.56,1.3,1.3,0,0,1,1,.45,1.85,1.85,0,0,1,.39,1.23,3.13,3.13,0,0,1-.08.7,2.28,2.28,0,0,1-.24.6,1.73,1.73,0,0,1-.61.62,1.55,1.55,0,0,1-.82.22,1.32,1.32,0,0,1-1.05-.45A1.81,1.81,0,0,1,170.88,56.89Zm.47,0a1.36,1.36,0,0,0,.27.88.9.9,0,0,0,.73.33,1.1,1.1,0,0,0,.91-.46,1.9,1.9,0,0,0,.35-1.18,1.35,1.35,0,0,0-.27-.89.88.88,0,0,0-.72-.33,1.1,1.1,0,0,0-.91.46A1.87,1.87,0,0,0,171.35,56.87Zm-1.62,1.61.6-3.67h.46l-.6,3.67Zm-2.59,0,.61-3.67h.79a1.18,1.18,0,0,1,.85.28,1.06,1.06,0,0,1,.3.81,1.26,1.26,0,0,1-.27.83,1.14,1.14,0,0,1-.76.38l.64,1.37h-.51l-.84-1.8H168a1.91,1.91,0,0,0,.85-.13.78.78,0,0,0,.24-.27.86.86,0,0,0,.08-.36.61.61,0,0,0-.17-.45.64.64,0,0,0-.47-.16h-.2l-.24,0-.52,3.15Zm-4.54-1.59a2.84,2.84,0,0,1,.13-.9,1.94,1.94,0,0,1,.39-.69,1.5,1.5,0,0,1,.56-.42,1.53,1.53,0,0,1,.68-.14,1.3,1.3,0,0,1,1,.45,1.85,1.85,0,0,1,.39,1.23,3.13,3.13,0,0,1-.08.7,2.28,2.28,0,0,1-.24.6,1.73,1.73,0,0,1-.61.62,1.55,1.55,0,0,1-.82.22,1.32,1.32,0,0,1-1-.45A1.81,1.81,0,0,1,162.6,56.89Zm.46,0a1.36,1.36,0,0,0,.27.88.92.92,0,0,0,.73.33,1.1,1.1,0,0,0,.91-.46,1.84,1.84,0,0,0,.36-1.18,1.35,1.35,0,0,0-.27-.89.9.9,0,0,0-.73-.33,1.1,1.1,0,0,0-.91.46A1.87,1.87,0,0,0,163.06,56.87Zm-3.6,1.61.6-3.67h.82a1.36,1.36,0,0,1,1.07.42,1.71,1.71,0,0,1,.38,1.18,2.23,2.23,0,0,1-.49,1.51,1.66,1.66,0,0,1-1.3.56Zm1.42-3.18h-.45L160,58h.55a1.2,1.2,0,0,0,1-.42,1.67,1.67,0,0,0,.36-1.12,1.3,1.3,0,0,0-.25-.86A.91.91,0,0,0,160.88,55.3Z"/><path class="cls-2" d="M178.71,35A2.17,2.17,0,0,0,177.64,33a4.48,4.48,0,0,0-2.68-.86h-5.33l-.71,6.08h5.41a5.35,5.35,0,0,0,3-.83A3.16,3.16,0,0,0,178.71,35m6.71,17.46h-8.55l.23-7.2a3.56,3.56,0,0,0-.47-1.36,3.76,3.76,0,0,0-1.24-1c-.8,0-2.13,0-4-.07s-2.87-.08-3-.08l-1.13,9.76h-8l2.9-25h16.55a10.62,10.62,0,0,1,5.86,1.58,5,5,0,0,1,2.56,5.06,5.87,5.87,0,0,1-2,3.8A9.78,9.78,0,0,1,181,40l0,.3a8.07,8.07,0,0,1,1.9.45c1.95.72,2.37,1.94,2.56,4l0,7.09,2.83-24.39h11.38L208.56,44l1.92-16.55H218l-2.91,25H204.19l-9.4-16.93-2,16.93ZM139,41.4q-.67,5.73-3.72,8.44-3.66,3.24-11.5,3.24t-10.87-2.94q-2.7-2.7-2-8.74l1.62-13.93h8L118.89,41.4a7,7,0,0,0,1,5.08A4.81,4.81,0,0,0,124,48.31a6.62,6.62,0,0,0,4.47-1.58A7.9,7.9,0,0,0,131,41.4l1.62-13.93h8Z"/></g></g></svg>